<svg width="40" height="40" viewBox="0 0 40 40" fill="none" xmlns="http://www.w3.org/2000/svg">
<path d="M38.7813 22.6167C34.5791 16.1823 35.0257 9.58672 33.0002 6.48561C30.9746 3.3845 24.938 -1.96217 10.6746 7.3545C-3.58869 16.6712 0.0390832 26.7989 2.26797 30.2089C12.6991 46.1778 46.2246 34.0123 38.7813 22.6167Z" fill="#EFEFEF"/>
<path d="M7.5 14.7222V9.72222C7.5 8.49445 8.49444 7.5 9.72222 7.5H30.2778C31.5056 7.5 32.5 8.49445 32.5 9.72222V14.7222C32.5 15.95 31.5056 16.9445 30.2778 16.9445H9.72222C8.49444 16.9445 7.5 15.95 7.5 14.7222Z" fill="#79C330"/>
<path d="M10 14.7222V9.72222C10 8.49445 10.9944 7.5 12.2222 7.5H9.72222C8.49445 7.5 7.5 8.49445 7.5 9.72222V14.7222C7.5 15.95 8.49445 16.9445 9.72222 16.9445H12.2222C10.9944 16.9445 10 15.95 10 14.7222Z" fill="#39961E"/>
<path d="M24.4436 28.0552L19.9991 32.4996L15.5547 28.0552H24.4436Z" fill="#F3F3F1"/>
<path d="M35.278 8.33333C34.3591 8.33333 33.6113 7.58555 33.6113 6.66666C33.6113 5.74778 34.3591 5 35.278 5C36.1969 5 36.9447 5.74778 36.9447 6.66666C36.9447 7.58555 36.1969 8.33333 35.278 8.33333ZM35.278 6.11111C34.9724 6.11111 34.7224 6.36111 34.7224 6.66666C34.7224 6.97222 34.9724 7.22222 35.278 7.22222C35.5836 7.22222 35.8336 6.97222 35.8336 6.66666C35.8336 6.36111 35.5836 6.11111 35.278 6.11111Z" fill="#A4AFC1"/>
<path d="M4.43555 29.2788L5.22122 28.4931L6.79257 30.0645L6.00689 30.8502L4.43555 29.2788Z" fill="#A4AFC1"/>
<path d="M8.95703 33.7856L9.7427 33L11.314 34.5713L10.5284 35.357L8.95703 33.7856Z" fill="#A4AFC1"/>
<path d="M4.23828 34.582L5.80963 33.0107L6.5953 33.7964L5.02396 35.3677L4.23828 34.582Z" fill="#A4AFC1"/>
<path d="M8.75488 30.0654L10.3262 28.4941L11.1119 29.2798L9.54056 30.8511L8.75488 30.0654Z" fill="#A4AFC1"/>
<path d="M30.2781 17.7776H9.72255C8.03699 17.7776 6.66699 16.4076 6.66699 14.7221V9.72206C6.66699 8.0365 8.03699 6.6665 9.72255 6.6665H30.2781C31.9637 6.6665 33.3337 8.0365 33.3337 9.72206V14.7221C33.3337 16.4076 31.9637 17.7776 30.2781 17.7776ZM9.72255 8.33317C8.95699 8.33317 8.33366 8.9565 8.33366 9.72206V14.7221C8.33366 15.4876 8.95699 16.1109 9.72255 16.1109H30.2781C31.0437 16.1109 31.667 15.4876 31.667 14.7221V9.72206C31.667 8.9565 31.0437 8.33317 30.2781 8.33317H9.72255Z" fill="#2C2F33"/>
<path d="M19.167 20.8335H20.8336V28.0557H19.167V20.8335Z" fill="#2C2F33"/>
<path d="M20.001 33.3338C19.7877 33.3338 19.5743 33.2526 19.4121 33.0893L14.9677 28.6449C14.7288 28.406 14.6588 28.0482 14.7866 27.7371C14.9154 27.426 15.2199 27.2227 15.5566 27.2227H24.4455C24.7832 27.2227 25.0866 27.426 25.2155 27.7371C25.3433 28.0482 25.2733 28.4071 25.0344 28.6449L20.5899 33.0893C20.4277 33.2526 20.2143 33.3338 20.001 33.3338ZM17.5688 28.8893L20.001 31.3215L22.4332 28.8893H17.5688Z" fill="#2C2F33"/>
</svg>
