<svg width="48" height="27" viewBox="0 0 48 27" fill="none" xmlns="http://www.w3.org/2000/svg">
<rect x="2" y="2" width="44" height="25" fill="#4DA2D6"/>
<path d="M42.0741 32H5.33333C2.3917 32 0 29.6083 0 26.6667V5.33333C0 2.3917 2.3917 0 5.33333 0H42.0741C45.0157 0 47.4074 2.3917 47.4074 5.33333V26.6667C47.4074 29.6083 45.0157 32 42.0741 32ZM5.33333 3.55556C4.352 3.55556 3.55556 4.352 3.55556 5.33333V26.6667C3.55556 27.648 4.352 28.4444 5.33333 28.4444H42.0741C43.0554 28.4444 43.8519 27.648 43.8519 26.6667V5.33333C43.8519 4.352 43.0554 3.55556 42.0741 3.55556H5.33333Z" fill="#59B0E4"/>
<path d="M23.7034 23.1111C19.7828 23.1111 16.5923 19.9206 16.5923 16C16.5923 12.0794 19.7828 8.88885 23.7034 8.88885C27.624 8.88885 30.8145 12.0794 30.8145 16C30.8145 19.9206 27.624 23.1111 23.7034 23.1111ZM23.7034 12.4444C21.7431 12.4444 20.1478 14.0397 20.1478 16C20.1478 17.9603 21.7431 19.5555 23.7034 19.5555C25.6637 19.5555 27.2589 17.9603 27.2589 16C27.2589 14.0397 25.6637 12.4444 23.7034 12.4444Z" fill="#59B0E4"/>
<path d="M8.88867 7.11115H12.4442V10.6667H8.88867V7.11115Z" fill="#59B0E4"/>
<path d="M34.9629 21.3333H38.5184V24.8889H34.9629V21.3333Z" fill="#59B0E4"/>
</svg>
