<svg width="64" height="64" viewBox="0 0 64 64" fill="none" xmlns="http://www.w3.org/2000/svg">
<path d="M48.7414 6.95823C36.448 7.18756 27.8845 0.976006 21.9609 1.08801C16.0374 1.20001 3.65693 4.83734 4.16716 32.0925C4.67738 59.3476 21.4898 63.0329 28.0072 62.912C58.5192 62.3413 70.5156 6.55112 48.7414 6.95823Z" fill="#EFEFEF"/>
<path d="M13.9913 41.1218L41.5433 48.5049C42.9655 48.8853 44.4286 48.0427 44.8091 46.6187L49.1131 30.5564C49.4935 29.1342 48.6509 27.6711 47.2269 27.2907L19.6731 19.9076C18.2508 19.5271 16.7877 20.3698 16.4073 21.7938L12.1033 37.856C11.7246 39.2782 12.5673 40.7413 13.9913 41.1218Z" fill="#79C330"/>
<path d="M17.9912 42.0107C16.569 41.6302 15.7246 40.1671 16.105 38.7449L20.409 22.6827C20.7059 21.5787 21.6534 20.8302 22.729 20.7271L19.6748 19.9093C18.2526 19.5289 16.7894 20.3716 16.409 21.7956L12.105 37.8578C11.7246 39.28 12.5672 40.7431 13.9912 41.1235L41.545 48.5067C41.8632 48.592 42.1814 48.608 42.4908 48.5778L17.9912 42.0107Z" fill="#39961E"/>
<path d="M21.778 36.8889H49.3336C50.8056 36.8889 52.0002 35.6942 52.0002 34.2222V18.2222C52.0002 16.7502 50.8056 15.5556 49.3336 15.5556H21.778C20.306 15.5556 19.1113 16.7502 19.1113 18.2222V34.2222C19.1113 35.6942 20.306 36.8889 21.778 36.8889Z" fill="#F3F3F1"/>
<path d="M21.778 36.8889H49.3336C50.8056 36.8889 52.0002 35.6942 52.0002 34.2222V18.2222C52.0002 16.7502 50.8056 15.5556 49.3336 15.5556H21.778C20.306 15.5556 19.1113 16.7502 19.1113 18.2222V34.2222C19.1113 35.6942 20.306 36.8889 21.778 36.8889Z" fill="#79C330"/>
<path d="M23.1113 34.2222V18.2222C23.1113 16.7502 24.306 15.5556 25.778 15.5556H21.778C20.306 15.5556 19.1113 16.7502 19.1113 18.2222V34.2222C19.1113 35.6942 20.306 36.8889 21.778 36.8889H25.778C24.306 36.8889 23.1113 35.6942 23.1113 34.2222Z" fill="#39961E"/>
<path d="M35.5557 30.2222C37.7648 30.2222 39.5557 28.4314 39.5557 26.2222C39.5557 24.0131 37.7648 22.2222 35.5557 22.2222C33.3465 22.2222 31.5557 24.0131 31.5557 26.2222C31.5557 28.4314 33.3465 30.2222 35.5557 30.2222Z" fill="#F3F3F1"/>
<path d="M14 52.4445H17.5556V54.2222H14V52.4445Z" fill="#A4AFC1"/>
<path d="M3.77783 52.4445H7.33339V54.2222H3.77783V52.4445Z" fill="#A4AFC1"/>
<path d="M10 46.2222H11.7778V49.7778H10V46.2222Z" fill="#A4AFC1"/>
<path d="M10 56.4445H11.7778V60H10V56.4445Z" fill="#A4AFC1"/>
<path d="M51.5558 11.2587C50.0856 11.2587 48.8892 10.0622 48.8892 8.592C48.8892 7.12178 50.0856 5.92533 51.5558 5.92533C53.0261 5.92533 54.2225 7.12178 54.2225 8.592C54.2225 10.0622 53.0261 11.2587 51.5558 11.2587ZM51.5558 7.70311C51.0652 7.70311 50.6669 8.10133 50.6669 8.592C50.6669 9.08266 51.0652 9.48089 51.5558 9.48089C52.0465 9.48089 52.4447 9.08266 52.4447 8.592C52.4447 8.10133 52.0465 7.70311 51.5558 7.70311Z" fill="#A4AFC1"/>
<path d="M49.3334 38.2222H21.7778C19.5716 38.2222 17.7778 36.4285 17.7778 34.2222V18.2222C17.7778 16.016 19.5716 14.2222 21.7778 14.2222H49.3334C51.5396 14.2222 53.3334 16.016 53.3334 18.2222V34.2222C53.3334 36.4285 51.5396 38.2222 49.3334 38.2222ZM21.7778 16.8889C21.0418 16.8889 20.4445 17.4862 20.4445 18.2222V34.2222C20.4445 34.9582 21.0418 35.5556 21.7778 35.5556H49.3334C50.0694 35.5556 50.6667 34.9582 50.6667 34.2222V18.2222C50.6667 17.4862 50.0694 16.8889 49.3334 16.8889H21.7778Z" fill="#2C2F33"/>
<path d="M42.1384 49.7778C41.8024 49.7778 41.4593 49.7351 41.118 49.6462L13.6282 42.2844C11.5073 41.6996 10.2433 39.5058 10.798 37.3867L13.8895 25.8613L16.4655 26.5529L13.3758 38.0711C13.1909 38.7769 13.6158 39.5147 14.3269 39.7102L41.8024 47.0684C42.142 47.1591 42.5029 47.1093 42.8104 46.9333C43.1144 46.7573 43.3313 46.4729 43.4202 46.1333L44.4495 42.32L47.0238 43.0151L45.9962 46.8196C45.5322 48.5956 43.9109 49.7778 42.1384 49.7778Z" fill="#2C2F33"/>
<path d="M35.5555 31.5556C32.6151 31.5556 30.2222 29.1627 30.2222 26.2222C30.2222 23.2818 32.6151 20.8889 35.5555 20.8889C38.4959 20.8889 40.8888 23.2818 40.8888 26.2222C40.8888 29.1627 38.4959 31.5556 35.5555 31.5556ZM35.5555 23.5556C34.0853 23.5556 32.8888 24.752 32.8888 26.2222C32.8888 27.6924 34.0853 28.8889 35.5555 28.8889C37.0257 28.8889 38.2222 27.6924 38.2222 26.2222C38.2222 24.752 37.0257 23.5556 35.5555 23.5556Z" fill="#2C2F33"/>
<path d="M24.4443 19.5556H27.111V22.2222H24.4443V19.5556Z" fill="#2C2F33"/>
<path d="M44 30.2222H46.6667V32.8889H44V30.2222Z" fill="#2C2F33"/>
</svg>
