<svg width="64" height="64" viewBox="0 0 64 64" fill="none" xmlns="http://www.w3.org/2000/svg">
<path d="M7.40786 49.1076C7.40786 36.8107 1.03809 28.3663 1.03809 22.4409C1.03809 16.5156 4.44431 4.07117 31.703 4.07117C58.9616 4.07117 62.9616 20.8125 62.9616 27.3298C62.9634 57.8489 7.40786 70.8854 7.40786 49.1076Z" fill="#EFEFEF"/>
<path d="M6.22233 10.6667C4.75211 10.6667 3.55566 9.47026 3.55566 8.00004C3.55566 6.52982 4.75211 5.33337 6.22233 5.33337C7.69255 5.33337 8.88899 6.52982 8.88899 8.00004C8.88899 9.47026 7.69255 10.6667 6.22233 10.6667ZM6.22233 7.11115C5.73344 7.11115 5.33344 7.50937 5.33344 8.00004C5.33344 8.49071 5.73344 8.88893 6.22233 8.88893C6.71122 8.88893 7.11122 8.49071 7.11122 8.00004C7.11122 7.50937 6.71122 7.11115 6.22233 7.11115Z" fill="#A4AFC1"/>
<path d="M52 15.5556V39.5556C52 41.5111 50.4 43.1111 48.4444 43.1111H28L19.1111 52V43.1111H15.5556C13.6 43.1111 12 41.5111 12 39.5556V15.5556C12 13.6 13.6 12 15.5556 12H48.4444C50.4 12 52 13.6 52 15.5556Z" fill="#F3F3F1"/>
<path d="M16 39.5556V15.5556C16 13.6 17.6 12 19.5556 12H15.5556C13.6 12 12 13.6 12 15.5556V39.5556C12 41.5111 13.6 43.1111 15.5556 43.1111H19.1111C19.1111 43.1111 16 41.5111 16 39.5556Z" fill="#D5DBE1"/>
<path d="M19.1109 53.3333C18.9385 53.3333 18.7661 53.2995 18.6007 53.232C18.1029 53.0257 17.7776 52.5386 17.7776 52V44.4444H15.5554C12.8585 44.4444 10.6665 42.2524 10.6665 39.5555V15.5555C10.6665 12.8586 12.8585 10.6666 15.5554 10.6666H48.4443C51.1412 10.6666 53.3332 12.8586 53.3332 15.5555V39.5555C53.3332 42.2524 51.1412 44.4444 48.4443 44.4444H28.5527L20.0549 52.9422C19.7989 53.1982 19.4576 53.3333 19.1109 53.3333ZM15.5554 13.3333C14.3305 13.3333 13.3332 14.3306 13.3332 15.5555V39.5555C13.3332 40.7804 14.3305 41.7777 15.5554 41.7777H19.1109C19.8469 41.7777 20.4443 42.3751 20.4443 43.1111V48.7804L27.0576 42.1671C27.3083 41.9164 27.6461 41.776 27.9998 41.776H48.4443C49.6692 41.776 50.6665 40.7786 50.6665 39.5537V15.5555C50.6665 14.3306 49.6692 13.3333 48.4443 13.3333H15.5554Z" fill="#2C2F33"/>
<path d="M19.1113 22.2916C18.1299 22.2916 17.3335 23.0881 17.3335 24.0694V28.5138C17.3335 29.4952 18.1299 30.2916 19.1113 30.2916H44.889C45.8704 30.2916 46.6668 29.4952 46.6668 28.5138V24.0694C46.6668 23.0881 45.8704 22.2916 44.889 22.2916H19.1113Z" fill="#79C330"/>
<path d="M21.3335 28.5138V24.0694C21.3335 23.0881 22.1299 22.2916 23.1113 22.2916H19.1113C18.1299 22.2916 17.3335 23.0881 17.3335 24.0694V28.5138C17.3335 29.4952 18.1299 30.2916 19.1113 30.2916H23.1113C22.1299 30.2916 21.3335 29.4952 21.3335 28.5138Z" fill="#39961E"/>
<path d="M44.8891 31.625H31.1113V28.9584H44.8891C45.1344 28.9584 45.3336 28.7593 45.3336 28.5139V24.0695C45.3336 23.8242 45.1344 23.625 44.8891 23.625H31.1113V20.9584H44.8891C46.6047 20.9584 48.0002 22.3539 48.0002 24.0695V28.5139C48.0002 30.2295 46.6047 31.625 44.8891 31.625Z" fill="#2C2F33"/>
<path d="M23.1111 31.625H19.1111C17.3956 31.625 16 30.2295 16 28.5139V24.0695C16 22.3539 17.3956 20.9584 19.1111 20.9584H23.1111V23.625H19.1111C18.8658 23.625 18.6667 23.8242 18.6667 24.0695V28.5139C18.6667 28.7593 18.8658 28.9584 19.1111 28.9584H23.1111V31.625Z" fill="#2C2F33"/>
<path d="M28.4446 23.1806H25.7779V18.7361C25.7779 18.4908 25.5788 18.2917 25.3335 18.2917H21.3335V15.625H25.3335C27.0491 15.625 28.4446 17.0206 28.4446 18.7361V23.1806Z" fill="#2C2F33"/>
<path d="M25.3335 36.9584H21.3335V34.2917H25.3335C25.5788 34.2917 25.7779 34.0926 25.7779 33.8473V29.4028H28.4446V33.8473C28.4446 35.5628 27.0491 36.9584 25.3335 36.9584Z" fill="#2C2F33"/>
<path d="M32.8889 36.9583H28.8889C27.1734 36.9583 25.7778 35.5628 25.7778 33.8472V18.7361C25.7778 17.0206 27.1734 15.625 28.8889 15.625H32.8889V18.2917H28.8889C28.6436 18.2917 28.4445 18.4908 28.4445 18.7361V33.8472C28.4445 34.0925 28.6436 34.2917 28.8889 34.2917H32.8889V36.9583Z" fill="#2C2F33"/>
</svg>
