<svg width="100" height="100" viewBox="0 0 100 100" fill="none" xmlns="http://www.w3.org/2000/svg">
<path d="M9.56069 66.3416C26.3968 75.5999 33.1635 90.6777 41.2746 95.1388C49.3885 99.5999 68.9912 104.303 89.5135 66.9805C110.036 29.6583 90.1273 11.5777 81.2023 6.66935C39.419 -16.3029 -20.256 49.9471 9.56069 66.3416Z" fill="#EFEFEF"/>
<path d="M16.6667 45.139C14.3694 45.139 12.5 43.2695 12.5 40.9723C12.5 38.6751 14.3694 36.8057 16.6667 36.8057C18.9639 36.8057 20.8333 38.6751 20.8333 40.9723C20.8333 43.2695 18.9639 45.139 16.6667 45.139ZM16.6667 39.5834C15.9 39.5834 15.2778 40.2084 15.2778 40.9723C15.2778 41.7362 15.9 42.3612 16.6667 42.3612C17.4333 42.3612 18.0556 41.7362 18.0556 40.9723C18.0556 40.2084 17.4333 39.5834 16.6667 39.5834Z" fill="#A4AFC1"/>
<path d="M61.8047 69.7585H67.3602V72.5363H61.8047V69.7585Z" fill="#A4AFC1"/>
<path d="M77.7773 69.7585H83.3329V72.5363H77.7773V69.7585Z" fill="#A4AFC1"/>
<path d="M70.832 76.7029H73.6098V82.2584H70.832V76.7029Z" fill="#A4AFC1"/>
<path d="M70.832 60.7307H73.6098V66.2863H70.832V60.7307Z" fill="#A4AFC1"/>
<path d="M40.8864 76.1584L20.3198 58.5306C19.1559 57.5334 19.0198 55.7778 20.017 54.6139L25.4392 48.2862C26.4364 47.1223 28.192 46.9862 29.3559 47.9834L41.3086 58.2278L69.2809 24.1862C70.2559 23 72.0059 22.8306 73.1892 23.8028L79.6281 29.0917C80.8142 30.0667 80.9837 31.8167 80.0114 33.0028L44.842 75.8139C43.8531 77.0167 42.0698 77.1723 40.8864 76.1584Z" fill="#79C330"/>
<path d="M47.5651 58.2279L74.7818 25.1057L73.1957 23.8057C72.0095 22.8307 70.2595 23.0029 69.2873 24.189L43.8984 55.0862L47.5651 58.2279Z" fill="#39961E"/>
<path d="M26.5726 58.5307C25.4087 57.5335 25.2726 55.7779 26.2699 54.614L30.8532 49.264L29.3587 47.9835C28.1949 46.9863 26.4393 47.1196 25.4421 48.2863L20.0199 54.614C19.0226 55.7779 19.156 57.5335 20.3226 58.5307L40.8893 76.1585C42.0699 77.1724 43.856 77.0168 44.8421 75.814L45.6254 74.8613L26.5726 58.5307Z" fill="#39961E"/>
<path d="M42.6871 78.9112C41.5287 78.9112 40.4232 78.5028 39.5315 77.7417C39.5315 77.739 39.5315 77.739 39.5315 77.739L18.9676 60.1112C17.9843 59.2667 17.3843 58.0862 17.2843 56.7945C17.1843 55.4973 17.5954 54.2417 18.4426 53.2584L23.8648 46.9306C25.6121 44.8973 28.6871 44.664 30.7176 46.4056L41.0565 55.264L67.676 22.8612C69.3815 20.7945 72.451 20.489 74.5176 22.1945L80.9565 27.4834C83.0287 29.1834 83.3287 32.2556 81.6287 34.3279L46.4537 77.139C45.6176 78.1556 44.4343 78.7778 43.1232 78.8945C42.9759 78.9028 42.8315 78.9112 42.6871 78.9112ZM42.2454 74.5778C42.4371 74.7445 42.6509 74.7501 42.7593 74.7417C42.8676 74.7334 43.0732 74.6862 43.2343 74.4917L78.4093 31.6834C78.6537 31.389 78.6093 30.9473 78.3121 30.7029L71.8732 25.414C71.5787 25.1723 71.1371 25.214 70.8954 25.5112L42.9232 59.5528C42.5676 59.9834 42.0537 60.2556 41.4954 60.3056C40.9287 60.3612 40.3843 60.1751 39.9565 59.8112L28.0037 49.5667C27.7148 49.3167 27.2732 49.3528 27.0232 49.6417L21.6009 55.9695C21.4371 56.1584 21.4287 56.3695 21.4343 56.4751C21.4426 56.5834 21.4871 56.7862 21.6732 56.9501L42.2454 74.5778Z" fill="#2C2F33"/>
</svg>
