<svg width="64" height="64" viewBox="0 0 64 64" fill="none" xmlns="http://www.w3.org/2000/svg">
<path d="M62.0519 36.1867C55.3283 25.8916 56.043 15.3387 52.8021 10.3769C49.5612 5.41512 39.9025 -3.13955 17.0812 11.7671C-5.74015 26.6738 0.064291 42.8782 3.63051 48.3342C20.3203 73.8845 73.9612 54.4196 62.0519 36.1867Z" fill="#EFEFEF"/>
<path d="M48.4444 19.1111H15.5556C13.6 19.1111 12 20.7111 12 22.6667V41.3333C12 43.2889 13.6 44.8889 15.5556 44.8889H28H36H48.4444C50.4 44.8889 52 43.2889 52 41.3333V22.6667C52 20.7111 50.4 19.1111 48.4444 19.1111Z" fill="#79C330"/>
<path d="M16 41.3333V22.6667C16 20.7111 17.6 19.1111 19.5556 19.1111H15.5556C13.6 19.1111 12 20.7111 12 22.6667V41.3333C12 43.2889 13.6 44.8889 15.5556 44.8889H19.5556C17.6 44.8889 16 43.2889 16 41.3333Z" fill="#39961E"/>
<path d="M34.2222 48.4445H29.7778C28.7964 48.4445 28 47.648 28 46.6667V17.3333C28 16.352 28.7964 15.5556 29.7778 15.5556H34.2222C35.2036 15.5556 36 16.352 36 17.3333V46.6667C36 47.648 35.2036 48.4445 34.2222 48.4445Z" fill="#F3F3F1"/>
<path d="M32 46.6667V17.3333C32 16.352 32.7964 15.5556 33.7778 15.5556H29.7778C28.7964 15.5556 28 16.352 28 17.3333V46.6667C28 47.648 28.7964 48.4445 29.7778 48.4445H33.7778C32.7964 48.4445 32 47.648 32 46.6667Z" fill="#D5DBE1"/>
<path d="M7.10059 8.20317L8.35766 6.9461L10.8718 9.46025L9.61474 10.7173L7.10059 8.20317Z" fill="#A4AFC1"/>
<path d="M6.78516 16.6864L9.29931 14.1722L10.5564 15.4293L8.04224 17.9435L6.78516 16.6864Z" fill="#A4AFC1"/>
<path d="M14.0137 9.46091L16.5278 6.94675L17.7849 8.20383L15.2708 10.718L14.0137 9.46091Z" fill="#A4AFC1"/>
<path d="M55.111 56C53.6408 56 52.4443 54.8036 52.4443 53.3333C52.4443 51.8631 53.6408 50.6667 55.111 50.6667C56.5812 50.6667 57.7777 51.8631 57.7777 53.3333C57.7777 54.8036 56.5812 56 55.111 56ZM55.111 52.4445C54.6203 52.4445 54.2221 52.8427 54.2221 53.3333C54.2221 53.824 54.6203 54.2222 55.111 54.2222C55.6017 54.2222 55.9999 53.824 55.9999 53.3333C55.9999 52.8427 55.6017 52.4445 55.111 52.4445Z" fill="#A4AFC1"/>
<path d="M48.4444 46.2222H36V43.5556H48.4444C49.6693 43.5556 50.6667 42.5582 50.6667 41.3333V22.6667C50.6667 21.4418 49.6693 20.4444 48.4444 20.4444H36V17.7778H48.4444C51.1413 17.7778 53.3333 19.9698 53.3333 22.6667V41.3333C53.3333 44.0302 51.1413 46.2222 48.4444 46.2222Z" fill="#2C2F33"/>
<path d="M27.9998 46.2222H15.5554C12.8585 46.2222 10.6665 44.0302 10.6665 41.3333V22.6667C10.6665 19.9698 12.8585 17.7778 15.5554 17.7778H27.9998V20.4444H15.5554C14.3305 20.4444 13.3332 21.4418 13.3332 22.6667V41.3333C13.3332 42.5582 14.3305 43.5556 15.5554 43.5556H27.9998V46.2222Z" fill="#2C2F33"/>
<path d="M34.2221 49.7778H29.7776C28.0621 49.7778 26.6665 48.3822 26.6665 46.6667V17.3333C26.6665 15.6178 28.0621 14.2222 29.7776 14.2222H34.2221C35.9376 14.2222 37.3332 15.6178 37.3332 17.3333V46.6667C37.3332 48.3822 35.9376 49.7778 34.2221 49.7778ZM29.7776 16.8889C29.5323 16.8889 29.3332 17.088 29.3332 17.3333V46.6667C29.3332 46.912 29.5323 47.1111 29.7776 47.1111H34.2221C34.4674 47.1111 34.6665 46.912 34.6665 46.6667V17.3333C34.6665 17.088 34.4674 16.8889 34.2221 16.8889H29.7776Z" fill="#2C2F33"/>
<path d="M17.333 23.1111H21.7775V25.7778H17.333V23.1111Z" fill="#2C2F33"/>
<path d="M42.2222 38.2222H46.6666V40.8889H42.2222V38.2222Z" fill="#2C2F33"/>
</svg>
