<svg width="100" height="100" viewBox="0 0 100 100" fill="none" xmlns="http://www.w3.org/2000/svg">
<path d="M96.9552 56.542C86.4497 40.4559 87.5663 23.967 82.5024 16.2143C77.4386 8.46149 62.3469 -4.90517 26.6886 18.3865C-8.96978 41.6782 0.0996612 66.9976 5.67188 75.5226C31.7497 115.445 115.564 85.0309 96.9552 56.542Z" fill="#EFEFEF"/>
<path d="M8.31836 10.0391L10.2825 8.07488L14.2109 12.0032L12.2467 13.9674L8.31836 10.0391Z" fill="#A4AFC1"/>
<path d="M7.8252 23.2969L11.7536 19.3685L13.7178 21.3327L9.78938 25.2611L7.8252 23.2969Z" fill="#A4AFC1"/>
<path d="M19.1182 12.002L23.0465 8.07358L25.0107 10.0378L21.0824 13.9661L19.1182 12.002Z" fill="#A4AFC1"/>
<path d="M89.5827 17.9642C87.2855 17.9642 85.416 16.0947 85.416 13.7975C85.416 11.5003 87.2855 9.63086 89.5827 9.63086C91.8799 9.63086 93.7494 11.5003 93.7494 13.7975C93.7494 16.0947 91.8799 17.9642 89.5827 17.9642ZM89.5827 12.4086C88.8188 12.4086 88.1938 13.0336 88.1938 13.7975C88.1938 14.5614 88.8188 15.1864 89.5827 15.1864C90.3466 15.1864 90.9716 14.5614 90.9716 13.7975C90.9716 13.0336 90.3466 12.4086 89.5827 12.4086Z" fill="#A4AFC1"/>
<path d="M81.25 75.6944C81.25 78.7639 78.7639 81.25 75.6944 81.25H24.3056C21.2361 81.25 18.75 78.7639 18.75 75.6944V24.3056C18.75 21.2361 21.2361 18.75 24.3056 18.75H75.6944C78.7639 18.75 81.25 21.2361 81.25 24.3056V75.6944Z" fill="#F3F3F1"/>
<path d="M29.7695 67.2734L67.2641 29.7789L70.2099 32.7247L32.7154 70.2193L29.7695 67.2734Z" fill="#FF9F43"/>
<path d="M30.1025 33.0586L33.0484 30.1128L70.2091 67.2735L67.2633 70.2193L30.1025 33.0586Z" fill="#FF9F43"/>
</svg>
