<svg width="80" height="80" viewBox="0 0 80 80" fill="none" xmlns="http://www.w3.org/2000/svg">
<path d="M61.3844 70.74C46.0133 70.74 35.4578 78.7022 28.0511 78.7022C20.6444 78.7022 5.08887 74.4444 5.08887 40.3711C5.08887 6.29777 26.0155 1.29555 34.1622 1.29555C72.3111 1.29555 88.6066 70.74 61.3844 70.74Z" fill="white"/>
<path d="M67.7767 53.3333C65.9389 53.3333 64.4434 51.8378 64.4434 50C64.4434 48.1622 65.9389 46.6667 67.7767 46.6667C69.6145 46.6667 71.11 48.1622 71.11 50C71.11 51.8378 69.6145 53.3333 67.7767 53.3333ZM67.7767 48.8889C67.1656 48.8889 66.6656 49.3867 66.6656 50C66.6656 50.6133 67.1656 51.1111 67.7767 51.1111C68.3878 51.1111 68.8878 50.6133 68.8878 50C68.8878 49.3867 68.3878 48.8889 67.7767 48.8889Z" fill="#A4AFC1"/>
<path d="M2.40625 12.4697L3.9776 10.8983L7.1203 14.041L5.54895 15.6124L2.40625 12.4697Z" fill="#A4AFC1"/>
<path d="M2.01172 23.0781L5.15442 19.9354L6.72576 21.5068L3.58307 24.6495L2.01172 23.0781Z" fill="#A4AFC1"/>
<path d="M11.0479 14.0463L14.1905 10.9036L15.7619 12.475L12.6192 15.6177L11.0479 14.0463Z" fill="#A4AFC1"/>
<path d="M19.4443 30.5556H53.8888V53.8889H19.4443V30.5556Z" fill="#F3F3F1"/>
<path d="M63.75 54.1743C63.75 56.2603 62.0288 57.9688 59.926 57.9688H17.8864C15.7837 57.9688 14.0625 56.2603 14.0625 54.1743C14.0625 53.4552 14.2533 52.7718 14.6349 52.2036L35.6547 18.0697C36.3066 16.9692 37.5309 16.25 38.9062 16.25C40.2816 16.25 41.5059 16.9692 42.1538 18.0697L63.1736 52.2036C63.5592 52.7718 63.75 53.4552 63.75 54.1743Z" fill="#FF9F43"/>
<path d="M22.9767 54.1743C22.9767 53.4552 23.1669 52.7718 23.5472 52.2036L43.2812 20.0563L42.061 18.0697C41.4152 16.9692 40.195 16.25 38.8242 16.25C37.4533 16.25 36.2331 16.9692 35.5873 18.0697L14.633 52.2036C14.2527 52.7718 14.0625 53.4552 14.0625 54.1743C14.0625 56.2603 15.778 57.9688 17.8738 57.9688H26.788C24.6922 57.9688 22.9767 56.2603 22.9767 54.1743Z" fill="#ED8C1C"/>
<path d="M59.9166 60.9375H17.8959C14.1452 60.9375 11.0938 57.8994 11.0938 54.1663C11.0938 52.8399 11.4672 51.581 12.1745 50.5286L33.1173 16.5139C34.2854 14.5402 36.5104 13.2812 38.9062 13.2812C41.3021 13.2812 43.5271 14.5402 44.723 16.5656L65.7016 50.6358C66.3453 51.585 66.7188 52.8399 66.7188 54.1663C66.7188 57.8994 63.6673 60.9375 59.9166 60.9375ZM38.9062 19.2383C38.5566 19.2383 38.3222 19.4289 38.2268 19.5917L17.0536 54.1663C17.0536 54.6072 17.439 54.9805 17.8959 54.9805H59.9166C60.3735 54.9805 60.7589 54.6072 60.7589 54.1663C60.7589 54.0353 60.7351 53.9201 60.6914 53.8566L39.6135 19.6354C39.4903 19.4289 39.2559 19.2383 38.9062 19.2383Z" fill="#2C2F33"/>
<path d="M35.9375 29.2188H41.875V43.125H35.9375V29.2188Z" fill="#2C2F33"/>
<path d="M38.9062 52.9688C40.5458 52.9688 41.875 51.6396 41.875 50C41.875 48.3604 40.5458 47.0312 38.9062 47.0312C37.2667 47.0312 35.9375 48.3604 35.9375 50C35.9375 51.6396 37.2667 52.9688 38.9062 52.9688Z" fill="#2C2F33"/>
</svg>
