<svg width="80" height="80" viewBox="0 0 80 80" fill="none" xmlns="http://www.w3.org/2000/svg">
<path d="M61.3844 70.7394C46.0133 70.7394 35.4578 78.7016 28.0511 78.7016C20.6444 78.7016 5.08887 74.4438 5.08887 40.3705C5.08887 6.29714 26.0155 1.29492 34.1622 1.29492C72.3111 1.29492 88.6066 70.7394 61.3844 70.7394Z" fill="#EFEFEF"/>
<path d="M67.7786 53.3337C65.9409 53.3337 64.4453 51.8381 64.4453 50.0003C64.4453 48.1625 65.9409 46.667 67.7786 46.667C69.6164 46.667 71.112 48.1625 71.112 50.0003C71.112 51.8381 69.6164 53.3337 67.7786 53.3337ZM67.7786 48.8892C67.1675 48.8892 66.6675 49.387 66.6675 50.0003C66.6675 50.6137 67.1675 51.1114 67.7786 51.1114C68.3898 51.1114 68.8898 50.6137 68.8898 50.0003C68.8898 49.387 68.3898 48.8892 67.7786 48.8892Z" fill="#A4AFC1"/>
<path d="M2.40625 12.4697L3.9776 10.8984L7.1203 14.0411L5.54895 15.6124L2.40625 12.4697Z" fill="#A4AFC1"/>
<path d="M2.0127 23.0781L5.15539 19.9354L6.72674 21.5068L3.58404 24.6495L2.0127 23.0781Z" fill="#A4AFC1"/>
<path d="M11.0488 14.0459L14.1915 10.9032L15.7629 12.4745L12.6202 15.6172L11.0488 14.0459Z" fill="#A4AFC1"/>
<path d="M19.4443 30.5547H53.8888V53.888H19.4443V30.5547Z" fill="#F3F3F1"/>
<path d="M63.75 54.1743C63.75 56.2603 62.0288 57.9688 59.926 57.9688H17.8864C15.7837 57.9688 14.0625 56.2603 14.0625 54.1743C14.0625 53.4552 14.2533 52.7718 14.6349 52.2036L35.6547 18.0697C36.3066 16.9692 37.5309 16.25 38.9062 16.25C40.2816 16.25 41.5059 16.9692 42.1538 18.0697L63.1736 52.2036C63.5592 52.7718 63.75 53.4552 63.75 54.1743Z" fill="#FF543E"/>
<path d="M22.9767 54.1743C22.9767 53.4552 23.1669 52.7718 23.5472 52.2036L43.2812 20.0563L42.061 18.0697C41.4152 16.9692 40.195 16.25 38.8242 16.25C37.4533 16.25 36.2331 16.9692 35.5873 18.0697L14.633 52.2036C14.2527 52.7718 14.0625 53.4552 14.0625 54.1743C14.0625 56.2603 15.778 57.9688 17.8738 57.9688H26.788C24.6922 57.9688 22.9767 56.2603 22.9767 54.1743Z" fill="#E63026"/>
<path d="M59.9166 60.9375H17.8959C14.1452 60.9375 11.0938 57.8994 11.0938 54.1663C11.0938 52.8399 11.4672 51.581 12.1745 50.5286L33.1173 16.5139C34.2854 14.5402 36.5104 13.2812 38.9062 13.2812C41.3021 13.2812 43.5271 14.5402 44.723 16.5656L65.7016 50.6358C66.3453 51.585 66.7188 52.8399 66.7188 54.1663C66.7188 57.8994 63.6673 60.9375 59.9166 60.9375ZM38.9062 19.2383C38.5566 19.2383 38.3222 19.4289 38.2268 19.5917L17.0536 54.1663C17.0536 54.6072 17.439 54.9805 17.8959 54.9805H59.9166C60.3735 54.9805 60.7589 54.6072 60.7589 54.1663C60.7589 54.0353 60.7351 53.9201 60.6914 53.8566L39.6135 19.6354C39.4903 19.4289 39.2559 19.2383 38.9062 19.2383Z" fill="#2C2F33"/>
<path d="M35.9375 29.2188H41.875V43.125H35.9375V29.2188Z" fill="#2C2F33"/>
<path d="M38.9062 52.9688C40.5458 52.9688 41.875 51.6396 41.875 50C41.875 48.3604 40.5458 47.0312 38.9062 47.0312C37.2667 47.0312 35.9375 48.3604 35.9375 50C35.9375 51.6396 37.2667 52.9688 38.9062 52.9688Z" fill="#2C2F33"/>
</svg>
