<svg width="64" height="64" viewBox="0 0 64 64" fill="none" xmlns="http://www.w3.org/2000/svg">
<path d="M56.592 49.1076C56.592 36.8107 62.9618 28.3662 62.9618 22.4409C62.9618 16.5156 59.5556 4.07112 32.2969 4.07112C5.03822 4.07112 1.03645 20.8125 1.03645 27.3298C1.03645 57.8489 56.592 70.8853 56.592 49.1076Z" fill="#EFEFEF"/>
<path d="M6.22222 10.6667C4.752 10.6667 3.55556 9.47023 3.55556 8.00001C3.55556 6.52979 4.752 5.33334 6.22222 5.33334C7.69244 5.33334 8.88889 6.52979 8.88889 8.00001C8.88889 9.47023 7.69244 10.6667 6.22222 10.6667ZM6.22222 7.11112C5.73156 7.11112 5.33333 7.50934 5.33333 8.00001C5.33333 8.49067 5.73156 8.8889 6.22222 8.8889C6.71289 8.8889 7.11111 8.49067 7.11111 8.00001C7.11111 7.50934 6.71289 7.11112 6.22222 7.11112Z" fill="#A4AFC1"/>
<path d="M16.8889 15.1111H13.3333C12.3556 15.1289 11.5556 15.9111 11.5556 16.8889V38.2222C11.5556 39.2 12.3556 40 13.3333 40H30.2222H47.1111C48.0925 40 48.8889 39.2036 48.8889 38.2222V16.8889C48.8889 15.9111 48.0889 15.1111 47.1111 15.1111H43.5556H16.8889Z" fill="#79C330"/>
<path d="M30.2222 40C26.5955 36.8356 22.8267 35.68 18.8978 36.1244C17.8311 36.2489 16.8889 35.4489 16.8889 34.3822V13.4933C16.8889 12.6044 17.5467 11.84 18.4356 11.7155C22.5067 11.1111 26.4533 12.2311 30.2222 15.52C33.9911 12.2311 37.9378 11.1111 42.0089 11.7155C42.8978 11.84 43.5555 12.6044 43.5555 13.4933V34.6667V36.4444C43.5555 36.4444 34.592 35.3333 30.2222 40Z" fill="#F3F3F1"/>
<path d="M41.7778 52.4445C47.6688 52.4445 52.4445 47.6688 52.4445 41.7778C52.4445 35.8867 47.6688 31.1111 41.7778 31.1111C35.8867 31.1111 31.1111 35.8867 31.1111 41.7778C31.1111 47.6688 35.8867 52.4445 41.7778 52.4445Z" fill="#F3F3F1"/>
<path d="M34.6667 41.7778C34.6667 36.4942 38.512 32.1191 43.5555 31.2711C42.976 31.1733 42.384 31.1111 41.7778 31.1111C35.8862 31.1111 31.1111 35.8862 31.1111 41.7778C31.1111 47.6693 35.8862 52.4445 41.7778 52.4445C42.384 52.4445 42.976 52.3822 43.5555 52.2845C38.512 51.4365 34.6667 47.0613 34.6667 41.7778Z" fill="#D5DBE1"/>
<path d="M15.1111 38.2222V16.8889C15.1111 15.9111 15.9111 15.1289 16.8889 15.1111H13.3333C12.3556 15.1289 11.5556 15.9111 11.5556 16.8889V38.2222C11.5556 39.2 12.3556 40 13.3333 40H16.8889C15.9111 40 15.1111 39.2 15.1111 38.2222Z" fill="#39961E"/>
<path d="M22.6667 36.1102C22.5955 36.1173 22.5244 36.1173 22.4533 36.1245C21.3867 36.2489 20.4444 35.4489 20.4444 34.3822V13.4933C20.4444 12.6045 21.1022 11.84 21.9911 11.7156C22.0729 11.7031 22.1529 11.7031 22.2347 11.6925C20.9813 11.5271 19.7155 11.5253 18.4356 11.7156C17.5467 11.84 16.8889 12.6045 16.8889 13.4933V34.3822C16.8889 35.4489 17.8311 36.2489 18.8978 36.1245C20.1707 35.9805 21.4258 36.0231 22.6667 36.2293V36.1102Z" fill="#D5DBE1"/>
<path d="M41.7778 53.3333C35.4062 53.3333 30.2222 48.1493 30.2222 41.7778C30.2222 35.4062 35.4062 30.2222 41.7778 30.2222C48.1493 30.2222 53.3333 35.4062 53.3333 41.7778C53.3333 48.1493 48.1493 53.3333 41.7778 53.3333ZM41.7778 32C36.3858 32 32 36.3858 32 41.7778C32 47.1698 36.3858 51.5556 41.7778 51.5556C47.1698 51.5556 51.5556 47.1698 51.5556 41.7778C51.5556 36.3858 47.1698 32 41.7778 32Z" fill="#2C2F33"/>
<path d="M41.7778 46.2222C41.2871 46.2222 40.8889 45.824 40.8889 45.3333V44.8658C40.8889 43.1591 41.7867 41.5218 43.3529 40.3751C44.0462 39.8667 44.4444 39.0809 44.4444 38.2222C44.4444 36.752 43.248 35.5556 41.7778 35.5556C40.3076 35.5556 39.1111 36.752 39.1111 38.2222C39.1111 38.7129 38.7129 39.1111 38.2222 39.1111C37.7316 39.1111 37.3333 38.7129 37.3333 38.2222C37.3333 35.7724 39.328 33.7778 41.7778 33.7778C44.2276 33.7778 46.2222 35.7724 46.2222 38.2222C46.2222 39.632 45.5431 40.9724 44.4036 41.8098C43.7547 42.2844 42.6667 43.312 42.6667 44.8658V45.3333C42.6667 45.824 42.2684 46.2222 41.7778 46.2222Z" fill="#2C2F33"/>
<path d="M41.7778 49.7778C42.2687 49.7778 42.6667 49.3798 42.6667 48.8889C42.6667 48.398 42.2687 48 41.7778 48C41.2869 48 40.8889 48.398 40.8889 48.8889C40.8889 49.3798 41.2869 49.7778 41.7778 49.7778Z" fill="#2C2F33"/>
<path d="M26.3804 38.3111C26.2489 38.3111 26.1156 38.2809 25.9876 38.2205C23.8044 37.1431 21.4507 36.7378 18.9938 37.008C18.224 37.1005 17.4542 36.8587 16.88 36.3449C16.3218 35.8471 16 35.1325 16 34.3822V13.4933C16 12.1636 16.9938 11.0205 18.3111 10.8356C22.5564 10.208 26.5636 11.3902 30.2222 14.3591C33.8809 11.3902 37.8827 10.208 42.1387 10.8373C43.4507 11.0205 44.4445 12.1636 44.4445 13.4933V25.7778C44.4445 26.2685 44.0462 26.6667 43.5556 26.6667C43.0649 26.6667 42.6667 26.2685 42.6667 25.7778V13.4933C42.6667 13.0453 42.3307 12.6578 41.8845 12.5956C37.8827 11.9982 34.2578 13.1787 30.8071 16.1902C30.4729 16.4818 29.9733 16.4818 29.6391 16.1902C26.1885 13.1787 22.5707 12 18.5671 12.5956C18.1138 12.6578 17.7778 13.0436 17.7778 13.4933V34.3822C17.7778 34.6293 17.8791 34.8551 18.0622 35.0169C18.2578 35.1893 18.5209 35.2693 18.7947 35.2409C21.5947 34.9298 24.2809 35.3956 26.7751 36.624C27.216 36.8409 27.3956 37.3742 27.1804 37.8151C27.024 38.128 26.7093 38.3111 26.3804 38.3111Z" fill="#2C2F33"/>
<path d="M48.8889 28.4445C48.3982 28.4445 48 28.0462 48 27.5556V16.8889C48 16.3982 47.6018 16 47.1111 16H43.5556C43.0649 16 42.6667 15.6018 42.6667 15.1111C42.6667 14.6205 43.0649 14.2222 43.5556 14.2222H47.1111C48.5813 14.2222 49.7778 15.4187 49.7778 16.8889V27.5556C49.7778 28.0462 49.3796 28.4445 48.8889 28.4445Z" fill="#2C2F33"/>
<path d="M25.7778 40.8889H13.3333C11.8631 40.8889 10.6667 39.6925 10.6667 38.2222V16.8889C10.6667 15.4453 11.856 14.2489 13.3173 14.2222H16.8889C17.3796 14.2222 17.7778 14.6205 17.7778 15.1111C17.7778 15.6018 17.3796 16 16.8889 16H13.3333C12.8516 16.0089 12.4444 16.4071 12.4444 16.8889V38.2222C12.4444 38.7129 12.8427 39.1111 13.3333 39.1111H25.7778C26.2684 39.1111 26.6667 39.5094 26.6667 40C26.6667 40.4907 26.2684 40.8889 25.7778 40.8889Z" fill="#2C2F33"/>
<path d="M30.2222 32C29.7316 32 29.3333 31.6018 29.3333 31.1111V15.1111C29.3333 14.6205 29.7316 14.2222 30.2222 14.2222C30.7129 14.2222 31.1111 14.6205 31.1111 15.1111V31.1111C31.1111 31.6018 30.7129 32 30.2222 32Z" fill="#2C2F33"/>
</svg>
