<svg xmlns="http://www.w3.org/2000/svg" width="118" height="104" viewBox="0 0 118 104">
  <g fill="none" fill-rule="evenodd">
    <g transform="translate(14)">
      <circle cx="52" cy="52" r="52" fill="#70CFFE"/>
      <g transform="translate(24.51 29.296)">
        <path fill="#FFFFFF" d="M51.4306465,37.7035573 L3.9363372,37.7035573 C1.42589455,37.7035573 -0.0436328516,35.6683538 0.670720747,33.1447014 L8.67148106,5.2624132 C9.38583466,2.75911287 12.0187379,0.703557312 14.5495907,0.703557312 L62.0439,0.703557312 C64.5543426,0.703557312 66.02387,2.73876083 65.3095164,5.2624132 L57.3087561,33.1447014 C56.5739924,35.6683538 53.9614992,37.7035573 51.4306465,37.7035573 Z"/>
        <path fill="#1F447B" d="M65.4901186,1.76446105 L32.8188857,20.7035573 L11.4901186,1.76446105 C12.455872,1.09648462 13.6065569,0.703557312 14.716146,0.703557312 L62.8805295,0.703557312 C64.0106665,0.703557312 64.9147761,1.09648462 65.4901186,1.76446105 Z"/>
      </g>
    </g>
    <g stroke-width="2" transform="translate(0 37)" stroke-linecap="round" stroke-linejoin="round">
      <path stroke="#FFFFFF" d="M37 1L6.46313703 1M32 6L1.46313703 6"/>
      <path stroke="#1F447B" d="M71 43L41 43M55 47L36 47"/>
    </g>
  </g>
</svg>
