<svg width="26" height="23" viewBox="0 0 26 23" fill="none" xmlns="http://www.w3.org/2000/svg">
<path d="M13.1314 17.7337H0.400836C0.294528 17.7337 0.192573 17.6915 0.117402 17.6163C0.0422308 17.5412 0 17.4392 0 17.3329V4.78072C0 4.67441 0.0422308 4.57246 0.117402 4.49729C0.192573 4.42211 0.294528 4.37988 0.400836 4.37988H2.27875C2.38506 4.37988 2.48701 4.42211 2.56219 4.49729C2.63736 4.57246 2.67959 4.67441 2.67959 4.78072C2.67959 4.88703 2.63736 4.98898 2.56219 5.06415C2.48701 5.13932 2.38506 5.18155 2.27875 5.18155H0.801672V16.9321H13.1314C13.2377 16.9321 13.3396 16.9743 13.4148 17.0495C13.49 17.1246 13.5322 17.2266 13.5322 17.3329C13.5322 17.4392 13.49 17.5412 13.4148 17.6163C13.3396 17.6915 13.2377 17.7337 13.1314 17.7337Z" fill="white"/>
<path d="M5.8488 16.1625H2.07894C1.97263 16.1625 1.87067 16.1203 1.7955 16.0451C1.72033 15.9699 1.6781 15.868 1.6781 15.7617C1.6781 15.6554 1.72033 15.5534 1.7955 15.4782C1.87067 15.4031 1.97263 15.3608 2.07894 15.3608H5.8488C5.95511 15.3608 6.05706 15.4031 6.13223 15.4782C6.2074 15.5534 6.24963 15.6554 6.24963 15.7617C6.24963 15.868 6.2074 15.9699 6.13223 16.0451C6.05706 16.1203 5.95511 16.1625 5.8488 16.1625Z" fill="white"/>
<path d="M13.1345 15.359C13.0999 15.3587 13.0656 15.354 13.0322 15.345L1.89101 12.4289C1.78816 12.402 1.70019 12.3354 1.64645 12.2437C1.5927 12.152 1.57758 12.0427 1.60441 11.9399L4.65077 0.29958C4.67762 0.196732 4.74422 0.108761 4.83593 0.0550153C4.92763 0.00126939 5.03693 -0.01385 5.13979 0.0129824L25.3559 5.30402C25.4588 5.33087 25.5468 5.39747 25.6005 5.48918C25.6543 5.58088 25.6694 5.69018 25.6425 5.79304L23.935 12.3146C23.9052 12.414 23.8382 12.4979 23.7479 12.5488C23.6576 12.5997 23.5511 12.6137 23.4507 12.5878C23.3503 12.5618 23.2639 12.498 23.2096 12.4097C23.1553 12.3214 23.1373 12.2155 23.1594 12.1142L24.7627 5.97942L5.32217 0.890813L2.48024 11.7555L13.2287 14.5693C13.322 14.5947 13.403 14.6529 13.4568 14.7333C13.5106 14.8137 13.5335 14.9108 13.5213 15.0068C13.5091 15.1027 13.4626 15.191 13.3904 15.2554C13.3182 15.3197 13.2252 15.3558 13.1284 15.357L13.1345 15.359Z" fill="white"/>
<path d="M8.53256 14.1544C8.4711 14.1546 8.41043 14.1406 8.35522 14.1136C8.30002 14.0866 8.25176 14.0473 8.21418 13.9987C8.1766 13.9501 8.1507 13.8934 8.13849 13.8332C8.12628 13.773 8.12807 13.7108 8.14374 13.6513L11.1881 2.02709C11.2178 1.92778 11.2849 1.84384 11.3752 1.79291C11.4655 1.74198 11.572 1.72802 11.6724 1.75396C11.7727 1.7799 11.8592 1.84371 11.9135 1.93201C11.9678 2.02031 11.9858 2.12622 11.9637 2.22751L8.91936 13.8518C8.89758 13.938 8.84776 14.0145 8.77774 14.0692C8.70771 14.124 8.62146 14.154 8.53256 14.1544Z" fill="white"/>
<path d="M20.4116 7.92546C20.3501 7.92565 20.2895 7.9117 20.2343 7.8847C20.179 7.85771 20.1308 7.81838 20.0932 7.76975C20.0556 7.72113 20.0297 7.66452 20.0175 7.60429C20.0053 7.54406 20.0071 7.48183 20.0228 7.42241L20.7824 4.51635C20.8121 4.41703 20.8791 4.3331 20.9694 4.28217C21.0597 4.23124 21.1663 4.21728 21.2666 4.24322C21.367 4.26915 21.4534 4.33297 21.5078 4.42127C21.5621 4.50957 21.5801 4.61548 21.558 4.71677L20.7984 7.62283C20.7766 7.70903 20.7268 7.78554 20.6568 7.84032C20.5867 7.89511 20.5005 7.92506 20.4116 7.92546Z" fill="white"/>
<path d="M9.72137 3.53038C9.68683 3.53013 9.65248 3.52541 9.61915 3.51635L8.03986 3.10349C7.98718 3.09199 7.93736 3.06999 7.89338 3.03879C7.84941 3.00759 7.81218 2.96783 7.78392 2.92191C7.75567 2.87598 7.73697 2.82483 7.72895 2.77151C7.72093 2.71819 7.72374 2.6638 7.73723 2.61159C7.75072 2.55938 7.77461 2.51044 7.80746 2.46768C7.84031 2.42492 7.88145 2.38922 7.92841 2.36274C7.97538 2.33625 8.0272 2.31951 8.08079 2.31352C8.13438 2.30753 8.18862 2.31241 8.24028 2.32787L9.82158 2.74274C9.91669 2.76656 9.99977 2.82443 10.0551 2.90538C10.1104 2.98633 10.1342 3.08475 10.1218 3.18202C10.1095 3.27929 10.0619 3.36867 9.98811 3.43323C9.91432 3.49779 9.81942 3.53307 9.72137 3.53238V3.53038Z" fill="white"/>
<path d="M7.41992 12.3068C7.38539 12.3066 7.35104 12.3018 7.31771 12.2928L3.82843 11.3789C3.77575 11.3674 3.72593 11.3454 3.68196 11.3142C3.63798 11.283 3.60075 11.2432 3.5725 11.1973C3.54424 11.1514 3.52554 11.1002 3.51752 11.0469C3.5095 10.9936 3.51232 10.9392 3.52581 10.887C3.5393 10.8348 3.56318 10.7858 3.59603 10.7431C3.62888 10.7003 3.67002 10.6646 3.71699 10.6381C3.76395 10.6116 3.81578 10.5949 3.86937 10.5889C3.92295 10.5829 3.9772 10.5878 4.02885 10.6033L7.52615 11.5192C7.62126 11.543 7.70434 11.6009 7.75967 11.6818C7.81499 11.7628 7.83873 11.8612 7.82639 11.9585C7.81404 12.0557 7.76647 12.1451 7.69268 12.2097C7.61889 12.2742 7.52399 12.3095 7.42594 12.3088L7.41992 12.3068Z" fill="white"/>
<path d="M14.7563 20.9267C14.65 20.9267 14.548 20.8845 14.4729 20.8093C14.3977 20.7342 14.3555 20.6322 14.3555 20.5259V10.4409C14.3555 10.3346 14.3977 10.2326 14.4729 10.1574C14.548 10.0823 14.65 10.04 14.7563 10.04C14.8626 10.04 14.9646 10.0823 15.0397 10.1574C15.1149 10.2326 15.1571 10.3346 15.1571 10.4409V20.5259C15.1571 20.6322 15.1149 20.7342 15.0397 20.8093C14.9646 20.8845 14.8626 20.9267 14.7563 20.9267Z" fill="white"/>
<path d="M22.1993 20.9267C22.093 20.9267 21.991 20.8845 21.9159 20.8093C21.8407 20.7342 21.7985 20.6322 21.7985 20.5259V10.4409C21.7985 10.3346 21.8407 10.2326 21.9159 10.1574C21.991 10.0823 22.093 10.04 22.1993 10.04C22.3056 10.04 22.4076 10.0823 22.4827 10.1574C22.5579 10.2326 22.6001 10.3346 22.6001 10.4409V20.5259C22.6001 20.6322 22.5579 20.7342 22.4827 20.8093C22.4076 20.8845 22.3056 20.9267 22.1993 20.9267Z" fill="white"/>
<path d="M18.4727 12.3068C16.1218 12.3068 14.3501 11.4329 14.3501 10.2725C14.3501 9.1121 16.1218 8.23828 18.4727 8.23828C20.8236 8.23828 22.5953 9.1121 22.5953 10.2785C22.5953 11.445 20.8236 12.3068 18.4727 12.3068ZM18.4727 9.03995C16.4465 9.03995 15.1518 9.76947 15.1518 10.2725C15.1518 10.7756 16.4445 11.5051 18.4727 11.5051C20.5009 11.5051 21.7936 10.7756 21.7936 10.2725C21.7936 9.76947 20.5009 9.03995 18.4727 9.03995Z" fill="white"/>
<path d="M18.4727 22.5601C16.1218 22.5601 14.3501 21.6863 14.3501 20.5258C14.3501 20.4195 14.3923 20.3176 14.4675 20.2424C14.5427 20.1672 14.6446 20.125 14.7509 20.125C14.8572 20.125 14.9592 20.1672 15.0344 20.2424C15.1095 20.3176 15.1518 20.4195 15.1518 20.5258C15.1518 21.0289 16.4445 21.7584 18.4727 21.7584C20.5009 21.7584 21.7936 21.0289 21.7936 20.5258C21.7936 20.4195 21.8359 20.3176 21.911 20.2424C21.9862 20.1672 22.0881 20.125 22.1945 20.125C22.3008 20.125 22.4027 20.1672 22.4779 20.2424C22.5531 20.3176 22.5953 20.4195 22.5953 20.5258C22.5953 21.6863 20.8236 22.5601 18.4727 22.5601Z" fill="white"/>
<path d="M18.4727 14.3369C16.1218 14.3369 14.3501 13.4631 14.3501 12.3027C14.3501 12.1964 14.3923 12.0944 14.4675 12.0193C14.5427 11.9441 14.6446 11.9019 14.7509 11.9019C14.8572 11.9019 14.9592 11.9441 15.0344 12.0193C15.1095 12.0944 15.1518 12.1964 15.1518 12.3027C15.1518 12.8057 16.4445 13.5353 18.4727 13.5353C20.5009 13.5353 21.7936 12.8057 21.7936 12.3027C21.7936 12.1964 21.8359 12.0944 21.911 12.0193C21.9862 11.9441 22.0881 11.9019 22.1945 11.9019C22.3008 11.9019 22.4027 11.9441 22.4779 12.0193C22.5531 12.0944 22.5953 12.1964 22.5953 12.3027C22.5953 13.4631 20.8236 14.3369 18.4727 14.3369Z" fill="white"/>
<path d="M18.4727 20.4995C16.1218 20.4995 14.3501 19.6257 14.3501 18.4653C14.3501 18.359 14.3923 18.257 14.4675 18.1819C14.5427 18.1067 14.6446 18.0645 14.7509 18.0645C14.8572 18.0645 14.9592 18.1067 15.0344 18.1819C15.1095 18.257 15.1518 18.359 15.1518 18.4653C15.1518 18.9683 16.4445 19.6979 18.4727 19.6979C20.5009 19.6979 21.7936 18.9683 21.7936 18.4653C21.7936 18.359 21.8359 18.257 21.911 18.1819C21.9862 18.1067 22.0881 18.0645 22.1945 18.0645C22.3008 18.0645 22.4027 18.1067 22.4779 18.1819C22.5531 18.257 22.5953 18.359 22.5953 18.4653C22.5953 19.6297 20.8236 20.4995 18.4727 20.4995Z" fill="white"/>
<path d="M18.4727 18.4492C16.1218 18.4492 14.3501 17.5754 14.3501 16.415C14.3501 16.3087 14.3923 16.2067 14.4675 16.1316C14.5427 16.0564 14.6446 16.0142 14.7509 16.0142C14.8572 16.0142 14.9592 16.0564 15.0344 16.1316C15.1095 16.2067 15.1518 16.3087 15.1518 16.415C15.1518 16.918 16.4445 17.6476 18.4727 17.6476C20.5009 17.6476 21.7936 16.918 21.7936 16.415C21.7936 16.3087 21.8359 16.2067 21.911 16.1316C21.9862 16.0564 22.0881 16.0142 22.1945 16.0142C22.3008 16.0142 22.4027 16.0564 22.4779 16.1316C22.5531 16.2067 22.5953 16.3087 22.5953 16.415C22.5953 17.5734 20.8236 18.4492 18.4727 18.4492Z" fill="white"/>
<path d="M18.4727 16.3931C16.1218 16.3931 14.3501 15.5193 14.3501 14.3588C14.3501 14.2525 14.3923 14.1506 14.4675 14.0754C14.5427 14.0002 14.6446 13.958 14.7509 13.958C14.8572 13.958 14.9592 14.0002 15.0344 14.0754C15.1095 14.1506 15.1518 14.2525 15.1518 14.3588C15.1518 14.8619 16.4445 15.5914 18.4727 15.5914C20.5009 15.5914 21.7936 14.8619 21.7936 14.3588C21.7936 14.2525 21.8359 14.1506 21.911 14.0754C21.9862 14.0002 22.0881 13.958 22.1945 13.958C22.3008 13.958 22.4027 14.0002 22.4779 14.0754C22.5531 14.1506 22.5953 14.2525 22.5953 14.3588C22.5953 15.5193 20.8236 16.3931 18.4727 16.3931Z" fill="white"/>
</svg>
