<svg xmlns="http://www.w3.org/2000/svg" width="12" height="12" fill="none" viewBox="0 0 12 12"><defs/><path fill="#A1CDEA" d="M1.3848 7.9772l-.3536-.3536-.1464.1465v.2071h.5zm6.5934-6.5934l.3535-.3536a.5.5 0 00-.707 0l.3535.3536zm2.6373 2.6373l.3536.3536a.5.5 0 000-.7071l-.3536.3535zm-6.5934 6.5935v.5h.2071l.1465-.1465-.3536-.3535zm-2.6373 0h-.5a.5.5 0 00.5.5v-.5zm.3535-2.2838l6.5934-6.5935-.707-.707-6.5935 6.5933.7071.7072zm5.8863-6.5935l2.6374 2.6374.7071-.7071-2.6374-2.6374-.707.7071zm2.6374 1.9303L3.6686 10.261l.707.7071 6.5935-6.5934-.7071-.7071zm-6.2399 6.447H1.3848v1H4.022v-1zm-2.1373.5V7.9772h-1v2.6374h1z"/></svg>