<svg width="30" height="28" viewBox="0 0 30 28" fill="none" xmlns="http://www.w3.org/2000/svg">
<path d="M0.878906 28H9.84826C10.3337 28 10.7272 27.6065 10.7272 27.1211V26.1419C10.7272 24.11 9.59145 22.3384 7.92152 21.4285C8.51461 20.7989 8.87924 19.9517 8.87924 19.0205C8.87924 17.082 7.30213 15.5049 5.36361 15.5049C3.4251 15.5049 1.84799 17.082 1.84799 19.0205C1.84799 19.9517 2.21262 20.7989 2.8057 21.4285C1.13572 22.3384 0 24.11 0 26.1419V27.1211C0 27.6065 0.393516 28 0.878906 28ZM3.6058 19.0205C3.6058 18.0512 4.39436 17.2627 5.36361 17.2627C6.33287 17.2627 7.12143 18.0512 7.12143 19.0205C7.12143 19.9898 6.33287 20.7783 5.36361 20.7783C4.39436 20.7783 3.6058 19.9898 3.6058 19.0205ZM5.36361 22.5361C7.24664 22.5361 8.96936 24.0123 8.96936 26.2422H1.75781C1.75781 24.0239 3.47051 22.5361 5.36361 22.5361Z" fill="#4DA2D6"/>
<path d="M27.1949 21.4285C27.788 20.7989 28.1526 19.9517 28.1526 19.0205C28.1526 17.082 26.5755 15.5049 24.637 15.5049C22.6985 15.5049 21.1214 17.082 21.1214 19.0205C21.1214 19.9517 21.486 20.7989 22.0791 21.4285C20.4092 22.3384 19.2734 24.11 19.2734 26.1419V27.1211C19.2734 27.6065 19.667 28 20.1523 28H29.1216C29.607 28 30.0005 27.6065 30.0005 27.1211V26.1419C30.0005 24.11 28.8648 22.3384 27.1949 21.4285ZM22.8791 19.0205C22.8791 18.0512 23.6677 17.2627 24.6369 17.2627C25.6062 17.2627 26.3947 18.0512 26.3947 19.0205C26.3947 19.9898 25.6062 20.7783 24.6369 20.7783C23.6677 20.7783 22.8791 19.9898 22.8791 19.0205ZM28.2427 26.2422H21.0312C21.0312 24.0239 22.7439 22.5361 24.6369 22.5361C26.5199 22.5361 28.2427 24.0121 28.2427 26.2422Z" fill="#79C330"/>
<path d="M18.5515 20.2102C17.4032 20.5874 16.1924 20.7786 14.9528 20.7786C13.7566 20.7786 12.5853 20.5999 11.4713 20.2476C11.0084 20.1014 10.5146 20.3578 10.3683 20.8206C10.2219 21.2833 10.4785 21.7772 10.9412 21.9236C12.2268 22.3302 13.5765 22.5363 14.9527 22.5363C16.3791 22.5363 17.7744 22.3156 19.1001 21.8802C19.5613 21.7287 19.8123 21.232 19.6608 20.7709C19.5093 20.3097 19.0127 20.0586 18.5515 20.2102Z" fill="#79C330"/>
<path d="M6.89861 5.28418C5.92794 6.21986 5.10277 7.30759 4.44599 8.51726C3.76536 9.77087 3.29357 11.1025 3.04372 12.4751C2.94581 13.0131 3.3586 13.5115 3.90944 13.5115C4.32593 13.5115 4.69589 13.2142 4.77312 12.7899C4.98956 11.6009 5.39925 10.4455 5.99075 9.35602C6.56163 8.30468 7.27747 7.3605 8.11853 6.5498C8.46798 6.21294 8.47823 5.65654 8.14138 5.30703C7.80446 4.95757 7.24812 4.94732 6.89861 5.28418Z" fill="#79C330"/>
<path d="M23.1022 5.2842C22.7527 4.94728 22.1962 4.9576 21.8594 5.30705C21.5225 5.65656 21.5327 6.21297 21.8822 6.54982C22.7233 7.36053 23.4392 8.30465 24.01 9.35605C24.6016 10.4456 25.0112 11.601 25.2277 12.7899C25.3145 13.267 25.7715 13.5842 26.2497 13.4972C26.7273 13.4103 27.0439 12.9527 26.9571 12.4752C26.7072 11.1025 26.2354 9.7709 25.5548 8.51728C24.898 7.30762 24.0728 6.21982 23.1022 5.2842Z" fill="#79C330"/>
<path d="M18.3453 4.5309V3.3459H15.6603V0.420898H14.3553V3.3459H11.6553V4.5309H14.3553V7.5759H15.6603V4.5309H18.3453Z" fill="#79C330"/>
</svg>
