<svg width="72" height="94" viewBox="0 0 72 94" fill="none" xmlns="http://www.w3.org/2000/svg">
<path d="M63.7425 5.11572H18.2395C17.4789 5.11572 16.8625 5.73223 16.8625 6.49267C16.8625 7.25311 17.4789 7.86962 18.2395 7.86962H63.7427C64.5033 7.86962 65.1196 7.25311 65.1196 6.49267C65.1196 5.73223 64.5031 5.11572 63.7425 5.11572Z" fill="#C5DCFF"/>
<path d="M27.8077 51.6866C27.8077 49.89 26.3461 48.4282 24.5495 48.4282H10.9252C9.12852 48.4282 7.66675 49.8898 7.66675 51.6866V62.3419C7.66675 64.1385 9.12852 65.6003 10.9252 65.6003H24.5495C26.3461 65.6003 27.8077 64.1387 27.8077 62.3419V51.6866ZM25.0538 62.3419C25.0538 62.62 24.8276 62.8464 24.5495 62.8464H10.9252C10.6468 62.8464 10.4207 62.6202 10.4207 62.3419V51.6866C10.4207 51.4085 10.6468 51.1821 10.9252 51.1821H24.5495C24.8276 51.1821 25.0538 51.4083 25.0538 51.6866V62.3419Z" fill="#C5DCFF"/>
<path d="M24.5495 69.0381H10.9252C9.12852 69.0381 7.66675 70.4999 7.66675 72.2965V82.9517C7.66675 84.7484 9.12852 86.2102 10.9252 86.2102H24.5495C26.3461 86.2102 27.8077 84.7484 27.8077 82.9517V72.2965C27.8077 70.4997 26.3461 69.0381 24.5495 69.0381ZM25.0538 82.9516C25.0538 83.2297 24.8276 83.4561 24.5495 83.4561H10.9252C10.6468 83.4561 10.4207 83.2297 10.4207 82.9516V72.2963C10.4207 72.0182 10.6468 71.7918 10.9252 71.7918H24.5495C24.8276 71.7918 25.0538 72.0182 25.0538 72.2963V82.9516Z" fill="#C5DCFF"/>
<path d="M61.6502 50.2031H32.9045C32.1439 50.2031 31.5276 50.8196 31.5276 51.5801C31.5276 52.3405 32.1439 52.957 32.9045 52.957H61.6502C62.4108 52.957 63.0271 52.3405 63.0271 51.5801C63.0271 50.8196 62.4106 50.2031 61.6502 50.2031Z" fill="#C5DCFF"/>
<path d="M61.6502 55.6372H32.9045C32.1439 55.6372 31.5276 56.2537 31.5276 57.0142C31.5276 57.7746 32.1439 58.3911 32.9045 58.3911H61.6502C62.4108 58.3911 63.0271 57.7746 63.0271 57.0142C63.0271 56.2537 62.4106 55.6372 61.6502 55.6372Z" fill="#C5DCFF"/>
<path d="M61.6502 61.0718H32.9045C32.1439 61.0718 31.5276 61.6883 31.5276 62.4487C31.5276 63.2092 32.1439 63.8257 32.9045 63.8257H61.6502C62.4108 63.8257 63.0271 63.2092 63.0271 62.4487C63.0271 61.6883 62.4106 61.0718 61.6502 61.0718Z" fill="#C5DCFF"/>
<path d="M61.6502 70.813H32.9045C32.1439 70.813 31.5276 71.4295 31.5276 72.1899C31.5276 72.9504 32.1439 73.5669 32.9045 73.5669H61.6502C62.4108 73.5669 63.0271 72.9504 63.0271 72.1899C63.0271 71.4295 62.4106 70.813 61.6502 70.813Z" fill="#C5DCFF"/>
<path d="M61.6502 76.2476H32.9045C32.1439 76.2476 31.5276 76.8641 31.5276 77.6245C31.5276 78.385 32.1439 79.0015 32.9045 79.0015H61.6502C62.4108 79.0015 63.0271 78.385 63.0271 77.6245C63.0271 76.8641 62.4106 76.2476 61.6502 76.2476Z" fill="#C5DCFF"/>
<path d="M61.6502 81.6816H32.9045C32.1439 81.6816 31.5276 82.2981 31.5276 83.0586C31.5276 83.819 32.1439 84.4355 32.9045 84.4355H61.6502C62.4108 84.4355 63.0271 83.819 63.0271 83.0586C63.0271 82.2981 62.4106 81.6816 61.6502 81.6816Z" fill="#C5DCFF"/>
<path d="M36.0001 44.2596C43.8474 44.2596 50.1979 37.8636 50.1979 30.0618C50.1979 23.5838 45.8221 17.9304 39.557 16.3135C38.8201 16.1237 38.0693 16.5665 37.8797 17.3027C37.6897 18.0391 38.1325 18.79 38.8689 18.98C43.9177 20.283 47.444 24.8398 47.444 30.0616C47.444 32.3703 46.7546 34.5198 45.5739 36.3197V36.2869C45.5739 33.5829 43.6045 31.3317 41.0252 30.8885C41.681 29.9199 42.0643 28.7524 42.0643 27.4971C42.0643 24.1532 39.3438 21.4325 35.9999 21.4325C32.6557 21.4325 29.9352 24.153 29.9352 27.4971C29.9352 28.7524 30.3186 29.9199 30.9744 30.8885C28.395 31.3319 26.4256 33.5831 26.4256 36.2869V36.3197C25.2451 34.5198 24.5555 32.3703 24.5555 30.0616C24.5555 24.8398 28.0818 20.2828 33.1308 18.98C33.8672 18.79 34.3101 18.0391 34.12 17.3027C33.9302 16.5665 33.1788 16.1235 32.4427 16.3135C26.1774 17.9304 21.8016 23.5838 21.8016 30.0618C21.802 37.843 28.1253 44.2596 36.0001 44.2596ZM36.0001 24.1868C37.8255 24.1868 39.3106 25.6719 39.3106 27.4975C39.3106 29.3232 37.8255 30.8083 36.0001 30.8083C34.1746 30.8083 32.6893 29.3232 32.6893 27.4975C32.6893 25.6719 34.1746 24.1868 36.0001 24.1868ZM29.1799 36.2871C29.1799 34.7844 30.4025 33.562 31.9052 33.562H40.0951C41.5978 33.562 42.8202 34.7845 42.8202 36.2871V39.2453C40.7766 40.7669 38.3534 41.5057 36.0002 41.5057C33.642 41.5057 31.2174 40.7623 29.1801 39.2453V36.2871H29.1799Z" fill="#C5DCFF"/>
<path d="M0.0412598 4.90671V89.0933C0.0412598 91.7989 2.24236 94 4.94797 94H67.0522C69.7578 94 71.9591 91.7989 71.9591 89.0933V50.2129C71.9591 49.4524 71.3427 48.8359 70.5821 48.8359C69.8215 48.8359 69.2052 49.4524 69.2052 50.2129V89.0933C69.2052 90.2804 68.2393 91.2461 67.0522 91.2461H4.94778C3.76067 91.2461 2.79497 90.2804 2.79497 89.0933V12.9848H69.2048V43.7871C69.2048 44.5476 69.8211 45.1641 70.5817 45.1641C71.3424 45.1641 71.9587 44.5476 71.9587 43.7871V4.90671C71.9587 2.2011 69.7576 0 67.052 0H4.94778C2.24236 0 0.0412598 2.2011 0.0412598 4.90671ZM12.8992 2.7539H67.052C68.2391 2.7539 69.205 3.71959 69.205 4.90671V10.2309H12.8992V2.7539ZM10.1453 10.2309H2.79516V4.90671C2.79516 3.71959 3.76067 2.7539 4.94778 2.7539H10.1453V10.2309Z" fill="#C5DCFF"/>
</svg>
