<svg width="64" height="56" viewBox="0 0 64 56" fill="none" xmlns="http://www.w3.org/2000/svg">
<path d="M0 50C0 51.75 0.5 53.125 1.75 54.25C2.875 55.5 4.25 56 6 56H22C23.625 56 25 55.5 26.25 54.25C27.375 53.125 28 51.75 28 50V34C28 32.375 27.375 31 26.25 29.75C25 28.625 23.625 28 22 28H13C13 19.25 17.25 13.25 26 10C26.5 9.875 27 9.5 27.375 9C27.75 8.5 28 7.875 28 7.25V3C28 2 27.5 1.25 26.75 0.625C26 0.125 25.125 -0.125 24.25 0.125C16.25 2.375 10.125 6.375 6 12.25C2 18 0 25.25 0 34V50ZM42 56C40.25 56 38.875 55.5 37.75 54.25C36.5 53.125 36 51.75 36 50V34C36 25.25 38 18 42 12.25C46.125 6.375 52.25 2.375 60.25 0.125C61.125 -0.125 62 0.125 62.75 0.625C63.5 1.25 64 2 64 3V7.25C64 7.875 63.75 8.5 63.375 9C63 9.5 62.5 9.875 62 10C53.25 13.25 49 19.25 49 28H58C59.625 28 61 28.625 62.25 29.75C63.375 31 64 32.375 64 34V50C64 51.75 63.375 53.125 62.25 54.25C61 55.5 59.625 56 58 56H42Z" fill="#D0EDFF"/>
</svg>
