<svg width="64" height="64" viewBox="0 0 64 64" fill="none" xmlns="http://www.w3.org/2000/svg">
<path d="M14.4249 9.97514C11.216 21.8454 2.86224 28.3342 1.31557 34.0551C-0.231095 39.776 -0.190208 52.6774 26.1245 59.792C52.4391 66.9067 60.6702 51.7902 62.3698 45.4969C70.336 16.0374 20.1085 -11.0471 14.4249 9.97514Z" fill="#EFEFEF"/>
<path d="M48.4444 12H15.5556C13.6 12 12 13.6 12 15.5556V23.5556C12 25.5111 13.6 27.1111 15.5556 27.1111H17.3333H46.6667H48.4444C50.4 27.1111 52 25.5111 52 23.5556V15.5556C52 13.6 50.4 12 48.4444 12Z" fill="#F3F3F1"/>
<path d="M16 23.5556V15.5556C16 13.6 17.6 12 19.5556 12H15.5556C13.6 12 12 13.6 12 15.5556V23.5556C12 25.5111 13.6 27.1111 15.5556 27.1111H17.3333H19.5556C17.6 27.1111 16 25.5111 16 23.5556Z" fill="#D5DBE1"/>
<path d="M46.6668 52V20.8889H17.3335V52L22.6668 47.5556L27.5557 52L32.0002 47.5556L36.4446 52L41.3335 47.5556L46.6668 52Z" fill="#79C330"/>
<path d="M21.3335 20.8889H17.3335V52L21.3335 48.6667V20.8889Z" fill="#39961E"/>
<path d="M45.2397 57.4174L47.7539 54.9032L49.011 56.1603L46.4968 58.6744L45.2397 57.4174Z" fill="#A4AFC1"/>
<path d="M52.4683 50.1901L54.9824 47.6759L56.2395 48.933L53.7253 51.4471L52.4683 50.1901Z" fill="#A4AFC1"/>
<path d="M52.4653 56.476L53.7224 55.2189L56.2366 57.733L54.9795 58.9901L52.4653 56.476Z" fill="#A4AFC1"/>
<path d="M8.67399 54.6667C7.20377 54.6667 6.00732 53.4703 6.00732 52C6.00732 50.5298 7.20377 49.3334 8.67399 49.3334C10.1442 49.3334 11.3407 50.5298 11.3407 52C11.3407 53.4703 10.1442 54.6667 8.67399 54.6667ZM8.67399 51.1112C8.18332 51.1112 7.7851 51.5094 7.7851 52C7.7851 52.4907 8.18332 52.8889 8.67399 52.8889C9.16466 52.8889 9.56288 52.4907 9.56288 52C9.56288 51.5094 9.16466 51.1112 8.67399 51.1112Z" fill="#A4AFC1"/>
<path d="M48.4443 28.4444H46.6665V25.7777H48.4443C49.6692 25.7777 50.6665 24.7804 50.6665 23.5555V15.5555C50.6665 14.3306 49.6692 13.3333 48.4443 13.3333H15.5554C14.3287 13.3333 13.3332 14.3306 13.3332 15.5555V23.5555C13.3332 24.7804 14.3305 25.7777 15.5554 25.7777H17.3332V28.4444H15.5554C12.8585 28.4444 10.6665 26.2524 10.6665 23.5555V15.5555C10.6665 12.8604 12.8585 10.6666 15.5554 10.6666H48.4443C51.1394 10.6666 53.3332 12.8604 53.3332 15.5555V23.5555C53.3332 26.2524 51.1394 28.4444 48.4443 28.4444Z" fill="#2C2F33"/>
<path d="M46.6667 53.3333C46.3609 53.3333 46.0569 53.2284 45.8133 53.024L41.3707 49.3227L37.3404 52.9867C36.8142 53.4631 36.0036 53.4435 35.5004 52.9422L32 49.4418L28.4978 52.944C27.9947 53.4471 27.184 53.4684 26.6578 52.9884L22.6276 49.3244L18.1849 53.0258C17.7884 53.3564 17.232 53.4275 16.7662 53.2089C16.2987 52.9884 16 52.5173 16 52V20.8889C16 20.1529 16.5973 19.5555 17.3333 19.5555H46.6667C47.4027 19.5555 48 20.1529 48 20.8889V52C48 52.5173 47.7013 52.9884 47.232 53.2071C47.0524 53.2924 46.8587 53.3333 46.6667 53.3333ZM32 46.2222C32.3413 46.2222 32.6827 46.352 32.9422 46.6133L36.4871 50.1582L40.4356 46.5689C40.9262 46.1227 41.6747 46.1049 42.1849 46.5315L45.3316 49.1538V22.2222H18.6649V49.1538L21.8116 46.5315C22.3218 46.1067 23.0702 46.1244 23.5609 46.5689L27.5093 50.1582L31.0542 46.6133C31.3173 46.352 31.6587 46.2222 32 46.2222Z" fill="#2C2F33"/>
<path d="M28.0638 30.328V41H33.1038C35.3918 41 36.6398 39.448 36.6398 37.608C36.6398 35.768 35.3758 34.216 33.1038 34.216H30.3358V32.328H35.8558V30.328H28.0638ZM32.7998 36.216C33.6798 36.216 34.3198 36.744 34.3198 37.608C34.3198 38.456 33.6798 39 32.7998 39H30.3358V36.216H32.7998Z" fill="#2C2F33"/>
</svg>
