<svg width="30" height="30" viewBox="0 0 30 30" fill="none" xmlns="http://www.w3.org/2000/svg">
<path d="M29.1211 23.5352C4.76461 23.5352 5.85064 23.5397 5.84912 23.527C5.58217 21.3894 5.59289 21.5261 5.61029 21.5235C17.298 21.4628 -10.649 21.5273 27.177 21.5273C28.7529 21.5273 29.9414 20.3334 29.9414 18.75V6.84082C29.9414 5.68652 29.0024 4.7458 27.8481 4.74375L20.572 4.73121V2.87109C20.572 1.83721 19.7309 0.996094 18.697 0.996094H16.9409C15.9073 0.996094 15.0664 1.83697 15.0664 2.87051V4.72172L7.26117 4.70812L6.67611 1.48594C6.51984 0.624961 5.77125 0 4.89615 0H0.878906C0.393516 0 0 0.393516 0 0.878906C0 1.3643 0.393516 1.75781 0.878906 1.75781C5.13252 1.75781 4.93471 1.73443 4.9466 1.79994C5.90021 7.05182 5.2933 3.38127 7.85168 19.754L5.60232 19.7657C4.54605 19.7698 3.72381 20.697 3.85564 21.752L4.10478 23.7451C4.21512 24.6275 4.96893 25.293 5.8582 25.293H7.41797C6.31641 27.4319 7.87658 30 10.293 30C12.7083 30 14.2701 27.4328 13.168 25.293H21.5391C20.4374 27.4319 21.9977 30 24.4141 30C26.8293 30 28.3911 27.4329 27.289 25.293H29.1211C29.6065 25.293 30 24.8995 30 24.4141C30 23.9287 29.6065 23.5352 29.1211 23.5352ZM16.8243 2.87051C16.8243 2.80623 16.8766 2.75391 16.9409 2.75391H18.6971C18.7617 2.75391 18.8143 2.80646 18.8143 2.87109V9.375C18.8143 9.86039 19.2078 10.2539 19.6932 10.2539H20.9984L18.2592 12.9949C18.0161 13.2381 17.6225 13.2381 17.3794 12.9949L14.6401 10.2539H15.9454C16.4307 10.2539 16.8243 9.86039 16.8243 9.375V2.87051H16.8243ZM15.0665 6.47953V8.49609H13.5994C12.4201 8.49609 11.8268 9.92543 12.6611 10.7604L16.1361 14.2375C17.0663 15.1681 18.5722 15.1682 19.5025 14.2375L22.9775 10.7604C23.8112 9.92619 23.2195 8.49609 22.0392 8.49609H20.5721V6.48902L27.8452 6.50156C28.0318 6.50186 28.1836 6.65408 28.1836 6.84082V18.75C28.1836 19.3598 27.7791 19.7695 27.177 19.7695H9.63328L7.55455 6.46646L15.0665 6.47953ZM11.7676 26.7676C11.7676 27.5807 11.106 28.2422 10.2929 28.2422C9.47982 28.2422 8.81836 27.5807 8.81836 26.7676C8.81836 25.9545 9.47988 25.2929 10.293 25.2929C11.1061 25.2929 11.7676 25.9545 11.7676 26.7676ZM25.8887 26.7676C25.8887 27.5807 25.2272 28.2422 24.4141 28.2422C23.601 28.2422 22.9395 27.5807 22.9395 26.7676C22.9395 25.9545 23.601 25.2929 24.4141 25.2929C25.2272 25.2929 25.8887 25.9545 25.8887 26.7676Z" fill="#79C330"/>
<rect x="15" y="1" width="6" height="12" fill="white"/>
<rect x="12" y="8" width="12" height="8" fill="white"/>
<path d="M16.3333 2V9.58333H13L18.2381 15L23 9.58333H22.0476H19.6667V2H16.3333Z" stroke="#4DA2D6" stroke-width="1.5" stroke-linecap="round" stroke-linejoin="round"/>
</svg>
