<svg width="64" height="64" viewBox="0 0 64 64" fill="none" xmlns="http://www.w3.org/2000/svg">
<path d="M62.0518 36.1867C55.3283 25.8916 56.043 15.3387 52.8021 10.3769C49.5612 5.41512 39.9025 -3.13955 17.0812 11.7671C-5.74015 26.6738 0.064291 42.8782 3.63051 48.3342C20.3203 73.8845 73.9612 54.4196 62.0518 36.1867Z" fill="#EFEFEF"/>
<path d="M23.127 7.6545L25.6411 5.14034L26.8982 6.39742L24.384 8.91157L23.127 7.6545Z" fill="#A4AFC1"/>
<path d="M15.8984 14.8817L18.4126 12.3676L19.6697 13.6247L17.1555 16.1388L15.8984 14.8817Z" fill="#A4AFC1"/>
<path d="M15.9014 6.0892L17.1584 4.83212L19.6726 7.34628L18.4155 8.60336L15.9014 6.0892Z" fill="#A4AFC1"/>
<path d="M49.403 48.5351C47.9328 48.5351 46.7363 47.3387 46.7363 45.8685C46.7363 44.3982 47.9328 43.2018 49.403 43.2018C50.8732 43.2018 52.0697 44.3982 52.0697 45.8685C52.0697 47.3387 50.8732 48.5351 49.403 48.5351ZM49.403 44.9796C48.9141 44.9796 48.5141 45.3778 48.5141 45.8685C48.5141 46.3591 48.9141 46.7573 49.403 46.7573C49.8919 46.7573 50.2919 46.3591 50.2919 45.8685C50.2919 45.3778 49.8919 44.9796 49.403 44.9796Z" fill="#A4AFC1"/>
<path d="M32.0336 30.4071L25.1802 34.2222L26.4638 26.1867L20.8887 20.5173L28.5616 19.3191L31.9713 12L35.4291 19.296L43.1109 20.4409L37.5749 26.1476L38.9136 34.176L32.0336 30.4071Z" fill="#79C330"/>
<path d="M43.1109 52H20.8887V47.5556C20.8887 46.5742 21.6851 45.7778 22.6665 45.7778H41.3331C42.3145 45.7778 43.1109 46.5742 43.1109 47.5556V52Z" fill="#F3F3F1"/>
<path d="M39.5555 45.7778H24.4443L25.6497 39.7476C25.9821 38.0853 27.4417 36.8889 29.1359 36.8889H34.8621C36.5563 36.8889 38.0159 38.0853 38.3483 39.7476L39.5555 45.7778Z" fill="#F3F3F1"/>
<path d="M29.0824 32.0498L30.0193 26.1867L24.4442 20.5173L32.1171 19.3191L33.7651 15.7831L31.9713 12L28.5616 19.3191L20.8887 20.5173L26.4638 26.1867L25.1802 34.2222L29.0824 32.0498Z" fill="#39961E"/>
<path d="M35.5888 30.4071L33.8252 31.3884L38.9132 34.176L38.5559 32.032L35.5888 30.4071Z" fill="#39961E"/>
<path d="M32.6932 36.8889H29.1377C27.4435 36.8889 25.9839 38.0853 25.6514 39.7476L24.4443 45.7778H27.9999L29.2052 39.7476C29.5377 38.0853 30.9972 36.8889 32.6932 36.8889Z" fill="#D5DBE1"/>
<path d="M26.222 45.7778H22.6664C21.6851 45.7778 20.8887 46.5742 20.8887 47.5556V52H24.4442V47.5556C24.4442 46.5742 25.2407 45.7778 26.222 45.7778Z" fill="#D5DBE1"/>
<path d="M25.1806 35.5555C24.9121 35.5555 24.6437 35.4755 24.4161 35.3138C23.9984 35.0204 23.7833 34.5155 23.8633 34.0124L25.0384 26.6418L19.9361 21.4542C19.5877 21.0969 19.4633 20.5742 19.6215 20.1013C19.7779 19.6267 20.1868 19.28 20.6828 19.2018L27.6535 18.1138L28.3504 16.6169L30.7664 17.7422L29.769 19.8844C29.5824 20.288 29.2073 20.5707 28.7664 20.64L23.6606 21.4364L27.4135 25.2533C27.7104 25.5556 27.8455 25.9804 27.7779 26.3982L26.9281 31.7244L31.3815 29.2444C31.785 29.0222 32.2686 29.0204 32.6721 29.2409L37.145 31.6907L36.2579 26.3716C36.1886 25.9538 36.3219 25.5271 36.617 25.2231L40.345 21.3813L35.2321 20.6187C34.7913 20.5529 34.4144 20.2738 34.2241 19.872L31.3761 13.8667L29.9433 13.2L30.761 11.4436C30.9797 10.9689 31.449 10.6684 31.9646 10.6667H31.9699C32.4855 10.6667 32.9548 10.9636 33.1753 11.4293L36.329 18.0836L43.3068 19.1236C43.801 19.1982 44.2135 19.5413 44.3735 20.0142C44.5353 20.4871 44.4161 21.0116 44.0677 21.3707L38.9993 26.5938L40.2277 33.9555C40.3113 34.4587 40.0997 34.9671 39.6837 35.2622C39.2641 35.5591 38.7148 35.5911 38.2704 35.344L32.0357 31.9307L25.8277 35.3867C25.6268 35.5004 25.4028 35.5555 25.1806 35.5555Z" fill="#2C2F33"/>
<path d="M43.1112 53.3333H20.889C20.153 53.3333 19.5557 52.736 19.5557 52V47.5556C19.5557 45.84 20.9512 44.4444 22.6668 44.4444H41.3334C43.049 44.4444 44.4446 45.84 44.4446 47.5556V52C44.4446 52.736 43.8472 53.3333 43.1112 53.3333ZM22.2223 50.6667H41.7779V47.5556C41.7779 47.3102 41.5788 47.1111 41.3334 47.1111H22.6668C22.4214 47.1111 22.2223 47.3102 22.2223 47.5556V50.6667Z" fill="#2C2F33"/>
<path d="M39.555 47.1111H24.4439C24.0439 47.1111 23.6652 46.9315 23.4127 46.624C23.1603 46.3164 23.059 45.9093 23.1372 45.5164L24.3443 39.4862C24.7976 37.2089 26.8136 35.5556 29.1372 35.5556H34.8634C37.187 35.5556 39.2012 37.2089 39.6563 39.4862L40.8634 45.5164C40.9416 45.9075 40.8403 46.3147 40.5879 46.624C40.3354 46.9333 39.955 47.1111 39.555 47.1111ZM26.0705 44.4444H37.9283L37.0412 40.0089C36.835 38.9724 35.9176 38.2222 34.8616 38.2222H29.1372C28.0812 38.2222 27.1656 38.9724 26.9576 40.0071L26.0705 44.4444Z" fill="#2C2F33"/>
<path d="M30.6973 30.6987H33.3639V36.4445H30.6973V30.6987Z" fill="#2C2F33"/>
<path d="M3.55566 51.3956H60.4446V53.3333H3.55566V51.3956Z" fill="#2C2F33"/>
</svg>
