<svg width="40" height="40" viewBox="0 0 40 40" fill="none" xmlns="http://www.w3.org/2000/svg">
<path d="M9.30821 4.62998C16.9938 4.62998 22.2715 0.648865 25.9749 0.648865C29.6782 0.648865 37.456 2.77775 37.456 19.8144C37.456 36.8511 26.9927 39.3511 22.9193 39.3511C3.84488 39.3522 -4.3029 4.62998 9.30821 4.62998Z" fill="#EFEFEF"/>
<path d="M6.66699 13.3474L8.23834 11.776L9.02401 12.5617L7.45267 14.133L6.66699 13.3474Z" fill="#A4AFC1"/>
<path d="M2.14941 17.8663L3.72076 16.2949L4.50644 17.0806L2.93509 18.6519L2.14941 17.8663Z" fill="#A4AFC1"/>
<path d="M2.15137 12.3664L2.93704 11.5807L4.50839 13.1521L3.72272 13.9377L2.15137 12.3664Z" fill="#A4AFC1"/>
<path d="M32.0192 30.24C31.1003 30.24 30.3525 29.4922 30.3525 28.5734C30.3525 27.6545 31.1003 26.9067 32.0192 26.9067C32.9381 26.9067 33.6859 27.6545 33.6859 28.5734C33.6859 29.4922 32.9392 30.24 32.0192 30.24ZM32.0192 28.0178C31.7137 28.0178 31.4637 28.2678 31.4637 28.5734C31.4637 28.8789 31.7137 29.1289 32.0192 29.1289C32.3248 29.1289 32.5748 28.8789 32.5748 28.5734C32.5748 28.2678 32.3259 28.0178 32.0192 28.0178Z" fill="#A4AFC1"/>
<path d="M20.0378 28.2078L12.3267 32.5L13.7722 23.4589L7.5 17.0811L16.1333 15.7344L19.9678 7.5L23.8578 15.7078L32.5 16.9967L26.2722 23.4167L27.7778 32.4478L20.0378 28.2078Z" fill="#79C330"/>
<path d="M14.7667 31.1422L15.9944 23.4589L9.72222 17.0811L18.3556 15.7344L21.0889 9.86444L19.9678 7.5L16.1333 15.7344L7.5 17.0811L13.7722 23.4589L12.3267 32.5L14.7667 31.1422Z" fill="#39961E"/>
<path d="M22.2604 28.2078L21.1582 28.8211L27.7782 32.4478L27.5549 31.1078L22.2604 28.2078Z" fill="#00B871"/>
<path d="M12.3274 33.3334C12.1596 33.3334 11.9918 33.2822 11.8496 33.1822C11.5885 33 11.4541 32.6834 11.5041 32.3689L12.8807 23.7434L6.90406 17.6645C6.68628 17.4422 6.60851 17.1156 6.70739 16.8189C6.80517 16.5211 7.06073 16.3056 7.37073 16.2567L15.5641 14.9778L19.2107 7.1478C19.3474 6.85558 19.6418 6.6678 19.9641 6.66669H19.9674C20.2896 6.66669 20.583 6.85224 20.7207 7.14335L24.4218 14.9489L26.3285 15.2334L26.083 16.8822L23.7363 16.5322C23.4607 16.4911 23.2252 16.3156 23.1063 16.0645L19.9752 9.46002L16.8896 16.0856C16.773 16.3378 16.5374 16.5145 16.2629 16.5578L9.23406 17.6545L14.3685 22.8756C14.5541 23.0634 14.6385 23.3289 14.5963 23.5911L13.423 30.9378L19.6341 27.48C19.8863 27.34 20.1885 27.3389 20.4407 27.4767L26.6752 30.8934L25.4507 23.5545C25.4074 23.2945 25.4907 23.0267 25.6752 22.8367L30.7729 17.5822L28.3363 17.2189L28.5818 15.57L32.6252 16.1734C32.9341 16.22 33.1918 16.4345 33.2918 16.7311C33.393 17.0278 33.3185 17.3545 33.1007 17.5789L27.1652 23.6967L28.603 32.3134C28.6552 32.6278 28.523 32.9445 28.263 33.1289C28.0007 33.3134 27.6574 33.3334 27.3796 33.1811L20.0429 29.1611L12.7352 33.23C12.6063 33.2989 12.4663 33.3334 12.3274 33.3334Z" fill="#2C2F33"/>
</svg>
