<svg width="64" height="64" viewBox="0 0 64 64" fill="none" xmlns="http://www.w3.org/2000/svg">
<path d="M56.5917 49.1076C56.5917 36.8107 62.9615 28.3662 62.9615 22.4409C62.9615 16.5156 59.5552 4.07112 32.2966 4.07112C5.03791 4.07112 1.03613 20.8125 1.03613 27.3298C1.03613 57.8489 56.5917 70.8853 56.5917 49.1076Z" fill="#EFEFEF"/>
<path d="M17.7256 9.45927L20.2397 6.94512L21.4968 8.2022L18.9827 10.7164L17.7256 9.45927Z" fill="#A4AFC1"/>
<path d="M10.4971 16.6865L13.0112 14.1723L14.2683 15.4294L11.7541 17.9436L10.4971 16.6865Z" fill="#A4AFC1"/>
<path d="M10.8125 8.20154L12.0696 6.94446L14.5837 9.45862L13.3267 10.7157L10.8125 8.20154Z" fill="#A4AFC1"/>
<path d="M46.2222 37.7778C47.4495 37.7778 48.4445 36.7829 48.4445 35.5556C48.4445 34.3283 47.4495 33.3333 46.2222 33.3333C44.9949 33.3333 44 34.3283 44 35.5556C44 36.7829 44.9949 37.7778 46.2222 37.7778Z" fill="#F3F3F1"/>
<path d="M17.7779 37.7778C19.0052 37.7778 20.0001 36.7829 20.0001 35.5556C20.0001 34.3283 19.0052 33.3333 17.7779 33.3333C16.5506 33.3333 15.5557 34.3283 15.5557 35.5556C15.5557 36.7829 16.5506 37.7778 17.7779 37.7778Z" fill="#F3F3F1"/>
<path d="M32 38.6667C34.2091 38.6667 36 36.8758 36 34.6667C36 32.4575 34.2091 30.6667 32 30.6667C29.7909 30.6667 28 32.4575 28 34.6667C28 36.8758 29.7909 38.6667 32 38.6667Z" fill="#F3F3F1"/>
<path d="M40.4446 51.5556V47.5556C40.4446 45.5911 38.8534 44 36.889 44H27.1112C25.1468 44 23.5557 45.5911 23.5557 47.5556V51.5556H40.4446Z" fill="#F3F3F1"/>
<path d="M51.9999 48V45.7778C51.9999 43.8133 50.4088 42.2222 48.4443 42.2222H43.9999C42.0354 42.2222 40.4443 43.8133 40.4443 45.7778V48H51.9999Z" fill="#F3F3F1"/>
<path d="M23.5556 48V45.7778C23.5556 43.8133 21.9644 42.2222 20 42.2222H15.5556C13.5911 42.2222 12 43.8133 12 45.7778V48H23.5556Z" fill="#F3F3F1"/>
<path d="M25.8363 25.3333L24.4443 17.9253L28.5208 19.7351L31.9999 13.7778L35.479 19.7351L39.5555 17.9253L38.1634 25.3333H25.8363Z" fill="#79C330"/>
<path d="M48 35.5555C48 35.2178 48.0871 34.9067 48.2222 34.6204C47.8667 33.8649 47.1111 33.3333 46.2222 33.3333C44.9956 33.3333 44 34.3289 44 35.5555C44 36.7822 44.9956 37.7778 46.2222 37.7778C47.1111 37.7778 47.8667 37.2462 48.2222 36.4907C48.0871 36.2044 48 35.8933 48 35.5555Z" fill="#D5DBE1"/>
<path d="M19.5557 35.5555C19.5557 35.2178 19.6428 34.9067 19.7779 34.6204C19.4223 33.8649 18.6668 33.3333 17.7779 33.3333C16.5512 33.3333 15.5557 34.3289 15.5557 35.5555C15.5557 36.7822 16.5512 37.7778 17.7779 37.7778C18.6668 37.7778 19.4223 37.2462 19.7779 36.4907C19.6428 36.2044 19.5557 35.8933 19.5557 35.5555Z" fill="#D5DBE1"/>
<path d="M32 34.6667C32 33.1893 32.8089 31.9147 34 31.2213C33.4098 30.8782 32.7324 30.6667 32 30.6667C29.7902 30.6667 28 32.4569 28 34.6667C28 36.8765 29.7902 38.6667 32 38.6667C32.7324 38.6667 33.4098 38.4551 34 38.112C32.8089 37.4187 32 36.144 32 34.6667Z" fill="#D5DBE1"/>
<path d="M31.1112 44H27.1112C25.1468 44 23.5557 45.5911 23.5557 47.5556V51.5556H27.5557V47.5556C27.5557 45.5911 29.1468 44 31.1112 44Z" fill="#D5DBE1"/>
<path d="M47.9999 42.2222H43.9999C42.0354 42.2222 40.4443 43.8133 40.4443 45.7778V48H44.4443V45.7778C44.4443 43.8133 46.0354 42.2222 47.9999 42.2222Z" fill="#D5DBE1"/>
<path d="M19.5556 42.2222H15.5556C13.5911 42.2222 12 43.8133 12 45.7778V48H16V45.7778C16 43.8133 17.5911 42.2222 19.5556 42.2222Z" fill="#D5DBE1"/>
<path d="M28.5226 19.7351L24.4443 17.9253L25.8363 25.3333H29.8363L28.7199 19.3956L28.5226 19.7351Z" fill="#39961E"/>
<path d="M46.2225 39.1111C44.2617 39.1111 42.667 37.5164 42.667 35.5556C42.667 33.5947 44.2617 32 46.2225 32C48.1834 32 49.7781 33.5947 49.7781 35.5556C49.7781 37.5164 48.1834 39.1111 46.2225 39.1111ZM46.2225 34.6667C45.7319 34.6667 45.3337 35.0649 45.3337 35.5556C45.3337 36.0462 45.7319 36.4444 46.2225 36.4444C46.7132 36.4444 47.1114 36.0462 47.1114 35.5556C47.1114 35.0649 46.7132 34.6667 46.2225 34.6667Z" fill="#2C2F33"/>
<path d="M53.3337 48H50.667V45.7778C50.667 44.5529 49.6697 43.5556 48.4448 43.5556H42.667V40.8889H48.4448C51.1417 40.8889 53.3337 43.0809 53.3337 45.7778V48Z" fill="#2C2F33"/>
<path d="M17.7772 39.1111C15.8163 39.1111 14.2217 37.5164 14.2217 35.5556C14.2217 33.5947 15.8163 32 17.7772 32C19.7381 32 21.3328 33.5947 21.3328 35.5556C21.3328 37.5164 19.7381 39.1111 17.7772 39.1111ZM17.7772 34.6667C17.2866 34.6667 16.8883 35.0649 16.8883 35.5556C16.8883 36.0462 17.2866 36.4444 17.7772 36.4444C18.2679 36.4444 18.6661 36.0462 18.6661 35.5556C18.6661 35.0649 18.2679 34.6667 17.7772 34.6667Z" fill="#2C2F33"/>
<path d="M13.3337 48H10.667V45.7778C10.667 43.0809 12.859 40.8889 15.5559 40.8889H21.3337V43.5556H15.5559C14.331 43.5556 13.3337 44.5529 13.3337 45.7778V48Z" fill="#2C2F33"/>
<path d="M32.0003 40C29.0599 40 26.667 37.6071 26.667 34.6667C26.667 31.7262 29.0599 29.3333 32.0003 29.3333C34.9408 29.3333 37.3337 31.7262 37.3337 34.6667C37.3337 37.6071 34.9408 40 32.0003 40ZM32.0003 32C30.5301 32 29.3337 33.1964 29.3337 34.6667C29.3337 36.1369 30.5301 37.3333 32.0003 37.3333C33.4705 37.3333 34.667 36.1369 34.667 34.6667C34.667 33.1964 33.4705 32 32.0003 32Z" fill="#2C2F33"/>
<path d="M41.7772 51.5556H39.1106V47.5556C39.1106 46.3307 38.1132 45.3333 36.8883 45.3333H27.1106C25.8857 45.3333 24.8883 46.3307 24.8883 47.5556V51.5556H22.2217V47.5556C22.2217 44.8587 24.4137 42.6667 27.1106 42.6667H36.8883C39.5852 42.6667 41.7772 44.8587 41.7772 47.5556V51.5556Z" fill="#2C2F33"/>
<path d="M38.1632 26.6667H25.8343C25.1925 26.6667 24.6432 26.2098 24.5241 25.5804L23.1321 18.1724C23.0414 17.6853 23.2263 17.1876 23.6156 16.88C24.0032 16.5742 24.5294 16.5049 24.9845 16.7076L27.9712 18.0338L30.8476 13.1076C31.3276 12.288 32.6716 12.288 33.1516 13.1076L36.0281 18.0338L39.0147 16.7076C39.4663 16.5049 39.9943 16.5742 40.3836 16.88C40.773 17.1876 40.9579 17.6853 40.8672 18.1724L39.4752 25.5804C39.3561 26.2098 38.805 26.6667 38.1632 26.6667ZM26.9419 24H37.0574L37.7756 20.1742L36.0174 20.9547C35.3934 21.2284 34.6681 20.9956 34.325 20.4071L31.9996 16.4231L29.6725 20.4089C29.3294 20.9973 28.6005 21.2284 27.9801 20.9564L26.2219 20.176L26.9419 24Z" fill="#2C2F33"/>
<path d="M3.55566 48.8889H60.4446V51.5555H3.55566V48.8889Z" fill="#2C2F33"/>
</svg>
