<svg width="80" height="80" viewBox="0 0 80 80" fill="none" xmlns="http://www.w3.org/2000/svg"><defs/><path d="M61.385 70.74c-15.372 0-25.927 7.962-33.334 7.962-7.406 0-22.962-4.257-22.962-38.33 0-34.074 20.927-39.076 29.073-39.076 38.15 0 54.445 69.444 27.223 69.444z" fill="#fff"/><path d="M67.777 53.333A3.337 3.337 0 0164.444 50a3.337 3.337 0 013.333-3.333A3.337 3.337 0 0171.111 50a3.337 3.337 0 01-3.334 3.333zm0-4.444c-.61 0-1.11.498-1.11 1.111s.5 1.111 1.11 1.111c.611 0 1.111-.498 1.111-1.111s-.5-1.111-1.11-1.111zM2.406 12.47l1.571-1.572 3.143 3.143-1.571 1.571-3.143-3.142zM2.012 23.078l3.143-3.142 1.571 1.57-3.143 3.143-1.571-1.57zM11.048 14.046l3.143-3.142 1.57 1.57-3.142 3.144-1.571-1.572z" fill="#A4AFC1"/><path d="M19.444 30.555H53.89V53.89H19.444V30.555z" fill="#F3F3F1"/><path d="M63.75 54.174c0 2.086-1.721 3.795-3.824 3.795h-42.04c-2.102 0-3.823-1.709-3.823-3.795 0-.719.19-1.402.572-1.97l21.02-34.134c.652-1.1 1.876-1.82 3.251-1.82 1.376 0 2.6.72 3.248 1.82l21.02 34.134c.385.568.576 1.251.576 1.97z" fill="#FFE27C"/><path d="M22.977 54.174c0-.719.19-1.402.57-1.97l19.734-32.148-1.22-1.986c-.646-1.1-1.866-1.82-3.237-1.82-1.37 0-2.59.72-3.237 1.82L14.633 52.204c-.38.568-.57 1.251-.57 1.97 0 2.086 1.715 3.795 3.81 3.795h8.915c-2.096 0-3.811-1.709-3.811-3.795z" fill="#EBAA2B" fill-opacity=".73"/><path d="M59.917 60.938H17.896c-3.75 0-6.802-3.039-6.802-6.772 0-1.326.373-2.585 1.08-3.637l20.943-34.015c1.168-1.974 3.393-3.233 5.79-3.233 2.395 0 4.62 1.26 5.816 3.285l20.979 34.07c.643.949 1.017 2.204 1.017 3.53 0 3.733-3.052 6.772-6.802 6.772zm-21.01-41.7c-.35 0-.585.19-.68.354L17.054 54.166c0 .441.385.815.842.815h42.02c.458 0 .843-.374.843-.815a.587.587 0 00-.068-.31l-21.078-34.22a.803.803 0 00-.707-.398z" fill="#2C2F33"/><path d="M35.938 29.219h5.937v13.906h-5.938V29.219zM38.906 52.969a2.969 2.969 0 100-5.938 2.969 2.969 0 000 5.938z" fill="#2C2F33"/></svg>