<?xml version="1.0" encoding="UTF-8" standalone="no"?>
<svg width="127px" height="43px" viewBox="0 0 127 43" version="1.1" xmlns="http://www.w3.org/2000/svg" xmlns:xlink="http://www.w3.org/1999/xlink">
    <!-- Generator: Sketch 40.3 (33839) - http://www.bohemiancoding.com/sketch -->
    <title>ys_logo</title>
    <desc>Created with Sketch.</desc>
    <defs></defs>
    <g id="Page-1" stroke="none" stroke-width="1" fill="none" fill-rule="evenodd">
        <g id="Личный-кабинет" transform="translate(-221.000000, -4.000000)" fill="#FFFFFF">
            <g id="ys_logo" transform="translate(221.000000, 4.000000)">
                <g id="Group-13-Copy-5">
                    <path d="M7,1.50473881 C7,0.673694512 7.66579723,0 8.5,0 L8.5,0 C9.32842712,0 10,0.66831553 10,1.50473881 L10,6.49526119 C10,7.32630549 9.33420277,8 8.5,8 L8.5,8 C7.67157288,8 7,7.33168447 7,6.49526119 L7,1.50473881 Z M31.9152203,4 L33.3914981,4 C36.4889882,4 39,6.49895321 39,9.60850189 L39,37.3914981 C39,40.4889882 36.5010468,43 33.3914981,43 L5.60850189,43 C2.51101182,43 0,40.5010468 0,37.3914981 L0,9.60850189 C0,6.51101182 2.49895321,4 5.60850189,4 L7.08576579,4 C7.29201307,4.58144686 7.84732666,5 8.5,5 C9.15762142,5 9.71058663,4.58260281 9.91522033,4 L29.0857658,4 C29.2920131,4.58144686 29.8473267,5 30.5,5 C31.1576214,5 31.7105866,4.58260281 31.9152203,4 Z M29,1.50473881 C29,0.673694512 29.6657972,0 30.5,0 L30.5,0 C31.3284271,0 32,0.66831553 32,1.50473881 L32,6.49526119 C32,7.32630549 31.3342028,8 30.5,8 L30.5,8 C29.6715729,8 29,7.33168447 29,6.49526119 L29,1.50473881 Z M11,15.5 C11,14.6715729 11.6743222,14 12.5001649,14 L16,14 L16,17 L11,17 L11,15.5 Z M17,14 L22,14 L22,17 L17,17 L17,14 Z M23,14 L26.4998351,14 C27.3283533,14 28,14.6657972 28,15.5 L28,17 L23,17 L23,14 Z M11,18 L16,18 L16,21 L11,21 L11,18 Z M23,18 L28,18 L28,21 L23,21 L23,18 Z M11,22 L16,22 L16,25 L11,25 L11,22 Z M23,22 L28,22 L28,25 L23,25 L23,22 Z M23,26 L28,26 L28,29 L23,29 L23,26 Z M11,30 L16,30 L16,33 L12.5001649,33 C11.6716467,33 11,32.3342028 11,31.5 L11,30 Z M14,26 L19,26 L19,29 L14,29 L14,26 Z M23,30 L28,30 L28,31.5 C28,32.3284271 27.3256778,33 26.4998351,33 L23,33 L23,30 Z M17,22 L22,22 L22,25 L17,25 L17,22 Z" id="Combined-Shape"></path>
                </g>
                <path d="M55.7184505,26.2585788 L59.2334505,26.2585788 L59.2334505,31.4385788 C59.2334505,32.2772496 58.9374535,32.9925758 58.3454505,33.5845788 C57.7534476,34.1765817 57.0381214,34.4725788 56.1994505,34.4725788 L52.6474505,34.4725788 C51.8087797,34.4725788 51.0934535,34.1765817 50.5014505,33.5845788 C49.9094476,32.9925758 49.6134505,32.2772496 49.6134505,31.4385788 L49.6134505,16.6385788 C49.6134505,15.7999079 49.9094476,15.0845817 50.5014505,14.4925788 C51.0934535,13.9005758 51.8087797,13.6045788 52.6474505,13.6045788 L56.1994505,13.6045788 C57.0381214,13.6045788 57.7534476,13.9005758 58.3454505,14.4925788 C58.9374535,15.0845817 59.2334505,15.7999079 59.2334505,16.6385788 L59.2334505,21.4855788 L55.7184505,21.4855788 L55.7184505,17.4895788 C55.7184505,17.1195769 55.5951184,16.8112467 55.3484505,16.5645788 C55.1017826,16.3179109 54.7934524,16.1945788 54.4234505,16.1945788 C54.0534487,16.1945788 53.7451184,16.3179109 53.4984505,16.5645788 C53.2517826,16.8112467 53.1284505,17.1195769 53.1284505,17.4895788 L53.1284505,30.5875788 C53.1284505,30.9575806 53.2517826,31.2659109 53.4984505,31.5125788 C53.7451184,31.7592467 54.0534487,31.8825788 54.4234505,31.8825788 C54.7934524,31.8825788 55.1017826,31.7592467 55.3484505,31.5125788 C55.5951184,31.2659109 55.7184505,30.9575806 55.7184505,30.5875788 L55.7184505,26.2585788 Z M66.756784,27.4055788 L70.271784,27.4055788 L70.271784,31.4385788 C70.271784,32.2772496 69.9757869,32.9925758 69.383784,33.5845788 C68.791781,34.1765817 68.0764548,34.4725788 67.237784,34.4725788 L63.685784,34.4725788 C62.8471131,34.4725788 62.1317869,34.1765817 61.539784,33.5845788 C60.947781,32.9925758 60.651784,32.2772496 60.651784,31.4385788 L60.651784,16.6385788 C60.651784,15.7999079 60.947781,15.0845817 61.539784,14.4925788 C62.1317869,13.9005758 62.8471131,13.6045788 63.685784,13.6045788 L67.237784,13.6045788 C68.0764548,13.6045788 68.791781,13.9005758 69.383784,14.4925788 C69.9757869,15.0845817 70.271784,15.7999079 70.271784,16.6385788 L70.271784,24.2975788 L64.166784,24.2975788 L64.166784,30.5875788 C64.166784,30.9575806 64.2901161,31.2659109 64.536784,31.5125788 C64.7834519,31.7592467 65.0917821,31.8825788 65.461784,31.8825788 C65.8317858,31.8825788 66.1401161,31.7592467 66.386784,31.5125788 C66.6334519,31.2659109 66.756784,30.9575806 66.756784,30.5875788 L66.756784,27.4055788 Z M66.756784,21.7075788 L66.756784,17.4895788 C66.756784,17.1195769 66.6334519,16.8112467 66.386784,16.5645788 C66.1401161,16.3179109 65.8317858,16.1945788 65.461784,16.1945788 C65.0917821,16.1945788 64.7834519,16.3179109 64.536784,16.5645788 C64.2901161,16.8112467 64.166784,17.1195769 64.166784,17.4895788 L64.166784,21.7075788 L66.756784,21.7075788 Z M75.3901174,20.0425788 L71.8751174,20.0425788 L71.8751174,16.6385788 C71.8751174,15.7999079 72.1711145,15.0845817 72.7631174,14.4925788 C73.3551204,13.9005758 74.0704466,13.6045788 74.9091174,13.6045788 L78.4611174,13.6045788 C79.2997883,13.6045788 80.0151145,13.9005758 80.6071174,14.4925788 C81.1991204,15.0845817 81.4951174,15.7999079 81.4951174,16.6385788 L81.4951174,20.6345788 C81.4951174,21.1032478 81.3224525,21.584243 80.9771174,22.0775788 C80.6317824,22.5709146 80.20012,22.9532441 79.6821174,23.2245788 L76.6851174,24.8525788 C76.3151156,25.0499131 76.0067853,25.3582433 75.7601174,25.7775788 C75.5134495,26.1969142 75.3901174,26.6285766 75.3901174,27.0725788 L75.3901174,30.5875788 C75.3901174,30.9575806 75.5134495,31.2659109 75.7601174,31.5125788 C76.0067853,31.7592467 76.3151156,31.8825788 76.6851174,31.8825788 C77.0551193,31.8825788 77.3634495,31.7592467 77.6101174,31.5125788 C77.8567853,31.2659109 77.9801174,30.9575806 77.9801174,30.5875788 L77.9801174,27.2205788 L81.4951174,27.2205788 L81.4951174,31.4385788 C81.4951174,32.2772496 81.1991204,32.9925758 80.6071174,33.5845788 C80.0151145,34.1765817 79.2997883,34.4725788 78.4611174,34.4725788 L74.9091174,34.4725788 C74.0704466,34.4725788 73.3551204,34.1765817 72.7631174,33.5845788 C72.1711145,32.9925758 71.8751174,32.2772496 71.8751174,31.4385788 L71.8751174,25.9995788 C71.8751174,25.5309098 72.0416157,25.0560812 72.3746174,24.5750788 C72.7076191,24.0940764 73.1207816,23.7179135 73.6141174,23.4465788 L76.6851174,21.7815788 C77.0304525,21.5842445 77.3326161,21.2759142 77.5916174,20.8565788 C77.8506187,20.4372433 77.9801174,20.005581 77.9801174,19.5615788 L77.9801174,17.4895788 C77.9801174,17.1195769 77.8567853,16.8112467 77.6101174,16.5645788 C77.3634495,16.3179109 77.0551193,16.1945788 76.6851174,16.1945788 C76.3151156,16.1945788 76.0067853,16.3179109 75.7601174,16.5645788 C75.5134495,16.8112467 75.3901174,17.1195769 75.3901174,17.4895788 L75.3901174,20.0425788 Z M92.7184509,16.6385788 L92.7184509,31.4385788 C92.7184509,32.2772496 92.4224538,32.9925758 91.8304509,33.5845788 C91.2384479,34.1765817 90.5231217,34.4725788 89.6844509,34.4725788 L86.1324509,34.4725788 C85.29378,34.4725788 84.5784538,34.1765817 83.9864509,33.5845788 C83.3944479,32.9925758 83.0984509,32.2772496 83.0984509,31.4385788 L83.0984509,16.6385788 C83.0984509,15.7999079 83.3944479,15.0845817 83.9864509,14.4925788 C84.5784538,13.9005758 85.29378,13.6045788 86.1324509,13.6045788 L89.6844509,13.6045788 C90.5231217,13.6045788 91.2384479,13.9005758 91.8304509,14.4925788 C92.4224538,15.0845817 92.7184509,15.7999079 92.7184509,16.6385788 L92.7184509,16.6385788 Z M89.2034509,30.5875788 L89.2034509,17.4895788 C89.2034509,17.1195769 89.0801188,16.8112467 88.8334509,16.5645788 C88.586783,16.3179109 88.2784527,16.1945788 87.9084509,16.1945788 C87.538449,16.1945788 87.2301188,16.3179109 86.9834509,16.5645788 C86.736783,16.8112467 86.6134509,17.1195769 86.6134509,17.4895788 L86.6134509,30.5875788 C86.6134509,30.9575806 86.736783,31.2659109 86.9834509,31.5125788 C87.2301188,31.7592467 87.538449,31.8825788 87.9084509,31.8825788 C88.2784527,31.8825788 88.586783,31.7592467 88.8334509,31.5125788 C89.0801188,31.2659109 89.2034509,30.9575806 89.2034509,30.5875788 L89.2034509,30.5875788 Z M100.426784,13.9005788 L103.941784,13.9005788 L103.941784,36.2115788 C103.941784,37.0502496 103.645787,37.7655758 103.053784,38.3575788 C102.461781,38.9495817 101.746455,39.2455788 100.907784,39.2455788 L95.1727843,39.2455788 L95.1727843,36.6555788 L98.5767843,36.6555788 C99.0947869,36.6555788 99.5326158,36.4767472 99.8902843,36.1190788 C100.247953,35.7614103 100.426784,35.3235814 100.426784,34.8055788 L100.426784,32.9925788 C100.204783,33.4119142 99.8532867,33.7634107 99.3722843,34.0470788 C98.8912819,34.3307469 98.3794537,34.4725788 97.8367843,34.4725788 C96.8747795,34.4725788 96.0484544,34.1272489 95.3577843,33.4365788 C94.6671142,32.7459087 94.3217843,31.9195836 94.3217843,30.9575788 L94.3217843,17.1195788 C94.3217843,16.157574 94.6671142,15.3312489 95.3577843,14.6405788 C96.0484544,13.9499087 96.8747795,13.6045788 97.8367843,13.6045788 C98.4781208,13.6045788 99.0331153,13.7649105 99.5017843,14.0855788 C99.8717861,14.3322467 100.180116,14.6652433 100.426784,15.0845788 L100.426784,13.9005788 Z M100.426784,30.5875788 L100.426784,17.4895788 C100.426784,17.1195769 100.303452,16.8112467 100.056784,16.5645788 C99.8101164,16.3179109 99.5017861,16.1945788 99.1317843,16.1945788 C98.7617824,16.1945788 98.4534522,16.3179109 98.2067843,16.5645788 C97.9601164,16.8112467 97.8367843,17.1195769 97.8367843,17.4895788 L97.8367843,30.5875788 C97.8367843,30.9575806 97.9601164,31.2659109 98.2067843,31.5125788 C98.4534522,31.7592467 98.7617824,31.8825788 99.1317843,31.8825788 C99.5017861,31.8825788 99.8101164,31.7592467 100.056784,31.5125788 C100.303452,31.2659109 100.426784,30.9575806 100.426784,30.5875788 L100.426784,30.5875788 Z M105.545118,34.1765788 L105.545118,13.9005788 L109.060118,13.9005788 L109.060118,22.1885788 L111.650118,22.1885788 L111.650118,13.9005788 L115.165118,13.9005788 L115.165118,34.1765788 L111.650118,34.1765788 L111.650118,24.7785788 L109.060118,24.7785788 L109.060118,34.1765788 L105.545118,34.1765788 Z M126.388451,34.1765788 L122.873451,34.1765788 L122.873451,25.7405788 L121.578451,25.7405788 C121.208449,25.7405788 120.900119,25.8639109 120.653451,26.1105788 C120.406783,26.3572467 120.283451,26.6655769 120.283451,27.0355788 L120.283451,34.1765788 L116.768451,34.1765788 L116.768451,26.9615788 C116.768451,26.3695758 116.978116,25.8454144 117.397451,25.3890788 C117.816787,24.9327432 118.334781,24.6799124 118.951451,24.6305788 C118.310115,24.4579112 117.785953,24.118748 117.378951,23.6130788 C116.971949,23.1074096 116.768451,22.5585817 116.768451,21.9665788 L116.768451,16.9345788 C116.768451,16.0959079 117.064448,15.3805817 117.656451,14.7885788 C118.248454,14.1965758 118.96378,13.9005788 119.802451,13.9005788 L126.388451,13.9005788 L126.388451,34.1765788 Z M122.873451,23.1505788 L122.873451,16.4905788 L121.578451,16.4905788 C121.208449,16.4905788 120.900119,16.6139109 120.653451,16.8605788 C120.406783,17.1072467 120.283451,17.4155769 120.283451,17.7855788 L120.283451,21.8555788 C120.283451,22.2255806 120.406783,22.5339109 120.653451,22.7805788 C120.900119,23.0272467 121.208449,23.1505788 121.578451,23.1505788 L122.873451,23.1505788 Z" id="сегодня"></path>
            </g>
        </g>
    </g>
</svg>