<svg id="Слой_1" data-name="Слой 1" xmlns="http://www.w3.org/2000/svg" viewBox="0 0 815 240"><defs><style>.cls-1{fill:#fff;}</style></defs><title>logo</title><path class="cls-1" d="M-101,277H714V517H-101Zm671.32,84.5a15.79,15.79,0,0,1-1.81-1.63c-10.11-13.29-30.52-10.6-40,2.51-9.65,13.28-9.66,36.24-.08,49.5,10,13.88,31.22,15.62,40.66,1.92.23-.33.74-.47,2.08-1.27-.48,5.31-.49,9.93-1.42,14.36a11.93,11.93,0,0,1-8.71,9.45c-6.52,1.83-12.83,1.69-18.41-2.9-.87-.71-1.92-1.66-2.91-1.69-5.75-.16-11.5-.08-18.31-.08,1.86,3.32,3,5.91,4.6,8.1,8.24,11,26.62,15.27,42.57,10.07,12.5-4.07,19.39-14.55,19.44-29.91.07-21,0-41.95,0-62.93,0-1.29-.18-2.58-.29-4H570.91C570.72,355.77,570.54,358.33,570.32,361.5ZM-50,421.76c6.26,0,11.72.13,17.17-.12a4.29,4.29,0,0,0,2.94-2.41c1.82-4.64,3.08-9.51,5.08-14.06a6.2,6.2,0,0,1,4.43-3.25c10.15-.29,20.32,0,30.47-.23,3-.06,4.07,1.17,4.79,3.73,1.2,4.33,2.53,8.62,4.08,12.83.49,1.33,1.8,3.27,2.82,3.33,6,.31,12.1.15,18.77.15-.67-2.34-1-3.75-1.47-5.13C33.39,399.41,27.7,382.21,21.92,365c-3.61-10.71-7.07-21.48-11.15-32-2.89-7.45-8.29-10-16.3-9.48-9.41.64-12.69,7.41-15.34,14.88q-6,16.94-11.87,33.88C-38.37,388.46-44,404.61-50,421.76Zm302.28-16V378.71h31.24v-16H252.22V340.57h53.6V325.08H233.59v96.7h77.23v-16Zm-79.62-29.17c-1.8.09-3.4.21-5,.23-5.49.06-11-.17-16.48.19-10.49.7-17.92,6.57-20.26,15.56-2.68,10.28,1,20.72,9.3,26.45,10.1,7,23.86,5.38,34.4-4.09,5.2,6.8,12.36,7.34,20.39,6.53,0-4.73.08-9-.06-13.35,0-1-.86-1.91-1.32-2.87-1-2.05-2.73-4.07-2.83-6.16-.35-7.31-.05-14.65-.17-22-.13-7.87-1.87-15.17-8-20.79-10.79-9.9-31.66-9.92-42.81.08-4.54,4.07-7.65,8.93-7.7,15.77,4.23,0,8-.05,11.84,0,3.18.06,5.58-.3,8-3.28,3.74-4.52,9.43-4.44,14.78-2.67C171.53,367.8,172.59,371.7,172.69,376.59Zm285.43,13.54c-.45-4.67-.51-8.51-1.23-12.21-2.4-12.29-8.7-21.74-21.18-25.39-12.64-3.69-24.53-1.92-34.12,7.91-10.91,11.19-12.86,32.63-4.63,47.14,7.38,13,22.26,18.84,38.94,15.27,11.28-2.42,20-10.75,20.84-20.55-4.47,0-8.91-.18-13.33.09a8.71,8.71,0,0,0-4.69,2c-5.56,4.79-13.3,6.23-19.51,3.05-6.8-3.49-9.17-9.57-9.61-17.35ZM336.51,421.81c0-2.18,0-4.14,0-6.1.11-12-.12-24,.47-35.95.4-8.29,6.09-12.89,14.26-12.84s13.22,4.85,13.82,13.3c.35,4.81.21,9.65.23,14.48,0,8.95,0,17.9,0,27.06h17.43c0-15.71.59-31.19-.2-46.59-.54-10.64-6-19.11-16.79-22.57-10.61-3.4-20-1.36-27.61,7.3-.23.26-.77.25-1.38.43-.19-2.51-.36-4.79-.55-7.24H319.34v68.72ZM593.19,352.7c.93,2.45,1.53,4.15,2.21,5.81,8,19.52,16.15,39,24,58.61a13.18,13.18,0,0,1,.13,8.35c-2.72,8.15-6.05,16.11-9.41,24.83,4.87,0,9-.23,13.12.07,3.39.25,4.89-1,6.1-4.18,11.32-29.83,22.83-59.59,34.28-89.37.45-1.18.71-2.43,1.2-4.12-4.91,0-9.39.19-13.86-.07-2.93-.17-4,1.18-4.95,3.66-4.56,12.31-9.27,24.56-14,36.83-.48,1.27-1.16,2.46-2.07,4.37-.9-2.15-1.49-3.48-2-4.84-4.6-11.94-9.33-23.83-13.69-35.85-1.18-3.26-2.76-4.38-6.12-4.17C603.47,352.91,598.82,352.7,593.19,352.7ZM75.51,356.32v16.16H91.13v49h17.71V372.33h16.85V356.08H108.83c0-3.25,0-5.9,0-8.55.1-8.84,2.46-11.21,11.35-11.29,5.78-.05,11.56,0,17.52,0V321.05c-8.76,0-17.22-.11-25.68,0-13.47.22-20.82,7.76-21,21.34-.06,4.46,0,8.91,0,13.9ZM-51.75,467.58H42.76v-19H-51.75ZM518.56,352.23c-12.35.07-24.56-2-33.65,9.89-.31-3.64-.53-6.34-.77-9.13H467.28v68.69h17.23c0-2.48,0-4.63,0-6.78.07-10.66-.09-21.33.32-32,.27-7,3.58-10.72,10.4-12.18,3.85-.83,7.92-.78,11.9-.93,3.76-.15,7.53,0,11.43,0ZM65.61,421.48V321.39H48.46V421.48Zm14.2,25.37c-1.33.45-2.78.81-4.12,1.4-4.59,2-6.83,5.61-6.87,10.62S71,468,75.7,469.33c4,1.13,4.88,3,4.6,6.65-.09,1.21,1.21,2.51,1.87,3.77.67-1.23,2-2.51,1.89-3.67-.3-3.69.64-5.62,4.63-6.64,4.66-1.2,7.5-6,7.26-10.81a11.19,11.19,0,0,0-7.25-10.45c-1.36-.57-2.82-.93-4.63-1.51v-9.62c-1.41.14-3.13.1-3.17.33C80.4,440.45,80.15,443.56,79.81,446.85Zm298.37,24.06a25.18,25.18,0,0,0,.08,5,16.58,16.58,0,0,0,1.88,3.83c.68-1.22,2-2.48,1.92-3.64-.26-3.64.54-5.65,4.59-6.66,4.69-1.18,7.52-6,7.3-10.79a11.2,11.2,0,0,0-7.21-10.47c-1.37-.57-2.83-.92-4.65-1.5v-9.33c-3.28.12-3.28.12-4.25,9.26-8.89,3.7-11.38,6.68-11,13.21C367.16,465.51,370.11,468.54,378.18,470.91ZM273.75,454.46l1.07.12c0,4.12.09,8.23,0,12.34-.09,3.21,1.42,3.5,3.9,2.7V448.19c-4.38-1.21-6.81,0-8,4.37-1,3.5-2.8,6.76-4.07,9.69-6-3.6-1.84-15.3-13.43-14.29,0,6.81-.1,13.28.12,19.73,0,.93,1.59,1.82,2.45,2.72l1.38-.72V454.28c2.33,3.63,3.7,7.37,5.4,11a32.15,32.15,0,0,0,3.46,4.86,35.14,35.14,0,0,0,3.13-4.66C270.82,461.84,272.23,458.12,273.75,454.46Zm40.44-5.35c0,8.93-.05,18.4.09,27.87,0,.93,1.24,1.84,1.91,2.77.66-.9,1.81-1.75,1.89-2.7.25-2.9.09-5.84.09-9.38,1.33.78,2,1.22,2.71,1.59,3.83,2,7.57,1.69,10.5-1.42,3.93-4.17,4.21-9.3,2.3-14.45-1.46-3.94-4.5-6.33-8.78-6.1C321.57,447.46,318.27,448.38,314.19,449.11Zm-13.89.05c-2.82-2.46-6.64-2.81-10.51.06-3.6,2.68-5,8.92-3.33,14.21,1.27,4,3.67,6.93,8.1,6.89,3.71,0,7.42-.81,11.19-1.26V447.52Zm54.28.15c-4.3-2.63-7.33-2.77-10.75-.14s-5.06,8.9-3.38,14.2c1.24,4,3.62,7,8.05,6.94,3.72,0,7.44-.8,11.27-1.26V447.46ZM199.7,459.46c-.29-8-3.67-12.07-9.59-12.26-5.36-.18-9.54,3.74-10.2,9.55-.8,7,2.43,12.4,8.11,13.49s9.59-1,11-6.42c-3.26,1-6.27,2.74-9.3,2.77-3.81.05-5.55-2.87-5.55-7.13Zm-92.58,3.43V448.26l-1.15-.77c-.92.85-2.61,1.68-2.64,2.56-.23,6.55-.12,13.12-.12,21.11,8.22-3.47,9.51-11.54,15.38-16.55,0,4.68-.1,8.75.07,12.8,0,.86,1,1.68,1.6,2.52.71-.68,2-1.34,2-2,.16-6.58.1-13.18.1-20.82C114.17,449.91,113.24,458.14,107.12,462.89ZM420.42,459c.06-6.89-4.07-11.7-10.14-11.82s-10.4,4.7-10.45,11.52c-.06,7,4,11.64,10.15,11.7S420.36,466,420.42,459Zm-263-2.44c-.18-3.19-.33-5.79-.48-8.4l-1.38-.76c-.78,1.07-2.2,2.12-2.25,3.22-.24,5.49-.26,11,0,16.49.05,1.11,1.66,2.14,2.56,3.22l1.39-1v-8.53h10.87v8.75l1.4.83c.88-1.11,2.47-2.19,2.52-3.35a164.71,164.71,0,0,0,0-16.48c0-1.1-1.75-2.11-2.69-3.16l-1.2.92-.36,8.21Zm273.77-7.95-1.59-1.2c-.8,1.06-2.24,2.09-2.29,3.18-.24,5.49-.26,11,0,16.48.05,1.13,1.64,2.18,2.52,3.26l1.4-.94v-8.57h10.88v8.74l1.35.9c.91-1.12,2.53-2.2,2.59-3.35a164.7,164.7,0,0,0,0-16.48c-.06-1.11-1.73-2.14-2.66-3.2l-1.24.91c-.12,2.72-.24,5.45-.38,8.46-2.18,0-3.83,0-5.47,0s-3.19-.15-4.88-.24c-.1-1.69-.2-2.84-.23-4C431.15,451.27,431.18,450,431.18,448.63ZM224.26,455c-2.85-6.46-6.75-8.66-11.46-7.51-5.22,1.27-8.22,5.87-8,12.21.22,5.68,3.66,10,8.57,10.66,5.08.73,8.39-1.33,10.32-7.13-6.44,2.53-14.8,7.93-14.5-4.63S217.74,452.74,224.26,455Zm-84.83-3.26a46,46,0,0,0,6-.43c.64-.14,1.3-1.2,1.51-1.95.09-.32-1-1.37-1.5-1.38-5.3-.11-10.6-.13-15.9,0-.56,0-1.09,1.21-1.64,1.85.69.53,1.31,1.38,2.06,1.52a50,50,0,0,0,5.58.43c0,5.33-.12,10.12.09,14.9.05,1.12,1.19,2.19,1.82,3.29.65-1.09,1.81-2.15,1.86-3.26C139.55,461.91,139.43,457.12,139.43,451.71Zm98.9,2.27c-2.61.89-7.17,2-7.11,2.48.76,4.7,4.67,2,7.11,2.16,2.26.16,6,2.2,6.67-2.13C245.07,456,240.83,454.89,238.33,454Z" transform="translate(101 -277)"/><path class="cls-1" d="M570.32,361.5c.22-3.17.4-5.73.59-8.53H587.7c.11,1.45.29,2.74.29,4,0,21,.06,41.95,0,62.93-.05,15.36-6.94,25.84-19.44,29.91-15.95,5.2-34.33.92-42.57-10.07-1.64-2.19-2.74-4.78-4.6-8.1,6.81,0,12.56-.08,18.31.08,1,0,2,1,2.91,1.69,5.58,4.59,11.89,4.73,18.41,2.9a11.93,11.93,0,0,0,8.71-9.45c.93-4.43.94-9.05,1.42-14.36-1.34.8-1.85.94-2.08,1.27-9.44,13.7-30.63,12-40.66-1.92-9.58-13.26-9.57-36.22.08-49.5,9.52-13.11,29.93-15.8,40-2.51A15.79,15.79,0,0,0,570.32,361.5Zm1.52,25.87c-1.58-4.82-2.38-9.71-4.67-13.76-5.42-9.57-18.28-9.6-24.34-.44-5,7.6-5,20.48,0,28,6.07,9,18.49,9.15,24.06-.15C569.32,397,570.19,392.12,571.84,387.37Z" transform="translate(101 -277)"/><path class="cls-1" d="M-50,421.76c6-17.15,11.6-33.3,17.23-49.44q5.93-16.95,11.87-33.88c2.65-7.47,5.93-14.24,15.34-14.88,8-.55,13.41,2,16.3,9.48,4.08,10.52,7.54,21.29,11.15,32,5.78,17.17,11.47,34.37,17.19,51.56.45,1.38.8,2.79,1.47,5.13-6.67,0-12.73.16-18.77-.15-1-.06-2.33-2-2.82-3.33-1.55-4.21-2.88-8.5-4.08-12.83-.72-2.56-1.8-3.79-4.79-3.73-10.15.21-20.32-.06-30.47.23a6.2,6.2,0,0,0-4.43,3.25c-2,4.55-3.26,9.42-5.08,14.06a4.29,4.29,0,0,1-2.94,2.41C-38.25,421.89-43.71,421.76-50,421.76Zm58.21-37-12.74-40-13.39,40Z" transform="translate(101 -277)"/><path class="cls-1" d="M252.31,405.76h58.51v16H233.59v-96.7h72.23v15.49h-53.6v22.15h31.33v16H252.31Z" transform="translate(101 -277)"/><path class="cls-1" d="M172.69,376.59c-.1-4.89-1.16-8.79-5.87-10.35-5.35-1.77-11-1.85-14.78,2.67-2.46,3-4.86,3.34-8,3.28-3.8-.07-7.61,0-11.84,0,.05-6.84,3.16-11.7,7.7-15.77,11.15-10,32-10,42.81-.08,6.12,5.62,7.86,12.92,8,20.79.12,7.32-.18,14.66.17,22,.1,2.09,1.84,4.11,2.83,6.16.46,1,1.29,1.9,1.32,2.87.14,4.31.06,8.62.06,13.35-8,.81-15.19.27-20.39-6.53-10.54,9.47-24.3,11.06-34.4,4.09-8.31-5.73-12-16.17-9.3-26.45,2.34-9,9.77-14.86,20.26-15.56,5.48-.36,11-.13,16.48-.19C169.29,376.8,170.89,376.68,172.69,376.59Zm-.23,14.49c-5.44,0-10.58-.2-15.69.06-5.35.27-8.09,3-8.3,7.48-.23,4.92,2.72,8.44,7.81,9.35C167.12,409.91,173.75,403.27,172.46,391.08Z" transform="translate(101 -277)"/><path class="cls-1" d="M458.12,390.13H409.6c.44,7.78,2.81,13.86,9.61,17.35,6.21,3.18,14,1.74,19.51-3.05a8.71,8.71,0,0,1,4.69-2c4.42-.27,8.86-.09,13.33-.09-.87,9.8-9.56,18.13-20.84,20.55-16.68,3.57-31.56-2.26-38.94-15.27-8.23-14.51-6.28-35.95,4.63-47.14,9.59-9.83,21.48-11.6,34.12-7.91,12.48,3.65,18.78,13.1,21.18,25.39C457.61,381.62,457.67,385.46,458.12,390.13Zm-48-12h29.76c-2.56-9.71-7.72-14.15-15.54-13.76S411.77,369.29,410.09,378.1Z" transform="translate(101 -277)"/><path class="cls-1" d="M336.51,421.81H319.34V353.09H336.2c.19,2.45.36,4.73.55,7.24.61-.18,1.15-.17,1.38-.43,7.57-8.66,17-10.7,27.61-7.3,10.82,3.46,16.25,11.93,16.79,22.57.79,15.4.2,30.88.2,46.59H365.3c0-9.16,0-18.11,0-27.06,0-4.83.12-9.67-.23-14.48-.6-8.45-5.76-13.26-13.82-13.3s-13.86,4.55-14.26,12.84c-.59,12-.36,24-.47,35.95C336.49,417.67,336.51,419.63,336.51,421.81Z" transform="translate(101 -277)"/><path class="cls-1" d="M593.19,352.7c5.63,0,10.28.21,14.91-.07,3.36-.21,4.94.91,6.12,4.17,4.36,12,9.09,23.91,13.69,35.85.53,1.36,1.12,2.69,2,4.84.91-1.91,1.59-3.1,2.07-4.37,4.69-12.27,9.4-24.52,14-36.83.92-2.48,2-3.83,4.95-3.66,4.47.26,9,.07,13.86.07-.49,1.69-.75,2.94-1.2,4.12-11.45,29.78-23,59.54-34.28,89.37-1.21,3.2-2.71,4.43-6.1,4.18-4.11-.3-8.25-.07-13.12-.07,3.36-8.72,6.69-16.68,9.41-24.83a13.18,13.18,0,0,0-.13-8.35c-7.8-19.61-15.93-39.09-24-58.61C594.72,356.85,594.12,355.15,593.19,352.7Z" transform="translate(101 -277)"/><path class="cls-1" d="M75.51,356.32H91c0-5,0-9.44,0-13.9.19-13.58,7.54-21.12,21-21.34,8.46-.14,16.92,0,25.68,0v15.18c-6,0-11.74,0-17.52,0-8.89.08-11.25,2.45-11.35,11.29,0,2.65,0,5.3,0,8.55h16.86v16.25H108.84v49.12H91.13v-49H75.51Z" transform="translate(101 -277)"/><path class="cls-1" d="M-51.75,467.58v-19H42.76v19Z" transform="translate(101 -277)"/><path class="cls-1" d="M518.56,352.23v17.55c-3.9,0-7.67-.12-11.43,0-4,.15-8.05.1-11.9.93-6.82,1.46-10.13,5.21-10.4,12.18-.41,10.65-.25,21.32-.32,32,0,2.15,0,4.3,0,6.78H467.28V353h16.86c.24,2.79.46,5.49.77,9.13C494,350.25,506.21,352.3,518.56,352.23Z" transform="translate(101 -277)"/><path class="cls-1" d="M65.61,421.48H48.46V321.39H65.61Z" transform="translate(101 -277)"/><path class="cls-1" d="M571.84,387.37c-1.65,4.75-2.52,9.65-4.91,13.63-5.57,9.3-18,9.16-24.06.15-5-7.5-5.07-20.38,0-28,6.06-9.16,18.92-9.13,24.34.44C569.46,377.66,570.26,382.55,571.84,387.37Z" transform="translate(101 -277)"/><path class="cls-1" d="M8.24,384.75H-17.89l13.39-40Z" transform="translate(101 -277)"/><path class="cls-1" d="M172.46,391.08c1.29,12.19-5.34,18.83-16.18,16.89-5.09-.91-8-4.43-7.81-9.35.21-4.51,2.95-7.21,8.3-7.48C161.88,390.88,167,391.08,172.46,391.08Z" transform="translate(101 -277)"/><path class="cls-1" d="M410.09,378.1c1.68-8.81,6.49-13.36,14.22-13.76s13,4.05,15.54,13.76Z" transform="translate(101 -277)"/><path class="cls-1" d="M84.6,451.35c4.93.26,7,3.28,7.05,7.42s-1.84,7.27-7.05,7.67Z" transform="translate(101 -277)"/><path class="cls-1" d="M79.89,466.68c-4.9-1.08-7-3.75-6.85-8.14.18-4.11,2.26-6.69,6.85-7.37Z" transform="translate(101 -277)"/><path class="cls-1" d="M382.36,466.31V451.48c4.87-.12,6.82,2.79,7.32,6.89C390.21,462.72,387.79,465.35,382.36,466.31Z" transform="translate(101 -277)"/><path class="cls-1" d="M378,451v15.37c-4.87-.4-6.85-3.19-6.91-7.49S373.34,452,378,451Z" transform="translate(101 -277)"/><path class="cls-1" d="M330.54,458.66c.09,4.58-2.65,8.13-6.26,8.13s-6-3.18-6.16-7.67c-.12-4.65,2.53-8.11,6.21-8.1C327.8,451,330.46,454.3,330.54,458.66Z" transform="translate(101 -277)"/><path class="cls-1" d="M290,458.78c.06-4.48,2.7-7.82,6.09-7.72s5.83,3.47,5.78,8-2.64,7.8-6.09,7.73S290,463.32,290,458.78Z" transform="translate(101 -277)"/><path class="cls-1" d="M355.88,459.07c-.06,4.52-2.66,7.8-6.11,7.71s-5.83-3.48-5.76-8,2.72-7.82,6.11-7.7S355.94,454.56,355.88,459.07Z" transform="translate(101 -277)"/><path class="cls-1" d="M194.72,456h-10.2l-.8-1.39c1.94-1.24,3.85-3.39,5.84-3.46s4.06,1.91,6.09,3Z" transform="translate(101 -277)"/><path class="cls-1" d="M416.18,459.4c-.16,4.56-2.71,7.55-6.31,7.37s-6.06-3.66-5.86-8.38c.18-4.46,2.85-7.53,6.39-7.36S416.34,454.48,416.18,459.4Z" transform="translate(101 -277)"/><path class="cls-1" d="M87.34,433.76V445c7.34.52,12.64,5.15,12.64,13,0,8.27-5.61,12.64-12.64,13.11V481H83.18V471.2c-7.28-.47-12.63-5.05-12.63-12.9,0-8.32,5.56-12.69,12.63-13.26V433.76Zm-4.16,14.4c-5.09.68-8.11,4.84-8.11,10s3.12,9.25,8.11,9.88ZM87.34,468c5-.68,8.12-4.84,8.12-10s-3.07-9.15-8.12-9.88Z" transform="translate(101 -277)"/><path class="cls-1" d="M109.91,445.51v10.61c0,4,0,6.5-.26,10.09l.16.05c1.51-3.07,2.39-4.84,4-7.75l7.86-13h5.35v25.17H122.7V460c0-4.11.11-6.24.32-10.3h-.16c-1.61,3.23-2.7,5.25-4.16,7.8-2.39,3.9-5.15,8.74-7.85,13.16H105.6V445.51Z" transform="translate(101 -277)"/><path class="cls-1" d="M151.36,445.51v3.64H143.5v21.53H139V449.15h-7.85v-3.64Z" transform="translate(101 -277)"/><path class="cls-1" d="M159.78,445.51v10.14h12V445.51h4.52v25.17h-4.52V459.29h-12v11.39h-4.52V445.51Z" transform="translate(101 -277)"/><path class="cls-1" d="M186.3,458.93c.1,6.18,4.06,8.73,8.63,8.73a16.53,16.53,0,0,0,7-1.3l.78,3.28a20.35,20.35,0,0,1-8.37,1.56c-7.75,0-12.38-5.1-12.38-12.69s4.47-13.57,11.81-13.57c8.21,0,10.4,7.23,10.4,11.85a17.62,17.62,0,0,1-.16,2.14Zm13.42-3.28c.05-2.91-1.2-7.44-6.35-7.44-4.63,0-6.65,4.27-7,7.44Z" transform="translate(101 -277)"/><path class="cls-1" d="M227.74,469.74a16.69,16.69,0,0,1-7.22,1.46c-7.6,0-12.54-5.15-12.54-12.85S213.29,445,221.5,445a15.38,15.38,0,0,1,6.35,1.3l-1,3.54a10.55,10.55,0,0,0-5.31-1.2c-5.77,0-8.89,4.26-8.89,9.52,0,5.82,3.75,9.41,8.74,9.41a13,13,0,0,0,5.61-1.25Z" transform="translate(101 -277)"/><path class="cls-1" d="M243.71,454.92v3.38H230.86v-3.38Z" transform="translate(101 -277)"/><path class="cls-1" d="M249.32,445.51h5.62l4.57,12.69c.63,1.87,1.72,4.94,2.29,6.91h.11c.57-1.87,2-5.87,3-8.63l4.06-11h5.67l1.76,25.17H272l-.58-12c-.15-2.71-.36-5.93-.46-9h-.16c-.68,2.29-1.35,4.32-2.76,8.16l-4.83,12.69h-3.33l-4.47-12.43c-.78-2.39-1.88-6-2.5-8.37h-.21c-.1,3-.26,6.29-.41,9l-.63,11.91h-4.21Z" transform="translate(101 -277)"/><path class="cls-1" d="M296.23,470.68l-.37-3.17h-.15a9.4,9.4,0,0,1-7.7,3.74c-5.1,0-7.7-3.59-7.7-7.23,0-6.08,5.41-9.41,15.14-9.36v-.52c0-2.08-.58-5.82-5.72-5.82a12.61,12.61,0,0,0-6.56,1.87l-1-3a15.65,15.65,0,0,1,8.27-2.23c7.7,0,9.57,5.25,9.57,10.29v9.42a34.64,34.64,0,0,0,.42,6Zm-.68-12.85c-5-.1-10.66.78-10.66,5.67a4.05,4.05,0,0,0,4.32,4.37,6.27,6.27,0,0,0,6.08-4.21,4.68,4.68,0,0,0,.26-1.46Z" transform="translate(101 -277)"/><path class="cls-1" d="M307.35,453.73c0-3.23-.1-5.83-.2-8.22h4.1l.21,4.32h.11a9.88,9.88,0,0,1,8.94-4.89c6.08,0,10.66,5.15,10.66,12.79,0,9-5.51,13.52-11.44,13.52A8.84,8.84,0,0,1,312,467.3h-.1V481h-4.53Zm4.53,6.7a9.92,9.92,0,0,0,.21,1.88,7,7,0,0,0,6.86,5.35c4.84,0,7.64-4,7.64-9.72,0-5.05-2.65-9.36-7.48-9.36a7.3,7.3,0,0,0-6.92,5.67,7.17,7.17,0,0,0-.31,1.87Z" transform="translate(101 -277)"/><path class="cls-1" d="M350.88,470.68l-.37-3.17h-.15a9.4,9.4,0,0,1-7.7,3.74c-5.1,0-7.7-3.59-7.7-7.23,0-6.08,5.41-9.41,15.14-9.36v-.52c0-2.08-.57-5.82-5.72-5.82a12.61,12.61,0,0,0-6.56,1.87l-1-3a15.61,15.61,0,0,1,8.26-2.23c7.7,0,9.57,5.25,9.57,10.29v9.42a35.65,35.65,0,0,0,.42,6Zm-.68-12.85c-5-.1-10.66.78-10.66,5.67a4.05,4.05,0,0,0,4.32,4.37,6.27,6.27,0,0,0,6.08-4.21,4.68,4.68,0,0,0,.26-1.46Z" transform="translate(101 -277)"/><path class="cls-1" d="M377,433.76V445c7.33.52,12.64,5.15,12.64,13,0,8.27-5.62,12.64-12.64,13.11V481h-4.16V471.2c-7.28-.47-12.64-5.05-12.64-12.9,0-8.32,5.57-12.69,12.64-13.26V433.76Zm-4.16,14.4c-5.1.68-8.11,4.84-8.11,10s3.12,9.25,8.11,9.88ZM377,468c5-.68,8.11-4.84,8.11-10s-3.06-9.15-8.11-9.88Z" transform="translate(101 -277)"/><path class="cls-1" d="M418.11,457.89c0,9.3-6.44,13.36-12.53,13.36-6.81,0-12.06-5-12.06-12.95,0-8.42,5.51-13.36,12.48-13.36C413.22,444.94,418.11,450.19,418.11,457.89Zm-20,.26c0,5.51,3.18,9.67,7.65,9.67s7.64-4.11,7.64-9.78c0-4.26-2.13-9.67-7.54-9.67S398.14,453.36,398.14,458.15Z" transform="translate(101 -277)"/><path class="cls-1" d="M428.3,445.51v10.14h12V445.51h4.53v25.17h-4.53V459.29h-12v11.39h-4.52V445.51Z" transform="translate(101 -277)"/></svg>