<svg id="Слой_1" data-name="Слой 1" xmlns="http://www.w3.org/2000/svg" viewBox="0 0 540.5 121.24"><defs><style>.cls-1{fill:#ef3124;}</style></defs><title>logo-восстановлено</title><path class="cls-1" d="M509.9,79.4c-1,.6-1.4.7-1.6.9-7.2,10.5-23.7,9-31.1-2.1-6.6-9.9-6.6-26.1,0-36.1,7-10.4,23.1-12.9,30.9-2.2.2.3,1.1.5,1.7.9a46.11,46.11,0,0,1-.2-6.4h12.9V85c0,11.6-5.2,19.5-14.7,22.6-12,3.9-25.9.7-32.1-7.6a59.6,59.6,0,0,1-3.5-6.1c5.1,0,9.5-.1,13.8.1.7,0,1.5.7,2.2,1.3,4.2,3.5,9,3.6,13.9,2.2a9,9,0,0,0,6.6-7.1C509.5,86.9,509.5,83.4,509.9,79.4ZM484.9,60c-.2,3.4,1.8,7.5,3.6,10.5,4.3,7.4,14.2,7.3,18.5-.1a19.36,19.36,0,0,0-.3-20.7,10.48,10.48,0,0,0-17.7-.5C487,52.3,485.1,56,484.9,60Z" transform="translate(-40.3 -10.06)"/><path class="cls-1" d="M41.5,86.1c3.3-9.4,6.3-18.1,9.3-26.9,4.2-12,8.4-23.9,12.6-35.8,3-8.6,6.9-11.9,14.1-11.4,4.7.3,8.2,2.6,9.8,7,3,8.1,5.7,16.3,8.5,24.5,4.3,12.7,8.5,25.4,12.8,38.2.4,1.3.7,2.6,1.2,4.4-5,0-9.5.1-14-.1-.8,0-1.9-1.4-2.2-2.4-1.2-3.3-2.2-6.7-3.2-10A3,3,0,0,0,87,71c-7.7.1-15.3.1-23,0-2.2,0-3.1.9-3.7,2.8-1.1,3.5-2.2,6.9-3.6,10.3A3.41,3.41,0,0,1,54.2,86C50.2,86.2,46.2,86.1,41.5,86.1ZM65.7,58.2H85.4c-3.1-9.9-6.2-19.5-9.6-30.2C72.2,38.6,69,48.2,65.7,58.2Z" transform="translate(-40.3 -10.06)"/><path class="cls-1" d="M313.6,86.1H255.4V13.2h54.4V24.8H269.4V41.5H293V53.7H269.3V74h44.2C313.6,78.2,313.6,82,313.6,86.1Z" transform="translate(-40.3 -10.06)"/><path class="cls-1" d="M209.4,52.2c0-3.8-.8-6.6-4.3-8-3.9-1.5-9.5-.8-11.5,2.2-1.5,2.2-3.2,2.4-5.4,2.3-3-.1-6,0-9.3,0-.4-4.4,1.7-7.7,4.3-10.6,8-8.9,25.2-9.4,33.9-1.2,4.6,4.3,5.7,9.8,5.8,15.8.1,5.5-.1,13.4.1,18.9.1,1.5.4,2,2,2,.8,0,1,1.6,1.1,2.5.1,3.1.1,6.3.1,9.7-6,.7-11.4.2-15.3-4.8-8.3,7.1-18.4,8.2-25.9,3.1a18.37,18.37,0,0,1-7-20.3c1.8-6.6,7.6-11,15.5-11.5,2.6-.2,5.3-.1,7.9-.1Zm-.1,10.7c-4,0-7.9-.1-11.7,0-4.2.2-6.4,2.3-6.4,5.9s2.2,6.3,6.1,6.9C204.5,76.8,210.7,72.8,209.3,62.9Z" transform="translate(-40.3 -10.06)"/><path class="cls-1" d="M424.3,62.1H388.1c.3,5.7,1.9,10.3,6.8,12.9,4.7,2.5,11.7,2.9,13.8-1.1,1.4-2.8,4.8-2.8,7.8-2.6,2.4.1,4.7,0,7.7,0a18.66,18.66,0,0,1-10.1,13.2c-17.6,9.4-37.9-1.8-39.1-21.6a42,42,0,0,1,.8-11.2c2.8-12.6,12.6-19.7,26-19.1,11.7.5,20.4,8.9,22.2,21.3a52.93,52.93,0,0,1,.5,5.6C424.5,60.3,424.4,61,424.3,62.1Zm-13.6-8.8c-1.1-7-5.4-10.8-11.6-10.5a10.48,10.48,0,0,0-10.4,10.5Z" transform="translate(-40.3 -10.06)"/><path class="cls-1" d="M320,86V34.2h12.7c.2,1.9.3,3.7.5,5.1,3.3-1.9,6.3-4.6,9.8-5.7,12.6-3.9,24.2,4.7,24.9,18.6.5,11.1.1,22.3.1,33.8H354.7V82.1c0-9,.1-18.1-.2-27.1-.2-7-4.8-10.7-11.7-10.2-5.4.4-9.2,3.9-9.5,9.8-.4,8.6-.2,17.3-.3,26v5.5C328.6,86,324.5,86,320,86Z" transform="translate(-40.3 -10.06)"/><path class="cls-1" d="M539.3,107.6c2.6-6.7,5.1-12.7,7.2-18.9a9.48,9.48,0,0,0-.1-6c-5.9-14.8-12-29.5-18.1-44.2-.5-1.3-1-2.5-1.7-4.5,4.8,0,9.3-.1,13.7.1.7,0,1.6,1.7,2,2.7,3.5,9,7,18,10.4,27,.4,1.1.9,2.2,1.7,4.1,2.6-6.8,4.9-12.8,7.2-18.8,1.6-4.1,3.3-8.2,4.6-12.3.8-2.4,2-3.1,4.4-2.9,3.2.2,6.4,0,10.2,0-3.4,8.8-6.6,17.1-9.8,25.4-5.8,15.1-11.7,30.2-17.3,45.3-.9,2.3-2,3.1-4.3,3C546.3,107.5,543.1,107.6,539.3,107.6Z" transform="translate(-40.3 -10.06)"/><path class="cls-1" d="M174.1,36.7v12H161.4V85.8H148V48.9H136V36.8h11.8V26.4c.1-10.5,5.7-16.1,16.1-16.3,6.3-.1,12.5,0,19.1,0V21.6H170.8c-7.9,0-9.5,1.6-9.5,9.5v5.7h6.6C169.9,36.7,171.9,36.7,174.1,36.7Z" transform="translate(-40.3 -10.06)"/><path class="cls-1" d="M111.5,120.8H40.3V106.4h71.2Z" transform="translate(-40.3 -10.06)"/><path class="cls-1" d="M431.7,34.2h12.7c.1,2.1.2,4.1.4,6.9,6.9-8.9,16.2-7.4,25.4-7.5V46.9c-4.2,0-8.3-.1-12.4,0-9.7.3-13.1,3.7-13.2,13.4-.1,8.3-.1,16.6-.1,24.9a9.2,9.2,0,0,1-.3.9H431.7Z" transform="translate(-40.3 -10.06)"/><path class="cls-1" d="M115.8,10.3h12.9V85.8H115.8Z" transform="translate(-40.3 -10.06)"/><path class="cls-1" d="M143.4,94.9v8.7c5.6.4,9.7,4,9.7,10,0,6.4-4.3,9.7-9.7,10.1v7.6h-3.2v-7.5c-5.6-.4-9.7-3.9-9.7-9.9,0-6.4,4.3-9.8,9.7-10.2V95h3.2ZM140.2,106c-3.9.5-6.2,3.7-6.2,7.7s2.4,7.1,6.2,7.6Zm3.2,15.3c3.9-.5,6.2-3.7,6.2-7.7s-2.4-7-6.2-7.6Z" transform="translate(-40.3 -10.06)"/><path class="cls-1" d="M160.8,104v8.2c0,3.1,0,5-.2,7.8h.1c1.2-2.4,1.8-3.7,3.1-6l6-10h4.1v19.4h-3.4v-8.2c0-3.2.1-4.8.2-7.9h-.1c-1.2,2.5-2.1,4-3.2,6-1.8,3-4,6.7-6,10.1h-4V104Z" transform="translate(-40.3 -10.06)"/><path class="cls-1" d="M192.7,104v2.8h-6v16.6h-3.5V106.8h-6V104Z" transform="translate(-40.3 -10.06)"/><path class="cls-1" d="M199.2,104v7.8h9.2V104h3.5v19.4h-3.5v-8.8h-9.2v8.8h-3.5V104Z" transform="translate(-40.3 -10.06)"/><path class="cls-1" d="M219.6,114.3c.1,4.8,3.1,6.7,6.6,6.7a12.65,12.65,0,0,0,5.4-1l.6,2.5a15,15,0,0,1-6.4,1.2c-6,0-9.5-3.9-9.5-9.8s3.4-10.4,9.1-10.4c6.3,0,8,5.6,8,9.1,0,.7-.1,1.3-.1,1.6H219.6Zm10.3-2.5c0-2.2-.9-5.7-4.9-5.7-3.6,0-5.1,3.3-5.4,5.7Z" transform="translate(-40.3 -10.06)"/><path class="cls-1" d="M251.4,122.6a12.87,12.87,0,0,1-5.6,1.1c-5.8,0-9.6-4-9.6-9.9s4.1-10.3,10.4-10.3a11.63,11.63,0,0,1,4.9,1l-.8,2.7a8,8,0,0,0-4.1-.9c-4.4,0-6.8,3.3-6.8,7.3,0,4.5,2.9,7.2,6.7,7.2a9,9,0,0,0,4.3-1Z" transform="translate(-40.3 -10.06)"/><path class="cls-1" d="M263.7,111.2v2.6h-9.9v-2.6Z" transform="translate(-40.3 -10.06)"/><path class="cls-1" d="M268,104h4.3l3.5,9.8c.5,1.4,1.3,3.8,1.8,5.3h.1c.4-1.4,1.5-4.5,2.3-6.6l3.1-8.4h4.4l1.4,19.4h-3.4l-.4-9.2c-.1-2.1-.3-4.6-.4-6.9h-.1c-.5,1.8-1,3.3-2.1,6.3l-3.7,9.8h-2.6l-3.4-9.6c-.6-1.8-1.4-4.6-1.9-6.4h-.2c-.1,2.3-.2,4.8-.3,7l-.5,9.2h-3.2Z" transform="translate(-40.3 -10.06)"/><path class="cls-1" d="M304.1,123.3l-.3-2.4h-.1a7.36,7.36,0,0,1-5.9,2.9,5.54,5.54,0,0,1-5.9-5.6c0-4.7,4.2-7.2,11.6-7.2v-.4c0-1.6-.4-4.5-4.4-4.5a10.08,10.08,0,0,0-5,1.4l-.8-2.3a12.37,12.37,0,0,1,6.4-1.7c5.9,0,7.4,4,7.4,7.9v7.2a31.32,31.32,0,0,0,.3,4.6h-3.3Zm-.5-9.8c-3.8-.1-8.2.6-8.2,4.4a3.12,3.12,0,0,0,3.3,3.4,4.93,4.93,0,0,0,4.7-3.2,5.16,5.16,0,0,0,.2-1.1Z" transform="translate(-40.3 -10.06)"/><path class="cls-1" d="M312.7,110.3c0-2.5-.1-4.5-.2-6.3h3.2l.2,3.3h.1a7.51,7.51,0,0,1,6.9-3.8c4.7,0,8.2,4,8.2,9.8,0,7-4.2,10.4-8.8,10.4a6.87,6.87,0,0,1-6-3h-.1v10.5h-3.5V110.3Zm3.5,5.2a5.9,5.9,0,0,0,.2,1.4,5.46,5.46,0,0,0,5.3,4.1c3.7,0,5.9-3,5.9-7.5,0-3.9-2-7.2-5.8-7.2a5.59,5.59,0,0,0-5.3,4.4,6.75,6.75,0,0,0-.2,1.4v3.4Z" transform="translate(-40.3 -10.06)"/><path class="cls-1" d="M346.2,123.3l-.3-2.4h-.1a7.36,7.36,0,0,1-5.9,2.9,5.54,5.54,0,0,1-5.9-5.6c0-4.7,4.2-7.2,11.6-7.2v-.4c0-1.6-.4-4.5-4.4-4.5a10.08,10.08,0,0,0-5,1.4l-.8-2.3a12.37,12.37,0,0,1,6.4-1.7c5.9,0,7.4,4,7.4,7.9v7.2a31.32,31.32,0,0,0,.3,4.6h-3.3Zm-.6-9.8c-3.8-.1-8.2.6-8.2,4.4a3.12,3.12,0,0,0,3.3,3.4,4.93,4.93,0,0,0,4.7-3.2,5.16,5.16,0,0,0,.2-1.1Z" transform="translate(-40.3 -10.06)"/><path class="cls-1" d="M366.2,94.9v8.7c5.6.4,9.7,4,9.7,10,0,6.4-4.3,9.7-9.7,10.1v7.6H363v-7.5c-5.6-.4-9.7-3.9-9.7-9.9,0-6.4,4.3-9.8,9.7-10.2V95h3.2ZM363,106c-3.9.5-6.2,3.7-6.2,7.7s2.4,7.1,6.2,7.6Zm3.2,15.3c3.9-.5,6.2-3.7,6.2-7.7s-2.4-7-6.2-7.6Z" transform="translate(-40.3 -10.06)"/><path class="cls-1" d="M397.9,113.5c0,7.2-5,10.3-9.6,10.3-5.2,0-9.3-3.8-9.3-10,0-6.5,4.2-10.3,9.6-10.3S397.9,107.6,397.9,113.5Zm-15.4.2c0,4.2,2.4,7.4,5.9,7.4s5.9-3.2,5.9-7.5c0-3.3-1.6-7.4-5.8-7.4S382.5,110,382.5,113.7Z" transform="translate(-40.3 -10.06)"/><path class="cls-1" d="M405.7,104v7.8h9.2V104h3.5v19.4h-3.5v-8.8h-9.2v8.8h-3.5V104Z" transform="translate(-40.3 -10.06)"/></svg>