<svg width="30" height="30" viewBox="0 0 30 30" fill="none" xmlns="http://www.w3.org/2000/svg">
<g clip-path="url(#clip0)">
<path d="M29.7429 24.7712L24.6741 19.7023L27.1601 17.2164C27.3755 17.001 27.464 16.6895 27.394 16.393C27.324 16.0965 27.1055 15.8575 26.8165 15.7611L11.901 10.7893C11.5853 10.684 11.237 10.7662 11.0016 11.0016C10.7662 11.237 10.684 11.5852 10.7893 11.901L15.7611 26.8166C15.8575 27.1056 16.0966 27.3241 16.393 27.394C16.6894 27.4642 17.001 27.3756 17.2164 27.1601L19.7024 24.6742L24.7712 29.743C24.9428 29.9146 25.1678 30.0005 25.3927 30.0005C25.6175 30.0005 25.8425 29.9147 26.0141 29.743L29.743 26.0141C30.0862 25.6709 30.0862 25.1144 29.7429 24.7712ZM25.3926 27.8786L20.3238 22.8098C19.9806 22.4665 19.424 22.4665 19.0808 22.8098L16.979 24.9116L13.0127 13.0128L24.9115 16.9791L22.8097 19.0809C22.4668 19.4238 22.4665 19.9806 22.8097 20.3238L27.8785 25.3927L25.3926 27.8786Z" fill="#79C330"/>
<path d="M11.4258 7.03125C11.9112 7.03125 12.3047 6.63773 12.3047 6.15234V0.878906C12.3047 0.393516 11.9112 0 11.4258 0C10.9404 0 10.5469 0.393516 10.5469 0.878906V6.15234C10.5469 6.63773 10.9404 7.03125 11.4258 7.03125Z" fill="#79C330"/>
<path d="M4.58925 3.3463C4.24606 3.00306 3.68954 3.00306 3.3463 3.3463C3.00306 3.68954 3.00306 4.24601 3.3463 4.58925L7.07521 8.31815C7.41839 8.6614 7.97497 8.6614 8.31815 8.31815C8.6614 7.97491 8.6614 7.41845 8.31815 7.07521L4.58925 3.3463Z" fill="#4DA2D6"/>
<path d="M7.07521 14.5328L3.3463 18.2617C3.00306 18.605 3.00306 19.1614 3.3463 19.5047C3.68948 19.8479 4.24606 19.8479 4.58925 19.5047L8.31815 15.7758C8.6614 15.4325 8.6614 14.8761 8.31815 14.5328C7.97491 14.1896 7.41839 14.1896 7.07521 14.5328Z" fill="#4DA2D6"/>
<path d="M15.7758 8.31815L19.5047 4.58925C19.8479 4.24601 19.8479 3.68954 19.5047 3.3463C19.1615 3.00306 18.605 3.00306 18.2617 3.3463L14.5328 7.07521C14.1896 7.41845 14.1896 7.97491 14.5328 8.31815C14.876 8.6614 15.4326 8.6614 15.7758 8.31815Z" fill="#4DA2D6"/>
<path d="M7.03125 11.4258C7.03125 10.9404 6.63773 10.5469 6.15234 10.5469H0.878906C0.393516 10.5469 0 10.9404 0 11.4258C0 11.9112 0.393516 12.3047 0.878906 12.3047H6.15234C6.63773 12.3047 7.03125 11.9112 7.03125 11.4258Z" fill="#79C330"/>
</g>
<defs>
<clipPath id="clip0">
<rect width="30" height="30" fill="white"/>
</clipPath>
</defs>
</svg>
