<svg width="30" height="30" viewBox="0 0 30 30" fill="none" xmlns="http://www.w3.org/2000/svg">
<path d="M10.3125 8.20312H12.9493V14.9414C12.9493 15.4268 13.3428 15.8203 13.8282 15.8203H25.5469C26.0323 15.8203 26.4258 15.4268 26.4258 14.9414V4.39453C26.4258 3.90914 26.0323 3.51562 25.5469 3.51562H13.8282C13.6226 3.51562 13.4235 3.5877 13.2655 3.71936L9.74987 6.64904C9.46563 6.88594 9.36016 7.27547 9.48614 7.62346C9.61211 7.97145 9.94252 8.20312 10.3125 8.20312ZM14.1464 5.27344H24.668V14.0625H14.7071V7.32422C14.7071 6.83883 14.3136 6.44531 13.8282 6.44531H12.7401L14.1464 5.27344Z" fill="#4DA2D6"/>
<path d="M17.3438 8.78906H22.0312C22.5166 8.78906 22.9102 8.39555 22.9102 7.91016C22.9102 7.42477 22.5166 7.03125 22.0312 7.03125H17.3438C16.8584 7.03125 16.4648 7.42477 16.4648 7.91016C16.4648 8.39555 16.8584 8.78906 17.3438 8.78906Z" fill="#4DA2D6"/>
<path d="M17.3438 12.3047H22.0312C22.5166 12.3047 22.9102 11.9112 22.9102 11.4258C22.9102 10.9404 22.5166 10.5469 22.0312 10.5469H17.3438C16.8584 10.5469 16.4648 10.9404 16.4648 11.4258C16.4648 11.9112 16.8584 12.3047 17.3438 12.3047Z" fill="#4DA2D6"/>
<path d="M27.3633 0H2.63672C1.18283 0 0 1.18283 0 2.63672V21.5039C0 22.9578 1.18283 24.1406 2.63672 24.1406H10.5527C10.388 25.5195 9.83994 26.84 8.96789 27.9301L8.71816 28.2422H6.79688C6.31148 28.2422 5.91797 28.6357 5.91797 29.1211C5.91797 29.6065 6.31148 30 6.79688 30H23.2031C23.6885 30 24.082 29.6065 24.082 29.1211C24.082 28.6357 23.6885 28.2422 23.2031 28.2422H21.2818L21.0321 27.9301C20.1601 26.84 19.6119 25.5195 19.4473 24.1406H27.3633C28.8172 24.1406 30 22.9578 30 21.5039V2.63672C30 1.18283 28.8172 0 27.3633 0ZM2.63672 1.75781H27.3633C27.8479 1.75781 28.2422 2.15209 28.2422 2.63672V18.1641H12.3633V17.8711C12.3633 16.3252 11.5603 14.9643 10.3501 14.1807C10.8725 13.6077 11.1914 12.8463 11.1914 12.0117C11.1914 10.2347 9.74572 8.78906 7.96875 8.78906C6.19178 8.78906 4.74609 10.2347 4.74609 12.0117C4.74609 12.8463 5.06502 13.6077 5.58738 14.1807C4.37725 14.9643 3.57422 16.3252 3.57422 17.8711V18.1641H1.75781V2.63672C1.75781 2.15209 2.15209 1.75781 2.63672 1.75781ZM6.50391 12.0117C6.50391 11.204 7.16104 10.5469 7.96875 10.5469C8.77646 10.5469 9.43359 11.204 9.43359 12.0117C9.43359 12.8194 8.77646 13.4766 7.96875 13.4766C7.16104 13.4766 6.50391 12.8194 6.50391 12.0117ZM7.96875 15.2344C9.42264 15.2344 10.6055 16.4172 10.6055 17.8711V18.1641H5.33203V17.8711C5.33203 16.4172 6.51486 15.2344 7.96875 15.2344ZM19.0962 28.2422H10.9038C11.6924 27.0092 12.1802 25.598 12.3209 24.1406H17.6791C17.8198 25.598 18.3076 27.0092 19.0962 28.2422ZM27.3633 22.3828H2.63672C2.15209 22.3828 1.75781 21.9885 1.75781 21.5039V19.9219H28.2422V21.5039C28.2422 21.9885 27.8479 22.3828 27.3633 22.3828Z" fill="#79C330"/>
</svg>
