<svg xmlns="http://www.w3.org/2000/svg" width="17" height="17" viewBox="0 0 17 17">
  <g fill="#1F447B" fill-rule="evenodd">
    <path d="M9.6836,10.999 C8.7406,10.999 7.7976,10.64 7.0796,9.922 C6.8846,9.727 6.8846,9.41 7.0796,9.215 C7.2756,9.02 7.5916,9.02 7.7876,9.215 C8.8326,10.261 10.5346,10.261 11.5796,9.215 L15.2156,5.579 C16.2616,4.533 16.2616,2.832 15.2156,1.786 C14.1696,0.74 12.4686,0.74 11.4226,1.786 L8.3556,4.854 C8.1606,5.049 7.8426,5.049 7.6486,4.854 C7.4536,4.659 7.4536,4.342 7.6486,4.147 L10.7156,1.079 C12.1526,-0.357 14.4886,-0.357 15.9226,1.079 C17.3576,2.515 17.3596,4.851 15.9226,6.286 L12.2876,9.922 C11.5686,10.64 10.6256,10.999 9.6836,10.999"/>
    <path d="M3.6836,16.999 C2.7406,16.999 1.7976,16.64 1.0796,15.922 C-0.3554,14.486 -0.3554,12.15 1.0796,10.715 L4.7156,7.079 C6.1526,5.643 8.4886,5.643 9.9226,7.079 C10.1186,7.274 10.1186,7.591 9.9226,7.786 C9.7286,7.981 9.4116,7.981 9.2156,7.786 C8.1696,6.74 6.4686,6.74 5.4226,7.786 L1.7876,11.422 C0.7406,12.468 0.7406,14.169 1.7876,15.215 C2.8326,16.261 4.5346,16.261 5.5796,15.215 L8.6486,12.147 C8.8426,11.952 9.1606,11.952 9.3556,12.147 C9.5496,12.342 9.5496,12.659 9.3556,12.854 L6.2876,15.922 C5.5686,16.64 4.6256,16.999 3.6836,16.999"/>
  </g>
</svg>
