<?xml version="1.0" encoding="UTF-8" standalone="no"?>
<!DOCTYPE svg PUBLIC "-//W3C//DTD SVG 1.1//EN" "http://www.w3.org/Graphics/SVG/1.1/DTD/svg11.dtd">
<svg width="100%" height="100%" viewBox="0 0 966 175" version="1.1" xmlns="http://www.w3.org/2000/svg" xmlns:xlink="http://www.w3.org/1999/xlink" xml:space="preserve" xmlns:serif="http://www.serif.com/" style="fill-rule:evenodd;clip-rule:evenodd;stroke-linejoin:round;stroke-miterlimit:1.41421;">
    <g transform="matrix(1,0,0,1,-13660,-2190)">
        <g transform="matrix(0.735437,0,0,0.865661,13167.2,1968.99)">
            <g>
                <g transform="matrix(2.11615,0,0,1.6193,-2669.42,-1668.42)">
                    <g transform="matrix(0.795086,0,0,0.882738,-5249.71,-763.288)">
                        <path d="M8689.49,2210.78C8696.94,2210.83 8704.68,2212.5 8710.17,2217.35C8719.28,2225.38 8721.63,2238.87 8722.58,2250.6C8724.35,2272.48 8720.96,2295.06 8713.15,2314.98C8709.42,2324.52 8704.27,2333.7 8695.78,2339.62C8679.45,2351.01 8657.32,2353.09 8637.1,2349.84C8622.85,2347.54 8608.84,2342 8600.06,2330.28C8581.84,2305.97 8584.84,2266.1 8606.09,2246.51C8621.46,2232.36 8641.21,2222.61 8660.67,2216.16C8669.86,2213.1 8679.4,2210.82 8689.05,2210.77C8689.2,2210.77 8689.34,2210.77 8689.49,2210.78ZM8689.07,2216.61C8669.8,2216.7 8651.14,2224.93 8634.63,2233.95C8621.74,2241 8608.55,2249.12 8601.59,2261.45C8593.05,2276.56 8591.92,2295.58 8597.35,2312.26C8600.69,2322.53 8607.26,2332.01 8616.97,2337.29C8638.29,2348.89 8666.86,2348.09 8686.91,2338.09C8704.9,2329.13 8712.13,2305.01 8715.43,2282.79C8717.74,2267.26 8718.54,2251.17 8714.2,2236.02C8712.27,2229.3 8708.96,2222.55 8702.91,2219.4C8698.73,2217.23 8693.9,2216.61 8689.07,2216.61Z" style="fill:white;"/>
                    </g>
                    <g transform="matrix(0.863991,0,0,0.95924,-5846.03,-643.798)">
                        <path d="M8643.51,1954.31C8649.4,1956.99 8656.31,1955.93 8661.13,1951.62C8669.72,1943.89 8681.64,1945.11 8687.15,1952.23C8696.53,1964.35 8691.3,1976.34 8682.15,1991.39C8677.71,1998.69 8669.83,2006.55 8661.63,2012.91C8656.8,2016.66 8650.06,2016.74 8645.15,2013.09C8636.69,2006.83 8628.4,1999.11 8624.61,1991.39C8617.42,1977.72 8617.42,1964.06 8624.61,1957.23C8629.22,1952.85 8636.78,1951.28 8643.51,1954.31Z" style="fill:white;"/>
                    </g>
                </g>
                <g transform="matrix(2.02178,0,0,1.71764,-462.538,-1979.31)">
                    <path d="M725.885,1345.74C726.185,1347.69 726.285,1349.69 726.285,1353.14L726.285,1361.44L709.435,1361.44L709.435,1353.14C709.435,1350.04 709.535,1348.09 709.835,1345.74L699.085,1345.74C699.385,1347.89 699.485,1349.69 699.485,1353.14L699.485,1379.94C699.485,1383.44 699.385,1385.29 699.085,1387.34L709.835,1387.34C709.535,1385.09 709.435,1383.19 709.435,1379.94L709.435,1370.24L726.285,1370.24L726.285,1379.94C726.285,1383.39 726.185,1385.24 725.885,1387.34L736.635,1387.34C736.335,1384.89 736.235,1383.19 736.235,1379.94L736.235,1353.14C736.235,1349.64 736.335,1347.79 736.635,1345.74L725.885,1345.74Z" style="fill:white;fill-rule:nonzero;"/>
                    <path d="M782.285,1387.34C781.635,1385.94 780.835,1383.89 779.885,1381.24L769.035,1351.14C768.035,1348.49 767.685,1347.19 767.335,1345.74L754.285,1345.74C754.035,1347.19 753.585,1348.69 752.685,1351.14L741.885,1381.24C740.685,1384.64 740.235,1385.84 739.485,1387.34L751.185,1387.34C751.435,1385.49 751.785,1383.94 752.435,1381.94L753.785,1377.69L768.035,1377.69L769.385,1381.94C769.885,1383.64 770.185,1384.94 770.585,1387.34L782.285,1387.34ZM765.585,1369.29L756.185,1369.29L760.835,1354.29L765.585,1369.29Z" style="fill:white;fill-rule:nonzero;"/>
                    <path d="M785.235,1376.44C785.835,1378.64 786.185,1379.54 786.735,1380.54C788.035,1382.94 790.585,1385.29 792.985,1386.34C795.935,1387.59 799.835,1388.29 803.935,1388.29C810.085,1388.29 815.085,1386.69 818.135,1383.69C820.135,1381.79 821.135,1379.24 821.135,1376.19C821.135,1372.99 820.035,1370.14 818.185,1368.54C816.585,1367.09 815.035,1366.39 812.385,1365.84C814.785,1364.99 815.835,1364.49 816.835,1363.64C818.785,1361.89 819.935,1359.19 819.935,1356.04C819.935,1353.94 819.535,1352.29 818.585,1350.74C816.285,1346.94 810.885,1344.74 803.935,1344.74C800.285,1344.74 796.935,1345.34 794.085,1346.54C792.335,1347.29 790.735,1348.49 789.285,1350.09C787.885,1351.64 787.185,1352.99 786.185,1356.04L796.885,1357.54C797.235,1356.04 797.635,1355.34 798.285,1354.74C799.585,1353.64 801.535,1353.04 803.835,1353.04C807.385,1353.04 809.385,1354.59 809.385,1357.44C809.385,1360.64 807.235,1362.04 802.435,1362.04C800.485,1362.04 798.935,1361.94 797.535,1361.79L797.535,1370.24C798.835,1370.04 800.135,1369.94 802.585,1369.94C805.585,1369.94 807.035,1370.09 808.235,1370.59C809.785,1371.19 810.585,1372.54 810.585,1374.54C810.585,1377.89 807.885,1379.89 803.385,1379.89C800.835,1379.89 798.635,1379.14 797.135,1377.74C796.335,1376.99 795.985,1376.24 795.635,1374.59L785.235,1376.44Z" style="fill:white;fill-rule:nonzero;"/>
                    <path d="M824.585,1387.29C824.585,1388.59 824.435,1390.64 824.235,1391.54L835.085,1391.54C834.935,1390.59 834.785,1389.19 834.785,1388.39L834.785,1387.34L858.435,1387.34L858.435,1388.14C858.435,1389.69 858.335,1390.54 858.135,1391.54L868.935,1391.54C868.735,1390.24 868.585,1388.54 868.585,1387.04L868.585,1383.14C868.585,1381.69 868.685,1379.99 868.885,1378.39C867.485,1378.49 866.485,1378.54 864.135,1378.54L864.135,1352.89C864.135,1350.04 864.235,1348.04 864.535,1345.59C862.235,1345.69 860.985,1345.74 857.185,1345.74L840.135,1345.74C836.435,1345.74 835.485,1345.74 832.835,1345.59C833.135,1347.89 833.235,1349.74 833.235,1352.89L833.235,1355.29C833.235,1359.54 832.685,1364.74 831.785,1369.19C831.035,1372.69 830.435,1374.59 828.785,1378.54C826.435,1378.54 825.835,1378.49 824.285,1378.39C824.435,1379.34 824.585,1381.34 824.585,1382.14L824.585,1387.29ZM838.935,1378.54C840.685,1374.39 841.385,1372.09 841.985,1368.44C842.685,1364.39 842.985,1360.89 843.085,1354.49L854.135,1354.49L854.135,1378.54L838.935,1378.54Z" style="fill:white;fill-rule:nonzero;"/>
                    <path d="M889.885,1344.84C877.585,1344.84 869.685,1353.29 869.685,1366.49C869.685,1379.74 877.585,1388.29 889.835,1388.29C901.985,1388.29 910.035,1379.54 910.035,1366.34C910.035,1353.24 902.185,1344.84 889.885,1344.84ZM889.885,1379.64C883.785,1379.64 880.035,1374.59 880.035,1366.44C880.035,1358.39 883.785,1353.44 889.885,1353.44C895.935,1353.44 899.635,1358.34 899.635,1366.44C899.635,1374.64 895.935,1379.64 889.885,1379.64Z" style="fill:white;fill-rule:nonzero;"/>
                    <path d="M927.835,1387.34C927.585,1385.19 927.435,1382.74 927.435,1379.79L927.435,1373.39L935.335,1373.39C945.035,1373.39 950.735,1368.09 950.735,1359.19C950.735,1350.49 945.285,1345.74 935.385,1345.74L924.435,1345.74C921.235,1345.74 919.435,1345.69 917.085,1345.59C917.385,1347.94 917.485,1350.19 917.485,1352.89L917.485,1379.94C917.485,1382.89 917.385,1385.14 917.085,1387.34L927.835,1387.34ZM927.435,1364.89L927.435,1354.24L934.885,1354.24C938.485,1354.24 940.435,1356.04 940.435,1359.49C940.435,1362.94 938.385,1364.89 934.885,1364.89L927.435,1364.89Z" style="fill:white;fill-rule:nonzero;"/>
                    <path d="M975.885,1344.84C963.585,1344.84 955.685,1353.29 955.685,1366.49C955.685,1379.74 963.585,1388.29 975.835,1388.29C987.985,1388.29 996.035,1379.54 996.035,1366.34C996.035,1353.24 988.185,1344.84 975.885,1344.84ZM975.885,1379.64C969.785,1379.64 966.035,1374.59 966.035,1366.44C966.035,1358.39 969.785,1353.44 975.885,1353.44C981.935,1353.44 985.635,1358.34 985.635,1366.44C985.635,1374.64 981.935,1379.64 975.885,1379.64Z" style="fill:white;fill-rule:nonzero;"/>
                    <path d="M1023.49,1387.34C1032.18,1387.34 1037.29,1383.09 1037.29,1375.89C1037.29,1372.64 1036.18,1369.94 1034.04,1368.04C1032.59,1366.79 1031.29,1366.19 1028.84,1365.64C1030.88,1364.89 1031.79,1364.39 1032.88,1363.44C1034.79,1361.74 1035.79,1359.29 1035.79,1356.24C1035.79,1349.64 1031.04,1345.74 1022.94,1345.74L1009.84,1345.74C1005.74,1345.74 1005.03,1345.74 1002.49,1345.59C1002.78,1347.99 1002.88,1350.14 1002.88,1352.79L1002.88,1380.14C1002.88,1383.64 1002.78,1385.34 1002.49,1387.49C1004.63,1387.39 1006.09,1387.34 1009.88,1387.34L1023.49,1387.34ZM1012.69,1361.84L1012.69,1353.94L1021.38,1353.94C1024.24,1353.94 1025.79,1355.34 1025.79,1357.84C1025.79,1360.29 1024.13,1361.84 1021.49,1361.84L1012.69,1361.84ZM1012.69,1369.84L1021.84,1369.84C1025.04,1369.84 1026.93,1371.54 1026.93,1374.44C1026.93,1377.34 1025.04,1379.09 1021.88,1379.09L1012.69,1379.09L1012.69,1369.84Z" style="fill:white;fill-rule:nonzero;"/>
                    <path d="M1045.74,1345.74C1046.04,1348.09 1046.13,1350.14 1046.13,1353.24L1046.13,1380.24C1046.13,1383.49 1046.04,1385.29 1045.74,1387.49C1048.34,1387.34 1049.38,1387.34 1053.09,1387.34L1066.74,1387.34C1075.79,1387.34 1080.49,1382.79 1080.49,1374.14C1080.49,1365.44 1075.79,1360.99 1066.74,1360.99L1056.09,1360.99L1056.09,1353.14C1056.09,1350.24 1056.18,1348.04 1056.49,1345.74L1045.74,1345.74ZM1056.09,1379.04L1056.09,1369.29L1065.04,1369.29C1068.29,1369.29 1070.13,1371.09 1070.13,1374.19C1070.13,1377.19 1068.24,1379.04 1065.09,1379.04L1056.09,1379.04Z" style="fill:white;fill-rule:nonzero;"/>
                    <path d="M1121.13,1378.34C1118.99,1378.59 1116.79,1378.69 1112.99,1378.69L1100.09,1378.69L1100.09,1370.29L1110.88,1370.29C1114.34,1370.29 1116.04,1370.39 1118.38,1370.64L1118.38,1361.39C1115.38,1361.69 1114.18,1361.74 1110.88,1361.74L1100.09,1361.74L1100.09,1354.39L1113.09,1354.39C1116.43,1354.39 1118.24,1354.49 1120.54,1354.74L1120.54,1345.39C1118.18,1345.64 1116.49,1345.74 1113.09,1345.74L1097.13,1345.74C1093.24,1345.74 1091.84,1345.69 1089.79,1345.59C1090.09,1348.04 1090.18,1349.79 1090.18,1352.89L1090.18,1380.19C1090.18,1383.64 1090.09,1385.49 1089.79,1387.49C1091.93,1387.39 1093.34,1387.34 1097.13,1387.34L1112.88,1387.34C1117.18,1387.34 1118.99,1387.44 1121.13,1387.69L1121.13,1378.34Z" style="fill:white;fill-rule:nonzero;"/>
                </g>
                <g transform="matrix(2.24243,0,0,1.90509,278.476,-2235.07)">
                    <path d="M716.535,1385.24C719.035,1385.24 720.685,1385.34 722.685,1385.54L722.685,1381.34C720.785,1381.59 719.085,1381.69 716.585,1381.69L700.635,1381.69C701.235,1379.29 701.935,1377.94 703.485,1375.89C705.135,1373.79 706.735,1372.39 710.685,1369.74C716.385,1365.94 717.685,1364.99 719.185,1363.29C721.135,1361.14 722.135,1358.74 722.135,1356.19C722.135,1350.29 717.285,1346.49 709.735,1346.49C705.335,1346.49 701.935,1347.79 699.685,1350.34C698.035,1352.19 697.285,1353.94 696.535,1357.54L700.735,1358.24C701.085,1355.74 701.535,1354.54 702.485,1353.19C703.985,1351.04 706.435,1349.94 709.735,1349.94C714.835,1349.94 718.035,1352.39 718.035,1356.19C718.035,1359.24 716.385,1361.44 711.435,1364.79C705.635,1368.74 705.535,1368.79 703.785,1370.29C700.635,1372.99 698.535,1375.74 697.285,1378.89C696.535,1380.79 696.385,1381.54 695.835,1385.49C697.435,1385.29 698.185,1385.24 701.335,1385.24L716.535,1385.24Z" style="fill:white;fill-rule:nonzero;"/>
                    <rect x="725.235" y="1380.29" width="4.95" height="4.95" style="fill:white;fill-rule:nonzero;"/>
                    <path d="M746.135,1385.99C750.735,1385.99 754.235,1384.24 756.735,1380.74C758.935,1377.69 760.235,1372.34 760.235,1366.29C760.235,1362.14 759.585,1358.14 758.335,1354.69C757.735,1353.04 756.735,1351.49 755.335,1350.09C753.085,1347.74 749.885,1346.54 746.185,1346.54C741.235,1346.54 737.385,1348.64 734.985,1352.69C733.235,1355.59 732.085,1360.99 732.085,1366.29C732.085,1370.39 732.735,1374.34 733.985,1377.84C734.585,1379.54 735.635,1381.09 736.985,1382.44C739.335,1384.79 742.435,1385.99 746.135,1385.99ZM746.135,1349.99C749.635,1349.99 752.335,1351.54 753.985,1354.54C755.285,1356.89 756.235,1361.84 756.235,1366.19C756.235,1369.89 755.735,1373.19 754.685,1376.29C754.235,1377.74 753.435,1379.04 752.335,1380.19C750.835,1381.74 748.685,1382.54 746.185,1382.54C742.785,1382.54 740.185,1381.09 738.435,1378.19C737.085,1375.84 736.085,1370.94 736.085,1366.29C736.085,1362.64 736.585,1359.24 737.635,1356.19C738.035,1354.94 738.835,1353.69 739.885,1352.54C741.485,1350.84 743.535,1349.99 746.135,1349.99Z" style="fill:white;fill-rule:nonzero;"/>
                </g>
            </g>
        </g>
    </g>
</svg>
