<svg width="50" height="50" viewBox="0 0 50 50" fill="none" xmlns="http://www.w3.org/2000/svg">
<path d="M38.3654 44.2123C28.7584 44.2123 22.1612 49.1887 17.5321 49.1887C12.9029 49.1887 3.18066 46.5276 3.18066 25.2318C3.18066 3.93596 16.2598 0.80957 21.3515 0.80957C45.1945 0.80957 55.3793 44.2123 38.3654 44.2123Z" fill="#EFEFEF"/>
<path d="M42.3617 33.3337C41.213 33.3337 40.2783 32.3989 40.2783 31.2503C40.2783 30.1017 41.213 29.167 42.3617 29.167C43.5103 29.167 44.445 30.1017 44.445 31.2503C44.445 32.3989 43.5103 33.3337 42.3617 33.3337ZM42.3617 30.5559C41.9797 30.5559 41.6672 30.867 41.6672 31.2503C41.6672 31.6337 41.9797 31.9448 42.3617 31.9448C42.7436 31.9448 43.0561 31.6337 43.0561 31.2503C43.0561 30.867 42.7436 30.5559 42.3617 30.5559Z" fill="#A4AFC1"/>
<path d="M1.50391 7.79395L2.486 6.81185L4.45018 8.77604L3.46809 9.75813L1.50391 7.79395Z" fill="#A4AFC1"/>
<path d="M1.25781 14.4238L3.222 12.4596L4.20409 13.4417L2.23991 15.4059L1.25781 14.4238Z" fill="#A4AFC1"/>
<path d="M6.90527 8.7793L8.86946 6.81511L9.85155 7.7972L7.88737 9.76139L6.90527 8.7793Z" fill="#A4AFC1"/>
<path d="M12.1523 19.0967H33.6801V33.68H12.1523V19.0967Z" fill="#F3F3F1"/>
<path d="M39.8438 33.859C39.8438 35.1627 38.768 36.2305 37.4538 36.2305H11.179C9.8648 36.2305 8.78906 35.1627 8.78906 33.859C8.78906 33.4095 8.90831 32.9824 9.14681 32.6273L22.2842 11.2936C22.6916 10.6057 23.4568 10.1562 24.3164 10.1562C25.176 10.1562 25.9412 10.6057 26.3461 11.2936L39.4835 32.6273C39.7245 32.9824 39.8438 33.4095 39.8438 33.859Z" fill="#79C330"/>
<path d="M14.3604 33.859C14.3604 33.4095 14.4793 32.9824 14.717 32.6273L27.0508 12.5352L26.2881 11.2936C25.8845 10.6057 25.1218 10.1562 24.2651 10.1562C23.4083 10.1562 22.6457 10.6057 22.2421 11.2936L9.14563 32.6273C8.90792 32.9824 8.78906 33.4095 8.78906 33.859C8.78906 35.1627 9.86124 36.2305 11.1711 36.2305H16.7425C15.4326 36.2305 14.3604 35.1627 14.3604 33.859Z" fill="#39961E"/>
<path d="M37.4479 38.0859H11.1849C8.84074 38.0859 6.93359 36.1871 6.93359 33.854C6.93359 33.0249 7.16702 32.2381 7.60904 31.5804L20.6983 10.3212C21.4284 9.08761 22.819 8.30078 24.3164 8.30078C25.8138 8.30078 27.2044 9.08761 27.9519 10.3535L41.0635 31.6474C41.4658 32.2406 41.6992 33.0249 41.6992 33.854C41.6992 36.1871 39.7921 38.0859 37.4479 38.0859ZM24.3164 12.0239C24.0979 12.0239 23.9514 12.1431 23.8918 12.2448L10.6585 33.854C10.6585 34.1295 10.8994 34.3628 11.1849 34.3628H37.4479C37.7335 34.3628 37.9743 34.1295 37.9743 33.854C37.9743 33.7721 37.9594 33.7001 37.9321 33.6604L24.7584 12.2721C24.6814 12.1431 24.5349 12.0239 24.3164 12.0239Z" fill="#2C2F33"/>
<path d="M22.4609 18.2617H26.1719V26.9531H22.4609V18.2617Z" fill="#2C2F33"/>
<path d="M24.3164 33.1055C25.3412 33.1055 26.1719 32.2747 26.1719 31.25C26.1719 30.2253 25.3412 29.3945 24.3164 29.3945C23.2917 29.3945 22.4609 30.2253 22.4609 31.25C22.4609 32.2747 23.2917 33.1055 24.3164 33.1055Z" fill="#2C2F33"/>
</svg>
