<svg xmlns="http://www.w3.org/2000/svg" width="153" height="133" viewBox="0 0 153 133">
  <g fill="none" fill-rule="evenodd">
    <ellipse cx="60.5" cy="68.5" fill="#F3F6F8" rx="60.5" ry="60.5"/>
    <circle cx="143" cy="10" r="10" fill="#F3F7F9"/>
    <ellipse cx="4" cy="11" fill="#CED9EB" rx="4" ry="4"/>
    <ellipse cx="11" cy="90" fill="#70CFFE" rx="3" ry="3"/>
    <circle cx="122.5" cy="85.5" r="2.5" fill="#1F447B"/>
    <path fill="#1F447B" fill-rule="nonzero" d="M107.103899 103.483591C105.705805 104.858464 104.264506 106.216483 102.783564 107.556902 96.4944178 113.24928 89.751248 118.406219 82.9815404 122.945957 80.5789483 124.557125 78.3333611 125.981578 76.2904332 127.214246 75.560086 127.654925 74.9026407 128.042598 74.3164532 128.380925 74.1052005 128.502852 73.9161025 128.610919 73.7423411 128.709339 73.640615 128.766958 73.5541426 128.81561 73.4607467 128.868082 73.308715 128.948883 73.1063524 129 72.9022556 129 72.6981589 129 72.4957963 128.948883 72.3043897 128.846435 72.2502602 128.815555 72.1634742 128.766736 72.0622004 128.709389 71.8884802 128.611018 71.6995926 128.503103 71.4885685 128.381345 70.9028116 128.04337 70.2460057 127.656195 69.5163642 127.216082 67.4752217 125.984884 65.2317404 124.562214 62.8313929 122.95304 56.06788 118.418834 49.3309839 113.268116 43.0476826 107.582404 41.5573448 106.233808 40.1072057 104.867377 38.7008978 103.483873 37.9134915 102.709234 36.6472038 102.719584 35.8725652 103.506991 35.0979265 104.294397 35.1082768 105.560685 35.8956832 106.335323 37.342308 107.758491 38.8328882 109.163029 40.3638164 110.548354 46.801941 116.374165 53.6894756 121.640054 60.6040303 126.275517 63.0591301 127.921397 65.3562413 129.378075 67.4503509 130.641223 68.2026512 131.095003 68.8817438 131.495316 69.4895078 131.845989 69.710141 131.973291 69.9083618 132.086538 70.0912206 132.190084 70.1984877 132.250825 70.2916875 132.303252 70.3774382 132.351409 71.1867959 132.785179 72.0372305 133 72.9022556 133 73.7672807 133 74.6177154 132.785179 75.3876981 132.373056 75.513064 132.303111 75.6059768 132.250835 75.7137177 132.189809 75.8966402 132.0862 76.0950918 131.972788 76.3159701 131.845305 76.9241755 131.494271 77.6039165 131.09345 78.3569289 130.639095 80.4528205 129.37447 82.7520327 127.916001 85.2093701 126.268121 92.1300851 121.627118 99.0238578 116.355004 105.467787 110.522529 106.989008 109.145654 108.470438 107.749823 109.908542 106.335605 110.696104 105.561124 110.706708 104.294838 109.932227 103.507277 109.157747 102.719715 107.891461 102.709111 107.103899 103.483591zM64.8414483 28.8913402C58.7739439 24.4549348 51.7909325 22 45.1578947 22 25.7707002 22 10 37.714839 10 57.0404465 10 64.4753777 11.8244856 72.0965834 15.4082304 79.6883246 15.8797547 80.6871933 17.0717437 81.1146903 18.0706124 80.6431661 19.069481 80.1716418 19.4969781 78.9796528 19.0254538 77.9807841 15.6859193 70.9063735 14 63.8639843 14 57.0404465 14 39.9271616 27.9766682 26 45.1578947 26 50.9086911 26 57.0747922 28.1677433 62.4826985 32.1218653 65.6370921 34.4217849 68.3442332 37.204539 70.3397801 40.1753497 71.1322286 41.3550837 72.8677714 41.3550837 73.6602199 40.1753497 75.6542557 37.2067886 78.3609533 34.4229203 81.5102614 32.1223947 86.919621 28.1672102 93.0857583 26 98.8421053 26 116.019255 26 130 39.9293927 130 57.0404465 130 63.8541729 128.312496 70.8968023 124.973945 77.9820588 124.503125 78.9812595 124.931462 80.1729469 125.930662 80.6437672 126.929863 81.1145875 128.121551 80.6862506 128.592371 79.6870499 132.174086 72.0857361 134 64.4654681 134 57.0404465 134 37.7169519 118.225105 22 98.8421053 22 92.203641 22 85.2205449 24.4543465 79.1500669 28.8929239 76.4328035 30.8778468 74.004895 33.1905326 71.9999629 35.689198 69.9932556 33.1886472 67.5631665 30.8757873 64.8414483 28.8913402z"/>
    <path fill="#70CFFE" fill-rule="nonzero" d="M50.4974704,91.1852917 C51.3272362,92.4659208 52.1204583,93.8470799 52.8464085,95.22922 C53.1007537,95.713469 53.3281127,96.1624761 53.5249758,96.5640905 C53.6413525,96.8015072 53.7204881,96.9677037 53.7589477,97.0506112 C54.5305369,98.7139256 56.9470593,98.5487688 57.485173,96.795943 L65.6154507,70.3127679 L76.0006151,103.094248 C76.5609075,104.862849 79.0183527,104.981675 79.7466675,103.275382 L91.1927204,76.4596184 L101.120897,97.0767168 C101.607002,98.0861745 102.827438,98.4994427 103.826857,97.9930177 C103.933496,97.9389812 104.164769,97.8301329 104.503388,97.6845776 C105.083287,97.4353074 105.737214,97.1846379 106.447306,96.9504557 C108.835388,96.1628859 111.23304,95.7593056 113.399764,95.9321467 C115.034053,96.0625151 116.457901,96.5187038 117.649783,97.3353929 C118.560968,97.9597454 119.805767,97.7272219 120.430119,96.8160371 C121.054472,95.9048524 120.821948,94.6600534 119.910764,94.0357009 C118.104685,92.7981588 116.012581,92.1278664 113.717837,91.944813 C110.943836,91.7235291 108.046036,92.211296 105.19451,93.1517056 C104.723901,93.3069084 104.288485,93.4625814 103.89278,93.6134453 L92.8849625,70.7543379 C92.1395414,69.2063781 89.918044,69.2567603 89.2435669,70.8369225 L78.185037,96.744799 L67.4920606,62.9916891 C66.8996294,61.1216395 64.2492213,61.1334775 63.6735184,63.0087445 L55.079029,91.0040204 C54.6833012,90.3259783 54.2743315,89.6583064 53.8544074,89.0102113 C52.2181416,86.4848605 50.5997277,84.5309575 48.9704433,83.3287231 C48.3796422,82.8927763 47.7844191,82.5544268 47.1769728,82.3251442 C46.3765391,82.0230179 45.4725757,82.263489 44.928061,82.9233966 C42.8016956,85.5003786 39.052795,87.3211532 34.1241317,88.4153996 C29.5979689,89.4202841 24.8183237,89.6942852 20.8326139,89.5629733 C20.5468305,89.5535579 20.3522216,89.5443823 20.2586656,89.5387591 C19.1560859,89.4724884 18.2085455,90.3125828 18.1422747,91.4151625 C18.076004,92.5177422 18.9160984,93.4652827 20.0186781,93.5315534 C20.1475031,93.5392964 20.3781279,93.5501702 20.7009026,93.5608042 C24.993015,93.7022108 30.0804333,93.4105661 34.9910894,92.3203176 C39.9651949,91.2159823 44.0204545,89.4169967 46.8351256,86.7330319 C47.9354114,87.6250938 49.1967166,89.1777573 50.4974704,91.1852917 Z"/>
  </g>
</svg>
