<svg xmlns="http://www.w3.org/2000/svg" width="142" height="121" viewBox="0 0 142 121">
  <g fill="none" fill-rule="evenodd" transform="translate(0 1)">
    <ellipse cx="134" cy="64" fill="none" stroke="#FF8858" stroke-width="2" rx="4" ry="4"/>
    <ellipse cx="27" cy="2.002" fill="none" stroke="#1F447B" rx="2" ry="2.002"/>
    <ellipse cx="69" cy="2.002" fill="none" stroke="#FF8858" rx="2" ry="2.002"/>
    <circle cx="140" cy="47" r="2" fill="#1F447B"/>
    <ellipse cx="6.5" cy="54.502" fill="none" stroke="#1F447B" stroke-width="2" rx="3.5" ry="3.502"/>
    <g fill="#70CFFE" transform="translate(0 30)">
      <polygon points="0 5 8 5 8 3 0 3"/>
      <polygon points="5 8 5 0 3 0 3 8"/>
    </g>
    <path fill="#56DAA1" d="M86.6632173,22.6628078 L45.4036697,64.1409597 L24.515974,43.1425953 C24.077082,42.7013779 23.5018437,42.4807692 22.9266055,42.4807692 C22.3513673,42.4807692 21.776129,42.7013779 21.3372371,43.1425953 C20.4594531,44.02503 20.4594531,45.4557393 21.3372371,46.338174 L43.5883954,68.707225 C44.017471,69.138574 44.5768619,69.3590723 45.1391674,69.36872 C45.701473,69.3783677 46.2666933,69.1771648 46.7074275,68.7651112 C47.0906915,68.6695138 47.453791,68.4711338 47.7533663,68.1699713 L88.9547944,26.7502468 C91.8714459,32.8823806 93.5045872,39.7494595 93.5045872,47 C93.5045872,72.9573832 72.5728723,94 46.7522936,94 C20.9317148,94 0,72.9573832 0,47 C0,21.0426168 20.9317148,0 46.7522936,0 C63.6868835,0 78.5185408,9.05142946 86.7213369,22.6043803 L94.1629251,15.1233645 C95.0407091,14.2409298 96.4638781,14.2409298 97.341662,15.1233645 C98.219446,16.0057992 98.219446,17.4365085 97.341662,18.3189432 L88.9547944,26.7502468 L86.6632173,22.6628078 Z" transform="translate(23 26)"/>
  </g>
</svg>
