<svg xmlns="http://www.w3.org/2000/svg" width="155" height="115" viewBox="0 0 155 115" xmlns:xlink="http://www.w3.org/1999/xlink">
  <defs>
    <path id="a" d="M6.3,49.2 L15.3,99.7 C15.8,102.8 18.5,105 21.6,105 C22,105 22.3,105 22.7,104.9 L62.8,97.8 C66.3,97.2 68.6,93.9 68,90.4 L59,39.9 C56.1,40.2 53.4,38.2 52.9,35.3 C52.4,32.4 54.2,29.6 57,28.9 L54.4,14.2 C53.9,11.1 51.2,8.9 48.1,8.9 C47.7,8.9 47.4,8.9 47,9 L34.2,11.3 C33.5,14.4 31,16.8 27.8,17.4 C27.3,17.5 26.9,17.5 26.4,17.5 C23.7,17.5 21.2,16.1 19.7,13.8 L6.9,16.1 C5.2,16.4 3.8,17.3 2.8,18.7 C1.8,20.1 1.4,21.8 1.7,23.5 L4.3,38.2 C7.2,38 9.7,40 10.2,42.8 C10.5,44.3 10.1,45.8 9.3,47 C8.5,48.1 7.5,48.9 6.3,49.2 Z"/>
    <mask id="c" width="70.493" height="100.1" x="-2" y="-2">
      <rect width="70.493" height="100.1" x="-.397" y="6.9" fill="white"/>
      <use fill="black" xlink:href="#a"/>
    </mask>
    <path id="b" d="M64.8,104.7 L64.8,104.7 C64.2,104.7 63.5,104.6 62.9,104.5 L21.8,95.4 C19.6,94.9 17.6,93.5 16.4,91.6 C15.2,89.6 14.7,87.3 15.2,85.1 L26.9,32.2 C27,31.9 27.1,31.7 27.4,31.6 C27.6,31.5 27.9,31.4 28.2,31.5 C28.3,31.5 28.3,31.5 28.4,31.6 C28.7,31.7 29,31.7 29.3,31.7 C31.1,31.7 32.6,30.5 33,28.7 C33.2,27.7 33,26.7 32.5,25.8 C32,24.9 31.1,24.4 30.1,24.1 L29.8,24.1 C29.5,24.1 29.3,23.9 29.1,23.7 C28.9,23.5 28.9,23.2 29,22.9 L32.6,6.8 C33.4,2.9 37,0 41,0 C41.6,0 42.2,0.1 42.9,0.2 L56.8,3.3 C57.2,3.4 57.5,3.8 57.6,4.2 C57.8,6.9 59.8,9.2 62.4,9.7 C65,10.3 67.8,9 69.1,6.7 C69.3,6.3 69.8,6.1 70.2,6.2 L84.1,9.3 C88.8,10.3 91.7,15 90.7,19.6 L87,35.8 C86.9,36.1 86.8,36.3 86.5,36.5 C86.2,36.6 85.9,36.7 85.7,36.6 L85.6,36.6 C85.5,36.6 85.4,36.5 85.3,36.5 C83.3,36.1 81.2,37.4 80.8,39.4 C80.3,41.4 81.6,43.5 83.7,43.9 L84,43.9 L84.1,43.9 C84.4,43.9 84.6,44.1 84.8,44.3 C85,44.5 85,44.8 85,45.1 L73.3,98 C72.4,101.8 68.8,104.7 64.8,104.7 Z"/>
    <mask id="d" width="75.889" height="104.7" x="0" y="0" fill="white">
      <use xlink:href="#b"/>
    </mask>
  </defs>
  <g fill="none" fill-rule="evenodd">
    <circle cx="78" cy="63" r="52" fill="#70CFFE"/>
    <g transform="translate(32 8)">
      <path fill="#FFFFFF" d="M57.5,29.7 L58.1,29.7 L55.3,14 C54.6,10 50.7,7.3 46.7,8 L33.2,10.4 C32.8,13.4 30.6,15.8 27.5,16.4 C24.4,16.9 21.5,15.4 20.1,12.7 L6.6,15.1 C2.6,15.8 -0.1,19.7 0.6,23.7 L3.4,39.4 C3.5,39.4 3.6,39.3 3.7,39.3 C6.2,38.9 8.6,40.5 9.1,43 C9.5,45.5 7.9,47.9 5.4,48.4 L5.1,48.4 L14.3,99.9 C15,103.9 18.9,106.6 22.9,105.9 L63,98.8 C67,98.1 69.7,94.2 69,90.2 L59.8,38.7 C59.6,38.8 59.4,38.8 59.2,38.9 C56.7,39.3 54.3,37.7 53.8,35.2 C53.3,32.6 55,30.2 57.5,29.7 Z"/>
      <path fill="#56DAA1" d="M9.2 44C8.7 44 8.3 43.7 8.2 43.2 8.1 42.7 8.5 42.1 9 42L12 41.5C12.6 41.4 13.1 41.8 13.2 42.3 13.3 42.8 12.9 43.4 12.4 43.5L9.4 44 9.2 44zM17.5 42.5C17 42.5 16.6 42.2 16.5 41.7 16.4 41.2 16.8 40.6 17.3 40.5L22.7 39.5C23.2 39.4 23.8 39.8 23.9 40.3 24 40.8 23.6 41.4 23.1 41.5L17.7 42.5 17.5 42.5zM28.3 40.6C27.8 40.6 27.4 40.3 27.3 39.8 27.2 39.3 27.6 38.7 28.1 38.6L33.5 37.6C34 37.5 34.6 37.9 34.7 38.4 34.8 38.9 34.4 39.5 33.9 39.6L28.5 40.6 28.3 40.6zM39 38.7C38.5 38.7 38.1 38.4 38 37.9 37.9 37.4 38.3 36.8 38.8 36.7L44.2 35.7C44.7 35.6 45.3 36 45.4 36.5 45.5 37 45.1 37.6 44.6 37.7L39.2 38.7C39.2 38.7 39.1 38.7 39 38.7z"/>
      <path fill="#10591C" d="M49.8,36.8 C49.3,36.8 48.9,36.5 48.8,36 C48.7,35.5 49.1,34.9 49.6,34.8 L52.6,34.3 C53.2,34.2 53.7,34.6 53.8,35.1 C53.9,35.6 53.5,36.2 53,36.3 L50,36.8 L49.8,36.8 Z"/>
      <rect width="7.4" height="7.4" x="41.005" y="18.003" fill="#FBD000" transform="rotate(-10.096 44.705 21.703)"/>
      <path fill="#56DAA1" d="M18.8 25.9C17.8 25.9 17 25.2 16.8 24.3 16.6 23.2 17.3 22.2 18.4 22L33.6 19.3C34.7 19.1 35.7 19.8 35.9 20.9 36.1 22 35.4 23 34.3 23.2L19.1 25.9C19 25.9 18.9 25.9 18.8 25.9zM19.1 29.6C18.6 29.6 18.2 29.3 18.1 28.8 18 28.3 18.4 27.7 18.9 27.6L29.4 25.7C29.9 25.6 30.5 26 30.6 26.5 30.7 27 30.3 27.6 29.8 27.7L19.3 29.6 19.1 29.6z"/>
      <path fill="#ADADAD" d="M32 98.8C31.5 98.8 31.1 98.5 31 98L25.1 64.9C25 64.4 25.4 63.8 25.9 63.7 26.4 63.6 27 64 27.1 64.5L33 97.6C33.1 98.1 32.7 98.7 32.2 98.8L32 98.8zM36.5 98C36 98 35.6 97.7 35.5 97.2L31.4 74.4C31.3 73.9 31.7 73.3 32.2 73.2 32.7 73.1 33.3 73.5 33.4 74L37.5 96.8C37.6 97.3 37.2 97.9 36.7 98L36.5 98zM49.9 95.9C49.4 95.9 49 95.6 48.9 95.1L47.1 85.1C47 84.6 47.4 84 47.9 83.9 48.5 83.8 49 84.2 49.1 84.7L50.9 94.7C51 95.2 50.6 95.8 50.1 95.9L49.9 95.9zM54.2 95.2C53.7 95.2 53.3 94.9 53.2 94.4L50.2 77.7C50.1 77.2 50.5 76.6 51 76.5 51.5 76.4 52.1 76.8 52.2 77.3L55.2 94C55.3 94.5 54.9 95.1 54.4 95.2L54.2 95.2zM47.4 82C46.9 82 46.5 81.7 46.4 81.2L43.8 66C43.7 65.5 44.1 64.9 44.6 64.8 45.1 64.7 45.7 65.1 45.8 65.6L48.5 80.8C48.6 81.3 48.2 81.9 47.7 82L47.4 82z"/>
      <use fill="#1F447B" fill-opacity="0" xlink:href="#a"/>
      <use stroke="#1F447B" stroke-width="4" mask="url(#c)" xlink:href="#a"/>
      <use fill="#FFFFFF" stroke="#1F447B" stroke-width="4" mask="url(#d)" xlink:href="#b"/>
      <path fill="#1F447B" d="M36.9 30.5L36.7 30.5 33.8 29.9C33.3 29.8 32.9 29.2 33 28.7 33.1 28.2 33.7 27.8 34.2 27.9L37.1 28.5C37.6 28.6 38 29.2 37.9 29.7 37.7 30.2 37.3 30.5 36.9 30.5zM70.2 37.9L70 37.9 64.4 36.7C63.9 36.6 63.5 36 63.6 35.5 63.7 35 64.3 34.6 64.8 34.7L70.4 35.9C70.9 36 71.3 36.6 71.2 37.1 71.1 37.6 70.7 37.9 70.2 37.9zM59.1 35.4L58.9 35.4 53.3 34.2C52.8 34.1 52.4 33.5 52.5 33 52.6 32.5 53.2 32.1 53.7 32.2L59.3 33.4C59.8 33.5 60.2 34.1 60.1 34.6 60 35.1 59.6 35.4 59.1 35.4zM48 33L47.8 33 42.2 31.8C41.7 31.7 41.3 31.1 41.4 30.6 41.5 30.1 42.1 29.7 42.6 29.8L48.2 31C48.7 31.1 49.1 31.7 49 32.2 48.9 32.6 48.4 33 48 33zM78.7 39.8L78.5 39.8 75.6 39.2C75.1 39.1 74.7 38.5 74.8 38 74.9 37.5 75.5 37.1 76 37.2L78.9 37.8C79.4 37.9 79.8 38.5 79.7 39 79.6 39.4 79.2 39.8 78.7 39.8z"/>
      <rect width="7.7" height="7.7" x="72.548" y="18.663" fill="#70CFFE" transform="rotate(-77.513 76.398 22.513)"/>
      <path fill="#1F447B" d="M66.3 19.8L65.9 19.8 50.3 16.3C49.2 16.1 48.5 15 48.8 13.9 49 12.8 50.1 12.1 51.2 12.4L66.8 15.9C67.9 16.1 68.6 17.2 68.3 18.3 68.1 19.2 67.3 19.8 66.3 19.8zM60 22.4L59.8 22.4 49 20C48.5 19.9 48.1 19.3 48.2 18.8 48.3 18.3 48.9 17.9 49.4 18L60.2 20.4C60.7 20.5 61.1 21.1 61 21.6 60.9 22.1 60.4 22.4 60 22.4z"/>
      <path fill="#CED9EB" d="M32.9 84.3L32.7 84.3C32.2 84.2 31.8 83.6 31.9 83.1L39.4 49.1C39.5 48.6 40.1 48.2 40.6 48.3 41.1 48.4 41.5 49 41.4 49.5L33.9 83.5C33.8 84 33.4 84.3 32.9 84.3zM37.6 85.3L37.4 85.3C36.9 85.2 36.5 84.6 36.6 84.1L41.8 60.7C41.9 60.2 42.5 59.8 43 59.9 43.5 60 43.9 60.6 43.8 61.1L38.6 84.5C38.5 85 38.1 85.3 37.6 85.3z"/>
    </g>
    <path fill="#1F447B" d="M11.3,48.6 C8.9,48.6 7,46.7 7,44.3 C7,41.9 8.9,40 11.3,40 C13.7,40 15.6,41.9 15.6,44.3 C15.6,46.7 13.7,48.6 11.3,48.6 Z M11.3,42.1 C10,42.1 9,43.1 9,44.4 C9,45.7 10,46.7 11.3,46.7 C12.6,46.7 13.6,45.7 13.6,44.4 C13.6,43.1 12.6,42.1 11.3,42.1 Z"/>
    <path fill="#56DAA1" d="M150.3,76.6 C147.9,76.6 146,74.7 146,72.3 C146,69.9 147.9,68 150.3,68 C152.7,68 154.6,69.9 154.6,72.3 C154.6,74.7 152.7,76.6 150.3,76.6 Z M150.3,70.1 C149,70.1 148,71.1 148,72.4 C148,73.7 149,74.7 150.3,74.7 C151.6,74.7 152.6,73.7 152.6,72.4 C152.6,71.1 151.6,70.1 150.3,70.1 Z"/>
    <g fill="#56DAA1" transform="translate(0 60)">
      <polygon points="0 5 8 5 8 3 0 3"/>
      <polygon points="5 8 5 0 3 0 3 8"/>
    </g>
    <g fill="#70CFFE" transform="translate(142 39)">
      <polygon points="0 5 8 5 8 3 0 3"/>
      <polygon points="5 8 5 0 3 0 3 8"/>
    </g>
    <path fill="#56DAA1" d="M127.6 11.8C127.3 11.8 127.1 11.7 126.9 11.5 126.5 11.1 126.5 10.5 126.9 10.1L133.3 3.7C133.7 3.3 134.3 3.3 134.7 3.7 135.1 4.1 135.1 4.7 134.7 5.1L128.3 11.5C128.1 11.7 127.8 11.8 127.6 11.8zM122.3 8.7L122.1 8.7C121.6 8.6 121.2 8.1 121.3 7.5L122.6 1.1C122.7.6 123.2.2 123.8.3 124.3.4 124.7.9 124.6 1.5L123.3 7.9C123.2 8.4 122.8 8.7 122.3 8.7zM130.6 17C130.1 17 129.7 16.7 129.6 16.2 129.5 15.7 129.8 15.1 130.4 15L136.8 13.7C137.3 13.6 137.9 13.9 138 14.5 138.1 15 137.8 15.6 137.2 15.7L130.8 17 130.6 17z"/>
  </g>
</svg>
