<?xml version="1.0" encoding="utf-8"?><svg width="53" height="31" viewBox="0 0 53 31" xmlns="http://www.w3.org/2000/svg" xmlns:xlink="http://www.w3.org/1999/xlink"><svg width="25" height="25" viewBox="-4 -4 25 25" id="ico-link" x="28" xmlns="http://www.w3.org/2000/svg"><g fill="#1F447B" fill-rule="evenodd"><path d="M9.684 10.999A3.671 3.671 0 017.08 9.922a.5.5 0 01.708-.707 2.683 2.683 0 003.792 0l3.636-3.636a2.685 2.685 0 000-3.793 2.685 2.685 0 00-3.793 0L8.356 4.854a.5.5 0 01-.707-.707l3.067-3.068a3.685 3.685 0 015.207 0 3.685 3.685 0 010 5.207l-3.635 3.636a3.675 3.675 0 01-2.604 1.077"/><path d="M3.684 16.999a3.671 3.671 0 01-2.604-1.077 3.687 3.687 0 010-5.207l3.636-3.636a3.685 3.685 0 015.207 0 .5.5 0 01-.707.707 2.685 2.685 0 00-3.793 0l-3.635 3.636a2.683 2.683 0 003.792 3.793l3.069-3.068a.5.5 0 01.707.707l-3.068 3.068a3.675 3.675 0 01-2.604 1.077"/></g></svg><svg width="28" height="31" viewBox="-4 -4 28 31" id="ico-notify" xmlns="http://www.w3.org/2000/svg"><path fill="#FFF" fill-rule="evenodd" d="M2.601 17.977c.324-.378.605-.79.835-1.224.505-.95.76-1.978.76-3.054v-3.666c0-3.031 2.556-5.5 5.7-5.5 3.143 0 5.7 2.469 5.7 5.5v3.666c0 1.076.257 2.104.758 3.054.232.436.513.846.836 1.224H2.6h.001zm9.195 1.833c0 1.01-.852 1.833-1.9 1.833s-1.9-.822-1.9-1.833c0-.209.038-.415.109-.611h3.582c.071.196.11.402.11.611zm7.348-1.71c-1.45-1.05-2.28-2.654-2.28-4.4v-3.667c0-3.071-2.148-5.668-5.068-6.468V2.7c0-1.01-.852-1.833-1.9-1.833s-1.9.822-1.9 1.833v.865c-2.922.8-5.068 3.397-5.068 6.468v3.666c0 1.747-.83 3.35-2.28 4.401a.599.599 0 00-.22.682c.086.25.328.418.6.418h5.764c-.043.2-.064.405-.064.611 0 1.684 1.42 3.056 3.167 3.056 1.745 0 3.167-1.372 3.167-3.056 0-.205-.022-.41-.064-.61h5.765a.63.63 0 00.599-.419.596.596 0 00-.22-.682h.002z"/></svg></svg>