<?xml version="1.0" encoding="UTF-8" standalone="no"?><!DOCTYPE svg  PUBLIC '-//W3C//DTD SVG 1.1//EN'  'http://www.w3.org/Graphics/SVG/1.1/DTD/svg11.dtd'><svg xmlns="http://www.w3.org/2000/svg" xmlns:xlink="http://www.w3.org/1999/xlink"><symbol viewBox="0 0 8 17" id="fb"><title>fb</title><path d="M8 5.505H5.275V3.74c0-.662.445-.817.758-.817h1.923V.01L5.308 0C2.368 0 1.7 2.173 1.7 3.563v1.942H0v3.001h1.7V17h3.575V8.506h2.413L8 5.505z" fill-rule="evenodd"/></symbol><symbol viewBox="0 0 512 512" id="g_plus"><path d="M317.686 229.75a159.492 159.492 0 0 1 2.709 29.398C320.395 339.125 266.852 396 186 396c-77.349 0-140-62.651-140-140s62.651-140 140-140c37.803 0 69.385 13.911 93.627 36.487l-39.469 39.465v-.09c-14.697-14.001-33.333-21.174-54.158-21.174-46.198 0-83.736 39.024-83.736 85.227 0 46.194 37.538 85.312 83.736 85.312 41.913 0 70.436-23.977 76.307-56.875H186V229.75h131.686zm104.564 8.75v-43.75h-35v43.75H343.5v35h43.75v43.75h35V273.5H466v-35h-43.75z"/></symbol><symbol viewBox="0 0 15 8" id="ico-arrow-accordion"><title>ico-arrow-accordion</title><path d="M0 .401C0 .3.039.196.115.118a.39.39 0 0 1 .558 0l6.825 6.917L14.324.118a.391.391 0 0 1 .558 0 .404.404 0 0 1 0 .566l-7.105 7.2a.393.393 0 0 1-.558 0L.114.684A.399.399 0 0 1 0 .4z" fill="#70768C" fill-rule="evenodd"/></symbol><symbol viewBox="0 0 15 8" id="ico-arrow-up"><path d="M14.998 7.6a.405.405 0 0 1-.115.283.39.39 0 0 1-.558 0L7.5.966.674 7.883a.391.391 0 0 1-.558 0 .404.404 0 0 1 0-.566L7.22.117a.393.393 0 0 1 .558 0l7.105 7.2c.077.079.115.181.114.283z"/></symbol><symbol viewBox="0 0 16 16" id="ico-book"><path d="M14 2v13H3.5a1.5 1.5 0 1 1 0-3H13V0H3C1.9 0 1 .9 1 2v12c0 1.1.9 2 2 2h12V2h-1z"/><path d="M3.501 13H3.5a.5.5 0 0 0 0 1H12.999v-1H3.501z"/></symbol><symbol viewBox="0 0 16 11" id="ico-burger"><title>ico-burger</title><g fill="#FFF" fill-rule="evenodd"><path d="M15.5 1H.5a.5.5 0 0 1 0-1h15a.5.5 0 0 1 0 1M15.5 6H.5a.5.5 0 0 1 0-1h15a.5.5 0 0 1 0 1M15.5 11H.5a.5.5 0 0 1 0-1h15a.5.5 0 0 1 0 1"/></g></symbol><symbol viewBox="0 0 20 17" id="ico-chat"><g><path d="M16.353 13.753a.5.5 0 0 1 .303.102c.009.006.675.503 1.503.84-.544-.794-.531-1.247-.482-1.437a.505.505 0 0 1 .184-.273c.734-.552 1.138-1.255 1.138-1.984 0-.767-.444-1.5-1.25-2.065-.862-.603-2.015-.935-3.25-.935-1.234 0-2.387.332-3.25.935C10.445 9.5 10 10.234 10 11c0 .767.445 1.5 1.25 2.065.863.603 2.016.935 3.25.935.595 0 1.173-.077 1.718-.23a.516.516 0 0 1 .135-.018zM19.5 16H19.5c-1.34 0-2.734-.856-3.247-1.206A7.457 7.457 0 0 1 14.5 15c-1.436 0-2.794-.396-3.822-1.116C9.596 13.128 9 12.103 9 11c0-1.102.596-2.127 1.678-2.884C11.707 7.397 13.064 7 14.5 7c1.437 0 2.795.397 3.823 1.116C19.405 8.874 20 9.899 20 11c0 .964-.46 1.877-1.305 2.597.082.23.339.727 1.144 1.535A.5.5 0 0 1 19.5 16z"/><path d="M.5 17.001a.5.5 0 0 1-.257-.929 6.211 6.211 0 0 0 2.641-3.179C1.046 11.486 0 9.539 0 7.501c0-1.029.258-2.026.768-2.964.486-.894 1.18-1.695 2.061-2.381C4.616.766 6.985 0 9.5 0c2.278 0 4.481.644 6.202 1.813 1.735 1.18 2.871 2.812 3.2 4.596a.5.5 0 0 1-.984.181c-.279-1.519-1.266-2.921-2.778-3.949C13.583 1.583 11.58 1 9.5 1 4.813 1 1 3.916 1 7.5c0 1.815 1.005 3.562 2.756 4.792.172.121.25.336.196.539-.117.436-.515 1.633-1.58 2.788 1.302-.456 2.704-1.247 3.74-1.959a.499.499 0 0 1 .42-.069C7.48 13.862 8.48 14 9.5 14a.5.5 0 0 1 0 1c-1.033 0-2.047-.129-3.016-.385a20.74 20.74 0 0 1-2.189 1.27C2.807 16.625 1.531 17 .501 17v.001z"/></g></symbol><symbol viewBox="0 0 15 15" id="ico-close"><path d="M14.02 2.393l.708-.707L13.314.272l-.707.707L1.293 12.293.586 13 2 14.414l.707-.707z"/><path d="M2.707.98L2 .271.586 1.686l.707.707 11.314 11.314.707.707L14.728 13l-.707-.707z"/></symbol><symbol viewBox="0 0 19 19" id="ico-copy"><g fill="#70CFFE" fill-rule="evenodd"><path d="M16 6h1v1h-1zM16 18h1v1h-1zM14 18h1v1h-1zM12 18h1v1h-1zM10 18h1v1h-1zM8 18h1v1H8zM18 14h1v1h-1zM18 12h1v1h-1zM18 16h1v1h-1zM18 8h1v1h-1zM18 10h1v1h-1zM6 16h1v1H6zM14 6h1v1h-1zM7.5 6C6.673 6 6 6.673 6 7.5V12H1.5a.5.5 0 0 1-.5-.5v-10a.5.5 0 0 1 .5-.5h10a.5.5 0 0 1 .5.5V6H7.5zm4-6h-10C.673 0 0 .673 0 1.5v10c0 .827.673 1.5 1.5 1.5H7V7.5a.5.5 0 0 1 .5-.5H13V1.5c0-.827-.673-1.5-1.5-1.5zM6 14h1v1H6zM18 6h1v1h-1zM18 18h1v1h-1zM6 18h1v1H6z"/></g></symbol><symbol viewBox="0 0 19 20" id="ico-finish"><title>ico-finish</title><g fill="#FFF" fill-rule="evenodd"><path d="M.5 19.998a.5.5 0 0 1-.5-.5v-17a.5.5 0 0 1 1 0v17a.5.5 0 0 1-.5.5M14.5 11.998c-2.207 0-3.347-1.14-4.354-2.146-.995-.995-1.854-1.854-3.646-1.854-1.792 0-2.652.86-3.646 1.854a.5.5 0 0 1-.707-.707C3.153 8.14 4.293 7 6.501 7s3.347 1.14 4.354 2.146C11.85 10.14 12.709 11 14.501 11c1.704 0 2.565-.776 3.5-1.707V3.664C17.162 4.387 16.118 5 14.501 5c-2.207 0-3.347-1.14-4.354-2.146C9.152 1.858 8.293 1 6.501 1c-1.792 0-2.652.86-3.646 1.854a.5.5 0 0 1-.707-.707C3.154 1.14 4.294 0 6.502 0s3.347 1.14 4.354 2.146C11.851 3.141 12.71 4 14.502 4c1.792 0 2.652-.859 3.646-1.854a.499.499 0 0 1 .854.354v7c0 .133-.053.26-.146.354C17.85 10.86 16.71 12 14.502 12l-.002-.002z"/></g></symbol><symbol viewBox="0 0 20 20" id="ico-flag"><path d="M1.5 19a.5.5 0 0 1-.5-.5v-15a.5.5 0 0 1 1 0v15a.5.5 0 0 1-.5.5zM3.5 10a.5.5 0 0 1-.4-.8C3.167 9.11 4.776 7 7 7c1.694 0 2.813.599 3.801 1.127.875.468 1.631.873 2.699.873 2.192 0 3.758-2.08 4.65-3.718A5.325 5.325 0 0 1 15.5 6c-2.207 0-3.347-1.14-4.354-2.146C10.151 2.859 9.292 2 7.5 2 5.276 2 3.913 3.782 3.9 3.8a.5.5 0 1 1-.8-.6C3.167 3.11 4.781 1 7.5 1c2.207 0 3.347 1.14 4.354 2.146C12.849 4.141 13.708 5 15.5 5c2.224 0 3.587-1.782 3.6-1.8a.5.5 0 0 1 .874.458 14.533 14.533 0 0 1-1.558 3.119c-.612.918-1.282 1.653-1.991 2.185-.918.688-1.902 1.037-2.925 1.037-1.318 0-2.26-.504-3.171-.991C9.359 8.489 8.443 7.999 7 7.999c-1.73 0-3.087 1.782-3.1 1.8a.498.498 0 0 1-.4.2z"/></symbol><symbol viewBox="0 0 48 42" id="ico-gallery"><title>ico</title><g transform="translate(1 1)" stroke="#B3B9BD" stroke-width="2" fill="none" fill-rule="evenodd"><path d="M46 37.129a1.9 1.9 0 0 1-1.899 1.902h-42.2A1.9 1.9 0 0 1 0 37.129V2.87C0 1.819.85.97 1.901.97h42.2A1.9 1.9 0 0 1 46 2.87v34.259z"/><path d="M4.436 38.962L21.25 21.983l7.706 7.942 7.704-7.942L46 29.925"/><circle cx="10.975" cy="14.481" r="4.437"/></g></symbol><symbol viewBox="0 0 15 16" id="ico-gift"><title>ico-gift</title><path d="M.447 3.01A.453.453 0 0 0 0 3.467v3.21c0 .253.2.314.447.314h.534v7.635c0 .758.516 1.374 1.256 1.374h10.526c.74 0 1.261-.616 1.261-1.374V6.991h.529c.247 0 .447-.06.447-.313v-3.21c0-.253-.2-.458-.447-.458H.447zM10.77 0C11.448 0 12 .673 12 1.5S11.448 3 10.77 3H8c.142-.442.429-1.032.824-1.586C9.465.515 10.174 0 10.77 0zM4.23 0C3.552 0 3 .673 3 1.5S3.552 3 4.23 3H7c-.142-.442-.429-1.032-.824-1.586C5.535.515 4.826 0 4.23 0zM6 14.977V4.719h3v10.258H6zM5 4v2H1V4h4zM2 7h3v8H2.4c-.22 0-.4-.202-.4-.45V7zm10.6 8H10V7h3v7.55c0 .248-.18.45-.4.45zM10 6V4h4v2h-4z" fill="#70CFFE" fill-rule="evenodd"/></symbol><symbol viewBox="0 0 19 20" id="ico-m-book"><path d="M18 9v3h-.5a.5.5 0 0 1-.5-.5v-2a.5.5 0 0 1 .5-.5h.5zm-2.455 6.522c-1.404.415-3.439 1.251-5.545 2.909V9.727c2.184-1.891 4.345-2.803 5.789-3.235.962-.288 1.74-.408 2.211-.457V8h-.5c-.827 0-1.5.673-1.5 1.5v2c0 .827.673 1.5 1.5 1.5h.5v2.029c-.507.047-1.37.17-2.455.491v.002zM1 15.029V13h.5c.827 0 1.5-.673 1.5-1.5v-2C3 8.673 2.327 8 1.5 8H1V6.035c1.241.131 4.606.751 8 3.692v8.704c-2.106-1.658-4.141-2.494-5.545-2.909A12.93 12.93 0 0 0 1 15.03v-.001zM1 9h.5a.5.5 0 0 1 .5.5v2a.5.5 0 0 1-.5.5H1V9zm17.5-4c-.049 0-1.218.006-2.955.522-1.515.448-3.764 1.385-6.045 3.317C7.219 6.908 4.969 5.97 3.455 5.522 1.718 5.006.549 5 .5 5a.5.5 0 0 0-.5.5v10a.498.498 0 0 0 .5.5c.043 0 4.36.044 8.668 3.874a.5.5 0 0 0 .664 0c2.241-1.992 4.476-2.939 5.957-3.382C17.398 16.01 18.49 16 18.5 16a.5.5 0 0 0 .5-.5v-10a.5.5 0 0 0-.5-.5z"/><path d="M9.5 1C10.878 1 12 2.122 12 3.5S10.878 6 9.5 6A2.503 2.503 0 0 1 7 3.5C7 2.122 8.122 1 9.5 1m0 6C11.43 7 13 5.43 13 3.5S11.43 0 9.5 0 6 1.57 6 3.5 7.57 7 9.5 7"/></symbol><symbol viewBox="0 0 19 17" id="ico-m-faq"><path d="M9.5 2.001c-4.686 0-8.5 2.916-8.5 6.5 0 1.815 1.006 3.563 2.756 4.792.173.121.25.336.197.539-.117.436-.516 1.633-1.58 2.788 1.301-.456 2.704-1.247 3.739-1.959a.499.499 0 0 1 .42-.069c.949.271 1.947.409 2.969.409 4.686 0 8.5-2.916 8.5-6.5s-3.815-6.5-8.5-6.5zm-9 16a.5.5 0 0 1-.257-.929 6.216 6.216 0 0 0 2.642-3.179C1.046 12.486 0 10.539 0 8.501 0 7.472.26 6.475.767 5.537c.487-.894 1.181-1.695 2.063-2.381C4.617 1.766 6.985 1 9.5 1c2.515 0 4.884.766 6.672 2.156.88.685 1.575 1.486 2.06 2.381A6.14 6.14 0 0 1 19 8.501c0 1.03-.258 2.026-.767 2.964-.486.894-1.18 1.695-2.061 2.381-1.788 1.39-4.157 2.156-6.671 2.156-1.034 0-2.047-.129-3.016-.385a20.74 20.74 0 0 1-2.19 1.27c-1.487.74-2.763 1.115-3.793 1.115L.5 18.001z"/><path d="M9.5 11.001a.5.5 0 0 1-.5-.5v-2a.5.5 0 0 1 .5-.5c.828 0 1.5-.673 1.5-1.5s-.672-1.5-1.5-1.5c-.826 0-1.5.673-1.5 1.5a.5.5 0 0 1-1 0c0-1.378 1.123-2.5 2.5-2.5 1.379 0 2.5 1.122 2.5 2.5 0 1.207-.86 2.217-2 2.45v1.55a.5.5 0 0 1-.5.5M9.5 13.001a.5.5 0 1 1 0-.999.5.5 0 0 1 0 .999"/></symbol><symbol viewBox="0 0 17 20" id="ico-m-food"><path d="M14.448 16.067C13.45 17.93 12.192 19 11 19c-.36 0-.67-.1-1.029-.216-.412-.133-.879-.284-1.47-.284-.593 0-1.06.151-1.473.284C6.67 18.9 6.36 19 6 19c-1.194 0-2.45-1.07-3.448-2.933C1.58 14.254 1 11.987 1 10c0-1.784.484-3.104 1.436-3.924C3.266 5.362 4.464 5 6 5c.447 0 .984.152 1.458.286.408.115.76.214 1.042.214.283 0 .634-.099 1.042-.214C10.015 5.152 10.553 5 11 5c1.535 0 2.734.362 3.563 1.076C15.516 6.896 16 8.217 16 10c0 1.986-.58 4.254-1.552 6.067m.767-10.749C14.2 4.444 12.781 4 11 4c-.585 0-1.22.178-1.729.323l-.269.075A3.503 3.503 0 0 1 12.5 1a.5.5 0 0 0 0-1 4.504 4.504 0 0 0-4.499 4.4c-.088-.025-.18-.052-.273-.077C7.218 4.178 6.585 4 6 4c-1.782 0-3.2.443-4.215 1.318C.6 6.338 0 7.913 0 10c0 2.142.624 4.588 1.67 6.54C2.866 18.77 4.404 20 6 20c.516 0 .932-.134 1.336-.264.375-.12.73-.236 1.164-.236.433 0 .79.114 1.164.236.402.13.82.264 1.336.264 1.596 0 3.134-1.229 4.33-3.46C16.376 14.586 17 12.141 17 10c0-2.087-.6-3.662-1.785-4.682"/></symbol><symbol viewBox="0 0 20 14" id="ico-m-tasks"><path d="M12.495 13.854c-.11 0-.379-.037-.552-.37a1.692 1.692 0 0 1-.142-.428L9.441 2.043l-2.196 8.053c-.177.649-.545.765-.749.776-.204.01-.583-.062-.832-.686L4.5 7.275l-.164.41C4.057 8.384 3.251 8.93 2.5 8.93h-2a.5.5 0 1 1 0-1h2c.346 0 .78-.293.907-.614l.257-.643c.243-.607.628-.697.836-.697.208 0 .593.09.836.697l1.075 2.686L8.755.762C8.93.12 9.255-.006 9.5 0c.244.007.56.15.7.802l2.285 10.662 1.33-6.652c.133-.664.491-.801.693-.823.202-.022.581.032.856.65l1.188 2.673c.144.323.596.617.95.617h2a.5.5 0 0 1 0 1h-2c-.744 0-1.562-.532-1.864-1.211l-.955-2.15-1.495 7.478c-.036.178-.08.319-.137.43-.17.339-.442.377-.55.378h-.005z"/></symbol><symbol viewBox="0 0 20 18" id="ico-msg"><title>ico-msg</title><g transform="translate(-.46 -.448)" fill-rule="evenodd"><path d="M1.002 17.501a.5.5 0 0 1-.256-.929 6.218 6.218 0 0 0 2.641-3.18C1.549 11.986.503 10.038.503 8c0-1.029.258-2.026.768-2.964.486-.895 1.181-1.695 2.062-2.381C5.12 1.264 7.489.499 10.004.499c2.515 0 4.884.766 6.671 2.156.881.685 1.575 1.485 2.062 2.381A6.14 6.14 0 0 1 19.505 8c0 1.03-.258 2.026-.768 2.964-.486.895-1.181 1.695-2.062 2.381-1.787 1.391-4.156 2.156-6.671 2.156-1.033 0-2.047-.129-3.016-.385-.43.286-1.231.793-2.189 1.27-1.49.741-2.766 1.116-3.797 1.115zm9-16c-4.687 0-8.5 2.916-8.5 6.5 0 1.815 1.005 3.562 2.756 4.792.172.121.25.336.196.539-.117.436-.516 1.633-1.58 2.788 1.302-.456 2.704-1.247 3.739-1.959a.498.498 0 0 1 .421-.069c.948.271 1.946.409 2.968.409 4.687 0 8.5-2.916 8.5-6.5s-3.814-6.5-8.5-6.5z"/><path d="M14.002 5.501h-8a.5.5 0 0 1 0-1h8a.5.5 0 0 1 0 1zM14.002 7.501h-8a.5.5 0 0 1 0-1h8a.5.5 0 0 1 0 1zM14.002 9.501h-8a.5.5 0 0 1 0-1h8a.5.5 0 0 1 0 1zM12.002 11.501h-6a.5.5 0 0 1 0-1h6a.5.5 0 0 1 0 1z"/></g></symbol><symbol viewBox="0 0 20 15" id="ico-photo"><path d="M9.502 4.001c-1.93 0-3.5 1.57-3.5 3.5s1.57 3.5 3.5 3.5 3.5-1.57 3.5-3.5-1.57-3.5-3.5-3.5m0 8a4.505 4.505 0 0 1-4.5-4.5c0-2.481 2.019-4.5 4.5-4.5s4.5 2.019 4.5 4.5-2.019 4.5-4.5 4.5"/><path d="M1.502 3.001a.5.5 0 0 0-.5.5v10a.5.5 0 0 0 .5.5h16a.5.5 0 0 0 .5-.5v-10a.5.5 0 0 0-.5-.5h-1.5c-.688 0-1.574-.367-2.061-.854l-.586-.586C13.062 1.268 12.416 1 12.001 1h-5c-.415 0-1.06.267-1.354.561l-.586.586c-.487.487-1.372.854-2.061.854H1.5h.002zm16 12h-16c-.827 0-1.5-.673-1.5-1.5v-10c0-.827.673-1.5 1.5-1.5h1.5c.415 0 1.06-.267 1.354-.561l.586-.586C5.429.367 6.315 0 7.003 0h5c.688 0 1.574.367 2.061.854l.586.586c.293.293.939.561 1.354.561h1.5c.827 0 1.5.673 1.5 1.5v10c0 .827-.673 1.5-1.5 1.5h-.002z"/></symbol><symbol viewBox="0 0 16 16" id="ico-price"><path d="M15.25 0h-6c-.412 0-.989.239-1.28.53L.531 7.969a.752.752 0 0 0 0 1.061l6.439 6.439a.752.752 0 0 0 1.061 0L15.47 8.03c.292-.292.53-.868.53-1.28v-6a.753.753 0 0 0-.75-.75zM11.5 6a1.5 1.5 0 1 1 .001-3.001A1.5 1.5 0 0 1 11.5 6z"/></symbol><symbol viewBox="0 0 20 20" id="ico-rocket"><path d="M13.5 9C12.122 9 11 7.878 11 6.5S12.122 4 13.5 4 16 5.122 16 6.5 14.878 9 13.5 9zm0-4c-.827 0-1.5.673-1.5 1.5S12.673 8 13.5 8 15 7.327 15 6.5 14.327 5 13.5 5zM.5 20a.499.499 0 0 1-.47-.67c1.539-4.231 3.157-6.377 4.808-6.377.545 0 1.054.234 1.515.694.728.728.754 1.453.648 1.933-.334 1.508-2.464 2.985-6.33 4.391a.51.51 0 0 1-.171.03zm4.339-6.048c-.495 0-1.078.434-1.685 1.255-.597.807-1.197 1.957-1.788 3.427 1.335-.537 2.408-1.082 3.199-1.625 1.067-.733 1.383-1.3 1.46-1.646s-.047-.677-.379-1.009c-.27-.27-.534-.401-.808-.401z"/><path d="M19.5 0c-2.595 0-4.907.44-6.874 1.308-1.621.716-3.009 1.72-4.126 2.986-.208.236-.401.475-.58.715-.862.057-1.744.4-2.624 1.02-.745.524-1.493 1.25-2.225 2.157-1.23 1.524-1.986 3.027-2.018 3.09a.5.5 0 0 0 .8.578c.005-.005.483-.475 1.298-.936.672-.38 1.708-.827 2.961-.906.317.811 1.224 1.781 1.659 2.216s1.405 1.342 2.216 1.659c-.079 1.253-.526 2.289-.906 2.961-.462.816-.931 1.293-.935 1.297a.501.501 0 0 0 .577.801c.063-.032 1.566-.788 3.09-2.018.907-.732 1.633-1.48 2.157-2.225.62-.881.962-1.762 1.02-2.624.239-.178.478-.371.715-.58 1.266-1.117 2.27-2.505 2.986-4.126.868-1.966 1.308-4.279 1.308-6.874v-.5h-.5zM3.107 9.808c.953-1.383 2.41-3.098 4.052-3.637-.649 1.137-.985 2.181-1.106 2.843a7.784 7.784 0 0 0-2.946.794zm7.086 7.082a7.761 7.761 0 0 0 .793-2.944c.661-.121 1.706-.457 2.842-1.105-.54 1.639-2.254 3.096-3.636 4.049zm4.851-6.14C12.964 12.585 10.81 13 10.5 13c-.002 0-.207-.004-.759-.393-.385-.271-.834-.657-1.262-1.085s-.814-.877-1.085-1.262c-.389-.552-.393-.757-.393-.759 0-.31.415-2.464 2.25-4.544 2.196-2.488 5.557-3.849 9.744-3.95-.101 4.187-1.461 7.548-3.95 9.744z"/></symbol><symbol viewBox="0 0 15 19" id="ico-share"><g fill="#70CFFE" fill-rule="evenodd"><path d="M13.5 19h-12C.673 19 0 18.327 0 17.5v-10C0 6.673.673 6 1.5 6h4a.5.5 0 0 1 0 1h-4a.5.5 0 0 0-.5.5v10a.5.5 0 0 0 .5.5h12a.5.5 0 0 0 .5-.5v-10a.5.5 0 0 0-.5-.5h-4a.5.5 0 0 1 0-1h4c.827 0 1.5.673 1.5 1.5v10c0 .827-.673 1.5-1.5 1.5"/><path d="M10.854 3.03l-3-2.89a.514.514 0 0 0-.708 0l-3 2.89a.47.47 0 0 0 0 .68.516.516 0 0 0 .708 0L7 1.644v10.875c0 .265.224.481.5.481s.5-.216.5-.481V1.644l2.146 2.066a.51.51 0 0 0 .707 0 .47.47 0 0 0 0-.68"/></g></symbol><symbol viewBox="0 0 14 10" id="ico-tick"><path d="M5.793 9.692l-.257.258-.708-.707-3.535-3.536L.586 5 2 3.586l.707.707 2.914 2.914 5.915-5.914.707-.707L13.657 2l-.707.707-6.364 6.364-.707.707-.086-.086z"/></symbol><symbol viewBox="0 0 15 20" id="ico-trash"><title>ico-trash</title><g fill="#8C8C8C" fill-rule="evenodd"><path d="M14.002 4.501a.5.5 0 0 1-.5.5h-12a.5.5 0 0 1-.5-.5v-1a.5.5 0 0 1 .5-.5h12a.5.5 0 0 1 .5.5v1zm-1.5 14.5h-10a.5.5 0 0 1-.5-.5v-12.5h11v12.5a.5.5 0 0 1-.5.5zm-6.5-17.5a.5.5 0 0 1 .5-.5h2a.5.5 0 0 1 .5.5v.5h-3v-.5zm7.5.5h-3.5v-.5c0-.827-.673-1.5-1.5-1.5h-2c-.827 0-1.5.673-1.5 1.5v.5h-3.5c-.827 0-1.5.673-1.5 1.5v1c0 .652.418 1.208 1 1.414v12.586c0 .827.673 1.5 1.5 1.5h10c.827 0 1.5-.673 1.5-1.5V5.915c.582-.206 1-.762 1-1.414v-1c0-.827-.673-1.5-1.5-1.5z"/><path d="M10.502 7.001a.5.5 0 0 0-.5.5v10a.5.5 0 0 0 1 0v-10a.5.5 0 0 0-.5-.5M7.502 7.001a.5.5 0 0 0-.5.5v10a.5.5 0 0 0 1 0v-10a.5.5 0 0 0-.5-.5M4.502 7.001a.5.5 0 0 0-.5.5v10a.5.5 0 0 0 1 0v-10a.5.5 0 0 0-.5-.5"/></g></symbol><symbol viewBox="0 0 512 512" id="ico-tw"><path d="M423.003 170.352c.161 3.688.246 7.413.246 11.138 0 113.868-86.666 245.17-245.16 245.17-48.669 0-93.957-14.26-132.089-38.717 6.74.795 13.601 1.211 20.561 1.211 40.362 0 77.513-13.785 107.006-36.893-37.702-.688-69.524-25.611-80.49-59.832a86.327 86.327 0 0 0 16.21 1.541 86.145 86.145 0 0 0 22.706-3.025c-39.418-7.914-69.12-42.738-69.12-84.484v-1.091a85.866 85.866 0 0 0 39.039 10.783c-23.122-15.451-38.34-41.832-38.34-71.729 0-15.782 4.251-30.583 11.665-43.315 42.506 52.137 105.989 86.434 177.608 90.036-1.47-6.31-2.229-12.89-2.229-19.642 0-47.591 38.585-86.164 86.163-86.164 24.787 0 47.175 10.464 62.895 27.215a172.75 172.75 0 0 0 54.724-20.917c-6.433 20.119-20.097 37.004-37.887 47.676 17.424-2.083 34.039-6.715 49.49-13.577-11.556 17.291-26.161 32.46-42.998 44.616z" fill-rule="evenodd" clip-rule="evenodd"/></symbol><symbol viewBox="0 0 38 38" id="ico-your-condition-1"><title>ico-your-condition-1</title><g fill="none" fill-rule="evenodd"><path d="M19.004 38.002a18.88 18.88 0 0 1-13.436-5.564A18.86 18.86 0 0 1 .004 19.004 18.88 18.88 0 0 1 5.568 5.568 18.87 18.87 0 0 1 19.004.002c5.076 0 9.846 1.976 13.436 5.566a18.864 18.864 0 0 1 5.564 13.436c0 5.076-1.976 9.846-5.564 13.434a18.877 18.877 0 0 1-13.436 5.564z" fill="#56DAA1"/><path d="M14.004 15.002c-1.654 0-3-1.346-3-3s1.346-3 3-3 3 1.346 3 3-1.346 3-3 3zm0-4c-.55 0-1 .448-1 1s.45 1 1 1 1-.448 1-1-.45-1-1-1zM24.004 15.002c-1.654 0-3-1.346-3-3s1.346-3 3-3 3 1.346 3 3-1.346 3-3 3zm0-4c-.55 0-1 .448-1 1s.45 1 1 1 1-.448 1-1-.45-1-1-1zM19.004 31.002c-7.168 0-13-5.832-13-13 0-.552.45-1 1-1s1 .448 1 1c0 6.066 4.934 11 11 11s11-4.934 11-11c0-.552.45-1 1-1s1 .448 1 1c0 7.168-5.832 13-13 13z" fill="#FFF"/></g></symbol><symbol viewBox="0 0 38 38" id="ico-your-condition-2"><title>ico-your-condition-2</title><g fill="#ED926D" fill-rule="evenodd"><path d="M19.004 38.002a18.88 18.88 0 0 1-13.436-5.564A18.867 18.867 0 0 1 .004 19.004 18.88 18.88 0 0 1 5.568 5.568 18.87 18.87 0 0 1 19.004.002c5.076 0 9.846 1.976 13.436 5.566a18.872 18.872 0 0 1 5.564 13.436c0 5.076-1.976 9.846-5.564 13.434a18.877 18.877 0 0 1-13.436 5.564zm0-36c-9.374 0-17 7.624-17 17 0 9.376 7.626 17 17 17 9.374 0 17-7.624 17-17 0-9.376-7.628-17-17-17z"/><path d="M13.004 14.002c-1.654 0-3-1.346-3-3s1.346-3 3-3 3 1.346 3 3-1.346 3-3 3zm0-4a1 1 0 1 0 0 2 1 1 0 0 0 0-2zM25.004 14.002c-1.654 0-3-1.346-3-3s1.346-3 3-3 3 1.346 3 3-1.346 3-3 3zm0-4a1 1 0 1 0 0 2 1 1 0 0 0 0-2zM25.004 28.002a.95.95 0 0 1-.276-.04l-14-4a.998.998 0 0 1-.688-1.234 1.003 1.003 0 0 1 1.236-.688l14 4a1 1 0 0 1-.272 1.962z"/></g></symbol><symbol viewBox="0 0 38 38" id="ico-your-condition-3"><title>ico-your-condition-3</title><g fill="#70768C" fill-rule="evenodd"><path d="M19.004 38.002a18.88 18.88 0 0 1-13.436-5.564A18.867 18.867 0 0 1 .004 19.004 18.88 18.88 0 0 1 5.568 5.568 18.87 18.87 0 0 1 19.004.002c5.076 0 9.846 1.976 13.436 5.566a18.872 18.872 0 0 1 5.564 13.436c0 5.076-1.976 9.846-5.564 13.434a18.877 18.877 0 0 1-13.436 5.564zm0-36c-9.374 0-17 7.624-17 17 0 9.376 7.626 17 17 17 9.374 0 17-7.624 17-17 0-9.376-7.628-17-17-17z"/><path d="M13.004 14.002c-1.654 0-3-1.346-3-3s1.346-3 3-3 3 1.346 3 3-1.346 3-3 3zm0-4a1 1 0 1 0 0 2 1 1 0 0 0 0-2zM25.004 14.002c-1.654 0-3-1.346-3-3s1.346-3 3-3 3 1.346 3 3-1.346 3-3 3zm0-4a1 1 0 1 0 0 2 1 1 0 0 0 0-2zM11.002 28.002a1.001 1.001 0 0 1-.8-1.6 11.103 11.103 0 0 1 3.802-3.202 10.896 10.896 0 0 1 4.998-1.198c1.76 0 3.442.404 4.998 1.198a11.103 11.103 0 0 1 3.802 3.202 1 1 0 1 1-1.6 1.2 8.93 8.93 0 0 0-7.202-3.6 8.936 8.936 0 0 0-7.202 3.6.972.972 0 0 1-.796.4z"/></g></symbol><symbol viewBox="0 0 420 419.997" id="insta"><title/><path d="M342.818 100.279a24.3 24.3 0 1 1-24.295-24.295 24.3 24.3 0 0 1 24.295 24.295zM420 209.999l-.005.306-1.38 88.105a121.58 121.58 0 0 1-120.2 120.2L210 419.999l-.306-.006-88.105-1.376a121.586 121.586 0 0 1-120.206-120.2L0 209.999l.006-.306 1.376-88.108a121.59 121.59 0 0 1 120.206-120.2L210-.001l.306.006 88.105 1.376a121.584 121.584 0 0 1 120.2 120.2zm-39.112 0l-1.374-87.8A82.654 82.654 0 0 0 297.8 40.484L210 39.113l-87.8 1.371a82.658 82.658 0 0 0-81.716 81.715l-1.371 87.8 1.371 87.8a82.655 82.655 0 0 0 81.716 81.715l87.8 1.371 87.8-1.371a82.651 82.651 0 0 0 81.714-81.715zm-63.048 0A107.841 107.841 0 1 1 210 102.158a107.962 107.962 0 0 1 107.84 107.841zm-39.107 0A68.734 68.734 0 1 0 210 278.733a68.812 68.812 0 0 0 68.732-68.734z"/></symbol><symbol viewBox="0 0 12 19" id="odnoklassniki"><title>odnoklassniki</title><g fill-rule="evenodd"><path d="M4.974 13.31c-1.531-.152-2.912-.513-4.094-1.397-.147-.11-.299-.217-.432-.34-.518-.475-.57-1.02-.16-1.58.35-.48.938-.609 1.549-.333.118.053.23.12.339.191 2.203 1.449 5.23 1.489 7.441.066.22-.161.454-.292.725-.359.528-.13 1.02.056 1.303.498.324.504.32.996-.079 1.388-.611.6-1.347 1.035-2.164 1.338-.773.287-1.62.431-2.457.527.126.132.186.196.265.272 1.137 1.094 2.28 2.182 3.414 3.279.386.374.467.837.254 1.272-.233.475-.753.787-1.264.754-.323-.022-.575-.176-.8-.392-.858-.826-1.732-1.637-2.573-2.479-.245-.245-.363-.198-.579.014-.863.85-1.74 1.688-2.624 2.52-.396.374-.868.442-1.328.228-.488-.226-.8-.704-.775-1.183.016-.325.183-.572.416-.795 1.126-1.075 2.248-2.153 3.371-3.23.074-.072.144-.148.252-.258z"/><path d="M5.907 9.565C3.175 9.556.935 7.39.95 4.772.966 2.125 3.208-.008 5.967 0c2.764.007 4.983 2.17 4.97 4.845-.015 2.612-2.27 4.73-5.03 4.72zM8.39 4.778c-.005-1.3-1.087-2.334-2.443-2.335-1.367-.002-2.46 1.052-2.449 2.363C3.508 6.101 4.6 7.13 5.96 7.124c1.355-.005 2.434-1.046 2.43-2.346z"/></g></symbol><symbol viewBox="0 0 24 14" id="vk"><title>vk</title><path d="M12.64 13.957c.77 0 .77-1.117.77-1.55 0-.776.772-1.552 1.544-1.552s2.095 1.33 3.087 2.327c.771.775.771.775 1.543.775h2.315s1.543-.059 1.543-1.55c0-.485-.529-1.307-2.315-3.102-1.543-1.551-2.335-.75 0-3.877 1.422-1.905 2.457-3.63 2.28-4.128-.17-.475-4.126-1.232-4.595-.525-1.543 2.327-1.826 2.896-2.315 3.877-.771 1.551-.848 2.326-1.543 2.326-.701 0-.772-1.505-.772-2.326 0-2.563.37-4.376-.771-4.652h-2.315C9.854 0 8.78.775 8.78.775s-.958.751-.772.776c.23.03 1.544-.321 1.544.775v1.55s.007 3.102-.772 3.102c-.772 0-2.315-3.101-3.858-5.427C4.317.638 4.15.775 3.38.775c-.827 0-1.543.033-2.315.033s-.87.494-.772.743c1.543 3.877 2.652 6.311 5.584 9.379 2.69 2.814 4.486 2.963 5.99 3.027.386.016 0 0 .772 0z" fill-rule="evenodd"/></symbol><symbol viewBox="0 0 127 43" id="ys_logo_web"><path d="M7 4v2.495a1.499 1.499 0 1 0 3 0V4h19v2.495a1.499 1.499 0 1 0 3 0V4h1.391A5.6 5.6 0 0 1 39 9.609V37.39A5.6 5.6 0 0 1 33.391 43H5.61A5.6 5.6 0 0 1 0 37.391V9.61A5.6 5.6 0 0 1 5.609 4H7zm4 11.5V17h5v-3h-3.5c-.826 0-1.5.672-1.5 1.5zm6-1.5v3h5v-3h-5zm6 0v3h5v-1.5c0-.834-.672-1.5-1.5-1.5H23zm-12 4v3h5v-3h-5zm12 0v3h5v-3h-5zm-12 4v3h5v-3h-5zm12 0v3h5v-3h-5zm0 4v3h5v-3h-5zm-12 4v1.5c0 .834.672 1.5 1.5 1.5H16v-3h-5zm3-4v3h5v-3h-5zm9 4v3h3.5c.826 0 1.5-.672 1.5-1.5V30h-5zm-6-8v3h5v-3h-5zM7 1.505a1.499 1.499 0 1 1 3 0v2.99a1.499 1.499 0 1 1-3 0v-2.99zm22 0a1.499 1.499 0 1 1 3 0v2.99a1.499 1.499 0 1 1-3 0v-2.99zm26.718 24.754h3.515v5.18c0 .838-.296 1.554-.888 2.146a2.924 2.924 0 0 1-2.146.888h-3.552a2.924 2.924 0 0 1-2.146-.888 2.924 2.924 0 0 1-.888-2.146v-14.8c0-.84.296-1.554.888-2.146a2.924 2.924 0 0 1 2.146-.888H56.2c.84 0 1.554.296 2.146.888.592.592.888 1.307.888 2.146v4.847h-3.515V17.49c0-.37-.123-.679-.37-.925a1.255 1.255 0 0 0-.925-.37c-.37 0-.678.123-.925.37-.246.246-.37.555-.37.925v13.098c0 .37.124.678.37.925.247.246.555.37.925.37s.679-.124.925-.37c.247-.247.37-.555.37-.925v-4.33zm11.039 1.147h3.515v4.033c0 .838-.296 1.554-.888 2.146a2.924 2.924 0 0 1-2.146.888h-3.552a2.924 2.924 0 0 1-2.146-.888 2.924 2.924 0 0 1-.888-2.146v-14.8c0-.84.296-1.554.888-2.146a2.924 2.924 0 0 1 2.146-.888h3.552c.838 0 1.554.296 2.146.888.592.592.888 1.307.888 2.146v7.659h-6.105v6.29c0 .37.123.678.37.925.246.246.555.37.925.37s.678-.124.925-.37c.246-.247.37-.555.37-.925v-3.182zm0-5.698V17.49c0-.37-.124-.679-.37-.925a1.255 1.255 0 0 0-.925-.37c-.37 0-.679.123-.925.37-.247.246-.37.555-.37.925v4.218h2.59zm8.633-1.665h-3.515v-3.404c0-.84.296-1.554.888-2.146a2.924 2.924 0 0 1 2.146-.888h3.552c.839 0 1.554.296 2.146.888.592.592.888 1.307.888 2.146v3.996c0 .468-.173.95-.518 1.443a3.607 3.607 0 0 1-1.295 1.147l-2.997 1.628c-.37.197-.678.505-.925.925-.247.419-.37.85-.37 1.295v3.515c0 .37.123.678.37.925.247.246.555.37.925.37s.678-.124.925-.37c.247-.247.37-.555.37-.925V27.22h3.515v4.218c0 .838-.296 1.554-.888 2.146a2.924 2.924 0 0 1-2.146.888H74.91a2.924 2.924 0 0 1-2.146-.888 2.924 2.924 0 0 1-.888-2.146v-5.44c0-.468.167-.943.5-1.424a3.61 3.61 0 0 1 1.24-1.128l3.07-1.665c.345-.198.648-.506.907-.925.259-.42.388-.851.388-1.295V17.49c0-.37-.123-.679-.37-.925a1.255 1.255 0 0 0-.925-.37c-.37 0-.678.123-.925.37-.247.246-.37.555-.37.925v2.553zm17.328-3.404v14.8c0 .838-.296 1.554-.888 2.146a2.924 2.924 0 0 1-2.146.888h-3.552a2.924 2.924 0 0 1-2.146-.888 2.924 2.924 0 0 1-.888-2.146v-14.8c0-.84.296-1.554.888-2.146a2.924 2.924 0 0 1 2.146-.888h3.552c.84 0 1.554.296 2.146.888.592.592.888 1.307.888 2.146zm-3.515 13.949V17.49c0-.37-.123-.679-.37-.925a1.255 1.255 0 0 0-.925-.37c-.37 0-.678.123-.925.37-.246.246-.37.555-.37.925v13.098c0 .37.124.678.37.925.247.246.555.37.925.37s.679-.124.925-.37c.247-.247.37-.555.37-.925zM100.427 13.9h3.515v22.31c0 .84-.296 1.555-.888 2.147a2.924 2.924 0 0 1-2.146.888h-5.735v-2.59h3.404c.518 0 .956-.18 1.313-.537.358-.358.537-.795.537-1.313v-1.813c-.222.419-.574.77-1.055 1.054a2.974 2.974 0 0 1-1.535.426c-.962 0-1.789-.346-2.48-1.036-.69-.691-1.035-1.517-1.035-2.48V17.12c0-.962.345-1.789 1.036-2.48.69-.69 1.517-1.035 2.479-1.035.641 0 1.196.16 1.665.48.37.247.678.58.925 1V13.9zm0 16.687V17.49c0-.37-.124-.679-.37-.925a1.255 1.255 0 0 0-.925-.37c-.37 0-.679.123-.925.37-.247.246-.37.555-.37.925v13.098c0 .37.123.678.37.925.246.246.555.37.925.37s.678-.124.925-.37c.246-.247.37-.555.37-.925zm5.118 3.589V13.9h3.515v8.288h2.59V13.9h3.515v20.276h-3.515v-9.398h-2.59v9.398h-3.515zm20.843 0h-3.515V25.74h-1.295c-.37 0-.678.123-.925.37-.246.246-.37.555-.37.925v7.14h-3.515v-7.214c0-.592.21-1.117.63-1.573.419-.456.937-.71 1.553-.758a2.95 2.95 0 0 1-1.572-1.018c-.407-.506-.61-1.054-.61-1.646v-5.032c0-.84.295-1.554.887-2.146a2.924 2.924 0 0 1 2.146-.888h6.586v20.276zm-3.515-11.026v-6.66h-1.295c-.37 0-.678.123-.925.37-.246.246-.37.555-.37.925v4.07c0 .37.124.678.37.925.247.246.555.37.925.37h1.295z"/></symbol></svg>