<?xml version="1.0" standalone="no"?>
<!DOCTYPE svg PUBLIC "-//W3C//DTD SVG 20010904//EN"
 "http://www.w3.org/TR/2001/REC-SVG-20010904/DTD/svg10.dtd">
<svg version="1.0" xmlns="http://www.w3.org/2000/svg"
 width="700.000000pt" height="700.000000pt" viewBox="0 0 700.000000 700.000000"
 preserveAspectRatio="xMidYMid meet">
<metadata>
Created by potrace 1.11, written by Peter Selinger 2001-2013
</metadata>
<g transform="translate(0.000000,700.000000) scale(0.100000,-0.100000)"
fill="#000000" stroke="none">
<path d="M1869 6992 c-67 -18 -128 -72 -155 -137 -14 -33 -17 -77 -18 -240 -1
-177 1 -206 18 -248 26 -64 75 -112 138 -133 113 -37 229 12 278 118 9 21 19
36 21 34 2 -2 3 -98 3 -213 -2 -188 -4 -213 -22 -249 -90 -177 -323 -179 -412
-3 -21 40 -23 59 -25 258 -2 119 -3 219 -4 224 -1 4 -175 6 -388 4 -424 -4
-427 -4 -518 -67 -83 -57 -133 -132 -154 -228 -8 -39 -11 -754 -11 -2620 0
-2734 -2 -2618 46 -2703 52 -93 158 -170 259 -188 29 -6 1110 -10 2590 -10
2716 -1 2595 -3 2693 48 52 27 126 99 151 149 53 103 49 -64 49 2706 0 2021
-2 2576 -12 2618 -36 151 -150 260 -302 287 -33 6 -196 10 -368 10 -169 0
-310 2 -312 3 -2 2 -4 96 -4 208 -2 223 -7 250 -67 312 -82 86 -233 86 -319 0
-64 -63 -68 -84 -69 -324 0 -119 -2 -212 -5 -207 -3 5 -618 7 -1401 6 l-1396
-2 0 200 c1 228 -5 256 -66 322 -53 58 -145 85 -218 65z m3539 -867 c-3 -171
-4 -182 -28 -220 -31 -51 -54 -71 -108 -95 -114 -52 -254 7 -304 127 -7 18
-12 105 -13 236 -2 191 3 244 19 183 8 -34 70 -94 119 -117 77 -35 169 -20
236 38 39 33 69 80 73 112 5 48 9 -108 6 -264z m-2418 -1427 l0 -228 -378 0
-379 0 2 138 c1 104 6 147 19 177 28 66 86 116 156 135 13 3 149 6 302 7 l278
0 0 -229z m882 223 c0 -3 2 -106 3 -228 l1 -223 -376 0 -377 0 2 228 c1 125 3
227 3 228 12 4 742 -1 744 -5z m753 -14 c54 -24 94 -63 118 -117 17 -38 21
-68 22 -182 l2 -138 -379 0 -378 0 0 228 0 229 288 -2 c250 -1 292 -3 327 -18z
m-1637 -802 l2 -230 -370 1 c-203 0 -373 4 -377 8 -7 6 -14 434 -7 446 1 3
170 5 376 5 l373 0 3 -230z m1777 3 c1 -150 -3 -229 -10 -231 -8 -2 -716 -1
-737 2 -12 2 -10 449 2 453 5 2 175 3 377 3 l368 -1 0 -226z m-1780 -594 l0
-229 -365 -1 c-201 0 -370 1 -376 3 -6 2 -9 78 -8 226 0 122 2 224 3 227 0 3
169 5 374 4 l372 -1 0 -229z m890 0 l0 -229 -375 0 -375 0 -1 227 -1 227 41 3
c23 2 192 3 376 2 l335 -1 0 -229z m875 227 c14 -1 16 -30 15 -228 l0 -228
-375 0 -375 0 -3 230 -2 230 362 -2 c200 -1 370 -2 378 -2z m-1304 -821 l0
-230 -378 0 -377 1 0 230 0 229 377 0 378 0 0 -230z m1318 8 c-1 -123 -2 -226
-3 -230 0 -4 -170 -7 -376 -7 l-375 0 0 230 0 229 378 0 378 0 -2 -222z
m-1776 -601 l2 -228 -287 1 c-277 1 -290 2 -334 24 -64 31 -108 80 -124 141
-8 30 -15 274 -9 287 2 3 172 5 377 5 l372 -2 3 -228z m1763 227 c13 -4 15
-24 14 -132 -1 -70 -5 -140 -10 -157 -10 -39 -44 -89 -78 -115 -58 -45 -93
-50 -388 -50 l-279 0 0 229 0 229 363 0 c199 0 369 -2 378 -4z"/>
</g>
</svg>
