<svg width="100" height="100" viewBox="0 0 100 100" fill="none" xmlns="http://www.w3.org/2000/svg">
<path d="M9.56069 66.3423C26.3968 75.6007 33.1635 90.6784 41.2746 95.1395C49.3885 99.6006 68.9912 104.303 89.5135 66.9812C110.036 29.659 90.1273 11.5784 81.2023 6.67009C39.419 -16.3021 -20.256 49.9479 9.56069 66.3423Z" fill="#EFEFEF"/>
<path d="M16.6667 45.138C14.3694 45.138 12.5 43.2686 12.5 40.9713C12.5 38.6741 14.3694 36.8047 16.6667 36.8047C18.9639 36.8047 20.8333 38.6741 20.8333 40.9713C20.8333 43.2686 18.9639 45.138 16.6667 45.138ZM16.6667 39.5825C15.9 39.5825 15.2778 40.2075 15.2778 40.9713C15.2778 41.7352 15.9 42.3602 16.6667 42.3602C17.4333 42.3602 18.0556 41.7352 18.0556 40.9713C18.0556 40.2075 17.4333 39.5825 16.6667 39.5825Z" fill="#A4AFC1"/>
<path d="M61.8047 69.7578H67.3602V72.5356H61.8047V69.7578Z" fill="#A4AFC1"/>
<path d="M77.7773 69.7578H83.3329V72.5356H77.7773V69.7578Z" fill="#A4AFC1"/>
<path d="M70.832 76.7031H73.6098V82.2587H70.832V76.7031Z" fill="#A4AFC1"/>
<path d="M70.832 60.7305H73.6098V66.286H70.832V60.7305Z" fill="#A4AFC1"/>
<path d="M40.8864 76.1584L20.3198 58.5306C19.1559 57.5334 19.0198 55.7778 20.017 54.6139L25.4392 48.2862C26.4364 47.1223 28.192 46.9862 29.3559 47.9834L41.3086 58.2278L69.2809 24.1862C70.2559 23 72.0059 22.8306 73.1892 23.8028L79.6281 29.0917C80.8142 30.0667 80.9837 31.8167 80.0114 33.0028L44.842 75.8139C43.8531 77.0167 42.0698 77.1723 40.8864 76.1584Z" fill="#79C330"/>
<path d="M47.5631 58.2281L74.7798 25.1059L73.1937 23.8059C72.0076 22.8309 70.2576 23.0032 69.2854 24.1893L43.8965 55.0865L47.5631 58.2281Z" fill="#39961E"/>
<path d="M26.5717 58.53C25.4078 57.5327 25.2717 55.7772 26.2689 54.6133L30.8522 49.2633L29.3578 47.9828C28.1939 46.9855 26.4383 47.1189 25.4411 48.2855L20.0189 54.6133C19.0217 55.7772 19.155 57.5327 20.3217 58.53L40.8883 76.1578C42.0689 77.1716 43.855 77.0161 44.8411 75.8133L45.6244 74.8605L26.5717 58.53Z" fill="#39961E"/>
<path d="M42.6861 78.9112C41.5277 78.9112 40.4222 78.5028 39.5305 77.7417C39.5305 77.739 39.5305 77.739 39.5305 77.739L18.9666 60.1112C17.9833 59.2667 17.3833 58.0862 17.2833 56.7945C17.1833 55.4973 17.5944 54.2417 18.4416 53.2584L23.8639 46.9306C25.6111 44.8973 28.6861 44.664 30.7166 46.4056L41.0555 55.264L67.675 22.8612C69.3805 20.7945 72.45 20.489 74.5166 22.1945L80.9555 27.4834C83.0277 29.1834 83.3278 32.2556 81.6278 34.3279L46.4527 77.139C45.6166 78.1556 44.4333 78.7778 43.1222 78.8945C42.975 78.9028 42.8305 78.9112 42.6861 78.9112ZM42.2444 74.5778C42.4361 74.7445 42.65 74.7501 42.7583 74.7417C42.8666 74.7334 43.0722 74.6862 43.2333 74.4917L78.4083 31.6834C78.6527 31.389 78.6083 30.9473 78.3111 30.7029L71.8722 25.414C71.5778 25.1723 71.1361 25.214 70.8944 25.5112L42.9222 59.5528C42.5666 59.9834 42.0527 60.2556 41.4944 60.3056C40.9277 60.3612 40.3833 60.1751 39.9555 59.8112L28.0027 49.5667C27.7139 49.3167 27.2722 49.3528 27.0222 49.6417L21.6 55.9695C21.4361 56.1584 21.4277 56.3695 21.4333 56.4751C21.4416 56.5834 21.4861 56.7862 21.6722 56.9501L42.2444 74.5778Z" fill="#2C2F33"/>
</svg>
