<?xml version="1.0" standalone="no"?>
<!DOCTYPE svg PUBLIC "-//W3C//DTD SVG 20010904//EN"
 "http://www.w3.org/TR/2001/REC-SVG-20010904/DTD/svg10.dtd">
<svg version="1.0" xmlns="http://www.w3.org/2000/svg"
 width="673.000000pt" height="673.000000pt" viewBox="0 0 673.000000 673.000000"
 preserveAspectRatio="xMidYMid meet">
<metadata>
Created by potrace 1.11, written by Peter Selinger 2001-2013
</metadata>
<g transform="translate(0.000000,673.000000) scale(0.100000,-0.100000)"
fill="#000000" stroke="none">
<path d="M4251 6331 c3 -7 7 -11 11 -9 3 2 17 -10 31 -26 13 -15 27 -24 30
-20 8 15 -11 54 -27 54 -8 0 -22 3 -32 7 -11 4 -15 2 -13 -6z"/>
<path d="M4160 6313 c-8 -4 -23 -17 -33 -30 -24 -30 -43 -29 -51 2 -7 26 -26
35 -26 12 0 -8 -9 -22 -19 -31 -19 -17 -20 -17 -37 9 l-18 27 -23 -26 c-13
-15 -23 -35 -23 -46 0 -10 -20 -43 -45 -73 -25 -31 -45 -60 -45 -66 0 -6 -8
-26 -17 -45 -16 -30 -22 -34 -52 -31 -18 1 -37 9 -42 16 -7 11 -11 10 -24 -6
-8 -11 -14 -29 -13 -40 3 -29 -10 -45 -38 -45 -14 0 -22 4 -19 10 3 6 -1 10
-9 10 -10 0 -13 -6 -10 -15 5 -11 0 -15 -17 -14 -13 1 -32 -2 -41 -6 -14 -6
-18 -2 -18 16 0 12 -3 20 -6 16 -3 -3 -17 -2 -31 4 -34 13 -59 -3 -73 -47 -10
-29 -9 -38 3 -52 11 -13 13 -38 10 -107 -6 -165 -13 -207 -33 -212 -10 -3 -21
-15 -25 -26 -6 -19 -8 -20 -12 -4 -2 9 -9 14 -15 10 -8 -4 -9 0 -5 11 4 10 3
15 -3 11 -6 -3 -10 -15 -10 -27 0 -13 -5 -18 -14 -15 -16 6 -37 -32 -54 -96
-9 -32 -8 -38 9 -47 18 -10 18 -13 4 -40 -9 -18 -11 -31 -5 -35 6 -3 10 -11
10 -17 0 -6 -3 -8 -6 -5 -9 9 -39 -32 -52 -72 -17 -47 -15 -57 6 -38 10 10 23
17 28 17 10 0 44 76 44 98 0 8 13 43 30 79 17 35 30 69 30 74 0 5 5 9 10 9 6
0 10 7 10 16 0 9 16 42 35 73 22 36 33 64 29 74 -4 13 -1 17 15 17 11 0 25 9
30 19 6 11 33 33 61 50 27 17 50 34 50 39 0 4 14 16 31 26 16 10 44 33 61 52
17 18 39 36 48 39 19 6 35 34 25 43 -3 3 -14 -3 -25 -13 -12 -11 -20 -13 -20
-6 0 9 -5 9 -21 0 -50 -26 -132 21 -91 52 15 13 16 12 4 -3 -17 -22 3 -35 26
-17 9 7 14 10 10 5 -4 -4 -2 -14 5 -20 9 -10 19 -8 49 7 21 12 38 27 38 35 0
10 6 12 23 7 12 -4 30 -7 40 -6 9 0 17 -4 17 -10 0 -5 -4 -9 -10 -9 -5 0 -10
-5 -10 -11 0 -6 7 -8 17 -5 9 4 19 3 22 -1 3 -4 21 -18 38 -31 31 -21 34 -22
58 -6 24 16 25 15 25 -5 0 -16 6 -21 25 -21 14 0 28 -7 31 -15 6 -15 40 -20
68 -9 29 11 16 24 -24 24 -44 0 -52 16 -22 43 23 21 33 22 26 2 -4 -9 -1 -15
7 -15 8 0 27 -7 43 -15 23 -12 35 -13 68 -3 29 8 41 9 50 0 16 -16 4 -25 -37
-26 -55 -1 -34 -21 22 -21 28 -1 57 -6 65 -12 14 -12 202 -12 213 -1 8 8 -111
28 -162 28 -52 0 -72 20 -53 55 16 30 31 31 54 6 10 -11 32 -23 50 -27 17 -3
36 -10 41 -14 6 -4 33 -10 60 -13 39 -4 58 -1 88 16 34 19 42 20 82 9 25 -7
62 -12 83 -12 20 0 53 -5 72 -10 49 -14 90 -4 90 23 0 20 1 20 14 2 8 -12 25
-18 46 -17 27 1 40 -7 64 -34 22 -25 46 -38 81 -47 38 -10 49 -16 47 -30 -3
-20 27 -24 46 -5 14 14 46 -8 38 -28 -3 -7 8 -17 26 -23 33 -12 52 -6 28 9 -8
5 -11 12 -7 17 4 4 16 2 25 -5 9 -6 36 -21 60 -33 48 -24 50 -29 22 -47 -27
-17 -25 -32 5 -32 14 0 25 -5 25 -11 0 -5 5 -7 11 -4 6 4 29 2 52 -3 23 -6 59
-13 80 -16 34 -4 37 -3 32 14 -3 10 0 22 7 26 7 4 14 2 16 -5 9 -26 43 -51 70
-51 15 0 38 -7 51 -17 22 -15 26 -15 55 0 60 30 192 45 326 36 49 -4 162 22
180 41 3 3 29 25 58 49 28 23 52 47 52 52 0 5 -13 9 -29 9 -17 0 -31 6 -35 16
-8 21 -8 21 14 27 26 7 26 27 -1 27 -36 0 -59 -20 -85 -74 -21 -44 -31 -55
-56 -60 -17 -3 -46 -1 -64 6 -30 11 -35 10 -52 -13 -22 -27 -83 -47 -157 -51
-40 -3 -50 0 -53 15 -2 12 3 17 18 17 24 0 23 23 -2 28 -14 3 -32 -29 -29 -50
0 -4 -6 -5 -15 -1 -8 3 -13 12 -10 19 4 10 -3 14 -22 14 -46 0 -102 -12 -97
-21 3 -4 1 -10 -4 -13 -8 -5 -41 34 -41 49 0 3 17 5 38 5 l37 0 -25 20 c-16
13 -21 23 -14 27 6 5 8 19 5 31 l-6 24 -27 -21 c-33 -27 -52 -27 -45 -1 3 13
0 20 -9 20 -8 0 -14 10 -14 25 0 14 -4 25 -9 25 -5 0 -6 -20 -3 -45 4 -40 2
-45 -16 -45 -27 0 -34 25 -20 71 13 46 7 56 -27 41 -16 -7 -25 -20 -25 -34 0
-33 -33 -108 -47 -108 -7 0 -13 -4 -13 -8 0 -22 -31 -5 -45 25 -9 18 -21 33
-27 33 -7 0 -7 -5 1 -14 16 -19 -5 -26 -42 -13 -40 14 -76 87 -42 87 8 0 15
-4 15 -10 0 -5 5 -10 10 -10 21 0 9 21 -17 31 -16 6 -35 15 -44 19 -10 5 -21
3 -30 -5 -12 -12 -18 -11 -37 5 -13 11 -18 21 -12 25 17 11 11 28 -9 22 -13
-3 -17 0 -14 12 5 20 -23 47 -58 56 -20 5 -27 2 -36 -17 -5 -13 -7 -32 -3 -43
15 -42 -94 -33 -130 10 -14 17 -35 21 -25 5 3 -6 -1 -7 -10 -4 -9 4 -15 14
-12 23 2 9 6 22 8 30 7 25 -21 23 -32 -3 -9 -19 -20 -26 -41 -26 -40 0 -76 19
-57 30 11 7 11 13 -1 34 -13 25 -40 36 -40 16 0 -5 -7 -10 -15 -10 -26 0 -16
-27 11 -34 19 -5 24 -10 16 -18 -14 -14 -58 -2 -84 24 -33 33 -128 45 -128 16
0 -5 5 -6 10 -3 6 3 10 1 10 -6 0 -8 -12 -10 -37 -5 -21 3 -47 7 -58 9 -11 1
-25 13 -31 27 l-11 25 -7 -30 c-10 -42 -31 -67 -53 -63 -16 3 -15 7 10 30 25
23 26 29 16 52 -15 31 -16 31 -54 6 -18 -12 -48 -20 -75 -21 -31 0 -39 -3 -26
-8 17 -6 17 -8 4 -14 -10 -3 -19 0 -22 10 -4 8 -13 13 -21 9 -8 -3 -15 -2 -15
2 0 12 14 29 30 35 9 3 3 6 -13 6 -17 1 -27 -4 -26 -11 4 -33 -2 -48 -21 -48
-17 0 -49 -9 -148 -41 -19 -6 -55 -8 -88 -3 -44 5 -57 11 -64 28 -5 15 -3 22
6 24 8 2 14 14 14 27 0 12 7 28 14 35 8 6 20 27 26 45 14 41 64 87 126 116 26
12 49 29 51 40 4 14 11 18 22 14 9 -4 41 -10 71 -15 54 -7 64 -4 119 36 10 8
-28 31 -49 30 -14 -1 -24 4 -23 11 3 12 -9 11 -47 -4 -14 -6 -28 -9 -33 -6
-11 7 2 23 27 33 11 5 14 9 6 9 -8 -1 -22 -3 -30 -6z m-200 -156 c0 -7 -13
-27 -28 -45 l-28 -34 -24 21 -25 21 28 -6 c24 -5 27 -3 27 19 0 44 10 58 31
46 10 -5 19 -15 19 -22z m-130 -217 c-20 -13 -57 -13 -44 -1 10 10 46 19 54
14 2 -2 -2 -8 -10 -13z m-330 0 c0 -5 -5 -10 -11 -10 -5 0 -7 5 -4 10 3 6 8
10 11 10 2 0 4 -4 4 -10z m77 -67 c-3 -3 -11 -2 -17 2 -8 5 -7 11 2 22 12 15
13 14 16 -1 2 -10 1 -20 -1 -23z m1100 1 c40 -9 77 -13 83 -9 6 3 7 0 4 -9 -7
-19 -15 -19 -105 -4 -55 9 -75 8 -94 -2 -27 -14 -59 -7 -52 13 2 6 11 11 21 9
9 -2 16 3 16 11 0 16 11 15 127 -9z m-657 1 c0 -8 -7 -15 -16 -15 -14 0 -14 3
-4 15 7 8 14 15 16 15 2 0 4 -7 4 -15z m-410 -36 c0 -7 17 -10 45 -7 25 2 45
0 45 -4 0 -5 -7 -8 -15 -8 -8 0 -12 -6 -9 -14 3 -8 -4 -16 -19 -20 -13 -3 -45
-24 -70 -47 -32 -27 -47 -36 -47 -25 0 8 14 22 30 31 35 18 38 30 9 32 -20 2
-48 28 -49 47 0 4 6 6 13 3 7 -3 21 1 32 9 23 17 35 18 35 3z m1500 -49 c0 -5
-9 -10 -20 -10 -11 0 -20 5 -20 10 0 6 9 10 20 10 11 0 20 -4 20 -10z m-1617
-116 c-5 -15 -3 -15 23 1 l29 17 -25 -20 c-24 -20 -49 -15 -36 7 11 17 16 13
9 -5z m2117 -29 c0 -9 -9 -15 -25 -15 -16 0 -25 6 -25 15 0 9 9 15 25 15 16 0
25 -6 25 -15z m91 -51 c12 -15 6 -17 -28 -8 -13 4 -23 12 -23 19 0 16 35 8 51
-11z m509 -13 c0 -5 -6 -14 -14 -20 -16 -13 -32 2 -21 19 8 12 35 13 35 1z"/>
<path d="M3566 5821 c-3 -5 0 -14 7 -20 15 -12 87 -3 87 11 0 6 -13 8 -30 6
-16 -3 -30 -1 -30 4 0 11 -27 10 -34 -1z"/>
<path d="M4394 6305 c-14 -36 25 -65 86 -65 42 0 45 16 10 50 -33 32 -63 41
-54 15 4 -8 1 -15 -5 -15 -6 0 -11 7 -11 15 0 8 -5 15 -10 15 -6 0 -13 -7 -16
-15z"/>
<path d="M5010 5885 c7 -9 15 -13 17 -11 7 7 -7 26 -19 26 -6 0 -6 -6 2 -15z"/>
<path d="M3825 5860 c-3 -5 -15 -10 -26 -10 -10 0 -19 -7 -19 -15 0 -17 25
-20 35 -5 3 6 15 10 25 10 13 0 17 5 14 15 -7 17 -20 20 -29 5z"/>
<path d="M3870 5805 c0 -9 10 -20 23 -25 22 -9 22 -9 0 -9 -12 -1 -23 5 -25
11 -3 9 -17 4 -46 -15 -48 -32 -55 -57 -15 -57 25 0 25 -1 10 -18 -10 -10 -17
-26 -17 -36 0 -9 -4 -15 -9 -11 -6 3 -15 -4 -21 -15 -9 -16 -8 -20 5 -20 8 0
20 11 27 25 6 13 16 22 21 18 6 -4 8 0 4 9 -3 10 3 20 19 28 28 16 31 27 7 32
-11 2 3 12 37 27 48 21 59 22 85 11 16 -6 66 -18 110 -25 44 -7 88 -16 98 -20
13 -5 17 -2 17 12 0 11 -6 20 -12 21 -166 13 -214 24 -202 43 8 13 -28 26 -73
28 -33 1 -43 -3 -43 -14z"/>
<path d="M3787 5787 c-6 -21 -12 -27 -23 -23 -10 4 -23 -3 -35 -16 -39 -48
-19 -51 35 -5 25 23 37 40 34 53 -3 15 -5 13 -11 -9z"/>
<path d="M4926 5782 c-3 -4 4 -9 15 -9 23 -2 25 3 4 10 -8 4 -16 3 -19 -1z"/>
<path d="M4828 5741 c-96 -27 -85 -33 32 -17 63 8 131 -3 138 -23 3 -8 0 -11
-6 -7 -6 3 -14 2 -17 -4 -4 -6 -14 -10 -23 -9 -43 4 -83 -2 -77 -11 3 -5 12
-10 20 -10 14 0 48 -26 95 -73 29 -29 29 -29 9 -50 -21 -23 -25 -43 -8 -49 7
-2 -4 -21 -25 -43 -20 -22 -36 -35 -36 -29 0 5 4 14 9 20 6 5 3 15 -7 24 -14
13 -15 12 -9 -4 6 -16 1 -17 -55 -15 -39 2 -63 -2 -66 -9 -2 -6 -10 -8 -18 -5
-12 4 -19 -7 -15 -29 0 -4 -3 -18 -9 -32 -7 -18 -5 -26 6 -30 8 -3 19 -16 24
-28 5 -13 9 -17 9 -10 1 6 7 12 15 12 17 0 29 -27 14 -32 -13 -5 -28 -140 -17
-152 5 -6 12 1 18 15 7 17 10 19 10 7 1 -12 6 -15 19 -11 16 6 16 6 0 -10 -9
-9 -19 -17 -22 -17 -3 0 -40 -36 -82 -80 -42 -44 -83 -80 -90 -80 -7 0 -26
-11 -42 -25 -29 -24 -69 -35 -57 -15 4 6 9 23 11 37 3 15 10 31 17 35 6 4 8
11 3 15 -4 4 -19 -5 -33 -21 -18 -21 -24 -38 -21 -58 3 -16 1 -31 -4 -34 -5
-3 -5 -10 -2 -16 4 -7 2 -8 -4 -4 -7 4 -16 -3 -23 -17 -6 -14 -22 -30 -35 -36
-13 -6 -24 -19 -24 -29 0 -21 -54 -74 -66 -64 -4 4 -4 -1 0 -12 5 -14 3 -17
-10 -12 -8 3 -25 -1 -37 -10 l-22 -16 23 7 c15 4 22 2 22 -7 0 -7 13 1 27 17
15 17 30 29 35 27 5 -1 12 8 17 21 5 12 20 29 35 36 14 8 23 18 20 23 -3 5
-13 3 -22 -4 -15 -12 -16 -11 -3 5 9 12 17 14 26 7 8 -6 15 -6 23 2 7 7 12 8
12 3 0 -6 4 -4 9 3 7 11 9 10 14 -3 4 -9 3 -13 -2 -10 -5 3 -12 1 -16 -5 -4
-6 -11 -7 -17 -4 -7 5 -9 2 -6 -8 7 -16 -32 -68 -50 -68 -6 0 -13 -4 -16 -9
-4 -5 3 -7 14 -4 21 6 70 57 70 74 0 6 4 8 9 4 13 -7 25 14 27 48 2 35 44 83
56 65 5 -9 21 1 53 35 48 50 60 55 68 33 4 -9 -23 -39 -69 -81 -40 -36 -71
-59 -68 -51 7 18 -4 20 -26 6 -13 -9 -13 -11 0 -20 23 -15 24 -14 91 43 34 28
76 63 94 77 50 38 105 105 134 163 18 33 43 62 70 81 23 15 47 38 53 51 5 12
25 29 43 38 19 9 55 36 82 61 143 133 213 202 213 209 0 15 -28 6 -54 -18 -15
-14 -33 -25 -40 -25 -7 0 -21 -9 -31 -20 -10 -11 -29 -20 -42 -20 -12 0 -23
-5 -23 -11 0 -5 -4 -7 -10 -4 -5 3 -10 1 -10 -4 0 -6 -20 -11 -45 -11 -30 0
-45 4 -45 13 0 21 102 76 153 83 29 4 47 12 47 20 0 7 8 17 17 22 14 8 7 15
-38 37 -30 15 -71 43 -92 61 -20 19 -43 34 -51 34 -8 0 -43 13 -78 28 -82 37
-121 42 -190 23z m22 -481 c0 -5 -4 -10 -10 -10 -5 0 -10 5 -10 10 0 6 5 10
10 10 6 0 10 -4 10 -10z m-9 -183 c-10 -9 -11 -8 -5 6 3 10 9 15 12 12 3 -3 0
-11 -7 -18z"/>
<path d="M5754 5743 c-20 -31 25 -112 63 -113 13 0 53 47 53 62 0 6 -7 8 -15
4 -20 -7 -65 14 -65 31 0 7 10 13 23 14 21 1 21 1 -3 9 -38 12 -44 11 -56 -7z"/>
<path d="M4521 5734 c0 -11 3 -14 6 -6 3 7 2 16 -1 19 -3 4 -6 -2 -5 -13z"/>
<path d="M4541 5734 c0 -11 3 -14 6 -6 3 7 2 16 -1 19 -3 4 -6 -2 -5 -13z"/>
<path d="M4621 5734 c0 -11 3 -14 6 -6 3 7 2 16 -1 19 -3 4 -6 -2 -5 -13z"/>
<path d="M4641 5734 c0 -11 3 -14 6 -6 3 7 2 16 -1 19 -3 4 -6 -2 -5 -13z"/>
<path d="M4701 5734 c0 -11 3 -14 6 -6 3 7 2 16 -1 19 -3 4 -6 -2 -5 -13z"/>
<path d="M4721 5734 c0 -11 3 -14 6 -6 3 7 2 16 -1 19 -3 4 -6 -2 -5 -13z"/>
<path d="M4748 5743 c7 -3 16 -2 19 1 4 3 -2 6 -13 5 -11 0 -14 -3 -6 -6z"/>
<path d="M4096 5695 c-6 -17 3 -25 26 -25 10 0 18 6 18 14 0 18 -37 28 -44 11z"/>
<path d="M4498 5673 c7 -3 16 -2 19 1 4 3 -2 6 -13 5 -11 0 -14 -3 -6 -6z"/>
<path d="M3568 5644 c-16 -8 -28 -21 -28 -30 0 -17 28 -6 50 21 18 22 10 26
-22 9z"/>
<path d="M4858 5643 c6 -2 18 -2 25 0 6 3 1 5 -13 5 -14 0 -19 -2 -12 -5z"/>
<path d="M3636 5632 c-3 -5 -8 -28 -12 -50 -4 -23 -10 -42 -15 -42 -4 0 -5
-10 -2 -22 8 -30 7 -86 -2 -120 -6 -24 -4 -28 14 -28 11 0 28 11 37 25 11 17
26 25 44 25 25 0 27 3 24 38 -1 20 -3 39 -4 42 -1 3 -2 9 -1 14 1 5 0 15 -3
23 -7 18 -46 -1 -46 -22 0 -8 -5 -15 -11 -15 -12 0 -8 90 6 123 5 12 3 17 -8
17 -9 0 -18 -4 -21 -8z"/>
<path d="M3396 5621 c-4 -7 -5 -15 -2 -18 9 -9 19 4 14 18 -4 11 -6 11 -12 0z"/>
<path d="M4940 5600 c0 -5 5 -10 10 -10 6 0 10 5 10 10 0 6 -4 10 -10 10 -5 0
-10 -4 -10 -10z"/>
<path d="M4895 5540 c3 -5 8 -10 11 -10 2 0 4 5 4 10 0 6 -5 10 -11 10 -5 0
-7 -4 -4 -10z"/>
<path d="M4940 5536 c0 -9 5 -16 10 -16 6 0 10 4 10 9 0 6 -4 13 -10 16 -5 3
-10 -1 -10 -9z"/>
<path d="M3755 5490 c-3 -5 -3 -16 2 -22 4 -7 6 -21 4 -32 -2 -11 2 -17 11
-14 19 7 23 78 4 78 -8 0 -18 -4 -21 -10z"/>
<path d="M4950 5484 c0 -8 5 -12 10 -9 6 4 8 11 5 16 -9 14 -15 11 -15 -7z"/>
<path d="M3452 5433 c-17 -26 -36 -60 -42 -75 -8 -16 -18 -24 -26 -21 -12 5
-18 -7 -11 -23 1 -3 -6 -10 -15 -15 -29 -16 -21 -34 17 -35 22 0 35 4 35 12 0
27 24 65 39 62 24 -3 61 20 71 45 6 12 16 30 22 41 10 15 10 19 1 23 -7 3 -13
12 -13 21 -1 14 -3 14 -16 -3 -8 -11 -13 -28 -10 -39 5 -18 -27 -55 -48 -56
-15 0 5 52 27 71 16 13 19 21 11 29 -8 8 -19 -1 -42 -37z"/>
<path d="M3842 5387 c-41 -42 -43 -63 -4 -43 23 12 52 52 52 71 0 13 -19 2
-48 -28z"/>
<path d="M4661 5384 c0 -11 3 -14 6 -6 3 7 2 16 -1 19 -3 4 -6 -2 -5 -13z"/>
<path d="M4732 5374 c-7 -8 -8 -14 -3 -14 10 0 25 19 20 25 -2 1 -10 -3 -17
-11z"/>
<path d="M3237 5323 c-3 -5 -8 -24 -12 -43 l-7 -35 23 22 c17 17 20 25 11 36
-7 8 -9 17 -5 20 3 4 4 7 0 7 -3 0 -8 -3 -10 -7z"/>
<path d="M3178 5240 c20 -35 37 -40 28 -7 -3 12 -6 25 -6 30 0 4 -9 7 -20 7
-18 0 -18 -1 -2 -30z"/>
<path d="M4735 5260 c-3 -6 1 -7 9 -4 18 7 21 14 7 14 -6 0 -13 -4 -16 -10z"/>
<path d="M5090 5245 c0 -18 5 -25 20 -25 11 0 20 7 20 15 0 8 -9 19 -20 25
-18 9 -20 8 -20 -15z"/>
<path d="M3708 5231 c-7 -10 -28 -26 -45 -35 -18 -9 -33 -21 -33 -27 0 -6 8
-6 21 1 11 7 32 9 45 6 18 -5 24 -2 24 10 0 8 7 22 15 30 8 9 15 20 15 25 0
16 -28 10 -42 -10z"/>
<path d="M3342 5118 c-5 -7 -15 -31 -21 -53 l-10 -40 24 30 c14 17 25 40 25
53 0 25 -3 27 -18 10z"/>
<path d="M3480 5094 c0 -31 23 -28 28 4 2 15 -2 22 -12 22 -11 0 -16 -9 -16
-26z"/>
<path d="M2980 5090 c0 -5 11 -10 25 -10 15 0 37 -12 52 -27 15 -16 23 -21 18
-13 -6 12 -5 13 6 3 10 -10 10 -16 1 -25 -7 -7 -12 -21 -12 -31 0 -11 -10 -40
-22 -64 -20 -41 -24 -43 -52 -37 -25 5 -29 4 -19 -7 8 -11 8 -17 -3 -27 -8 -7
-14 -9 -14 -4 0 14 -62 21 -87 9 -25 -11 -38 -48 -20 -59 7 -5 1 -8 -15 -8
-25 0 -27 2 -18 25 12 33 -4 41 -30 15 -24 -24 -42 -26 -34 -5 7 17 -11 21
-21 5 -3 -5 -44 -10 -89 -10 -77 0 -85 -2 -110 -26 -14 -15 -26 -32 -26 -38 0
-22 18 -39 34 -33 9 4 16 1 16 -5 0 -7 5 -6 15 2 9 8 26 9 47 4 32 -7 32 -8 8
-15 -14 -4 -40 -7 -57 -8 -18 -1 -33 -5 -33 -10 0 -17 19 -22 39 -11 16 8 22
7 29 -6 7 -13 13 -14 30 -5 11 6 31 11 45 11 24 0 145 45 160 60 11 10 47 1
47 -12 0 -5 -4 -7 -9 -4 -5 4 -7 -2 -4 -13 3 -10 0 -22 -6 -25 -19 -12 -12
-26 14 -26 28 0 75 19 75 31 0 5 10 17 22 28 18 17 19 23 8 37 -13 15 -15 15
-26 -1 -11 -15 -14 -14 -28 7 -9 12 -16 26 -16 30 0 12 38 10 45 -2 4 -6 14
-10 23 -9 31 2 62 -13 60 -30 -2 -11 5 -16 22 -17 52 -2 59 -5 88 -31 62 -58
81 -71 98 -70 11 1 20 -7 24 -23 5 -21 12 -25 46 -25 58 0 134 -27 152 -53 9
-14 21 -21 30 -17 8 3 26 -4 39 -17 l24 -23 -10 28 c-6 15 -18 38 -27 52 -16
24 -16 25 9 25 14 0 27 5 29 12 3 8 28 3 84 -18 162 -62 214 -76 214 -54 0 5
12 13 26 16 l26 7 -28 22 c-23 18 -46 24 -123 29 -52 4 -100 10 -105 15 -16
12 -103 20 -113 10 -5 -5 -24 -10 -43 -11 -19 -2 -38 -7 -42 -12 -3 -6 -20 5
-36 22 -17 18 -34 32 -40 32 -5 0 -12 23 -16 50 -6 48 -8 50 -39 50 -18 0 -53
7 -78 14 -49 15 -69 8 -69 -23 0 -12 -5 -11 -18 6 -9 12 -48 38 -86 59 -38 21
-64 40 -58 42 7 2 12 10 12 18 0 8 7 17 15 20 8 3 17 14 20 25 4 10 13 19 21
19 8 0 12 5 9 10 -4 6 -2 16 3 23 5 7 12 27 16 46 5 27 3 32 -9 27 -8 -3 -15
-1 -15 4 0 6 4 10 10 10 20 0 -3 29 -32 39 -39 14 -98 14 -98 1z m-390 -310
c0 -13 -7 -20 -20 -20 -23 0 -26 10 -8 28 18 18 28 15 28 -8z m131 -1 c25 -25
17 -59 -14 -58 -21 0 -21 1 -3 8 16 6 17 9 5 17 -8 4 -18 9 -24 9 -22 2 -45
18 -45 31 0 22 57 17 81 -7z m79 -13 c0 -7 -9 -16 -20 -19 -25 -6 -26 8 -2 22
22 13 22 13 22 -3z m488 -73 c19 -26 15 -29 -27 -25 -27 3 -38 8 -35 17 3 7
-2 15 -10 18 -9 4 -16 13 -16 22 0 14 4 14 38 0 20 -9 43 -23 50 -32z m46 21
c18 -7 12 -24 -10 -24 -8 0 -14 7 -14 15 0 17 2 18 24 9z"/>
<path d="M3172 5075 c-7 -14 -12 -31 -12 -37 0 -6 -8 -17 -17 -25 -10 -8 -12
-12 -5 -8 8 4 12 -2 12 -19 0 -32 16 -34 25 -3 4 12 18 36 31 54 24 32 32 59
14 48 -5 -3 -10 -1 -10 4 0 21 -27 11 -38 -14z"/>
<path d="M3384 5075 c-25 -38 -13 -51 21 -23 16 14 25 30 21 36 -11 18 -24 14
-42 -13z"/>
<path d="M3724 4965 c-3 -8 -4 -20 -1 -27 3 -7 6 -3 6 9 1 12 7 24 14 26 9 4
9 6 -1 6 -7 1 -15 -6 -18 -14z"/>
<path d="M3730 4915 c-7 -9 -8 -15 -2 -15 5 0 12 7 16 15 3 8 4 15 2 15 -2 0
-9 -7 -16 -15z"/>
<path d="M4050 4876 c0 -9 5 -16 10 -16 6 0 10 4 10 9 0 6 -4 13 -10 16 -5 3
-10 -1 -10 -9z"/>
<path d="M2350 4849 c0 -18 -7 -28 -20 -32 -31 -8 -26 -57 8 -88 31 -29 124
-89 138 -89 5 0 21 -6 36 -14 23 -12 27 -12 33 2 3 8 2 18 -3 21 -44 31 -51
40 -57 84 -6 38 -4 48 9 53 22 8 2 34 -27 34 -11 0 -29 8 -39 17 -15 13 -21
14 -31 4 -9 -9 -9 -14 0 -19 7 -4 11 -21 9 -37 -4 -34 -32 -41 -50 -13 -8 14
-7 20 8 31 17 13 17 16 3 43 l-16 29 -1 -26z"/>
<path d="M3300 4845 c0 -7 17 -16 38 -20 20 -3 55 -17 77 -30 83 -50 116 -66
126 -59 19 12 -133 98 -200 113 -32 7 -41 6 -41 -4z"/>
<path d="M3691 4844 c0 -11 3 -14 6 -6 3 7 2 16 -1 19 -3 4 -6 -2 -5 -13z"/>
<path d="M3181 4650 c-11 -6 -8 -13 12 -34 14 -14 34 -26 44 -26 15 1 14 4 -7
21 -14 12 -25 25 -25 29 0 15 -10 19 -24 10z"/>
<path d="M4255 4651 c-6 -5 -39 -24 -73 -41 -56 -28 -73 -32 -138 -31 -59 1
-74 -2 -74 -14 0 -8 10 -17 23 -19 55 -11 97 -14 102 -7 2 5 45 28 94 51 50
24 92 49 95 56 6 16 -15 19 -29 5z"/>
<path d="M3481 4634 c0 -11 3 -14 6 -6 3 7 2 16 -1 19 -3 4 -6 -2 -5 -13z"/>
<path d="M2570 4611 c0 -13 12 -27 31 -36 24 -13 28 -19 19 -30 -10 -12 -7
-17 11 -26 25 -12 115 -107 108 -113 -2 -2 -73 -9 -158 -15 -85 -6 -199 -20
-254 -32 -110 -22 -304 -84 -327 -104 -8 -7 -25 -16 -37 -19 -13 -4 -23 -11
-23 -15 0 -4 -6 -8 -12 -8 -13 0 -168 -91 -168 -99 0 -4 47 15 75 32 11 7 31
15 45 19 14 4 59 27 101 50 110 63 318 129 444 142 66 6 74 -2 10 -11 -36 -5
-150 -35 -280 -73 -60 -17 -257 -111 -267 -127 -24 -37 23 -27 162 32 225 96
350 136 350 114 0 -5 -28 -17 -62 -25 -133 -34 -265 -97 -201 -97 10 0 68 14
128 30 125 35 277 50 290 30 4 -7 2 -16 -6 -21 -9 -5 15 -9 63 -9 46 0 80 -5
84 -11 5 -8 -5 -10 -32 -7 -57 7 -256 -10 -269 -23 -7 -8 -4 -9 11 -5 29 9
209 10 223 2 25 -16 8 -23 -31 -14 -66 14 -172 0 -190 -26 -4 -6 -12 -5 -22 3
-11 9 -16 10 -16 2 0 -6 6 -12 13 -13 6 0 17 -2 22 -2 6 -1 15 -4 20 -7 6 -4
19 -4 30 -2 47 12 205 15 205 4 0 -6 -10 -11 -23 -11 -13 0 -44 -7 -70 -16
-39 -13 -47 -20 -47 -40 0 -19 -5 -24 -24 -24 -13 0 -34 -9 -47 -20 l-24 -20
146 3 c146 2 147 2 171 -24 17 -18 42 -29 85 -38 33 -6 79 -20 101 -31 45 -22
137 -45 222 -55 30 -4 80 -13 110 -20 30 -8 78 -15 105 -16 44 -3 50 -1 48 17
-2 17 11 21 115 38 146 23 292 61 355 91 43 20 46 24 27 30 -12 4 -47 4 -78 0
-65 -7 -191 11 -198 29 -3 7 2 31 10 54 8 23 11 44 7 46 -5 3 -26 -3 -47 -13
-22 -10 -74 -22 -116 -26 l-78 -7 0 39 c0 45 -5 52 -49 77 -19 11 -43 26 -53
35 -10 9 -28 18 -40 21 -30 8 -35 30 -6 31 22 1 22 2 -4 12 -21 8 -28 18 -28
39 l0 28 -72 0 c-62 0 -70 2 -58 14 17 15 95 36 138 36 28 0 48 20 35 34 -13
13 -163 5 -252 -14 -52 -11 -106 -20 -122 -20 -41 0 -59 -10 -59 -33 0 -17 -6
-14 -35 19 -19 21 -43 55 -52 74 -10 19 -48 64 -85 100 -98 95 -98 95 -98 71z
m495 -281 c15 -1 11 -5 -12 -15 -18 -8 -33 -16 -33 -19 0 -3 15 -3 33 -1 l32
5 -28 -11 c-28 -11 -28 -11 -8 -26 12 -8 21 -23 21 -34 0 -10 5 -19 11 -19 5
0 8 -4 5 -9 -11 -16 -50 2 -86 40 -19 20 -41 34 -49 31 -10 -3 -11 0 -5 9 4 8
-5 4 -20 -9 -16 -12 -34 -22 -41 -22 -14 0 -25 22 -25 47 0 12 3 13 14 4 11
-10 25 -9 61 3 26 9 51 14 56 11 5 -4 9 1 9 11 0 12 6 15 23 10 12 -3 31 -6
42 -6z m-222 -56 c26 -31 47 -52 47 -48 0 11 20 -18 20 -28 0 -4 -11 -2 -25 4
-14 6 -25 15 -25 20 0 4 -10 8 -22 8 -13 0 -45 11 -73 25 -30 14 -68 25 -94
25 -51 0 -51 6 -1 13 19 3 53 12 75 20 22 9 42 16 45 16 3 1 27 -24 53 -55z
m-37 -59 c12 -8 24 -12 27 -9 3 3 3 -3 0 -14 -7 -30 -30 -34 -48 -9 -29 41
-17 59 21 32z m153 -61 c28 -35 26 -46 -3 -33 -29 14 -53 59 -32 59 8 0 24
-12 35 -26z m-41 -55 c2 -13 9 -30 14 -37 18 -21 2 -24 -36 -8 -40 17 -44 27
-19 56 22 25 37 21 41 -11z m350 9 c33 -16 39 -54 13 -87 -15 -20 -24 -23 -54
-17 -28 5 -45 18 -72 53 -50 66 -47 74 25 68 33 -2 73 -10 88 -17z m-164 -83
c3 -9 0 -15 -9 -15 -9 0 -12 6 -9 15 4 8 7 15 9 15 2 0 5 -7 9 -15z m-156 -49
c5 -21 -13 -36 -45 -36 -31 0 -37 15 -16 40 21 25 56 23 61 -4z m137 14 c-3
-5 -13 -10 -21 -10 -8 0 -14 -7 -14 -15 0 -10 -10 -15 -30 -15 -33 0 -35 3
-20 31 8 14 21 19 51 19 24 0 38 -4 34 -10z"/>
<path d="M3046 4242 c-2 -4 -1 -14 4 -22 7 -11 9 -9 7 8 -1 24 -3 26 -11 14z"/>
<path d="M4179 4550 c-24 -19 -24 -19 -3 -20 24 0 50 25 36 34 -6 3 -21 -3
-33 -14z"/>
<path d="M4083 4516 c-51 -18 -52 -29 -3 -22 48 7 86 31 53 33 -10 0 -32 -4
-50 -11z"/>
<path d="M3316 4403 c12 -9 14 -18 6 -47 l-10 -35 52 -24 c53 -25 205 -61 306
-73 30 -4 60 -10 65 -14 6 -4 42 -10 80 -13 105 -9 292 -55 325 -79 17 -12 50
-23 79 -26 39 -3 55 -11 76 -33 27 -31 106 -71 178 -90 30 -8 58 -27 97 -69
71 -74 90 -98 90 -110 0 -6 4 -10 10 -10 5 0 20 -11 34 -25 14 -14 34 -25 44
-25 25 0 92 -28 92 -38 0 -4 18 -27 41 -51 23 -25 38 -50 35 -58 -4 -9 -2 -11
6 -7 8 5 9 2 5 -10 -4 -9 -3 -15 1 -12 12 7 85 -143 126 -259 31 -85 38 -121
46 -235 5 -74 10 -144 10 -155 7 -320 6 -435 -1 -435 -5 0 -9 -5 -9 -11 0 -5
4 -7 10 -4 6 4 10 -6 10 -22 0 -22 -2 -25 -10 -13 -8 11 -9 8 -4 -13 7 -31 -1
-68 -54 -236 -24 -79 -43 -120 -61 -137 -14 -13 -20 -24 -13 -24 6 0 12 -5 12
-11 0 -5 -5 -7 -12 -3 -8 5 -9 2 -4 -11 7 -19 -9 -80 -27 -103 -8 -10 -13 -10
-25 0 -13 11 -14 10 -3 -10 7 -13 17 -20 24 -15 9 5 9 3 0 -9 -7 -8 -12 -17
-10 -19 1 -3 -6 4 -15 14 -10 11 -18 15 -18 10 0 -5 5 -14 11 -20 17 -17 -7
-94 -29 -91 -10 2 -17 -4 -17 -13 0 -9 -7 -24 -15 -34 -16 -19 -23 -48 -9 -40
5 4 6 -1 3 -9 -3 -9 -11 -13 -17 -9 -6 4 -8 0 -4 -10 3 -10 2 -17 -2 -17 -5 0
-12 -7 -15 -16 -3 -8 -2 -12 4 -9 6 3 7 -1 4 -9 -3 -9 -10 -14 -14 -11 -4 3
-13 -2 -19 -9 -10 -12 -8 -13 11 -8 20 5 19 2 -10 -26 -31 -30 -43 -50 -22
-37 6 3 7 -1 4 -9 -3 -9 -11 -16 -18 -16 -6 0 -4 -5 4 -10 8 -5 11 -10 5 -10
-5 0 -10 -15 -10 -34 l0 -35 36 38 c21 21 44 41 53 44 9 4 16 11 16 17 0 6 -5
8 -12 4 -7 -4 -8 -3 -4 5 4 6 11 9 15 6 9 -5 58 43 53 52 -2 2 -1 7 2 10 3 3
3 -5 0 -18 -16 -66 -16 -75 -2 -59 18 21 45 23 52 5 3 -9 2 -13 -4 -10 -6 3
-10 -5 -10 -18 0 -14 -7 -30 -15 -37 -8 -7 -13 -16 -10 -20 3 -4 -8 -25 -23
-46 -15 -22 -33 -50 -40 -64 -7 -15 -10 -17 -7 -5 5 15 3 17 -5 9 -14 -14 -5
-50 15 -58 9 -3 19 4 25 17 11 21 11 21 -4 3 -9 -11 -16 -15 -16 -8 0 6 11 19
25 28 14 9 25 21 25 28 0 6 -5 4 -11 -4 -9 -12 -10 -12 -5 3 3 10 6 21 6 23 0
2 7 4 15 4 8 0 12 6 9 14 -3 7 2 20 10 29 8 8 12 17 9 21 -4 3 -1 6 5 6 7 0
11 3 10 8 -1 8 3 20 65 159 25 55 48 116 52 135 4 18 20 76 35 128 88 289 132
613 118 875 -16 332 -23 371 -76 465 -17 30 -40 91 -52 135 -47 174 -62 212
-130 320 -96 153 -282 341 -445 449 -38 26 -84 57 -101 70 -37 26 -243 110
-252 102 -7 -7 -8 -6 53 -41 62 -35 134 -88 135 -97 1 -28 -182 54 -231 103
-22 22 -165 99 -184 99 -7 0 -69 18 -137 39 -236 75 -234 75 -376 75 -103 1
-129 -2 -116 -11z m1560 -2704 c-9 -13 -16 -18 -16 -12 0 7 4 14 10 18 5 3 6
13 3 23 -5 13 -3 14 7 5 10 -9 9 -16 -4 -34z m-2 -184 c-4 -8 -11 -15 -16 -15
-6 0 -5 6 2 15 7 8 14 15 16 15 2 0 1 -7 -2 -15z"/>
<path d="M2235 4090 c-18 -8 -17 -9 8 -9 16 -1 26 3 22 9 -3 6 -7 10 -8 9 -1
0 -11 -4 -22 -9z"/>
<path d="M1715 4069 c-102 -56 -257 -174 -343 -263 -111 -115 -229 -267 -264
-341 -13 -27 -32 -63 -43 -80 -20 -29 -38 -73 -55 -130 -5 -16 -27 -82 -49
-145 -76 -220 -106 -440 -97 -719 4 -107 11 -215 17 -240 81 -362 146 -570
182 -579 10 -2 17 -12 16 -21 -3 -22 19 -99 31 -106 6 -3 10 -13 10 -22 0 -27
137 -295 177 -347 21 -27 47 -64 58 -82 29 -47 147 -182 166 -189 9 -3 21 -17
27 -30 6 -14 16 -25 22 -25 10 0 108 -73 175 -130 17 -14 29 -33 27 -43 -2
-10 3 -17 12 -17 8 0 22 -7 30 -16 9 -8 16 -13 16 -10 0 4 13 -6 30 -20 16
-15 27 -30 24 -35 -2 -5 14 -17 38 -29 23 -11 37 -15 30 -8 -23 23 -12 27 23
7 39 -23 61 -48 25 -29 -12 6 -24 10 -26 7 -2 -2 43 -26 101 -52 58 -27 105
-51 105 -54 0 -3 15 -7 33 -8 17 -1 61 -14 97 -28 213 -85 722 -126 960 -76
58 12 121 32 140 43 22 13 65 24 118 29 46 5 92 14 103 20 12 6 33 13 47 15
54 9 158 46 222 80 37 19 74 34 82 34 9 0 23 7 32 15 8 9 18 15 21 14 3 0 19
4 36 11 25 11 27 15 17 28 -11 13 -10 14 8 4 21 -11 37 -5 42 16 2 10 -4 12
-20 7 -13 -3 -40 -10 -60 -15 -21 -6 -55 -15 -75 -20 -33 -9 -94 -20 -238 -44
-92 -15 -145 -16 -145 -2 0 8 7 22 16 30 14 15 12 16 -25 16 -44 0 -53 13 -21
32 11 7 20 16 20 21 0 4 15 30 34 58 23 34 32 57 28 74 -2 14 -8 25 -13 25
-17 0 -24 2 -41 11 -16 9 -16 11 -1 29 9 10 21 16 26 13 5 -3 8 0 5 8 -6 18
-71 23 -138 11 -41 -8 -53 -7 -57 4 -3 8 -18 14 -33 14 -16 0 -53 15 -84 33
-49 28 -56 36 -56 65 0 25 6 35 25 44 19 9 25 18 23 37 -2 13 -9 26 -16 29 -7
2 -12 0 -11 -5 4 -23 -16 -54 -38 -59 -13 -4 -26 -4 -29 -2 -2 3 7 30 20 60
16 36 21 59 15 65 -6 6 -4 14 6 23 23 19 18 30 -15 30 -16 0 -30 5 -30 10 0 6
-5 10 -11 10 -7 0 -9 -10 -7 -25 3 -13 0 -26 -6 -29 -7 -3 -6 -5 2 -5 8 -1 9
-6 3 -18 -5 -10 -14 -30 -21 -45 -7 -15 -17 -25 -22 -22 -4 3 -25 0 -46 -7
-20 -7 -39 -13 -42 -14 -16 -2 -29 -19 -35 -45 -5 -23 -12 -30 -31 -30 -24 0
-32 -18 -14 -36 19 -19 -9 -36 -72 -44 -36 -4 -81 -15 -100 -24 -29 -14 -59
-16 -184 -11 -177 5 -291 30 -429 91 -17 7 -53 18 -80 25 -53 13 -118 32 -149
45 -16 6 -18 4 -13 -10 10 -24 -13 -29 -55 -11 -30 12 -131 88 -173 130 -25
24 -95 123 -95 133 0 7 -4 12 -8 12 -14 0 -33 51 -27 71 6 16 -10 49 -42 89
-7 8 -21 26 -32 40 -16 20 -22 23 -32 12 -7 -6 -23 -12 -35 -12 -20 0 -25 15
-64 171 -23 94 -47 188 -54 208 -7 20 -16 57 -20 84 -4 26 -10 45 -14 43 -4
-2 -8 9 -9 25 -2 30 -28 72 -76 124 -16 16 -45 58 -65 93 -20 34 -39 62 -43
62 -4 0 -11 -9 -14 -21 -11 -34 -22 -231 -15 -264 3 -16 -1 -70 -9 -118 l-16
-88 -18 30 c-18 31 -24 53 -57 230 -22 118 -28 333 -9 329 6 -2 13 5 14 16 3
14 1 16 -8 7 -6 -6 -14 -11 -17 -11 -4 0 -7 75 -6 168 1 142 4 171 19 192 9
13 17 33 17 43 0 10 4 16 8 13 4 -2 8 3 9 12 0 9 13 62 27 117 15 55 29 138
32 185 5 67 13 101 40 163 19 43 34 84 34 92 0 7 6 20 13 27 7 7 23 30 36 51
12 20 27 37 32 37 5 0 9 7 9 15 0 8 3 15 8 15 4 0 20 20 35 45 16 24 37 47 48
50 10 4 19 11 19 16 0 5 7 9 16 9 9 0 23 9 32 20 20 24 59 34 59 15 0 -7 -7
-12 -16 -10 -21 3 -41 -13 -41 -35 0 -13 -6 -17 -19 -13 -10 3 -22 -1 -26 -7
-5 -9 -1 -10 15 -5 15 5 20 4 16 -4 -4 -6 -2 -11 4 -11 6 0 13 13 16 30 4 16
10 27 15 24 5 -3 6 -11 3 -17 -4 -7 5 -1 19 12 15 14 27 30 27 37 0 7 5 16 11
20 8 4 9 -1 4 -17 l-7 -24 26 24 c14 14 26 21 26 18 0 -4 18 5 40 19 33 22 38
29 29 45 -6 12 -6 19 0 19 5 0 12 -6 15 -12 3 -7 4 -1 1 14 -3 15 0 30 5 33 6
4 7 11 4 17 -4 6 -10 5 -15 -3 -6 -10 -9 -10 -9 -2 0 20 17 24 34 8 13 -14 16
-13 28 4 7 10 34 24 58 31 25 7 47 16 50 20 7 11 78 50 91 50 10 0 28 13 59
44 13 13 32 19 56 18 45 -2 93 25 91 50 -1 10 -5 18 -10 18 -5 0 -7 -7 -4 -15
4 -8 2 -17 -3 -20 -6 -4 -10 -3 -11 2 0 4 -2 21 -4 37 -3 21 1 29 16 33 10 3
19 9 19 14 0 5 -10 5 -22 0 -13 -5 -38 -6 -55 -4 -21 4 -33 1 -33 -6 0 -7 -4
-9 -10 -6 -5 3 -10 2 -10 -4 0 -6 -7 -7 -17 -4 -10 4 -14 2 -10 -4 11 -18 -42
-25 -65 -9 -21 15 -21 15 6 22 29 7 36 34 9 34 -15 0 -66 -25 -219 -108 -55
-30 -42 -3 21 42 36 27 70 57 76 68 11 21 11 21 -16 7z m92 -79 c2 -24 -28
-43 -53 -33 -12 4 -15 3 -10 -5 5 -8 -1 -12 -15 -12 -22 0 -22 0 -3 15 10 8
22 15 27 15 4 0 16 9 27 20 25 25 25 25 27 0z m37 -5 c3 -9 0 -15 -9 -15 -8 0
-15 7 -15 15 0 8 4 15 9 15 5 0 11 -7 15 -15z m171 -45 c-11 -5 -27 -9 -35 -9
-13 -1 -13 0 0 9 8 5 24 9 35 9 l20 0 -20 -9z m-465 -70 c-20 -13 1 -13 37 0
l28 10 -29 -25 c-21 -19 -31 -23 -41 -15 -9 8 -15 8 -20 0 -3 -5 0 -10 7 -11
10 0 10 -2 0 -6 -6 -2 -9 -10 -5 -16 3 -7 3 -9 -1 -5 -4 3 -16 -2 -27 -13 -25
-25 -39 -24 -39 2 0 13 4 18 13 13 9 -6 9 -5 0 7 -10 13 -10 16 2 16 8 0 15
-9 15 -20 0 -28 8 -18 12 16 2 15 8 26 12 25 4 -2 12 5 17 15 6 9 15 17 22 17
7 0 6 -4 -3 -10z m90 -85 c0 -9 -6 -12 -16 -8 -13 5 -13 7 -2 14 17 11 18 11
18 -6z m-60 -29 c0 -2 -8 -10 -17 -17 -16 -13 -17 -12 -4 4 13 16 21 21 21 13z
m10 -37 c0 -5 -4 -7 -10 -4 -13 8 -13 -11 0 -35 7 -13 6 -19 -4 -23 -10 -4
-13 0 -11 13 2 11 -1 22 -6 26 -5 3 -8 0 -7 -7 2 -6 -2 -13 -8 -16 -7 -2 -10
5 -7 21 3 14 9 23 13 21 5 -3 11 -1 15 5 8 13 25 13 25 -1z m-60 -29 c0 -5 -6
-10 -12 -10 -7 0 -4 -6 7 -12 29 -16 29 -16 15 -32 -10 -14 -14 -14 -27 -1 -8
8 -11 20 -7 26 4 8 3 9 -4 5 -15 -9 -16 -36 -1 -36 5 0 7 -5 4 -10 -4 -6 -12
-7 -18 -3 -7 4 -20 6 -29 5 -13 -2 -16 1 -12 13 4 9 13 14 20 11 8 -3 14 -1
14 4 0 12 32 48 43 49 4 1 7 -3 7 -9z m-90 -116 c0 -8 -19 -13 -24 -6 -3 5 1
9 9 9 8 0 15 -2 15 -3z m-337 -2056 c9 -31 2 -33 -11 -3 -6 14 -8 25 -3 25 5
0 11 -10 14 -22z m44 -110 c6 -31 33 -47 34 -20 0 15 1 15 8 -1 4 -10 11 -17
16 -15 6 2 14 -7 20 -19 5 -13 13 -23 17 -23 5 0 8 -9 8 -19 0 -11 16 -37 36
-58 20 -21 48 -56 62 -78 13 -22 70 -85 126 -140 97 -97 148 -157 146 -171 -1
-4 3 -10 8 -13 7 -4 5 -14 -5 -26 -15 -20 -15 -20 -9 2 6 18 3 21 -18 19 -20
-3 -24 1 -20 17 2 14 -15 38 -61 83 -36 35 -72 64 -79 64 -8 0 -17 6 -19 13
-3 7 -6 5 -6 -5 -1 -10 -4 -18 -8 -18 -13 1 -96 118 -146 206 -48 82 -55 100
-37 89 13 -8 13 16 0 50 -10 27 -30 26 -30 -1 0 -8 4 -13 9 -10 11 7 8 -20 -3
-31 -4 -4 -6 -1 -4 7 2 8 -3 14 -11 15 -8 0 -24 26 -36 61 -12 34 -25 67 -29
75 -4 8 0 5 9 -6 9 -11 19 -32 22 -47z m513 -612 c0 -8 -9 -14 -19 -13 -11 0
-17 5 -15 9 3 5 10 6 15 3 5 -4 9 -1 9 4 0 6 2 11 5 11 3 0 5 -6 5 -14z m1940
-110 c0 -2 -7 -7 -16 -10 -8 -3 -12 -2 -9 4 6 10 25 14 25 6z m-312 -63 c-3
-19 -74 -40 -138 -42 -32 -1 -33 0 -18 15 9 9 42 22 75 29 80 18 85 18 81 -2z
m-198 -149 c0 -8 -4 -12 -10 -9 -5 3 -10 10 -10 16 0 5 5 9 10 9 6 0 10 -7 10
-16z m-983 -84 c20 -1 75 -29 57 -30 -21 0 -109 33 -124 47 -12 12 -9 12 17
-1 18 -9 40 -16 50 -16z m1195 -26 c-5 -29 -50 -53 -62 -33 -4 6 -30 11 -59
11 -28 -1 -51 3 -51 9 0 12 48 31 60 24 5 -3 11 -1 15 5 3 5 28 10 54 10 46 0
48 -1 43 -26z m-1087 -14 c13 -6 15 -9 5 -9 -8 0 -22 4 -30 9 -18 12 -2 12 25
0z m65 -20 c0 -5 -2 -10 -4 -10 -3 0 -8 5 -11 10 -3 6 -1 10 4 10 6 0 11 -4
11 -10z m92 -15 c28 -4 49 -13 53 -22 4 -12 2 -13 -8 -5 -7 6 -32 14 -56 17
-24 3 -50 10 -59 16 -15 9 -14 9 3 5 11 -3 41 -8 67 -11z m753 -16 c-4 -5 -13
-9 -21 -9 -8 0 -17 -6 -20 -13 -3 -8 -10 -14 -17 -15 -7 -1 -43 -4 -82 -8
l-70 -6 38 22 c22 11 60 23 85 26 25 2 47 6 48 7 8 8 44 4 39 -4z m52 5 c-3
-3 -12 -4 -19 -1 -8 3 -5 6 6 6 11 1 17 -2 13 -5z m-678 -20 c2 -2 1 -7 -2
-11 -4 -4 -12 -2 -18 4 -6 6 -18 9 -25 6 -8 -3 -14 0 -14 7 0 8 9 10 27 5 16
-4 30 -9 32 -11z m171 -16 c25 -8 64 -12 88 -11 26 3 42 0 42 -8 0 -11 -52 -9
-160 6 -25 4 -58 6 -73 6 -15 -1 -35 6 -44 15 -15 14 -11 15 43 10 32 -2 79
-11 104 -18z m167 -14 c-3 -3 -12 -4 -19 -1 -8 3 -5 6 6 6 11 1 17 -2 13 -5z"/>
<path d="M1510 3656 c0 -2 7 -7 16 -10 8 -3 12 -2 9 4 -6 10 -25 14 -25 6z"/>
<path d="M1168 1348 c2 -10 6 -18 7 -18 1 0 5 8 7 18 3 11 0 19 -7 19 -7 0
-10 -8 -7 -19z"/>
<path d="M1592 871 c-11 -7 -11 -9 2 -14 10 -4 16 -1 16 8 0 17 -1 17 -18 6z"/>
<path d="M2100 4055 c-7 -8 -16 -12 -21 -9 -11 6 -11 1 -3 -20 3 -9 11 -16 16
-16 6 0 8 7 5 15 -4 8 -2 17 3 20 6 4 10 1 10 -5 0 -6 12 -4 31 5 17 9 28 19
25 23 -4 3 -12 0 -18 -6 -15 -15 -42 -16 -33 -2 9 15 -1 12 -15 -5z"/>
<path d="M2039 4007 c7 -7 14 -8 21 -1 6 6 2 10 -12 11 -16 2 -18 -1 -9 -10z"/>
<path d="M2085 3990 c3 -5 11 -10 16 -10 6 0 7 5 4 10 -3 6 -11 10 -16 10 -6
0 -7 -4 -4 -10z"/>
<path d="M2440 3941 c0 -6 14 -11 30 -11 26 0 34 -8 32 -31 -1 -3 6 -6 13 -6
11 0 12 4 4 13 -13 16 2 25 30 17 16 -4 20 -11 16 -27 -5 -16 -4 -18 4 -6 8
12 13 12 23 2 18 -18 41 -15 34 4 -5 12 -2 15 11 9 10 -4 26 -8 37 -11 22 -4
34 -14 18 -14 -7 0 -12 -4 -12 -10 0 -5 7 -6 17 -3 11 4 14 3 9 -5 -4 -7 -1
-12 7 -12 8 0 24 -9 37 -20 25 -21 35 -25 108 -35 27 -3 76 -25 126 -55 123
-74 190 -102 260 -107 49 -4 66 -2 78 11 14 13 48 16 210 19 135 2 200 7 217
16 35 19 15 27 -124 51 -133 23 -192 25 -197 8 -6 -18 -244 18 -376 58 -63 19
-142 48 -176 64 -34 15 -79 31 -101 35 -22 3 -49 10 -60 15 -56 23 -275 48
-275 31z"/>
<path d="M2465 3890 c3 -5 8 -10 11 -10 2 0 4 5 4 10 0 6 -5 10 -11 10 -5 0
-7 -4 -4 -10z"/>
<path d="M2630 3866 c0 -2 7 -6 15 -10 8 -3 15 -1 15 4 0 6 -7 10 -15 10 -8 0
-15 -2 -15 -4z"/>
<path d="M1692 3738 c-7 -7 -12 -8 -12 -4 0 5 -8 2 -17 -5 -11 -10 -14 -10 -9
-1 11 18 -5 14 -20 -5 -13 -17 -14 -17 -8 2 4 15 4 17 -4 6 -17 -24 -4 -41 24
-31 13 5 24 7 24 3 0 -4 9 3 21 16 21 23 22 40 1 19z"/>
<path d="M1310 3499 c0 -5 5 -7 10 -4 6 3 10 8 10 11 0 2 -4 4 -10 4 -5 0 -10
-5 -10 -11z"/>
<path d="M1350 3500 c0 -5 5 -10 11 -10 5 0 7 5 4 10 -3 6 -8 10 -11 10 -2 0
-4 -4 -4 -10z"/>
<path d="M1318 3473 c7 -3 16 -2 19 1 4 3 -2 6 -13 5 -11 0 -14 -3 -6 -6z"/>
<path d="M3227 3403 c-26 -26 12 -103 51 -103 14 1 13 4 -8 23 -19 17 -24 30
-22 55 3 30 -6 41 -21 25z"/>
<path d="M4410 2933 c-17 -12 -25 -13 -28 -5 -5 17 -32 15 -32 -3 0 -8 9 -19
19 -25 37 -19 64 -10 75 28 9 26 -1 28 -34 5z"/>
<path d="M3930 2840 c-13 -8 -13 -10 2 -10 9 0 20 5 23 10 8 13 -5 13 -25 0z"/>
<path d="M2767 2743 c6 -16 45 -14 50 3 2 6 -9 11 -26 11 -21 0 -28 -4 -24
-14z"/>
<path d="M3950 2680 c0 -8 24 -20 41 -20 6 0 8 4 5 9 -8 12 -46 21 -46 11z"/>
<path d="M5101 2554 c0 -11 3 -14 6 -6 3 7 2 16 -1 19 -3 4 -6 -2 -5 -13z"/>
<path d="M4007 2490 c-22 -26 -21 -30 3 -30 23 0 38 26 23 41 -5 5 -15 1 -26
-11z"/>
<path d="M2868 2413 c7 -3 16 -2 19 1 4 3 -2 6 -13 5 -11 0 -14 -3 -6 -6z"/>
<path d="M3996 2381 c-19 -21 -12 -28 13 -12 7 5 12 14 9 21 -2 7 -10 4 -22
-9z"/>
<path d="M2985 2291 c-10 -17 12 -21 25 -6 10 12 10 15 -3 15 -9 0 -18 -4 -22
-9z"/>
<path d="M973 2265 c0 -8 4 -12 9 -9 5 3 6 10 3 15 -9 13 -12 11 -12 -6z"/>
<path d="M4027 2212 c-4 -6 -14 -9 -22 -5 -8 3 -15 0 -15 -6 0 -16 29 -26 42
-13 6 6 8 16 6 23 -3 10 -6 10 -11 1z"/>
<path d="M2647 2048 c-23 -14 8 -32 32 -19 12 7 21 9 21 5 0 -3 8 0 17 7 10 8
14 9 10 2 -12 -20 14 -26 31 -8 16 17 16 17 0 12 -10 -4 -18 -3 -18 1 0 10
-78 10 -93 0z"/>
<path d="M3965 1940 c3 -5 13 -10 21 -10 8 0 14 5 14 10 0 6 -9 10 -21 10 -11
0 -17 -4 -14 -10z"/>
<path d="M4944 1942 c4 -6 2 -22 -4 -34 -11 -22 -10 -22 4 -4 19 24 20 32 4
42 -7 4 -8 3 -4 -4z"/>
<path d="M2900 1799 c0 -59 44 -77 80 -32 23 29 22 46 -3 51 -11 2 -17 -6 -19
-25 -4 -37 -32 -37 -36 0 -4 31 -22 37 -22 6z"/>
<path d="M1670 1774 c0 -9 7 -14 17 -12 25 5 28 28 4 28 -12 0 -21 -6 -21 -16z"/>
<path d="M1804 1764 c-4 -16 -11 -20 -29 -16 -19 3 -25 -1 -30 -21 -9 -33 0
-47 30 -47 26 0 48 30 39 53 -3 9 3 16 15 20 27 7 27 33 1 33 -13 0 -23 -9
-26 -22z m-12 -56 c-15 -15 -26 -4 -18 18 5 13 9 15 18 6 9 -9 9 -15 0 -24z"/>
<path d="M3790 1774 c0 -8 2 -14 4 -14 2 0 11 -3 20 -6 10 -4 16 -1 16 9 0 8
-9 17 -20 20 -13 3 -20 0 -20 -9z"/>
<path d="M3720 1695 c0 -6 9 -18 20 -28 11 -9 20 -25 20 -36 0 -16 5 -17 32
-12 21 4 34 14 36 25 3 16 0 18 -22 12 -19 -5 -26 -3 -26 8 0 8 5 18 10 21 23
14 8 26 -30 23 -22 -1 -40 -7 -40 -13z"/>
<path d="M2955 1682 c-8 -8 5 -22 21 -22 8 0 14 6 14 13 0 13 -25 19 -35 9z"/>
<path d="M3113 1657 c3 -8 0 -23 -6 -32 -10 -13 -18 -14 -40 -6 -15 6 -27 17
-27 26 0 8 -7 15 -15 15 -23 0 -18 -19 14 -51 17 -17 40 -29 55 -29 57 0 90
81 37 88 -18 3 -22 0 -18 -11z"/>
<path d="M3638 1633 c-24 -21 -45 -39 -47 -40 -2 -2 -2 -5 1 -8 8 -8 58 19 58
32 0 6 12 21 26 32 15 12 22 21 15 21 -6 0 -30 -17 -53 -37z"/>
<path d="M1804 1587 c-3 -8 -4 -28 -2 -44 3 -24 8 -28 40 -31 29 -2 39 1 48
18 16 30 4 60 -25 60 -13 0 -30 3 -39 6 -9 4 -18 0 -22 -9z m66 -33 c0 -8 -7
-14 -15 -14 -15 0 -21 21 -9 33 10 9 24 -2 24 -19z"/>
<path d="M3730 1591 c0 -5 -20 -13 -45 -17 -38 -5 -45 -10 -45 -28 0 -12 6
-28 12 -34 10 -10 10 -15 0 -21 -11 -7 -10 -9 2 -14 15 -6 23 -37 10 -37 -15
0 -44 22 -39 31 4 5 -1 9 -9 9 -10 0 -16 -9 -16 -23 0 -26 34 -47 74 -47 29 0
60 42 44 58 -9 9 -7 17 6 31 21 23 32 86 17 95 -6 4 -11 3 -11 -3z m-30 -51
c0 -5 -4 -10 -10 -10 -5 0 -10 5 -10 10 0 6 5 10 10 10 6 0 10 -4 10 -10z"/>
<path d="M1960 1563 c-32 -4 -60 -25 -60 -45 0 -4 10 -16 21 -27 19 -17 34
-20 81 -12 4 0 15 12 24 26 19 28 10 66 -14 63 -9 0 -33 -3 -52 -5z m30 -33
c0 -13 -7 -20 -19 -20 -25 0 -38 20 -20 31 23 15 39 10 39 -11z"/>
<path d="M2970 1541 c0 -12 7 -21 15 -21 10 0 15 -10 15 -31 0 -27 -3 -31 -21
-26 -15 4 -19 3 -12 -4 19 -19 48 -6 51 23 2 16 11 30 23 33 37 12 18 40 -29
43 -37 3 -42 1 -42 -17z m58 -3 c-6 -18 -28 -21 -28 -4 0 9 7 16 16 16 9 0 14
-5 12 -12z"/>
<path d="M4695 1460 c-3 -6 0 -10 7 -10 7 0 2 -6 -11 -13 -14 -6 -26 -19 -28
-27 -4 -13 -3 -13 9 0 7 9 23 20 35 25 18 8 19 12 8 22 -9 8 -16 9 -20 3z"/>
<path d="M1880 1429 c0 -12 7 -19 20 -19 11 0 20 6 20 14 0 7 -9 16 -20 19
-15 4 -20 0 -20 -14z"/>
<path d="M3090 1420 c0 -16 17 -20 28 -7 8 10 6 13 -9 14 -10 1 -19 -2 -19 -7z"/>
<path d="M4616 1415 c-3 -8 -3 -15 0 -15 3 0 12 7 20 15 13 13 13 15 1 15 -8
0 -17 -7 -21 -15z"/>
<path d="M4705 1410 c-3 -6 1 -7 9 -4 18 7 21 14 7 14 -6 0 -13 -4 -16 -10z"/>
<path d="M2990 1395 c0 -8 5 -15 10 -15 6 0 10 7 10 15 0 8 -4 15 -10 15 -5 0
-10 -7 -10 -15z"/>
<path d="M4580 1378 c-8 -13 -13 -29 -12 -35 2 -7 -3 -10 -12 -7 -17 6 -31
-12 -16 -21 6 -4 7 -11 4 -17 -4 -6 -9 -5 -15 3 -7 11 -12 10 -26 -5 -16 -18
-16 -19 0 -7 25 19 20 1 -9 -34 -25 -29 -25 -29 -19 -5 4 17 3 20 -3 10 -5 -8
-12 -34 -16 -57 -6 -40 -3 -45 21 -42 4 0 10 -8 14 -18 7 -15 8 -14 8 6 1 16
5 21 16 18 8 -4 17 -1 21 5 4 7 3 8 -4 4 -15 -9 -15 -3 0 29 6 14 15 25 20 25
12 0 10 -14 -4 -30 -11 -12 -10 -12 5 -1 10 8 15 21 12 31 -6 19 28 63 40 52
5 -4 5 -2 2 5 -4 6 -3 23 3 37 9 25 4 31 -22 27 -4 0 -5 6 -2 14 4 8 10 12 15
9 5 -3 6 2 3 10 -8 20 -6 20 -24 -6z"/>
<path d="M4655 1368 c-14 -21 -14 -23 2 -30 10 -3 25 -7 33 -7 8 0 5 4 -7 9
-26 10 -29 20 -11 38 7 7 9 12 6 12 -4 0 -14 -10 -23 -22z"/>
<path d="M4705 1380 c-3 -6 1 -7 9 -4 18 7 21 14 7 14 -6 0 -13 -4 -16 -10z"/>
<path d="M4625 1320 c-3 -5 1 -10 9 -10 9 0 16 5 16 10 0 6 -4 10 -9 10 -6 0
-13 -4 -16 -10z"/>
<path d="M4786 1245 c-3 -8 -1 -15 3 -15 5 0 11 7 15 15 3 8 1 15 -3 15 -5 0
-11 -7 -15 -15z"/>
<path d="M4415 1207 c-27 -45 -28 -47 -16 -47 6 0 10 3 9 8 -1 4 6 20 16 35
10 15 17 29 15 32 -3 2 -13 -11 -24 -28z"/>
<path d="M4820 1199 c-17 -31 -7 -43 15 -18 11 12 14 19 6 14 -11 -6 -13 -4
-8 8 9 24 0 21 -13 -4z"/>
<path d="M4766 1185 c6 -15 -59 -109 -94 -137 -16 -12 -16 -11 -2 7 8 11 17
22 20 25 29 27 49 66 44 84 -6 19 -5 20 12 6 17 -14 18 -14 5 2 -12 16 -21 10
-107 -70 -90 -83 -132 -136 -115 -147 5 -2 17 2 27 10 29 22 36 18 18 -11 -10
-15 -23 -23 -32 -19 -10 3 -12 0 -8 -10 4 -10 -3 -17 -22 -21 -15 -4 -35 -16
-45 -28 -10 -11 -16 -16 -13 -9 4 8 -6 14 -29 19 -29 5 -50 -1 -119 -34 -46
-23 -90 -48 -98 -56 -24 -23 -81 -56 -99 -56 -9 0 -22 -7 -29 -15 -11 -13 -8
-14 20 -8 24 4 31 3 26 -5 -4 -7 -14 -12 -22 -12 -8 0 -14 -10 -14 -23 0 -17
-14 -33 -51 -57 -44 -28 -49 -34 -34 -43 9 -5 47 -7 84 -5 55 3 83 13 171 57
58 29 139 74 180 99 79 50 200 159 200 181 0 11 -3 11 -15 1 -9 -8 -15 -9 -15
-2 0 6 9 17 20 25 11 8 18 16 15 19 -3 3 16 25 42 49 27 24 48 47 48 51 0 4
14 22 31 40 40 44 45 53 38 73 -5 13 -8 14 -15 3 -7 -10 -9 -9 -9 4 0 9 -4 20
-10 23 -6 3 -7 -1 -4 -10z"/>
<path d="M4450 1136 c0 -3 9 -10 20 -16 11 -6 20 -8 20 -6 0 3 -9 10 -20 16
-11 6 -20 8 -20 6z"/>
<path d="M4427 1076 c-4 -10 -1 -13 8 -9 8 3 12 9 9 14 -7 12 -11 11 -17 -5z"/>
<path d="M4330 1072 c-8 -3 -32 -18 -54 -34 -30 -22 -42 -25 -48 -16 -7 10 -8
9 -7 -2 4 -41 -3 -51 -55 -75 -30 -14 -60 -25 -66 -25 -6 0 -39 -11 -73 -23
-34 -13 -80 -30 -102 -37 -22 -7 -46 -18 -54 -24 -8 -6 -46 -23 -85 -37 -93
-33 -102 -59 -22 -59 30 0 58 5 61 10 3 6 15 10 26 10 11 0 31 12 44 26 19 21
30 25 51 20 17 -5 24 -12 20 -21 -3 -8 0 -15 6 -15 6 0 1 -8 -10 -19 -22 -18
-20 -31 5 -31 8 0 11 4 8 10 -3 5 0 7 9 4 8 -3 21 -1 28 5 7 6 44 32 82 57 77
52 106 75 106 85 0 11 -29 4 -42 -9 -7 -7 -18 -12 -25 -12 -7 0 -13 -5 -13
-12 0 -6 -3 -8 -6 -5 -11 11 16 36 65 59 25 13 49 28 54 35 4 7 15 10 25 7 12
-4 14 -3 4 3 -10 8 -4 16 23 37 56 43 87 102 45 88z"/>
<path d="M4246 1053 c-6 -14 -5 -15 5 -6 7 7 10 15 7 18 -3 3 -9 -2 -12 -12z"/>
<path d="M4385 1040 c-3 -6 1 -7 9 -4 18 7 21 14 7 14 -6 0 -13 -4 -16 -10z"/>
<path d="M4320 992 c0 -5 -10 -14 -22 -20 -13 -6 -18 -11 -12 -11 7 -1 22 8
35 19 13 10 18 19 12 20 -7 0 -13 -4 -13 -8z"/>
<path d="M4666 971 c-13 -14 -14 -21 -5 -27 7 -4 10 -3 7 2 -8 12 17 35 28 26
4 -4 4 -1 0 6 -9 16 -10 15 -30 -7z"/>
<path d="M4217 567 c-26 -13 -45 -26 -42 -29 6 -6 95 39 95 48 0 6 -1 6 -53
-19z"/>
<path d="M4150 524 c0 -8 5 -12 10 -9 6 4 8 11 5 16 -9 14 -15 11 -15 -7z"/>
</g>
</svg>
