<svg xmlns="http://www.w3.org/2000/svg" width="486" height="219" viewBox="0 0 486 219" xmlns:xlink="http://www.w3.org/1999/xlink">
  <defs>
    <path id="a" d="M61.1160582,124 L8.005551,124 C3.58420727,124 -2.78532752e-12,120.422373 -2.78532752e-12,116.007294 L-2.78532752e-12,12.9927062 L-2.78532752e-12,12.9927062 C-2.78532752e-12,8.57845645 3.58364532,5 8.0066703,5 L81.9933297,5 C86.4152916,5 90,8.59006114 90,12.9955541 L90,93.7756073"/>
    <mask id="c" width="90" height="119" x="0" y="0" fill="white">
      <use xlink:href="#a"/>
    </mask>
    <ellipse id="b" cx="81.5" cy="114.5" rx="22.5" ry="22.5"/>
    <mask id="d" width="45" height="45" x="0" y="0" fill="white">
      <use xlink:href="#b"/>
    </mask>
  </defs>
  <g fill="none" fill-rule="evenodd" transform="translate(1 1)" opacity=".6">
    <g stroke="#FFFFFF" stroke-linecap="round" stroke-linejoin="round">
      <path d="M193.012442,161.819196 C161.379981,192.926257 126.359687,212.388627 124.88782,213.219491 C123.923493,213.735634 122.870346,214 121.804511,214 C120.738676,214 119.68553,213.735634 118.721203,213.219491 L118.721203,213.219491 C117.249335,212.388627 82.2163533,192.926257 50.596581,161.819196"/>
      <path fill="none" d="M10.4336842,109.669109 C3.51157895,95.0054438 0,80.341779 0,66.080893 C0,29.6420006 29.7473684,0 66.3157895,0 C78.6947368,0 91.8442105,4.61936909 103.326316,13.0147892 C110.058947,17.9236555 115.781053,23.8394688 120,30.1203004 C124.218947,23.8394688 129.941053,17.9236555 136.661053,13.0147892 C148.143158,4.61936909 161.292632,0 173.684211,0 C210.24,0 240,29.6420006 240,66.080893 C240,80.341779 236.475789,95.0054438 229.566316,109.669109"/>
      <path d="M25.9804688,135.070313 C25.9804688,135.070313 54.9140625,137.392578 68.9414063,120.392578 C77.5,123.623047 87.1464844,144.417969 87.1464844,144.417969 L107.170898,79.1914062 L131.814453,156.980469 L158.166016,95.2441406 C158.166016,95.2441406 164.667969,135.070313 210.083984,135.070313"/>
    </g>
    <g transform="rotate(-30 377.86 -566.752)">
      <polygon fill="#FFFFFF" fill-rule="nonzero" points="17 11 17 0 16 0 16 11"/>
      <polygon fill="#FFFFFF" fill-rule="nonzero" points="75 11 75 0 74 0 74 11"/>
      <use fill="#D8D8D8" fill-opacity="0" stroke="#FFFFFF" stroke-width="2" mask="url(#c)" stroke-linecap="square" xlink:href="#a"/>
      <use stroke="#FFFFFF" stroke-width="2" mask="url(#d)" stroke-linecap="square" xlink:href="#b"/>
      <polygon fill="#FFFFFF" fill-rule="nonzero" points="81 105 81 124 82 124 82 105"/>
      <polygon fill="#FFFFFF" fill-rule="nonzero" points="72 115 91 115 91 114 72 114"/>
      <polygon fill="#FFFFFF" fill-rule="nonzero" points="17 35 74 35 74 34 17 34"/>
      <polygon fill="#FFFFFF" fill-rule="nonzero" points="17 45 62 45 62 44 17 44"/>
      <polygon fill="#FFFFFF" fill-rule="nonzero" points="17 55 74 55 74 54 17 54"/>
      <polygon fill="#FFFFFF" fill-rule="nonzero" points="17 65 50 65 50 64 17 64"/>
      <path stroke="#FFFFFF" d="M35.340332,101.368164 C35.340332,95.2666016 32.7584609,108.032406 30.2567659,112.714046 C27.755071,117.395687 41.3513184,79.3799352 47.4899902,85.831543 C51.0288396,89.550795 28.159163,101.257455 21.7787386,103.447933 C17.3477437,104.969148 33.0911113,107.271534 37.174877,107.047119 C41.2586428,106.822704 35.340332,107.469727 35.340332,101.368164 Z" stroke-linecap="square"/>
    </g>
  </g>
</svg>
