<svg xmlns="http://www.w3.org/2000/svg" width="305" height="156" viewBox="0 0 305 156" xmlns:xlink="http://www.w3.org/1999/xlink">
  <defs>
    <path id="a" d="M186.166625,34.800818 C188.659237,30.4944182 194.17929,29.0186509 198.498129,31.5058207 L198.498129,31.5058207 C202.816018,33.9924437 204.295241,39.5000666 201.803086,43.8056766 L186.759547,69.7958812 C184.266935,74.102281 178.746883,75.5780483 174.428044,73.0908785 L174.428044,73.0908785 C170.110154,70.6042555 168.630932,65.0966325 171.123086,60.7910226 L186.166625,34.800818 L186.166625,34.800818 L186.166625,34.800818 Z M308.503722,122.580153 L316.296052,127.067667 C332.38837,136.335048 337.903801,156.857016 328.613772,172.90708 L244.912108,317.515567 C235.622679,333.564595 215.047746,339.062804 198.954389,329.794824 L53.9558362,246.291819 C37.8635182,237.024438 32.3480872,216.50247 41.6381165,200.452406 L125.339781,55.8439186 C134.62921,39.794891 155.204142,34.2966821 171.2975,43.5646622 L179.089988,48.052267 C178.410665,51.6987422 180.050494,55.5362543 183.454326,57.4964818 C186.858967,59.4571755 191.010207,58.9549131 193.836343,56.5445234 L293.757368,114.087897 C293.078044,117.734372 294.717874,121.571884 298.121705,123.532111 C301.526346,125.492805 305.677587,124.990543 308.503722,122.580153 L308.503722,122.580153 L308.503722,122.580153 Z M300.834005,100.836448 C303.326617,96.5300478 308.846669,95.0542805 313.165508,97.5414503 L313.165508,97.5414503 C317.483398,100.028073 318.96262,105.535696 316.470466,109.841306 L301.426927,135.831511 C298.934315,140.137911 293.414262,141.613678 289.095423,139.126508 L289.095423,139.126508 C284.777534,136.639885 283.298311,131.132262 285.790466,126.826652 L300.834005,100.836448 L300.834005,100.836448 L300.834005,100.836448 Z M164.892723,119.580919 C167.385262,115.274645 172.907005,113.799987 177.224954,116.286645 L195.466632,126.791818 L186.440351,142.386215 L160.379582,127.378117 L164.892723,119.580919 L164.892723,119.580919 L164.892723,119.580919 Z M200.678786,129.793438 L226.739554,144.801535 L217.713272,160.395932 L191.652504,145.387835 L200.678786,129.793438 L200.678786,129.793438 L200.678786,129.793438 Z M231.951708,147.803155 L250.193386,158.308329 C254.51175,160.795225 255.992422,166.30123 253.499335,170.608451 L248.986194,178.405649 L222.925426,163.397552 L231.951708,147.803155 L231.951708,147.803155 L231.951708,147.803155 Z M157.370822,132.57625 L183.43159,147.584347 L174.405308,163.178744 L148.34454,148.170646 L157.370822,132.57625 L157.370822,132.57625 L157.370822,132.57625 Z M219.916665,168.595684 L245.977433,183.603782 L236.951152,199.198178 L210.890383,184.190081 L219.916665,168.595684 L219.916665,168.595684 L219.916665,168.595684 Z M145.335779,153.368779 L171.396547,168.376876 L162.370266,183.971273 L136.309498,168.963175 L145.335779,153.368779 L145.335779,153.368779 L145.335779,153.368779 Z M207.881623,189.388213 L233.942391,204.39631 L224.916109,219.990707 L198.855341,204.98261 L207.881623,189.388213 L207.881623,189.388213 L207.881623,189.388213 Z M195.84658,210.180742 L221.907349,225.188839 L212.881067,240.783236 L186.820299,225.775138 L195.84658,210.180742 L195.84658,210.180742 L195.84658,210.180742 Z M121.265695,194.953836 L147.326463,209.961934 L138.300181,225.556331 L120.058502,215.051157 C115.740138,212.564261 114.259467,207.058255 116.752554,202.751035 L121.265695,194.953836 L121.265695,194.953836 L121.265695,194.953836 Z M148.937198,183.166166 L174.997966,198.174264 L165.971684,213.76866 L139.910916,198.760563 L148.937198,183.166166 L148.937198,183.166166 L148.937198,183.166166 Z M183.811538,230.973271 L209.872306,245.981368 L205.359165,253.778567 C202.866626,258.08484 197.344884,259.559498 193.026935,257.072841 L174.785256,246.567667 L183.811538,230.973271 L183.811538,230.973271 L183.811538,230.973271 Z M176.608701,171.378496 L202.669469,186.386593 L193.643187,201.98099 L167.582419,186.972892 L176.608701,171.378496 L176.608701,171.378496 L176.608701,171.378496 Z"/>
    <mask id="b" width="296" height="304" x="0" y="0" fill="white">
      <use xlink:href="#a"/>
    </mask>
  </defs>
  <use fill="none" fill-rule="evenodd" stroke="#FFFFFF" stroke-opacity=".299" stroke-width="2" mask="url(#b)" transform="rotate(-75 146.426 190.907)" xlink:href="#a"/>
</svg>
