<?xml version="1.0" encoding="UTF-8" standalone="no"?><!DOCTYPE svg  PUBLIC '-//W3C//DTD SVG 1.1//EN'  'http://www.w3.org/Graphics/SVG/1.1/DTD/svg11.dtd'><svg xmlns="http://www.w3.org/2000/svg" xmlns:xlink="http://www.w3.org/1999/xlink"><symbol viewBox="0 0 8 17" id="fb"><title>fb</title><path d="M8 5.505H5.275V3.74c0-.662.445-.817.758-.817h1.923V.01L5.308 0C2.368 0 1.7 2.173 1.7 3.563v1.942H0v3.001h1.7V17h3.575V8.506h2.413L8 5.505z" fill="#FFF" fill-rule="evenodd"/></symbol><symbol viewBox="0 0 512 512" id="g_plus"><path d="M317.686 229.75a159.492 159.492 0 0 1 2.709 29.398C320.395 339.125 266.852 396 186 396c-77.349 0-140-62.651-140-140s62.651-140 140-140c37.803 0 69.385 13.911 93.627 36.487l-39.469 39.465v-.09c-14.697-14.001-33.333-21.174-54.158-21.174-46.198 0-83.736 39.024-83.736 85.227 0 46.194 37.538 85.312 83.736 85.312 41.913 0 70.436-23.977 76.307-56.875H186V229.75h131.686zm104.564 8.75v-43.75h-35v43.75H343.5v35h43.75v43.75h35V273.5H466v-35h-43.75z"/></symbol><symbol viewBox="0 0 16 8" id="ico-arrow-accordion"><g fill="none" fill-rule="evenodd" stroke="#1F447B" transform="translate(1)" stroke-linecap="square"><path d="M0 0l7.071 7.071M14.071 0L7 7.071"/></g></symbol><symbol viewBox="0 0 38 38" id="ico-ava-white"><defs><circle id="ada" cx="19" cy="19" r="19"/></defs><g fill="none" fill-rule="evenodd"><mask id="adb" fill="#fff"><use xlink:href="#ada"/></mask><use fill="#FFF" opacity=".2" xlink:href="#ada"/><circle cx="19" cy="41.742" r="14.97" fill="#FFF" mask="url(#adb)"/><circle cx="19" cy="15.833" r="8.924" fill="#FFF" mask="url(#adb)"/></g></symbol><symbol viewBox="0 0 34 34" id="ico-big-done"><g fill="none" fill-rule="evenodd"><circle cx="17" cy="17" r="17" fill="#56DAA1"/><path fill="#FFF" fill-rule="nonzero" d="M14.608 25.077c.269.01.54-.087.745-.292l12.728-12.728a1 1 0 1 0-1.414-1.414L14.608 22.702l-5.695-5.695a1 1 0 1 0-1.414 1.414l6.364 6.364a.997.997 0 0 0 .745.292z"/></g></symbol><symbol viewBox="0 0 34 34" id="ico-big-pending"><g fill="none" fill-rule="evenodd"><circle cx="17" cy="17" r="17" fill="#A0B2CE"/><path fill="#FFF" fill-rule="nonzero" d="M18.497 19.6a3 3 0 0 1-2.483-5.435A1.007 1.007 0 0 1 16 14V5.5a1 1 0 0 1 2 0V14c0 .057-.005.112-.014.166A3.001 3.001 0 0 1 19.8 18.08l4.711 4.393a1 1 0 0 1-1.364 1.462l-4.65-4.335zM17 18a1 1 0 1 0 0-2 1 1 0 0 0 0 2z"/></g></symbol><symbol viewBox="0 0 33 34" id="ico-big-refuse"><g fill="none" fill-rule="evenodd" transform="translate(0 .864)"><ellipse cx="16.5" cy="16.35" fill="#FF5E5E" rx="16.5" ry="16.35"/><path fill="#FFF" fill-rule="nonzero" d="M14.687 16.465l-5.745 5.693a1 1 0 1 0 1.408 1.42l5.758-5.705 5.758 5.706a1 1 0 1 0 1.408-1.42l-5.745-5.694 5.745-5.693a1 1 0 0 0-1.408-1.42l-5.758 5.705-5.758-5.706a1 1 0 1 0-1.408 1.421l5.745 5.693z"/></g></symbol><symbol viewBox="0 0 20 11" id="ico-bold-arrow-down"><path d="M9.743 8.328L1.707.293A1 1 0 1 0 .293 1.707l8.485 8.485a1 1 0 0 0 .965.26 1 1 0 0 0 .964-.26l8.485-8.485A1 1 0 0 0 17.778.293L9.743 8.328z"/></symbol><symbol viewBox="0 0 20 11" id="ico-bold-arrow-up"><path d="M9.743 2.672l-8.036 8.035A1 1 0 1 1 .293 9.293L8.778.808a1 1 0 0 1 .965-.26 1 1 0 0 1 .964.26l8.485 8.485a1 1 0 0 1-1.414 1.414L9.743 2.672z"/></symbol><symbol viewBox="0 0 16 11" id="ico-burger"><title>ico-burger</title><g fill="#FFF" fill-rule="evenodd"><path d="M15.5 1H.5a.5.5 0 0 1 0-1h15a.5.5 0 0 1 0 1M15.5 6H.5a.5.5 0 0 1 0-1h15a.5.5 0 0 1 0 1M15.5 11H.5a.5.5 0 0 1 0-1h15a.5.5 0 0 1 0 1"/></g></symbol><symbol viewBox="0 0 20 18" id="ico-calendar"><path d="M18.502 17.001h-17a.5.5 0 0 1-.5-.5v-10.5h18v10.5a.5.5 0 0 1-.5.5m-17-15h2.5v1.5a.5.5 0 0 0 1 0v-1.5h10v1.5a.5.5 0 0 0 1 0v-1.5h2.5a.5.5 0 0 1 .5.5v2.5h-18v-2.5a.5.5 0 0 1 .5-.5m17-1h-2.5v-.5a.5.5 0 0 0-1 0v.5h-10v-.5a.5.5 0 0 0-1 0v.5h-2.5c-.827 0-1.5.673-1.5 1.5v14c0 .827.673 1.5 1.5 1.5h17c.827 0 1.5-.673 1.5-1.5v-14c0-.827-.673-1.5-1.5-1.5"/><path d="M15.502 10.001h-11a.5.5 0 0 1 0-1h11a.5.5 0 0 1 0 1m0 2h-11a.5.5 0 0 1 0-1h11a.5.5 0 0 1 0 1m-6 2h-5a.5.5 0 0 1 0-1h5a.5.5 0 0 1 0 1"/></symbol><symbol viewBox="0 0 20 17" id="ico-chat"><path d="M16.353 13.753a.5.5 0 0 1 .303.102c.009.006.675.503 1.503.84-.544-.794-.531-1.247-.482-1.437a.505.505 0 0 1 .184-.273c.734-.552 1.138-1.255 1.138-1.984 0-.767-.444-1.5-1.25-2.065-.862-.603-2.015-.935-3.25-.935-1.234 0-2.387.332-3.25.935C10.445 9.5 10 10.234 10 11c0 .767.445 1.5 1.25 2.065.863.603 2.016.935 3.25.935.595 0 1.173-.077 1.718-.23a.516.516 0 0 1 .135-.018zM19.5 16H19.5c-1.34 0-2.734-.856-3.247-1.206A7.457 7.457 0 0 1 14.5 15c-1.436 0-2.794-.396-3.822-1.116C9.596 13.128 9 12.103 9 11c0-1.102.596-2.127 1.678-2.884C11.707 7.397 13.064 7 14.5 7c1.437 0 2.795.397 3.823 1.116C19.405 8.874 20 9.899 20 11c0 .964-.46 1.877-1.305 2.597.082.23.339.727 1.144 1.535A.5.5 0 0 1 19.5 16z"/><path d="M.5 17.001a.5.5 0 0 1-.257-.929 6.211 6.211 0 0 0 2.641-3.179C1.046 11.486 0 9.539 0 7.501c0-1.029.258-2.026.768-2.964.486-.894 1.18-1.695 2.061-2.381C4.616.766 6.985 0 9.5 0c2.278 0 4.481.644 6.202 1.813 1.735 1.18 2.871 2.812 3.2 4.596a.5.5 0 0 1-.984.181c-.279-1.519-1.266-2.921-2.778-3.949C13.583 1.583 11.58 1 9.5 1 4.813 1 1 3.916 1 7.5c0 1.815 1.005 3.562 2.756 4.792.172.121.25.336.196.539-.117.436-.515 1.633-1.58 2.788 1.302-.456 2.704-1.247 3.74-1.959a.499.499 0 0 1 .42-.069C7.48 13.862 8.48 14 9.5 14a.5.5 0 0 1 0 1c-1.033 0-2.047-.129-3.016-.385a20.74 20.74 0 0 1-2.189 1.27C2.807 16.625 1.531 17 .501 17v.001z"/></symbol><symbol viewBox="0 0 15 15" id="ico-close"><path d="M14.02 2.393l.708-.707L13.314.272l-.707.707L1.293 12.293.586 13 2 14.414l.707-.707z"/><path d="M2.707.98L2 .271.586 1.686l.707.707 11.314 11.314.707.707L14.728 13l-.707-.707z"/></symbol><symbol viewBox="0 0 20 17" id="ico-content-max"><rect width="18" height="2" x="2" rx="1"/><rect width="20" height="2" y="3" rx="1"/><rect width="20" height="2" y="6" rx="1"/><rect width="20" height="2" y="9" rx="1"/><rect width="20" height="2" y="12" rx="1"/><rect width="12" height="2" y="15" rx="1"/></symbol><symbol viewBox="0 0 20 14" id="ico-content-min"><rect width="18" height="2" x="2" rx="1"/><rect width="20" height="2" y="4" rx="1"/><rect width="20" height="2" y="8" rx="1"/><rect width="12" height="2" y="12" rx="1"/></symbol><symbol viewBox="0 0 19 19" id="ico-copy"><g fill="#70CFFE" fill-rule="evenodd"><path d="M16 6h1v1h-1zM16 18h1v1h-1zM14 18h1v1h-1zM12 18h1v1h-1zM10 18h1v1h-1zM8 18h1v1H8zM18 14h1v1h-1zM18 12h1v1h-1zM18 16h1v1h-1zM18 8h1v1h-1zM18 10h1v1h-1zM6 16h1v1H6zM14 6h1v1h-1zM7.5 6C6.673 6 6 6.673 6 7.5V12H1.5a.5.5 0 0 1-.5-.5v-10a.5.5 0 0 1 .5-.5h10a.5.5 0 0 1 .5.5V6H7.5zm4-6h-10C.673 0 0 .673 0 1.5v10c0 .827.673 1.5 1.5 1.5H7V7.5a.5.5 0 0 1 .5-.5H13V1.5c0-.827-.673-1.5-1.5-1.5zM6 14h1v1H6zM18 6h1v1h-1zM18 18h1v1h-1zM6 18h1v1H6z"/></g></symbol><symbol viewBox="0 0 19 19" id="ico-cross"><path d="M9.5 19a9.5 9.5 0 1 1 0-19 9.5 9.5 0 0 1 0 19zm0-2a7.5 7.5 0 1 0 0-15 7.5 7.5 0 0 0 0 15z"/><path d="M10.743 9.328l2.121-2.12a1 1 0 0 0-1.414-1.415L9.328 7.914l-2.12-2.121a1 1 0 0 0-1.415 1.414l2.121 2.121-2.121 2.122a1 1 0 1 0 1.414 1.414l2.121-2.121 2.122 2.121a1 1 0 1 0 1.414-1.414l-2.121-2.122z"/></symbol><symbol viewBox="0 0 19 19" id="ico-done"><path d="M9.5 19a9.5 9.5 0 1 1 0-19 9.5 9.5 0 0 1 0 19zm0-2a7.5 7.5 0 1 0 0-15 7.5 7.5 0 0 0 0 15z"/><path d="M7.864 11.608l-2.357-2.16a.75.75 0 0 0-1.014 1.105l2.893 2.652a.75.75 0 0 0 1.19-.245.752.752 0 0 0 .145-.104l5.786-5.303a.75.75 0 0 0-1.014-1.106l-5.63 5.16z"/></symbol><symbol viewBox="0 0 18 18" id="ico-emoji"><g fill="#A1B1C7" fill-rule="evenodd"><path fill-rule="nonzero" d="M9 17A8 8 0 1 0 9 1a8 8 0 0 0 0 16zm0 1A9 9 0 1 1 9 0a9 9 0 0 1 0 18z"/><circle cx="6" cy="7" r="1"/><circle cx="12" cy="7" r="1"/><path fill-rule="nonzero" d="M5.509 12.262c.802 1.156 1.95 1.838 3.553 1.838 1.6 0 2.711-.677 3.46-1.826a5.39 5.39 0 0 0 .604-1.279H4.854c.16.433.376.866.655 1.267zm8.845-2.267l-.09.578a6.382 6.382 0 0 1-.905 2.248c-.923 1.417-2.34 2.279-4.297 2.279-1.953 0-3.396-.858-4.375-2.268a6.682 6.682 0 0 1-.995-2.24l-.119-.597h10.781z"/><path fill-opacity=".679" fill-rule="nonzero" d="M13.164 10.676c-.01.055-.045.175-.114.339-.12.283-.297.567-.538.834-.703.778-1.81 1.25-3.45 1.25-1.638 0-2.792-.508-3.573-1.352a3.695 3.695 0 0 1-.624-.915 2.335 2.335 0 0 1-.15-.38l-.123-.485-.969.246.123.484c.115.453.42 1.093 1.01 1.73.968 1.047 2.388 1.673 4.306 1.673 1.917 0 3.295-.59 4.192-1.58.55-.609.812-1.222.893-1.66l.092-.491-.983-.184-.092.491z"/></g></symbol><symbol viewBox="0 0 16 16" id="ico-finish"><path d="M12.282 7.962a4.392 4.392 0 0 1-.507.605c.571-2.152.931-3.563 1.103-5.567h1.957c-.222.742-.636 1.036-1.169 2.316-.467 1.125-.933 2.015-1.384 2.646zm-6.81 1.355c-.963-3.083-1.42-5.953-1.468-8.316h7.99c-.053 2.18-.442 4.58-1.226 7.462-.084.308-.17.604-.259.886C9.565 12.36 9.333 13.001 8 13.001c-1.487 0-1.909-1.817-2.529-3.684zM2.34 5.316C1.806 4.036 1.39 3.742 1.166 3h1.946c.122 1.462.351 2.214.73 3.998.103.491.226 1.016.37 1.554a4.398 4.398 0 0 1-.488-.589c-.449-.631-.915-1.522-1.384-2.647zM15.5 2h-2.548A25.46 25.46 0 0 0 13 .5a.5.5 0 0 0-.5-.5h-9a.5.5 0 0 0-.5.497c-.003.417.01.924.042 1.503H.5a.499.499 0 0 0-.483.629c.022.083.56 1.055 1.396 3.063 1.082 2.596 2.138 3.997 3.215 4.261.52 1.568.648 1.94 1.275 2.91.362.559.863.9 1.396 1.044-.446.95-1.162.715-2.023 1.144a.502.502 0 0 0 .224.948h5a.502.502 0 0 0 .224-.948c-.86-.429-1.576-.194-2.023-1.144.833-.224 1.206-.477 1.808-1.545.478-.849.534-1.157.946-2.409 1.088-.263 2.057-1.664 3.138-4.262.835-2.009 1.367-2.98 1.39-3.063a.502.502 0 0 0-.087-.434A.502.502 0 0 0 15.5 2z"/></symbol><symbol viewBox="0 0 20 17" id="ico-flag"><path d="M1.5 20a.5.5 0 0 1-.5-.5v-15a.5.5 0 0 1 1 0v15a.5.5 0 0 1-.5.5zM15.5 14c-2.207 0-3.347-1.14-4.354-2.146C10.151 10.859 9.292 10 7.5 10s-2.652.859-3.646 1.854a.5.5 0 0 1-.707-.707c1.006-1.006 2.146-2.146 4.354-2.146s3.347 1.14 4.354 2.146c.995.995 1.854 1.854 3.646 1.854 1.704 0 2.565-.776 3.5-1.707V5.666c-.839.723-1.883 1.335-3.5 1.335-2.207 0-3.347-1.14-4.354-2.146-.995-.995-1.854-1.854-3.646-1.854s-2.652.859-3.646 1.854a.5.5 0 0 1-.707-.707c1.006-1.006 2.146-2.146 4.354-2.146s3.347 1.14 4.354 2.146c.995.995 1.854 1.854 3.646 1.854s2.652-.859 3.646-1.854a.499.499 0 0 1 .854.354v7c0 .133-.053.26-.146.354-1.006 1.006-2.146 2.146-4.354 2.146zM1.5 3C.673 3 0 2.327 0 1.5S.673 0 1.5 0 3 .673 3 1.5 2.327 3 1.5 3zm0-2a.5.5 0 1 0 0 1 .5.5 0 0 0 0-1z"/></symbol><symbol viewBox="0 0 20 20" id="ico-form-help"><path fill="#1F447B" d="M10 0C4.477 0 0 4.477 0 10s4.477 10 10 10 10-4.477 10-10S15.523 0 10 0zm.294 15.233c-.188.203-.454.304-.802.304-.346 0-.612-.099-.798-.297-.185-.197-.278-.475-.278-.83 0-.738.359-1.107 1.076-1.107.352 0 .62.097.806.29.186.192.279.464.279.816 0 .347-.095.621-.283.824zm2.612-7.148c-.108.285-.27.557-.488.816-.217.259-.591.596-1.123 1.011-.455.356-.759.652-.912.886-.13.198-.202.457-.222.77l-.004.015c-.088.493-.66.49-.66.49h-.301s-.498-.078-.48-.469c0-.537.098-.984.294-1.34.195-.357.537-.725 1.025-1.106.581-.46.955-.816 1.124-1.07.168-.253.253-.556.253-.908 0-.41-.137-.725-.41-.945-.274-.22-.667-.33-1.18-.33-.464 0-.893.067-1.289.199a9.288 9.288 0 0 0-.638.241l-.011.003c-.486.188-.712-.194-.712-.194l-.19-.4c-.001-.002-.215-.49.262-.704a6.425 6.425 0 0 1 2.703-.586c.956 0 1.716.234 2.277.703.561.469.842 1.116.842 1.94 0 .366-.053.692-.16.978z"/></symbol><symbol viewBox="0 0 48 42" id="ico-gallery"><title>ico</title><g transform="translate(1 1)" stroke="#B3B9BD" stroke-width="2" fill="none" fill-rule="evenodd"><path d="M46 37.129a1.9 1.9 0 0 1-1.899 1.902h-42.2A1.9 1.9 0 0 1 0 37.129V2.87C0 1.819.85.97 1.901.97h42.2A1.9 1.9 0 0 1 46 2.87v34.259z"/><path d="M4.436 38.962L21.25 21.983l7.706 7.942 7.704-7.942L46 29.925"/><circle cx="10.975" cy="14.481" r="4.437"/></g></symbol><symbol viewBox="0 0 15 16" id="ico-gift"><path d="M.447 3.01A.453.453 0 0 0 0 3.467v3.21c0 .253.2.314.447.314h.534v7.635c0 .758.516 1.374 1.256 1.374h10.526c.74 0 1.261-.616 1.261-1.374V6.991h.529c.247 0 .447-.06.447-.313v-3.21c0-.253-.2-.458-.447-.458H.447zM10.77 0C11.448 0 12 .673 12 1.5S11.448 3 10.77 3H8c.142-.442.429-1.032.824-1.586C9.465.515 10.174 0 10.77 0zM4.23 0C3.552 0 3 .673 3 1.5S3.552 3 4.23 3H7c-.142-.442-.429-1.032-.824-1.586C5.535.515 4.826 0 4.23 0zM6 14.977V4.719h3v10.258H6zM5 4v2H1V4h4zM2 7h3v8H2.4c-.22 0-.4-.202-.4-.45V7zm10.6 8H10V7h3v7.55c0 .248-.18.45-.4.45zM10 6V4h4v2h-4z"/><path d="M.447 3.01A.453.453 0 0 0 0 3.467v3.21c0 .253.2.314.447.314h.534v7.635c0 .758.516 1.374 1.256 1.374h10.526c.74 0 1.261-.616 1.261-1.374V6.991h.529c.247 0 .447-.06.447-.313v-3.21c0-.253-.2-.458-.447-.458H.447zM10.77 0C11.448 0 12 .673 12 1.5S11.448 3 10.77 3H8c.142-.442.429-1.032.824-1.586C9.465.515 10.174 0 10.77 0zM4.23 0C3.552 0 3 .673 3 1.5S3.552 3 4.23 3H7c-.142-.442-.429-1.032-.824-1.586C5.535.515 4.826 0 4.23 0zm7.303 15H2V4h11v10.381c0 .342-.657.619-1.467.619z"/></symbol><symbol viewBox="0 0 19 20" id="ico-m-book"><path d="M18 9v3h-.5a.5.5 0 0 1-.5-.5v-2a.5.5 0 0 1 .5-.5h.5zm-2.455 6.522c-1.404.415-3.439 1.251-5.545 2.909V9.727c2.184-1.891 4.345-2.803 5.789-3.235.962-.288 1.74-.408 2.211-.457V8h-.5c-.827 0-1.5.673-1.5 1.5v2c0 .827.673 1.5 1.5 1.5h.5v2.029c-.507.047-1.37.17-2.455.491v.002zM1 15.029V13h.5c.827 0 1.5-.673 1.5-1.5v-2C3 8.673 2.327 8 1.5 8H1V6.035c1.241.131 4.606.751 8 3.692v8.704c-2.106-1.658-4.141-2.494-5.545-2.909A12.93 12.93 0 0 0 1 15.03v-.001zM1 9h.5a.5.5 0 0 1 .5.5v2a.5.5 0 0 1-.5.5H1V9zm17.5-4c-.049 0-1.218.006-2.955.522-1.515.448-3.764 1.385-6.045 3.317C7.219 6.908 4.969 5.97 3.455 5.522 1.718 5.006.549 5 .5 5a.5.5 0 0 0-.5.5v10a.498.498 0 0 0 .5.5c.043 0 4.36.044 8.668 3.874a.5.5 0 0 0 .664 0c2.241-1.992 4.476-2.939 5.957-3.382C17.398 16.01 18.49 16 18.5 16a.5.5 0 0 0 .5-.5v-10a.5.5 0 0 0-.5-.5z"/><path d="M9.5 1C10.878 1 12 2.122 12 3.5S10.878 6 9.5 6A2.503 2.503 0 0 1 7 3.5C7 2.122 8.122 1 9.5 1m0 6C11.43 7 13 5.43 13 3.5S11.43 0 9.5 0 6 1.57 6 3.5 7.57 7 9.5 7"/></symbol><symbol viewBox="0 0 19 17" id="ico-m-faq"><path d="M9.5 2.001c-4.686 0-8.5 2.916-8.5 6.5 0 1.815 1.006 3.563 2.756 4.792.173.121.25.336.197.539-.117.436-.516 1.633-1.58 2.788 1.301-.456 2.704-1.247 3.739-1.959a.499.499 0 0 1 .42-.069c.949.271 1.947.409 2.969.409 4.686 0 8.5-2.916 8.5-6.5s-3.815-6.5-8.5-6.5zm-9 16a.5.5 0 0 1-.257-.929 6.216 6.216 0 0 0 2.642-3.179C1.046 12.486 0 10.539 0 8.501 0 7.472.26 6.475.767 5.537c.487-.894 1.181-1.695 2.063-2.381C4.617 1.766 6.985 1 9.5 1c2.515 0 4.884.766 6.672 2.156.88.685 1.575 1.486 2.06 2.381A6.14 6.14 0 0 1 19 8.501c0 1.03-.258 2.026-.767 2.964-.486.894-1.18 1.695-2.061 2.381-1.788 1.39-4.157 2.156-6.671 2.156-1.034 0-2.047-.129-3.016-.385a20.74 20.74 0 0 1-2.19 1.27c-1.487.74-2.763 1.115-3.793 1.115L.5 18.001z"/><path d="M9.5 11.001a.5.5 0 0 1-.5-.5v-2a.5.5 0 0 1 .5-.5c.828 0 1.5-.673 1.5-1.5s-.672-1.5-1.5-1.5c-.826 0-1.5.673-1.5 1.5a.5.5 0 0 1-1 0c0-1.378 1.123-2.5 2.5-2.5 1.379 0 2.5 1.122 2.5 2.5 0 1.207-.86 2.217-2 2.45v1.55a.5.5 0 0 1-.5.5M9.5 13.001a.5.5 0 1 1 0-.999.5.5 0 0 1 0 .999"/></symbol><symbol viewBox="0 0 17 20" id="ico-m-food"><path d="M14.448 16.067C13.45 17.93 12.192 19 11 19c-.36 0-.67-.1-1.029-.216-.412-.133-.879-.284-1.47-.284-.593 0-1.06.151-1.473.284C6.67 18.9 6.36 19 6 19c-1.194 0-2.45-1.07-3.448-2.933C1.58 14.254 1 11.987 1 10c0-1.784.484-3.104 1.436-3.924C3.266 5.362 4.464 5 6 5c.447 0 .984.152 1.458.286.408.115.76.214 1.042.214.283 0 .634-.099 1.042-.214C10.015 5.152 10.553 5 11 5c1.535 0 2.734.362 3.563 1.076C15.516 6.896 16 8.217 16 10c0 1.986-.58 4.254-1.552 6.067m.767-10.749C14.2 4.444 12.781 4 11 4c-.585 0-1.22.178-1.729.323l-.269.075A3.503 3.503 0 0 1 12.5 1a.5.5 0 0 0 0-1 4.504 4.504 0 0 0-4.499 4.4c-.088-.025-.18-.052-.273-.077C7.218 4.178 6.585 4 6 4c-1.782 0-3.2.443-4.215 1.318C.6 6.338 0 7.913 0 10c0 2.142.624 4.588 1.67 6.54C2.866 18.77 4.404 20 6 20c.516 0 .932-.134 1.336-.264.375-.12.73-.236 1.164-.236.433 0 .79.114 1.164.236.402.13.82.264 1.336.264 1.596 0 3.134-1.229 4.33-3.46C16.376 14.586 17 12.141 17 10c0-2.087-.6-3.662-1.785-4.682"/></symbol><symbol viewBox="0 0 20 14" id="ico-m-tasks"><path d="M12.495 13.854c-.11 0-.379-.037-.552-.37a1.692 1.692 0 0 1-.142-.428L9.441 2.043l-2.196 8.053c-.177.649-.545.765-.749.776-.204.01-.583-.062-.832-.686L4.5 7.275l-.164.41C4.057 8.384 3.251 8.93 2.5 8.93h-2a.5.5 0 1 1 0-1h2c.346 0 .78-.293.907-.614l.257-.643c.243-.607.628-.697.836-.697.208 0 .593.09.836.697l1.075 2.686L8.755.762C8.93.12 9.255-.006 9.5 0c.244.007.56.15.7.802l2.285 10.662 1.33-6.652c.133-.664.491-.801.693-.823.202-.022.581.032.856.65l1.188 2.673c.144.323.596.617.95.617h2a.5.5 0 0 1 0 1h-2c-.744 0-1.562-.532-1.864-1.211l-.955-2.15-1.495 7.478c-.036.178-.08.319-.137.43-.17.339-.442.377-.55.378h-.005z"/></symbol><symbol viewBox="0 0 20 18" id="ico-msg"><title>ico-msg</title><g transform="translate(-.46 -.448)" fill="#888C9C" fill-rule="evenodd"><path d="M1.002 17.501a.5.5 0 0 1-.256-.929 6.218 6.218 0 0 0 2.641-3.18C1.549 11.986.503 10.038.503 8c0-1.029.258-2.026.768-2.964.486-.895 1.181-1.695 2.062-2.381C5.12 1.264 7.489.499 10.004.499c2.515 0 4.884.766 6.671 2.156.881.685 1.575 1.485 2.062 2.381A6.14 6.14 0 0 1 19.505 8c0 1.03-.258 2.026-.768 2.964-.486.895-1.181 1.695-2.062 2.381-1.787 1.391-4.156 2.156-6.671 2.156-1.033 0-2.047-.129-3.016-.385-.43.286-1.231.793-2.189 1.27-1.49.741-2.766 1.116-3.797 1.115zm9-16c-4.687 0-8.5 2.916-8.5 6.5 0 1.815 1.005 3.562 2.756 4.792.172.121.25.336.196.539-.117.436-.516 1.633-1.58 2.788 1.302-.456 2.704-1.247 3.739-1.959a.498.498 0 0 1 .421-.069c.948.271 1.946.409 2.968.409 4.687 0 8.5-2.916 8.5-6.5s-3.814-6.5-8.5-6.5z"/><path d="M14.002 5.501h-8a.5.5 0 0 1 0-1h8a.5.5 0 0 1 0 1zM14.002 7.501h-8a.5.5 0 0 1 0-1h8a.5.5 0 0 1 0 1zM14.002 9.501h-8a.5.5 0 0 1 0-1h8a.5.5 0 0 1 0 1zM12.002 11.501h-6a.5.5 0 0 1 0-1h6a.5.5 0 0 1 0 1z"/></g></symbol><symbol viewBox="0 0 14 15" id="ico-new-window"><g fill="#36A7E0"><path d="M10.044 7.055v5.481a.51.51 0 0 1-.503.507H1.546a.507.507 0 0 1-.502-.502V4.546c0-.277.225-.503.499-.503h5.47a.5.5 0 1 0 0-1h-5.47c-.827 0-1.5.674-1.5 1.503v7.995c0 .825.675 1.502 1.503 1.502h7.995a1.51 1.51 0 0 0 1.503-1.507v-5.48a.5.5 0 1 0-1 0z"/><path d="M12.045 2.653L4.898 9.8a.5.5 0 0 1-.707-.707l7.147-7.147H9.009a.5.5 0 1 1 0-1h3.536a.498.498 0 0 1 .5.5v3.536a.5.5 0 0 1-1 0V2.653z"/></g></symbol><symbol viewBox="0 0 20 23" id="ico-notify"><path fill="#FFF" fill-rule="evenodd" d="M2.601 17.977c.324-.378.605-.79.835-1.224.505-.95.76-1.978.76-3.054v-3.666c0-3.031 2.556-5.5 5.7-5.5 3.143 0 5.7 2.469 5.7 5.5v3.666c0 1.076.257 2.104.758 3.054.232.436.513.846.836 1.224H2.6h.001zm9.195 1.833c0 1.01-.852 1.833-1.9 1.833s-1.9-.822-1.9-1.833c0-.209.038-.415.109-.611h3.582c.071.196.11.402.11.611zm7.348-1.71c-1.45-1.05-2.28-2.654-2.28-4.4v-3.667c0-3.071-2.148-5.668-5.068-6.468V2.7c0-1.01-.852-1.833-1.9-1.833s-1.9.822-1.9 1.833v.865c-2.922.8-5.068 3.397-5.068 6.468v3.666c0 1.747-.83 3.35-2.28 4.401a.599.599 0 0 0-.22.682c.086.25.328.418.6.418h5.764c-.043.2-.064.405-.064.611 0 1.684 1.42 3.056 3.167 3.056 1.745 0 3.167-1.372 3.167-3.056 0-.205-.022-.41-.064-.61h5.765a.63.63 0 0 0 .599-.419.596.596 0 0 0-.22-.682h.002z"/></symbol><symbol viewBox="0 0 20 15" id="ico-photo"><path d="M9.502 4.001c-1.93 0-3.5 1.57-3.5 3.5s1.57 3.5 3.5 3.5 3.5-1.57 3.5-3.5-1.57-3.5-3.5-3.5m0 8a4.505 4.505 0 0 1-4.5-4.5c0-2.481 2.019-4.5 4.5-4.5s4.5 2.019 4.5 4.5-2.019 4.5-4.5 4.5"/><path d="M1.502 3.001a.5.5 0 0 0-.5.5v10a.5.5 0 0 0 .5.5h16a.5.5 0 0 0 .5-.5v-10a.5.5 0 0 0-.5-.5h-1.5c-.688 0-1.574-.367-2.061-.854l-.586-.586C13.062 1.268 12.416 1 12.001 1h-5c-.415 0-1.06.267-1.354.561l-.586.586c-.487.487-1.372.854-2.061.854H1.5h.002zm16 12h-16c-.827 0-1.5-.673-1.5-1.5v-10c0-.827.673-1.5 1.5-1.5h1.5c.415 0 1.06-.267 1.354-.561l.586-.586C5.429.367 6.315 0 7.003 0h5c.688 0 1.574.367 2.061.854l.586.586c.293.293.939.561 1.354.561h1.5c.827 0 1.5.673 1.5 1.5v10c0 .827-.673 1.5-1.5 1.5h-.002z"/></symbol><symbol viewBox="0 0 26 81" id="ico-photo-side-1"><path d="M25.007 29.474c.036-1.844.24-3.504-.325-5.288-.242-.767-.757-2.052-.819-2.835-.059-.74.224-1.976.167-2.826-.077-1.182-.753-2.663-1.952-3.258-.536-.266-1.336-.643-2.254-.626a3.131 3.131 0 0 0-.4.033c-1.302-.908-3.383-1.317-3.724-1.29-.55-.236-.307-2.167-.276-2.729l.002-.001c.096-.043.24-.227.584-1.118.05-.125.101-.256.152-.394l.013-.042.08-.225c.033-.091.065-.43.097-.682l.004-.029c.04.122.14.2.217.196a.09.09 0 0 0 .066-.033c.198-.236.628-.968.721-1.284.188-.635-.013-1.356-.368-1.298-.081.013-.171.068-.266.175.02-.814-.14-.38.03-.903L16.76 5c.145-.34.235-.674.283-.987.089-.499.063-.892-.027-1.23l-.013-.042C16.502.747 14.85.178 13.864.105a5.448 5.448 0 0 0-.378-.063A2.016 2.016 0 0 0 12.97 0c-.23-.005-.41.012-.516.04-.121.017-.247.037-.378.064-.986.073-2.638.642-3.14 2.636l-.014.042c-.09.338-.116.731-.026 1.23.048.313.137.647.282.987l.006.017c.17.522.01.09.03.902-.095-.106-.185-.16-.267-.174-.354-.058-.556.663-.368 1.298.094.316.523 1.048.721 1.284a.09.09 0 0 0 .067.033c.077.004.177-.074.216-.196l.004.03c.033.251.064.59.097.681l.081.225.012.042c.051.138.102.27.152.394.344.891.49 1.075.584 1.118l.003.001c.031.562.273 2.493-.276 2.729-.341-.027-2.422.382-3.724 1.29-.135-.02-.27-.03-.4-.033-.919-.017-1.719.36-2.255.626-1.199.595-1.874 2.076-1.952 3.258-.056.85.226 2.086.167 2.826-.061.784-.576 2.068-.818 2.835C.693 25.97.897 27.63.933 29.474c.03 1.546-.946 2.35-.933 4.753.01 1.857.376 3.43.715 5.181.108.558.243 1.605.276 1.593.079.663.076 1.296-.021 2.457-.086 1.035.03 2.098.61 2.834.357.452.88 1.4 1.516 1.218.018-.005.016.01.01.021l.13.274c.78.087.308-.762.166-1.374-.162-.69-.235-1.903.05-2.576.602.41.121 2.452 1.257 2.433.037 0-.003.005.037 0 .15-.196-.29-1.196-.233-2.447.04-.91-.584-1.526-.84-2.374-.17-.555-.21-1.137-.182-1.727h.002c.045-.944.273-1.904.469-2.804l.025-.12c.014-.063.028-.126.04-.189.027-.125.052-.248.076-.37.332-1.728-.347-3.603.084-5.127.323-1.14 1.844-2.563 1.405-4.661.385.61.27 1.432.44 2.097.19.752.512 1.467.647 2.243.262 1.5.292 2.367.112 3.952-.16 1.405-1.153 2.642-1.369 4.058a3.87 3.87 0 0 0-.057.37c-.116 1.16-.1 2.132-.165 3.185l-.014.148c-.019.187-.04.38-.067.585-.032.238-.051.478-.061.717-.14 1.428.163 2.576.148 4.059-.002.152-.006.304-.015.457-.094 1.67.312 4.235.871 5.726.545 1.458.586 2.728.744 4.328.007.069.01.137.015.205l.01.145c.001.038 0 .076.002.115.002.074.004.148.004.224-.006 1.562-.502 3.005-.5 4.594 0 .244.007.463.017.667-.01.185-.016.365-.016.533.002 1.712.265 2.302.653 3.852.38 1.51 1.156 4.329 1.593 5.863.077.27.122.584.14.92-.176.998-.455 1.914-.88 3.088-.275.756-1.156 1.456-1.156 1.738 0 .622 1.684.514 2.235.514.692 0 1.532-.058 2.124-.387.784-.436 1.06-1.205.764-1.984.197-.231.403-.649-.044-1.923-.255-.727.202-.33-.068-1.066-1.197-3.255.386-6.829.22-10.37.019-.44.02-.886-.007-1.342-.05-.825-.37-2.796-.521-3.59l-.026-.152c.076-.711.25-1.408.334-1.971.27-1.781.151-3.522.422-5.161.535-3.24.733-6.966.376-8.73.132.128.25.182.362.184a.39.39 0 0 0 .11-.014c.037.01.074.015.111.014.113-.002.23-.056.362-.183-.356 1.763-.158 5.489.377 8.729.27 1.64.152 3.38.421 5.16.085.564.259 1.26.334 1.972a4.362 4.362 0 0 1-.025.152c-.151.794-.471 2.765-.521 3.59-.028.456-.027.902-.007 1.343-.166 3.54 1.417 7.114.22 10.369-.27.736.187.34-.068 1.066-.447 1.274-.241 1.692-.045 1.923-.296.779-.019 1.548.764 1.984.592.33 1.433.387 2.125.387.55 0 2.234.108 2.234-.514 0-.282-.88-.982-1.155-1.738-.426-1.174-.705-2.09-.88-3.088.018-.336.062-.65.139-.92a243.623 243.623 0 0 0 1.593-5.864c.388-1.55.652-2.139.654-3.85 0-.17-.007-.35-.017-.534.01-.204.017-.423.017-.667.003-1.59-.493-3.032-.5-4.593 0-.077.002-.15.005-.225 0-.039 0-.077.002-.115.002-.05.007-.096.01-.145.005-.068.008-.136.015-.205.157-1.6.199-2.87.744-4.328.558-1.49.964-4.056.87-5.726a10.471 10.471 0 0 1-.014-.457c-.015-1.483.288-2.632.148-4.059a7.874 7.874 0 0 0-.061-.717 16.063 16.063 0 0 1-.067-.585l-.015-.148c-.065-1.053-.049-2.024-.164-3.186a3.935 3.935 0 0 0-.058-.37c-.215-1.415-1.209-2.651-1.368-4.057-.18-1.585-.15-2.453.111-3.952.135-.776.457-1.491.648-2.243.17-.665.054-1.486.44-2.097-.44 2.098 1.081 3.52 1.404 4.66.432 1.525-.247 3.4.085 5.128.023.122.049.245.075.37l.04.19.026.12c.196.899.423 1.86.469 2.802h.002c.028.59-.013 1.173-.181 1.728-.258.849-.882 1.464-.841 2.374.056 1.25-.384 2.25-.234 2.447.04.005 0 0 .037 0 1.136.019.655-2.024 1.258-2.433.285.673.212 1.886.05 2.576-.142.612-.615 1.46.165 1.374l.13-.274c-.006-.011-.008-.026.01-.02.637.18 1.16-.767 1.517-1.22.58-.735.696-1.798.61-2.833-.097-1.161-.1-1.794-.022-2.457.034.012.168-1.035.276-1.593.34-1.75.705-3.325.715-5.18.013-2.404-.962-3.208-.932-4.754"/></symbol><symbol viewBox="0 0 16 81" id="ico-photo-side-2"><path d="M.232 25.346c-.29-.907-.454-2.583.424-4.671-1.937-1.203 1.953-5.47 3.43-6.506.354-.248.595-.42 1.095-.766.034-.539-.335-2.657-.335-2.657-.71.179-1.116.2-1.487.092-1.265-.363-.466-1.19-.702-1.581-.283-.105-.324-.325-.036-.444.02-.217-.28-.203-.32-.417-.025-.137.098-.47.088-.664-.247-.094-.74.053-.828-.203-.065-.187.527-1.055.6-1.224.143-.336.309-.537.267-.896-.03-.255-.368-.487-.419-.704-.049-.208.342-.894.392-1.105.114-.485.463-1.23.985-1.47C2.11 1.698 4.856 0 6.321 0 8.382 0 9.577.637 9.96 1.11c.847 1.042.894 2.308.823 3.664-.042.797-.301 1.572-.6 2.316-.22.545-.508 1.054-.787 1.569-.145 1.22.422 2.68.76 3.77.242.175.476.404.703.69.158.057.304.116.434.169 1.22.502 1.79 1.92 1.953 3.084.118.837-.067 2.082.046 2.81.119.771.719 2.005 1.013 2.748.686 1.725.61 3.383.711 5.21.011.203.04.39.079.57a.324.324 0 0 0-.012.007c.218 1.258.855 2.416.849 4.217-.007 1.843-.506 2.912-.837 4.651-.31 1.627.649 7.464-1.77 10.008-.032-.09.013-.184-.011-.266-.137.293-.225.265-.339.583-.916-.358-.102-1.045.037-1.654.157-.686.227-1.89-.054-2.557-.574.393-.179 1.954-1.168 2.057-.016-.178 0 0-.018-.179.12-.6.075-1.24.142-1.89.093-.9.572-1.516.823-2.358.495-1.658-.835-5.159-1.143-6.77-.298-1.548.21-2.224 0-3.646-.368-1.013-1.178-3.085-1.195-4.896-.535 1.34-.404 2.275-1.057 4.43-.326 1.074.212 3.678.36 4.391.876 1.734 1.977 2.633 1.92 5.23-.025 1.146-.727 3.287-1.154 3.902.082.381.155 5.729-.115 9.172-.369 4.709-.396 4.346.258 5.589 1.082 2.052 1.664 4.472 1.49 7.326-.203 3.308-1.506 5.937-1.284 5.334.29-.784-.483 2.016-.742 2.836-.254.802-.015.482-.146 1.35-.14.935-.447 1.572-.327 2.498.206 1.585.95 3.266-.739 3.468-1.036.124-1.365-.462-2.018-.278-2.104.591-3.107.66-4.261.552-1.168.019-1.072-.367-.94-.669-.073-.685 1.21-.284 2.155-1.09.562-.48 1.02-.625 1.517-1.134 1.975-2.022 2.137-4.93 1.916-7.068-.186-1.794-.281-3.722-.415-5.598-.186-2.597-.776-4.763-1.128-6.155-.177-.698-.298-.312-.506-1.067-.218-.794-.109-2.653.03-2.905.007-.784-.35-.566-.856-1.67-1.524-3.321-2.181-6.715-2.302-7.8-.483-2.007-.147-2.812-.028-5.966.042-1.12-.27-2.062-.329-3.808-.152-.569-.707-2.81-.793-3.411-.155-1.084.003-2.834-.148-3.88-.09-.62-.54-2.083-.533-2.635.008-.615.213.028.008-.615"/></symbol><symbol viewBox="0 0 16 81" id="ico-photo-side-3"><path d="M15.768 25.346c.29-.907.454-2.583-.424-4.671 1.937-1.203-1.953-5.47-3.43-6.506-.354-.248-.595-.42-1.095-.766-.034-.539.335-2.657.335-2.657.71.179 1.116.2 1.487.092 1.265-.363.466-1.19.702-1.581.283-.105.324-.325.036-.444-.02-.217.28-.203.32-.417.025-.137-.098-.47-.088-.664.247-.094.74.053.828-.203.065-.187-.527-1.055-.6-1.224-.143-.336-.309-.537-.267-.896.03-.255.368-.487.419-.704.049-.208-.342-.894-.392-1.105-.114-.485-.463-1.23-.985-1.47C13.89 1.698 11.144 0 9.679 0 7.618 0 6.423.637 6.04 1.11c-.847 1.042-.894 2.308-.823 3.664.042.797.301 1.572.6 2.316.22.545.508 1.054.787 1.569.145 1.22-.422 2.68-.76 3.77a3.64 3.64 0 0 0-.703.69c-.158.057-.304.116-.434.169-1.22.502-1.79 1.92-1.953 3.084-.118.837.067 2.082-.046 2.81-.119.771-.719 2.005-1.013 2.748-.686 1.725-.61 3.383-.711 5.21-.011.203-.04.39-.079.57a.324.324 0 0 1 .012.007c-.218 1.258-.855 2.416-.849 4.217.007 1.843.506 2.912.837 4.651.31 1.627-.649 7.464 1.77 10.008.032-.09-.013-.184.011-.266.137.293.225.265.339.583.916-.358.102-1.045-.037-1.654-.157-.686-.227-1.89.054-2.557.574.393.179 1.954 1.168 2.057.016-.178 0 0 .018-.179-.12-.6-.075-1.24-.142-1.89-.093-.9-.572-1.516-.823-2.358-.495-1.658.835-5.159 1.143-6.77.298-1.548-.21-2.224 0-3.646.368-1.013 1.178-3.085 1.195-4.896.535 1.34.404 2.275 1.057 4.43.326 1.074-.212 3.678-.36 4.391-.876 1.734-1.977 2.633-1.92 5.23.025 1.146.727 3.287 1.154 3.902-.082.381-.155 5.729.115 9.172.369 4.709.396 4.346-.258 5.589-1.082 2.052-1.664 4.472-1.49 7.326.203 3.308 1.506 5.937 1.284 5.334-.29-.784.483 2.016.742 2.836.254.802.015.482.146 1.35.14.935.447 1.572.327 2.498-.206 1.585-.95 3.266.739 3.468 1.036.124 1.365-.462 2.018-.278 2.104.591 3.107.66 4.261.552 1.168.019 1.072-.367.94-.669.073-.685-1.21-.284-2.155-1.09-.562-.48-1.02-.625-1.517-1.134-1.975-2.022-2.137-4.93-1.916-7.068.186-1.794.281-3.722.415-5.598.186-2.597.776-4.763 1.128-6.155.177-.698.298-.312.506-1.067.218-.794.109-2.653-.03-2.905-.007-.784.35-.566.856-1.67 1.524-3.321 2.181-6.715 2.302-7.8.483-2.007.147-2.812.028-5.966-.042-1.12.27-2.062.329-3.808.152-.569.707-2.81.793-3.411.155-1.084-.003-2.834.148-3.88.09-.62.54-2.083.533-2.635-.008-.615-.213.028-.008-.615"/></symbol><symbol viewBox="0 0 20 20" id="ico-sausage"><path d="M6.502 19.001a2.503 2.503 0 0 1-2.5-2.5c0-1.378 1.122-2.5 2.5-2.5.753 0 1.489-.11 2.19-.323l.337.985a.5.5 0 1 0 .946-.324l-.348-1.016a7.48 7.48 0 0 0 1.813-1.177l.709.709a.5.5 0 1 0 .707-.708l-.709-.708a7.48 7.48 0 0 0 1.177-1.813l1.016.348a.5.5 0 0 0 .324-.946l-.985-.338c.213-.7.323-1.436.323-2.189 0-1.378 1.122-2.5 2.5-2.5s2.5 1.122 2.5 2.5c0 6.893-5.607 12.5-12.5 12.5zm-5.187-1.89c-.109.087-.213.174-.313.258v-1.735c.099.084.204.171.313.258.305.244.586.447.846.61-.26.163-.541.366-.846.61v-.001zm16.054-16.11c-.084.099-.171.204-.258.313a9.181 9.181 0 0 0-.61.846 9.181 9.181 0 0 0-.61-.846 16.082 16.082 0 0 0-.258-.313h1.736zm-.229 2.058c.297-.605 1.027-1.516 1.716-2.204A.5.5 0 0 0 18.502 0h-4a.501.501 0 0 0-.354.855c.688.688 1.419 1.599 1.716 2.204a3.506 3.506 0 0 0-2.862 3.442c0 3.584-2.916 6.5-6.5 6.5a3.507 3.507 0 0 0-3.442 2.862c-.605-.298-1.516-1.027-2.205-1.716a.499.499 0 0 0-.854.354v4a.501.501 0 0 0 .854.354c.689-.688 1.6-1.418 2.205-1.716a3.506 3.506 0 0 0 3.442 2.862 13.45 13.45 0 0 0 9.546-3.954 13.45 13.45 0 0 0 3.954-9.546 3.507 3.507 0 0 0-2.862-3.442z"/></symbol><symbol viewBox="0 0 15 19" id="ico-share"><g fill="#70CFFE" fill-rule="evenodd"><path d="M13.5 19h-12C.673 19 0 18.327 0 17.5v-10C0 6.673.673 6 1.5 6h4a.5.5 0 0 1 0 1h-4a.5.5 0 0 0-.5.5v10a.5.5 0 0 0 .5.5h12a.5.5 0 0 0 .5-.5v-10a.5.5 0 0 0-.5-.5h-4a.5.5 0 0 1 0-1h4c.827 0 1.5.673 1.5 1.5v10c0 .827-.673 1.5-1.5 1.5"/><path d="M10.854 3.03l-3-2.89a.514.514 0 0 0-.708 0l-3 2.89a.47.47 0 0 0 0 .68.516.516 0 0 0 .708 0L7 1.644v10.875c0 .265.224.481.5.481s.5-.216.5-.481V1.644l2.146 2.066a.51.51 0 0 0 .707 0 .47.47 0 0 0 0-.68"/></g></symbol><symbol viewBox="0 0 20 12" id="ico-task-description"><path d="M1 1h18M1 6h18M1 11h11" fill="none" fill-rule="evenodd" stroke="#70CFFE" stroke-width="2" stroke-linecap="square"/></symbol><symbol viewBox="0 0 33 29" id="ico-task-done"><g fill="none" fill-rule="evenodd" stroke="#FFF" stroke-width="2" transform="translate(1 1)" stroke-linecap="round" stroke-linejoin="round"><path d="M7 14l4.596 4.596M30.243 0L11.907 18.335"/><path d="M21.58 4.234A12.95 12.95 0 0 0 13 1C5.82 1 0 6.82 0 14s5.82 13 13 13 13-5.82 13-13c0-1.6-.29-3.133-.818-4.55" opacity=".4"/></g></symbol><symbol viewBox="0 0 24 22" id="ico-task-photo"><g fill="#70CFFE"><ellipse cx="12" cy="12.222" rx="3.84" ry="3.911"/><path d="M8.4 0L6.204 2.444H2.4c-1.32 0-2.4 1.1-2.4 2.445v14.667C0 20.9 1.08 22 2.4 22h19.2c1.32 0 2.4-1.1 2.4-2.444V4.889c0-1.345-1.08-2.445-2.4-2.445h-3.804L15.6 0H8.4zM12 18.333c-3.312 0-6-2.737-6-6.11C6 8.848 8.688 6.11 12 6.11s6 2.738 6 6.111c0 3.374-2.688 6.111-6 6.111z"/></g></symbol><symbol viewBox="0 0 24 24" id="ico-task-play"><path fill="#70CFFE" fill-rule="evenodd" d="M12 24C5.373 24 0 18.627 0 12S5.373 0 12 0s12 5.373 12 12-5.373 12-12 12zm5.4-11.4L9 6.6v12l8.4-6z"/></symbol><symbol viewBox="0 0 28 28" id="ico-task-progress"><circle cx="13" cy="13" r="13" fill="none" stroke="#FFF" stroke-width="2" transform="translate(1 1)" stroke-linecap="round" opacity=".5" stroke-linejoin="round"/></symbol><symbol viewBox="0 0 14 10" id="ico-tick"><path d="M5.793 9.692l-.257.258-.708-.707-3.535-3.536L.586 5 2 3.586l.707.707 2.914 2.914 5.915-5.914.707-.707L13.657 2l-.707.707-6.364 6.364-.707.707-.086-.086z"/></symbol><symbol viewBox="0 0 15 20" id="ico-trash"><title>ico-trash</title><g fill="#8C8C8C" fill-rule="evenodd"><path d="M14.002 4.501a.5.5 0 0 1-.5.5h-12a.5.5 0 0 1-.5-.5v-1a.5.5 0 0 1 .5-.5h12a.5.5 0 0 1 .5.5v1zm-1.5 14.5h-10a.5.5 0 0 1-.5-.5v-12.5h11v12.5a.5.5 0 0 1-.5.5zm-6.5-17.5a.5.5 0 0 1 .5-.5h2a.5.5 0 0 1 .5.5v.5h-3v-.5zm7.5.5h-3.5v-.5c0-.827-.673-1.5-1.5-1.5h-2c-.827 0-1.5.673-1.5 1.5v.5h-3.5c-.827 0-1.5.673-1.5 1.5v1c0 .652.418 1.208 1 1.414v12.586c0 .827.673 1.5 1.5 1.5h10c.827 0 1.5-.673 1.5-1.5V5.915c.582-.206 1-.762 1-1.414v-1c0-.827-.673-1.5-1.5-1.5z"/><path d="M10.502 7.001a.5.5 0 0 0-.5.5v10a.5.5 0 0 0 1 0v-10a.5.5 0 0 0-.5-.5M7.502 7.001a.5.5 0 0 0-.5.5v10a.5.5 0 0 0 1 0v-10a.5.5 0 0 0-.5-.5M4.502 7.001a.5.5 0 0 0-.5.5v10a.5.5 0 0 0 1 0v-10a.5.5 0 0 0-.5-.5"/></g></symbol><symbol viewBox="0 0 512 512" id="ico-tw"><path d="M423.003 170.352c.161 3.688.246 7.413.246 11.138 0 113.868-86.666 245.17-245.16 245.17-48.669 0-93.957-14.26-132.089-38.717 6.74.795 13.601 1.211 20.561 1.211 40.362 0 77.513-13.785 107.006-36.893-37.702-.688-69.524-25.611-80.49-59.832a86.327 86.327 0 0 0 16.21 1.541 86.145 86.145 0 0 0 22.706-3.025c-39.418-7.914-69.12-42.738-69.12-84.484v-1.091a85.866 85.866 0 0 0 39.039 10.783c-23.122-15.451-38.34-41.832-38.34-71.729 0-15.782 4.251-30.583 11.665-43.315 42.506 52.137 105.989 86.434 177.608 90.036-1.47-6.31-2.229-12.89-2.229-19.642 0-47.591 38.585-86.164 86.163-86.164 24.787 0 47.175 10.464 62.895 27.215a172.75 172.75 0 0 0 54.724-20.917c-6.433 20.119-20.097 37.004-37.887 47.676 17.424-2.083 34.039-6.715 49.49-13.577-11.556 17.291-26.161 32.46-42.998 44.616z" fill-rule="evenodd" clip-rule="evenodd"/></symbol><symbol viewBox="0 0 20 15" id="ico-users"><path d="M7 13.503a.5.5 0 0 0 .5.497h11a.5.5 0 0 0 .5-.497c-.001-.035-.032-.895-.739-1.734C17.287 10.612 15.468 10 13 10s-4.287.612-5.261 1.768c-.707.84-.738 1.699-.739 1.734M18.5 15h-11c-.827 0-1.5-.673-1.5-1.5 0-.048.011-1.19.924-2.315.525-.646 1.241-1.158 2.128-1.522C10.123 9.223 11.452 9 13 9s2.876.223 3.948.662c.887.364 1.603.876 2.128 1.522.914 1.125.924 2.267.924 2.315 0 .827-.673 1.5-1.5 1.5M13 1c-1.654 0-3 1.346-3 3s1.346 3 3 3 3-1.346 3-3-1.346-3-3-3m0 7c-2.206 0-4-1.794-4-4s1.794-4 4-4 4 1.794 4 4-1.794 4-4 4m-8.5 7h-3C.673 15 0 14.327 0 13.5c0-.037.008-.927.663-1.8.378-.505.894-.904 1.533-1.188.764-.34 1.708-.512 2.805-.512.179 0 .356.005.527.014a.5.5 0 0 1-.053.999 9.1 9.1 0 0 0-.473-.012c-3.894 0-3.997 2.379-4 2.503a.5.5 0 0 0 .5.497h3a.5.5 0 0 1 0 1L4.5 15zM5 4c-1.103 0-2 .897-2 2s.897 2 2 2 2-.897 2-2-.897-2-2-2m0 5C3.346 9 2 7.654 2 6s1.346-3 3-3 3 1.346 3 3-1.346 3-3 3"/></symbol><symbol viewBox="0 0 19 19" id="ico-waiting"><path d="M9.5 19a9.5 9.5 0 1 1 0-19 9.5 9.5 0 0 1 0 19zm0-2a7.5 7.5 0 1 0 0-15 7.5 7.5 0 0 0 0 15z"/><path d="M7.864 11.608l-2.357-2.16a.75.75 0 0 0-1.014 1.105l2.893 2.652a.75.75 0 0 0 1.19-.245.752.752 0 0 0 .145-.104l5.786-5.303a.75.75 0 0 0-1.014-1.106l-5.63 5.16z"/></symbol><symbol viewBox="0 0 19 19" id="ico-warning"><path d="M9.5 18C4.813 18 1 14.187 1 9.5 1 4.812 4.813 1 9.5 1 14.187 1 18 4.812 18 9.5c0 4.687-3.813 8.5-8.5 8.5m6.718-15.218A9.438 9.438 0 0 0 9.5 0a9.44 9.44 0 0 0-6.718 2.782A9.434 9.434 0 0 0 0 9.499c0 2.537.988 4.923 2.782 6.718A9.434 9.434 0 0 0 9.5 18.999a9.44 9.44 0 0 0 6.718-2.782A9.434 9.434 0 0 0 19 9.499a9.436 9.436 0 0 0-2.782-6.717"/><path d="M9.5 17a.5.5 0 0 1-.5-.5v-1a.5.5 0 0 1 1 0v1a.5.5 0 0 1-.5.5m0-3a.5.5 0 0 1-.5-.5v-10a.5.5 0 0 1 1 0v10a.5.5 0 0 1-.5.5"/></symbol><symbol viewBox="0 0 38 38" id="ico-your-condition-1"><title>ico-your-condition-1</title><g fill="none" fill-rule="evenodd"><path d="M19.004 38.002a18.88 18.88 0 0 1-13.436-5.564A18.86 18.86 0 0 1 .004 19.004 18.88 18.88 0 0 1 5.568 5.568 18.87 18.87 0 0 1 19.004.002c5.076 0 9.846 1.976 13.436 5.566a18.864 18.864 0 0 1 5.564 13.436c0 5.076-1.976 9.846-5.564 13.434a18.877 18.877 0 0 1-13.436 5.564z" fill="#56DAA1"/><path d="M14.004 15.002c-1.654 0-3-1.346-3-3s1.346-3 3-3 3 1.346 3 3-1.346 3-3 3zm0-4c-.55 0-1 .448-1 1s.45 1 1 1 1-.448 1-1-.45-1-1-1zM24.004 15.002c-1.654 0-3-1.346-3-3s1.346-3 3-3 3 1.346 3 3-1.346 3-3 3zm0-4c-.55 0-1 .448-1 1s.45 1 1 1 1-.448 1-1-.45-1-1-1zM19.004 31.002c-7.168 0-13-5.832-13-13 0-.552.45-1 1-1s1 .448 1 1c0 6.066 4.934 11 11 11s11-4.934 11-11c0-.552.45-1 1-1s1 .448 1 1c0 7.168-5.832 13-13 13z" fill="#FFF"/></g></symbol><symbol viewBox="0 0 38 38" id="ico-your-condition-2"><title>ico-your-condition-2</title><g fill="#ED926D" fill-rule="evenodd"><path d="M19.004 38.002a18.88 18.88 0 0 1-13.436-5.564A18.867 18.867 0 0 1 .004 19.004 18.88 18.88 0 0 1 5.568 5.568 18.87 18.87 0 0 1 19.004.002c5.076 0 9.846 1.976 13.436 5.566a18.872 18.872 0 0 1 5.564 13.436c0 5.076-1.976 9.846-5.564 13.434a18.877 18.877 0 0 1-13.436 5.564zm0-36c-9.374 0-17 7.624-17 17 0 9.376 7.626 17 17 17 9.374 0 17-7.624 17-17 0-9.376-7.628-17-17-17z"/><path d="M13.004 14.002c-1.654 0-3-1.346-3-3s1.346-3 3-3 3 1.346 3 3-1.346 3-3 3zm0-4a1 1 0 1 0 0 2 1 1 0 0 0 0-2zM25.004 14.002c-1.654 0-3-1.346-3-3s1.346-3 3-3 3 1.346 3 3-1.346 3-3 3zm0-4a1 1 0 1 0 0 2 1 1 0 0 0 0-2zM25.004 28.002a.95.95 0 0 1-.276-.04l-14-4a.998.998 0 0 1-.688-1.234 1.003 1.003 0 0 1 1.236-.688l14 4a1 1 0 0 1-.272 1.962z"/></g></symbol><symbol viewBox="0 0 38 38" id="ico-your-condition-3"><title>ico-your-condition-3</title><g fill="#70768C" fill-rule="evenodd"><path d="M19.004 38.002a18.88 18.88 0 0 1-13.436-5.564A18.867 18.867 0 0 1 .004 19.004 18.88 18.88 0 0 1 5.568 5.568 18.87 18.87 0 0 1 19.004.002c5.076 0 9.846 1.976 13.436 5.566a18.872 18.872 0 0 1 5.564 13.436c0 5.076-1.976 9.846-5.564 13.434a18.877 18.877 0 0 1-13.436 5.564zm0-36c-9.374 0-17 7.624-17 17 0 9.376 7.626 17 17 17 9.374 0 17-7.624 17-17 0-9.376-7.628-17-17-17z"/><path d="M13.004 14.002c-1.654 0-3-1.346-3-3s1.346-3 3-3 3 1.346 3 3-1.346 3-3 3zm0-4a1 1 0 1 0 0 2 1 1 0 0 0 0-2zM25.004 14.002c-1.654 0-3-1.346-3-3s1.346-3 3-3 3 1.346 3 3-1.346 3-3 3zm0-4a1 1 0 1 0 0 2 1 1 0 0 0 0-2zM11.002 28.002a1.001 1.001 0 0 1-.8-1.6 11.103 11.103 0 0 1 3.802-3.202 10.896 10.896 0 0 1 4.998-1.198c1.76 0 3.442.404 4.998 1.198a11.103 11.103 0 0 1 3.802 3.202 1 1 0 1 1-1.6 1.2 8.93 8.93 0 0 0-7.202-3.6 8.936 8.936 0 0 0-7.202 3.6.972.972 0 0 1-.796.4z"/></g></symbol><symbol viewBox="0 0 420 419.997" id="insta"><title/><path d="M342.818 100.279a24.3 24.3 0 1 1-24.295-24.295 24.3 24.3 0 0 1 24.295 24.295zM420 209.999l-.005.306-1.38 88.105a121.58 121.58 0 0 1-120.2 120.2L210 419.999l-.306-.006-88.105-1.376a121.586 121.586 0 0 1-120.206-120.2L0 209.999l.006-.306 1.376-88.108a121.59 121.59 0 0 1 120.206-120.2L210-.001l.306.006 88.105 1.376a121.584 121.584 0 0 1 120.2 120.2zm-39.112 0l-1.374-87.8A82.654 82.654 0 0 0 297.8 40.484L210 39.113l-87.8 1.371a82.658 82.658 0 0 0-81.716 81.715l-1.371 87.8 1.371 87.8a82.655 82.655 0 0 0 81.716 81.715l87.8 1.371 87.8-1.371a82.651 82.651 0 0 0 81.714-81.715zm-63.048 0A107.841 107.841 0 1 1 210 102.158a107.962 107.962 0 0 1 107.84 107.841zm-39.107 0A68.734 68.734 0 1 0 210 278.733a68.812 68.812 0 0 0 68.732-68.734z"/></symbol><symbol viewBox="0 0 12 19" id="odnoklassniki"><title>odnoklassniki</title><g fill="#FFF" fill-rule="evenodd"><path d="M4.974 13.31c-1.531-.152-2.912-.513-4.094-1.397-.147-.11-.299-.217-.432-.34-.518-.475-.57-1.02-.16-1.58.35-.48.938-.609 1.549-.333.118.053.23.12.339.191 2.203 1.449 5.23 1.489 7.441.066.22-.161.454-.292.725-.359.528-.13 1.02.056 1.303.498.324.504.32.996-.079 1.388-.611.6-1.347 1.035-2.164 1.338-.773.287-1.62.431-2.457.527.126.132.186.196.265.272 1.137 1.094 2.28 2.182 3.414 3.279.386.374.467.837.254 1.272-.233.475-.753.787-1.264.754-.323-.022-.575-.176-.8-.392-.858-.826-1.732-1.637-2.573-2.479-.245-.245-.363-.198-.579.014-.863.85-1.74 1.688-2.624 2.52-.396.374-.868.442-1.328.228-.488-.226-.8-.704-.775-1.183.016-.325.183-.572.416-.795 1.126-1.075 2.248-2.153 3.371-3.23.074-.072.144-.148.252-.258z"/><path d="M5.907 9.565C3.175 9.556.935 7.39.95 4.772.966 2.125 3.208-.008 5.967 0c2.764.007 4.983 2.17 4.97 4.845-.015 2.612-2.27 4.73-5.03 4.72zM8.39 4.778c-.005-1.3-1.087-2.334-2.443-2.335-1.367-.002-2.46 1.052-2.449 2.363C3.508 6.101 4.6 7.13 5.96 7.124c1.355-.005 2.434-1.046 2.43-2.346z"/></g></symbol><symbol viewBox="0 0 24 14" id="vk"><title>vk</title><path d="M12.64 13.957c.77 0 .77-1.117.77-1.55 0-.776.772-1.552 1.544-1.552s2.095 1.33 3.087 2.327c.771.775.771.775 1.543.775h2.315s1.543-.059 1.543-1.55c0-.485-.529-1.307-2.315-3.102-1.543-1.551-2.335-.75 0-3.877 1.422-1.905 2.457-3.63 2.28-4.128-.17-.475-4.126-1.232-4.595-.525-1.543 2.327-1.826 2.896-2.315 3.877-.771 1.551-.848 2.326-1.543 2.326-.701 0-.772-1.505-.772-2.326 0-2.563.37-4.376-.771-4.652h-2.315C9.854 0 8.78.775 8.78.775s-.958.751-.772.776c.23.03 1.544-.321 1.544.775v1.55s.007 3.102-.772 3.102c-.772 0-2.315-3.101-3.858-5.427C4.317.638 4.15.775 3.38.775c-.827 0-1.543.033-2.315.033s-.87.494-.772.743c1.543 3.877 2.652 6.311 5.584 9.379 2.69 2.814 4.486 2.963 5.99 3.027.386.016 0 0 .772 0z" fill="#FFF" fill-rule="evenodd"/></symbol><symbol viewBox="0 0 127 43" id="ys-logo-web"><path d="M7 4v2.495a1.499 1.499 0 1 0 3 0V4h19v2.495a1.499 1.499 0 1 0 3 0V4h1.391A5.6 5.6 0 0 1 39 9.609V37.39A5.6 5.6 0 0 1 33.391 43H5.61A5.6 5.6 0 0 1 0 37.391V9.61A5.6 5.6 0 0 1 5.609 4H7zm4 11.5V17h5v-3h-3.5c-.826 0-1.5.672-1.5 1.5zm6-1.5v3h5v-3h-5zm6 0v3h5v-1.5c0-.834-.672-1.5-1.5-1.5H23zm-12 4v3h5v-3h-5zm12 0v3h5v-3h-5zm-12 4v3h5v-3h-5zm12 0v3h5v-3h-5zm0 4v3h5v-3h-5zm-12 4v1.5c0 .834.672 1.5 1.5 1.5H16v-3h-5zm3-4v3h5v-3h-5zm9 4v3h3.5c.826 0 1.5-.672 1.5-1.5V30h-5zm-6-8v3h5v-3h-5zM7 1.505a1.499 1.499 0 1 1 3 0v2.99a1.499 1.499 0 1 1-3 0v-2.99zm22 0a1.499 1.499 0 1 1 3 0v2.99a1.499 1.499 0 1 1-3 0v-2.99zm26.718 24.754h3.515v5.18c0 .838-.296 1.554-.888 2.146a2.924 2.924 0 0 1-2.146.888h-3.552a2.924 2.924 0 0 1-2.146-.888 2.924 2.924 0 0 1-.888-2.146v-14.8c0-.84.296-1.554.888-2.146a2.924 2.924 0 0 1 2.146-.888H56.2c.84 0 1.554.296 2.146.888.592.592.888 1.307.888 2.146v4.847h-3.515V17.49c0-.37-.123-.679-.37-.925a1.255 1.255 0 0 0-.925-.37c-.37 0-.678.123-.925.37-.246.246-.37.555-.37.925v13.098c0 .37.124.678.37.925.247.246.555.37.925.37s.679-.124.925-.37c.247-.247.37-.555.37-.925v-4.33zm11.039 1.147h3.515v4.033c0 .838-.296 1.554-.888 2.146a2.924 2.924 0 0 1-2.146.888h-3.552a2.924 2.924 0 0 1-2.146-.888 2.924 2.924 0 0 1-.888-2.146v-14.8c0-.84.296-1.554.888-2.146a2.924 2.924 0 0 1 2.146-.888h3.552c.838 0 1.554.296 2.146.888.592.592.888 1.307.888 2.146v7.659h-6.105v6.29c0 .37.123.678.37.925.246.246.555.37.925.37s.678-.124.925-.37c.246-.247.37-.555.37-.925v-3.182zm0-5.698V17.49c0-.37-.124-.679-.37-.925a1.255 1.255 0 0 0-.925-.37c-.37 0-.679.123-.925.37-.247.246-.37.555-.37.925v4.218h2.59zm8.633-1.665h-3.515v-3.404c0-.84.296-1.554.888-2.146a2.924 2.924 0 0 1 2.146-.888h3.552c.839 0 1.554.296 2.146.888.592.592.888 1.307.888 2.146v3.996c0 .468-.173.95-.518 1.443a3.607 3.607 0 0 1-1.295 1.147l-2.997 1.628c-.37.197-.678.505-.925.925-.247.419-.37.85-.37 1.295v3.515c0 .37.123.678.37.925.247.246.555.37.925.37s.678-.124.925-.37c.247-.247.37-.555.37-.925V27.22h3.515v4.218c0 .838-.296 1.554-.888 2.146a2.924 2.924 0 0 1-2.146.888H74.91a2.924 2.924 0 0 1-2.146-.888 2.924 2.924 0 0 1-.888-2.146v-5.44c0-.468.167-.943.5-1.424a3.61 3.61 0 0 1 1.24-1.128l3.07-1.665c.345-.198.648-.506.907-.925.259-.42.388-.851.388-1.295V17.49c0-.37-.123-.679-.37-.925a1.255 1.255 0 0 0-.925-.37c-.37 0-.678.123-.925.37-.247.246-.37.555-.37.925v2.553zm17.328-3.404v14.8c0 .838-.296 1.554-.888 2.146a2.924 2.924 0 0 1-2.146.888h-3.552a2.924 2.924 0 0 1-2.146-.888 2.924 2.924 0 0 1-.888-2.146v-14.8c0-.84.296-1.554.888-2.146a2.924 2.924 0 0 1 2.146-.888h3.552c.84 0 1.554.296 2.146.888.592.592.888 1.307.888 2.146zm-3.515 13.949V17.49c0-.37-.123-.679-.37-.925a1.255 1.255 0 0 0-.925-.37c-.37 0-.678.123-.925.37-.246.246-.37.555-.37.925v13.098c0 .37.124.678.37.925.247.246.555.37.925.37s.679-.124.925-.37c.247-.247.37-.555.37-.925zM100.427 13.9h3.515v22.31c0 .84-.296 1.555-.888 2.147a2.924 2.924 0 0 1-2.146.888h-5.735v-2.59h3.404c.518 0 .956-.18 1.313-.537.358-.358.537-.795.537-1.313v-1.813c-.222.419-.574.77-1.055 1.054a2.974 2.974 0 0 1-1.535.426c-.962 0-1.789-.346-2.48-1.036-.69-.691-1.035-1.517-1.035-2.48V17.12c0-.962.345-1.789 1.036-2.48.69-.69 1.517-1.035 2.479-1.035.641 0 1.196.16 1.665.48.37.247.678.58.925 1V13.9zm0 16.687V17.49c0-.37-.124-.679-.37-.925a1.255 1.255 0 0 0-.925-.37c-.37 0-.679.123-.925.37-.247.246-.37.555-.37.925v13.098c0 .37.123.678.37.925.246.246.555.37.925.37s.678-.124.925-.37c.246-.247.37-.555.37-.925zm5.118 3.589V13.9h3.515v8.288h2.59V13.9h3.515v20.276h-3.515v-9.398h-2.59v9.398h-3.515zm20.843 0h-3.515V25.74h-1.295c-.37 0-.678.123-.925.37-.246.246-.37.555-.37.925v7.14h-3.515v-7.214c0-.592.21-1.117.63-1.573.419-.456.937-.71 1.553-.758a2.95 2.95 0 0 1-1.572-1.018c-.407-.506-.61-1.054-.61-1.646v-5.032c0-.84.295-1.554.887-2.146a2.924 2.924 0 0 1 2.146-.888h6.586v20.276zm-3.515-11.026v-6.66h-1.295c-.37 0-.678.123-.925.37-.246.246-.37.555-.37.925v4.07c0 .37.124.678.37.925.247.246.555.37.925.37h1.295z"/></symbol></svg>