<svg xmlns="http://www.w3.org/2000/svg" width="131" height="128" viewBox="0 0 131 128">
  <g fill="none" fill-rule="evenodd">
    <path fill="#F3F6F8" d="M71,121 C101.927946,121 127,101.300529 127,77 C127,52.699471 101.927946,33 71,33 C40.072054,33 15,52.699471 15,77 C15,101.300529 40.072054,121 71,121 Z"/>
    <path fill="#1F447B" fill-rule="nonzero" d="M49.9323927,115.3258 C53.2343919,115.773274 56.5988953,116 60,116 C91.9344286,116 118,95.9853648 118,71 C118,46.0146352 91.9344286,26 60,26 C28.0655714,26 2,46.0146352 2,71 C2,84.4868991 9.65910531,96.9471829 22.6048117,105.417289 C23.5291194,106.022044 24.7686699,105.762996 25.3734252,104.838688 C25.9781805,103.91438 25.7191321,102.67483 24.7948243,102.070074 C12.9167581,94.2985032 6,83.0459135 6,71 C6,48.4888764 30.0785366,30 60,30 C89.9214634,30 114,48.4888764 114,71 C114,93.5111236 89.9214634,112 60,112 C56.7784748,112 53.59343,111.785367 50.4695475,111.362031 C49.3749829,111.213699 48.3674168,111.980773 48.2190856,113.075338 C48.0707544,114.169902 48.8378281,115.177468 49.9323927,115.3258 Z"/>
    <path fill="#70CFFE" fill-rule="nonzero" d="M23.3481983 121.640346L27.8953172 104.329398C28.1759383 103.26107 27.5373753 102.16753 26.4690469 101.886909 25.4007184 101.606288 24.3071788 102.244851 24.0265578 103.31318L18.2628859 125.255563C17.8116483 126.973431 19.656585 128.383281 21.1956155 127.496674L57.2385843 106.733002C58.1956951 106.181629 58.5246102 104.958761 57.9732368 104.00165 57.4218634 103.044539 56.1989953 102.715624 55.2418845 103.266998L23.3481983 121.640346zM35 69L81.5241873 69C82.6287568 69 83.5241873 68.1045695 83.5241873 67 83.5241873 65.8954305 82.6287568 65 81.5241873 65L35 65C33.8954305 65 33 65.8954305 33 67 33 68.1045695 33.8954305 69 35 69zM35 79L64.5200005 79C65.62457 79 66.5200005 78.1045695 66.5200005 77 66.5200005 75.8954305 65.62457 75 64.5200005 75L35 75C33.8954305 75 33 75.8954305 33 77 33 78.1045695 33.8954305 79 35 79z"/>
    <circle cx="121" cy="10" r="10" fill="#F3F7F9"/>
    <ellipse cx="4" cy="27" fill="#CED9EB" rx="4" ry="4"/>
    <ellipse cx="73" cy="77" fill="#70CFFE" rx="3" ry="3"/>
    <circle cx="35.5" cy="52.5" r="2.5" fill="#1F447B"/>
  </g>
</svg>
