<svg xmlns="http://www.w3.org/2000/svg" width="234" height="49" viewBox="0 0 234 49">
  <g fill="none">
    <path fill="#FFFFFF" d="M34.051,0 L14.422,0 C6.467,0 0,6.47 0,14.42 L0,34.05 C0,41.999 6.467,48.47 14.422,48.47 L34.05,48.47 C41.998,48.47 48.468,41.999 48.468,34.05 L48.468,14.42 C48.469,6.47 41.999,0 34.051,0 Z"/>
    <path fill="#E31836" d="M39.536,30.192 L39.518,30.408 C39.449,31.249 38.922,32.1 38.047,32.1 C37.378,32.1 36.84,31.852 36.401,31.344 C35.874,30.737 35.4,30.008 34.92,28.687 C36.279,24.074 40.472,9.297 40.472,9.297 L32.515,9.297 C32.515,9.297 31.78,12.762 31.117,15.914 C31.084,15.837 31.05,15.761 31.015,15.688 C30.352,14.271 29.293,12.696 28.117,11.589 C26.067,9.662 23.656,8.723 20.745,8.723 C16.727,8.723 13.328,10.209 10.642,13.141 C7.969,16.055 6.557,19.794 6.557,23.952 C6.557,28.583 7.898,32.387 10.542,35.253 C13.3,38.248 16.598,39.643 20.918,39.643 C23.435,39.643 25.837,38.895 28.064,37.422 C29.503,36.472 30.816,35.156 32.057,33.447 C32.578,35.134 33.103,36.287 33.731,37.15 C34.747,38.543 36.269,39.341 37.906,39.341 C39.61,39.341 41.162,38.468 41.959,37.065 C42.665,35.82 42.953,34.275 42.953,31.734 L42.953,30.192 L39.536,30.192 L39.536,30.192 Z M26.198,33.146 C24.992,34.912 23.417,35.844 21.643,35.844 C19.576,35.844 18.013,34.918 16.862,33.004 C15.655,31 15.044,27.997 15.044,24.076 C15.044,20.481 15.692,17.624 16.969,15.584 C18.169,13.669 19.673,12.775 21.701,12.775 C23.506,12.775 24.915,13.525 26.14,15.141 C27.453,16.875 28.563,19.74 29.358,23.423 C28.36,28.402 27.384,31.412 26.198,33.146 Z"/>
    <g fill="#FFFFFF" transform="translate(59 4)">
      <path d="M13.734 5.999C13.184 3.522 11.622 1.792 8.194 1.792 4.969 1.792 3.202 3.522 2.652 5.999L.163 17.211 2.824 17.211C3.431 17.211 4.035 16.727 4.165 16.134L4.668 13.853 11.719 13.853 12.223 16.134C12.353 16.726 12.956 17.211 13.563 17.211L16.225 17.211 13.734 5.999 13.734 5.999zM5.365 10.693L6.242 6.722C6.383 6.08 6.883 5.099 8.195 5.099 9.506 5.099 10.005 6.079 10.148 6.722L11.024 10.693 5.365 10.693zM22.784 5.537L28.72 5.537 28.72 17.211 32.394 17.211 32.394 2.156 21.313 2.156C20.102 2.156 19.108 3.148 19.108 4.361L19.108 11.969C19.108 12.987 18.639 13.635 17.824 13.798L17.071 13.978 17.753 17.212 18.452 17.212C20.966 17.212 22.784 15.341 22.784 12.159L22.784 5.537M64.331 2.156L62.992 2.156 62.992.406 60.42.406C59.813.406 59.317.899 59.317 1.507L59.317 2.156 57.978 2.156C53.436 2.156 50.597 5.252 50.597 9.683 50.597 14.115 53.436 17.211 57.978 17.211L59.317 17.211 59.317 19.036 61.889 19.036C62.496 19.036 62.992 18.54 62.992 17.936L62.992 17.211 64.331 17.211C68.873 17.211 71.711 14.115 71.711 9.683 71.711 5.252 68.873 2.156 64.331 2.156L64.331 2.156zM57.978 13.886C55.462 13.886 54.272 12.294 54.272 9.683 54.272 7.074 55.462 5.482 57.978 5.482L59.317 5.482 59.317 13.886 57.978 13.886zM64.331 13.886L62.992 13.886 62.992 5.482 64.331 5.482C66.848 5.482 68.034 7.074 68.034 9.683 68.034 12.294 66.847 13.886 64.331 13.886zM43.798 5.974L38.524 5.974 38.524 2.158 34.849 2.158 34.849 16.11C34.849 16.716 35.346 17.212 35.952 17.212L43.798 17.212C47.002 17.212 49.414 14.798 49.414 11.593 49.414 8.389 47.39 5.974 43.798 5.974L43.798 5.974zM43.798 13.832L38.524 13.832 38.524 9.354 43.798 9.354C44.694 9.354 45.74 10.156 45.74 11.592 45.74 13.027 44.694 13.832 43.798 13.832zM85.417 5.999C84.865 3.522 83.304 1.792 79.875 1.792 76.653 1.792 74.885 3.522 74.333 5.999L71.844 17.211 74.507 17.211C75.112 17.211 75.717 16.727 75.845 16.134L76.349 13.853 83.401 13.853 83.903 16.134C84.033 16.726 84.637 17.211 85.243 17.211L87.904 17.211 85.417 5.999 85.417 5.999zM77.048 10.693L77.921 6.722C78.066 6.08 78.565 5.099 79.875 5.099 81.187 5.099 81.684 6.079 81.829 6.722L82.704 10.693 77.048 10.693z"/>
    </g>
    <g fill="#FFFFFF" transform="translate(59 26)">
      <path d="M106.721 8.525C107.369 7.887 107.786 7.018 107.786 5.813 107.786 3.145 105.719 1.279 103.049 1.279L94.064 1.279C93.458 1.279 92.962 1.774 92.962 2.381L92.962 15.232C92.962 15.838 93.458 16.334 94.064 16.334L103.616 16.336C106.431 16.336 108.3 14.322 108.3 11.654 108.3 10.311 107.662 9.259 106.721 8.525L106.721 8.525zM103.045 4.404C103.534 4.404 104.202 4.952 104.202 5.888 104.202 6.831 103.534 7.312 103.045 7.371L96.563 7.371 96.563 4.403 103.045 4.403 103.045 4.404zM103.34 13.212L96.562 13.212 96.562 10.242 103.34 10.242C103.829 10.302 104.496 10.782 104.496 11.726 104.496 12.661 103.829 13.212 103.34 13.212zM82.445.933C77.902.933 74.726 4.168 74.726 8.807 74.726 13.444 77.901 16.682 82.445 16.682L83.703 16.682C88.247 16.682 91.422 13.444 91.422 8.807 91.422 4.168 88.248.933 83.703.933L82.445.933 82.445.933zM78.696 8.807C78.696 6.107 80.134 4.043 82.667 4.043L83.483 4.043C86.014 4.043 87.451 6.107 87.451 8.807 87.451 11.507 86.013 13.573 83.483 13.573L82.667 13.573C80.133 13.572 78.696 11.507 78.696 8.807zM13.86 1.279L14.344 3.556C14.473 4.163 15.075 4.658 15.681 4.658L19.107 4.658 19.107 16.333 22.783 16.333 22.783 4.659 26.102 4.659C26.707 4.659 27.308 4.164 27.436 3.557L27.92 1.28 13.86 1.28"/>
      <polyline points="137.656 1.279 137.656 7.257 130.506 7.257 130.506 1.279 126.83 1.279 126.83 16.334 130.506 16.334 130.506 10.486 137.656 10.486 137.656 16.334 141.332 16.334 141.332 1.279 137.656 1.279"/>
      <path d="M56.633 5.124C56.082 2.646 54.523.918 51.092.918 47.872.918 46.103 2.647 45.554 5.124L43.063 16.334 45.725 16.334C46.332 16.334 46.935 15.852 47.066 15.259L47.568 12.977 54.617 12.977 55.12 15.259C55.249 15.852 55.854 16.334 56.461 16.334L59.122 16.334 56.633 5.124 56.633 5.124zM48.266 9.816L49.141 5.845C49.283 5.204 49.782 4.222 51.094 4.222 52.406 4.222 52.905 5.204 53.048 5.847L53.923 9.815 48.266 9.815 48.266 9.816zM122.717 5.124C122.165 2.646 120.606.918 117.175.918 113.952.918 112.186 2.647 111.635 5.124L109.146 16.334 111.809 16.334C112.414 16.334 113.018 15.852 113.147 15.259L113.652 12.977 120.702 12.977 121.207 15.259C121.338 15.852 121.94 16.334 122.545 16.334L125.21 16.334 122.717 5.124 122.717 5.124zM114.346 9.816L115.223 5.845C115.368 5.204 115.865 4.222 117.175 4.222 118.485 4.222 118.986 5.204 119.129 5.847L120.004 9.815 114.346 9.815 114.346 9.816zM15.004 16.293L15.004 16.336 7.824 16.336C3.477 16.336.441 13.241.441 8.807.441 4.375 3.478 1.28 7.824 1.28L13.271 1.28 12.738 3.587C12.602 4.179 11.994 4.66 11.387 4.66L7.824 4.66C5.501 4.66 4.116 6.394 4.116 8.808 4.116 11.221 5.5 12.956 7.824 12.956L13.131 12.956C13.736 12.956 14.345 13.438 14.481 14.03L15.004 16.293M37.772 1.279L29.927 1.28C29.319 1.28 28.824 1.776 28.824 2.382L28.824 16.335 32.5 16.335 32.5 12.516 37.772 12.516C41.368 12.516 43.391 10.101 43.391 6.899 43.391 3.696 40.976 1.279 37.772 1.279L37.772 1.279zM37.772 9.137L32.5 9.137 32.5 4.663 37.772 4.663C38.669 4.663 39.716 5.464 39.716 6.9 39.716 8.334 38.669 9.137 37.772 9.137zM172.487 13.156L164.57 13.156 164.57 10.265 173.176 10.265 173.176 7.361 164.57 7.361 164.57 4.456 172.487 4.456C173.139 4.456 173.654 4.17 173.834 3.382L174.324 1.278 161.998 1.278C161.393 1.278 160.895 1.773 160.895 2.38L160.895 15.231C160.895 15.837 161.392 16.335 161.998 16.335L174.324 16.335 173.834 14.231C173.654 13.444 173.14 13.156 172.487 13.156M143.852 16.334L143.852 1.279 147.528 1.279 147.528 11.212 153.895 2.167C154.254 1.679 155.041 1.279 155.652 1.279L158.377 1.279 158.377 16.334 154.7 16.334 154.7 6.402 148.331 15.446C147.974 15.934 147.185 16.334 146.577 16.334L143.852 16.334M70.209 8.727L75.339 1.28 71.963 1.28C71.234 1.28 70.721 1.502 70.27 2.209L67.537 6.501 67.048 6.501 64.313 2.209C63.864 1.501 63.352 1.28 62.619 1.28L59.134 1.28 64.374 8.886 59.244 16.334 62.619 16.334C63.351 16.334 63.864 16.114 64.313 15.405L67.048 11.112 67.537 11.112 70.27 15.405C70.721 16.114 71.234 16.334 71.963 16.334L75.448 16.334 70.209 8.727"/>
    </g>
  </g>
</svg>
