<?xml version="1.0" encoding="utf-8"?>
<!-- Generator: Adobe Illustrator 21.1.0, SVG Export Plug-In . SVG Version: 6.00 Build 0)  -->
<svg version="1.1"  xmlns="http://www.w3.org/2000/svg" xmlns:xlink="http://www.w3.org/1999/xlink" x="0px" y="0px"
	 viewBox="0 0 365 367" style="enable-background:new 0 0 365 367;" xml:space="preserve">
<g>
	<path d="M0,183c0.5-0.4,1.1-0.8,1.5-1.2c3.4-3.8,7.5-4.9,12.2-3.1c4.8,1.9,6.4,5.9,6.4,10.8c-0.1,33.2-0.1,66.3,0,99.5
		c0,16.8,6.5,30.8,19.1,41.8c10.1,8.7,21.9,13.2,35.2,13.2c71.7,0.1,143.3,0.1,215,0c30.4,0,54.6-24.4,54.6-54.8c0.1-71,0-142,0-213
		c0-33-23.5-56.7-56.7-56.8c-32.2-0.2-64.3,0-96.5-0.1c-8.8,0-14.1-6.6-11-13.8c0.9-2,2.7-3.7,4.1-5.5c40,0,80,0,120,0
		c0.8,0.3,1.5,0.7,2.3,0.9C341.8,9.7,365,39.2,365,75.7c0,71.6,0.1,143.2,0,214.9c-0.1,38.5-29.5,70.6-67.7,74.6
		c-1.5,0.2-2.8,1.2-4.2,1.8c-74,0-148,0-222,0c-1.4-0.6-2.8-1.7-4.2-1.8C36.6,362,11,341,2.2,312c-0.7-2.3-1.5-4.7-2.2-7
		C0,264.3,0,223.7,0,183z"/>
	<path d="M196.7,183.5c0-1.8,0-3.5,0-5.3c0-22,0-44,0-66c0-5.1,1.5-9.2,6.6-11.1c6.7-2.5,13.6,2.1,13.7,9.4c0.1,33.3,0.1,66.6,0,100
		c0,6.2-4,9.9-10.1,9.9c-32.5,0-65,0-97.5,0c-7.4,0-11.6-3.8-11.7-10c0-6.5,4.3-10.2,12-10.3c1,0,2,0,3,0c21.2,0,42.3,0,63.5,0
		c1.6,0,3.2,0,5.8,0c-1.9-2.1-3.1-3.4-4.4-4.6C126.4,144.2,75.3,93.1,24.2,42c-1.4-1.4-2.9-2.8-4.1-4.4c-3-4.2-2.4-9.7,1.2-13.3
		c3.6-3.6,9-4.1,13.2-1.1c1.6,1.2,3,2.7,4.4,4.1C89.8,78.2,140.7,129.1,191.5,180c1.3,1.3,2.2,2.9,3.3,4.4
		C195.4,184.1,196,183.8,196.7,183.5z"/>
</g>
</svg>
