<svg width="50" height="35" viewBox="0 0 50 35" fill="none" xmlns="http://www.w3.org/2000/svg">
<g clip-path="url(#clip0)">
<path d="M47 5V17H35" stroke="white" stroke-width="5" stroke-linecap="round" stroke-linejoin="round"/>
<path d="M3 37V25H15" stroke="white" stroke-width="5" stroke-linecap="round" stroke-linejoin="round"/>
<path d="M8.02 14.9984C9.03434 12.1312 10.7583 9.5678 13.0309 7.5473C15.3036 5.5268 18.0509 4.11509 21.0166 3.4439C23.9822 2.77271 27.0695 2.86391 29.9904 3.709C32.9113 4.55409 35.5705 6.12552 37.72 8.27666L47 16.9989M3 25.0011L12.28 33.7233C14.4295 35.8745 17.0887 37.4459 20.0096 38.291C22.9305 39.1361 26.0178 39.2273 28.9834 38.5561C31.9491 37.8849 34.6964 36.4732 36.9691 34.4527C39.2417 32.4322 40.9657 29.8688 41.98 27.0016" stroke="white" stroke-width="5" stroke-linecap="round" stroke-linejoin="round"/>
</g>
<defs>
<clipPath id="clip0">
<rect width="50" height="35" fill="white"/>
</clipPath>
</defs>
</svg>
