<?xml version="1.0" encoding="utf-8"?>
<!-- Generator: Adobe Illustrator 21.1.0, SVG Export Plug-In . SVG Version: 6.00 Build 0)  -->
<svg version="1.1" id="Слой_1" xmlns="http://www.w3.org/2000/svg" xmlns:xlink="http://www.w3.org/1999/xlink" x="0px" y="0px"
	 viewBox="0 0 366.1 366" style="enable-background:new 0 0 366.1 366;" xml:space="preserve">
<g>
	<path d="M299,0c6.7,1.9,13.6,3.2,20,5.8c28.5,11.5,46.8,38.8,47,69.4c0.1,14.3,0,28.7,0,43c0,7.4-3.7,11.8-9.8,11.9
		c-6.3,0.1-10.4-4.4-10.5-11.9c-0.1-13.3,0-26.7,0-40C345.5,44.5,322,21,288.3,21c-70,0-140,0-210,0c-32.9,0-56.6,23.4-56.6,56.2
		c-0.1,70.5-0.1,141,0,211.5c0,32.8,23.7,56.3,56.5,56.3c70.3,0,140.7,0,211,0c32.4,0,56.2-23.7,56.4-56c0.1-13.3,0-26.7,0-40
		c0-8,3.9-12.7,10.3-12.6c6.1,0.1,10.1,5,10,12.4c-0.2,17.3,0.8,34.8-1.1,51.9c-3.7,33.4-30.1,59.3-63.2,64.4
		c-0.9,0.1-1.8,0.6-2.8,0.9c-77.3,0-154.7,0-232,0c-0.9-0.3-1.8-0.7-2.8-0.9c-31.8-6-52.4-24.6-61.7-55.5c-1-3.5-1.7-7-2.5-10.6
		c0-77.3,0-154.7,0-232c0.3-0.9,0.8-1.8,0.9-2.8c4.5-30.1,26.6-54.6,56-62C60.2,1.4,63.6,0.8,67,0C144.3,0,221.7,0,299,0z"/>
	<path d="M108.5,195.6c1.5,1.1,3.1,1.9,4.4,3.2c15.6,15.5,31.2,31.1,46.7,46.6c5.3,5.3,5.7,11.4,1.4,15.9
		c-4.4,4.6-10.5,4.4-15.9-0.9c-22.9-22.8-45.8-45.7-68.6-68.6c-5.6-5.6-5.6-11.4,0-17c22.8-22.9,45.7-45.7,68.6-68.6
		c5.4-5.4,11.7-5.7,16.3-1.1c4.5,4.6,4,10.8-1.5,16.3c-15.5,15.6-31.1,31.1-46.6,46.7c-1.3,1.3-2.5,2.6-4.6,4.8c3,0,4.9,0,6.8,0
		c78.2,0,156.3,0,234.5,0c1.5,0,3,0,4.5,0c6.6,0.1,10.3,3.3,10.4,8.9c0.2,6.9-3.6,11.5-10,12c-1.7,0.1-3.3,0.1-5,0.1
		c-78.2,0-156.3,0-234.5,0c-2,0-3.9,0-5.9,0C109.2,194.4,108.9,195,108.5,195.6z"/>
</g>
</svg>
