<?xml version="1.0" encoding="utf-8"?>
<svg version="1.1" xmlns="http://www.w3.org/2000/svg" xmlns:xlink="http://www.w3.org/1999/xlink" x="0px" y="0px" viewBox="0 0 1000 1000" enable-background="new 0 0 1000 1000" xml:space="preserve">

<g fill="#51A2D1"><g transform="translate(0.000000,512.000000) scale(0.100000,-0.100000)"><path d="M4530.1,5007.9C3375.4,4889,2341.7,4400,1530.4,3588.6C751.6,2809.9,287.5,1860.5,124.4,723.1c-32.6-226.3-32.6-982,0-1208.3c163-1137.4,629.1-2086.8,1405.9-2865.5c776.8-776.8,1730-1244.8,2865.5-1405.9c226.3-32.6,982-32.6,1208.3,0c939.8,134.3,1779.9,491,2474.2,1053c987.8,797.9,1611.1,1916.1,1797.2,3218.4c32.6,226.3,32.6,982,0,1208.3c-161.1,1135.5-629.1,2088.7-1405.9,2865.5c-759.5,759.5-1687.8,1223.7-2779.2,1392.5C5448.8,5017.5,4775.6,5034.8,4530.1,5007.9z M5989.7,1563.2c535.1-546.6,1085.6-1106.7,1221.8-1244.8l245.5-249.3L7071.4-303L6684-675.1L6112.4-92L5539,493V-920.6L5537-2336h-537h-537L4461-920.6V493L3887.6-92L3316-675.1L2951.6-326C2752.1-134.2,2579.5,34.6,2568,48c-17.3,19.2,260.8,310.7,1196.8,1265.9c669.4,682.8,1225.6,1240.9,1233.3,1240.9C5007.7,2554.8,5452.7,2107.9,5989.7,1563.2z"/></g></g>
</svg>