<?xml version="1.0" encoding="utf-8"?>
<!-- Generator: Adobe Illustrator 21.1.0, SVG Export Plug-In . SVG Version: 6.00 Build 0)  -->
<svg version="1.1" id="Слой_1" xmlns="http://www.w3.org/2000/svg" xmlns:xlink="http://www.w3.org/1999/xlink" x="0px" y="0px"
	 viewBox="0 0 235 228.4" style="enable-background:new 0 0 235 228.4;" xml:space="preserve">
<g>
	<path d="M-42,72.4c-5.4,8.8-15.1,11.3-23.5,15.5c-64.6,31.6-129.2,63.1-193.8,94.6c-1.9,0.9-3.8,2-5.6,3c-1,0-2,0-3,0
		c-3-2.3-6-4.7-9-7c0-2.3,0-4.7,0-7c0.4-0.7,0.8-1.4,1.1-2.2c10.3-31.7,20.7-63.4,30.9-95.2c0.6-2,0.5-4.6-0.2-6.6
		c-5.3-17-10.7-33.9-16.2-50.7c-5.1-15.8-10.4-31.5-15.5-47.2c0-2,0-4,0-6c5.9-7.3,9-8,17.5-3.8C-190.7-6.9-121.8,26.6-53.1,60.4
		c4.2,2,7.4,6,11.1,9C-42,70.4-42,71.4-42,72.4z M-54.9,75.3c-0.1-0.3-0.1-0.6-0.2-0.9c-4.8,0-9.6,0-14.5,0
		c-54.1,0-108.3,0.1-162.4-0.1c-4.3,0-6,1.4-7.1,5.3c-2.2,7.8-5,15.5-7.5,23.3c-7.5,23.3-15.1,46.5-22.5,69.8
		c-0.4,1.4-0.5,3.8,0.2,4.4c1,0.8,3,0.3,4.6,0.1c0.9-0.1,1.8-0.8,2.7-1.3c67.2-32.6,134.3-65.3,201.5-97.9
		C-58.4,77.1-56.6,76.2-54.9,75.3z M-55.3,67.6c0-0.3,0-0.7,0.1-1c-0.6-0.3-1.1-0.7-1.7-1C-125.6,32.3-194.3-1.1-263-34.4
		c-1.7-0.8-4-0.4-6-0.5c0,1.9-0.4,3.9,0.2,5.6c9.8,30.6,19.9,61,29.6,91.6c1.4,4.3,3.2,5.5,7.6,5.5c57.1-0.2,114.3-0.1,171.4-0.1
		C-58.6,67.6-56.9,67.6-55.3,67.6z"/>
</g>
</svg>
