<?xml version="1.0" encoding="utf-8"?>
<!-- Generator: Adobe Illustrator 22.0.1, SVG Export Plug-In . SVG Version: 6.00 Build 0)  -->
<svg version="1.1" id="Layer_1" xmlns="http://www.w3.org/2000/svg" xmlns:xlink="http://www.w3.org/1999/xlink" x="0px" y="0px"
	 viewBox="0 0 100 50" style="enable-background:new 0 0 100 50;" xml:space="preserve">
<style type="text/css">
	.st0{fill:#F4481E;}
	.st1{fill:#FFD119;}
	.st2{fill:#FF8C00;}
	.st3{fill:#FAFAFA;}
	.st4{fill:#757575;}
	.st5{fill:#FF5722;}
</style>
<path class="st0" d="M28.093,23.17L3.241,9.04C2.18,8.444,1.23,8.5,0.652,9.059c-0.416,0.391-0.623,1.024-0.623,1.845v28.193
	c0,0.819,0.243,1.455,0.623,1.845c0.596,0.578,1.527,0.623,2.589,0.019l24.851-14.13C29.88,25.836,29.88,24.194,28.093,23.17z"/>
<path class="st1" d="M25.633,28.254c0.301-1.054,0.451-2.145,0.447-3.241c0.001-6.585-5.336-11.924-11.921-11.925
	C7.574,13.087,2.235,18.424,2.234,25.009c-0.001,5.396,3.622,10.119,8.833,11.518L25.633,28.254z"/>
<circle class="st2" cx="14.159" cy="25.013" r="7.451"/>
<path class="st3" d="M14.159,21.102v4.584c-0.265-0.156-0.567-0.24-0.875-0.243c-0.957,0-1.733,0.776-1.733,1.733
	c0,0.957,0.776,1.733,1.733,1.733c0.972,0.007,1.774-0.761,1.808-1.733v-4.212h1.677v-1.87h-2.61V21.102z"/>
<path class="st4" d="M38.322,17.661c0-2.649,2.257-4.808,4.906-4.808c1.229-0.014,2.412,0.463,3.287,1.326l-0.933,0.933
	c-0.631-0.609-1.477-0.945-2.354-0.933c-1.951,0-3.532,1.582-3.532,3.532s1.582,3.532,3.532,3.532c1.276,0,1.962-0.49,2.454-0.981
	c0.425-0.456,0.684-1.041,0.736-1.662h-3.144v-1.326h4.415c0.042,0.275,0.059,0.553,0.05,0.831c0,0.981-0.295,2.209-1.128,3.092
	s-1.914,1.373-3.385,1.373C40.527,22.544,38.346,20.361,38.322,17.661L38.322,17.661z M51.324,16.277
	c-1.707,0.026-3.07,1.432-3.044,3.139c0.026,1.707,1.432,3.07,3.139,3.044c1.689-0.026,3.044-1.402,3.044-3.091
	c0.001-1.706-1.381-3.091-3.087-3.092C51.359,16.277,51.341,16.277,51.324,16.277z M51.324,21.281
	c-1.001-0.026-1.792-0.859-1.766-1.86c0-0.003,0-0.007,0-0.01c-0.048-0.983,0.71-1.82,1.693-1.868
	c0.024-0.001,0.049-0.002,0.073-0.002c1.002,0.026,1.792,0.859,1.766,1.86c0,0.003,0,0.007,0,0.01
	c-0.05,1.095-0.833,1.88-1.766,1.88V21.281z M58.095,16.277c-1.707,0.026-3.07,1.432-3.044,3.139
	c0.026,1.707,1.432,3.07,3.139,3.044c1.689-0.026,3.044-1.402,3.044-3.091c0.001-1.706-1.381-3.091-3.087-3.092
	C58.13,16.277,58.113,16.277,58.095,16.277z M58.095,21.281c-1.002-0.026-1.792-0.859-1.766-1.86c0-0.003,0-0.007,0-0.01
	c-0.048-0.983,0.71-1.82,1.693-1.868c0.024-0.001,0.049-0.002,0.073-0.002c1.036,0,1.875,0.84,1.875,1.875
	c0,1.036-0.84,1.875-1.875,1.875l0,0V21.281z M66.484,16.485v0.49h-0.05c-0.417-0.451-1.005-0.704-1.619-0.698
	c-1.571,0-2.992,1.373-2.992,3.14c-0.02,1.677,1.315,3.058,2.992,3.094c0.612,0.009,1.2-0.241,1.619-0.688h0.05v0.443
	c0,1.178-0.638,1.816-1.662,1.816c-0.709-0.007-1.338-0.458-1.571-1.128l-1.178,0.49c0.452,1.115,1.544,1.837,2.747,1.816
	c1.619,0,2.944-0.933,2.944-3.237v-5.538H66.484z M64.913,21.293c-0.933,0-1.716-0.785-1.716-1.87s0.785-1.914,1.716-1.914
	s1.662,0.785,1.662,1.914c-0.042,1.083-0.729,1.868-1.66,1.868L64.913,21.293z M68.691,13.19h1.373v9.126h-1.373v-9.12V13.19z
	 M73.794,21.293c-0.649,0.026-1.25-0.342-1.521-0.933l4.17-1.716l-0.148-0.343c-0.245-0.688-1.039-1.962-2.649-1.962
	c-1.61,0-2.944,1.272-2.944,3.088c-0.036,1.667,1.286,3.048,2.953,3.084c0.046,0.001,0.092,0.001,0.139,0
	c1.04-0.002,2.012-0.515,2.599-1.373l-1.078-0.688c-0.328,0.524-0.903,0.842-1.521,0.842V21.293z M73.696,17.516
	c0.477-0.008,0.924,0.234,1.178,0.638l-2.797,1.178c-0.075-0.926,0.615-1.739,1.541-1.814c0.026-0.002,0.051-0.004,0.077-0.004
	L73.696,17.516z"/>
<path class="st5" d="M38.225,28.647h1.078l2.944,5.151h0.05l2.944-5.151h1.078v8.438h-1.078v-5.004l0.05-1.423h-0.05l-2.649,4.611
	h-0.638l-2.649-4.611h-0.05l0.05,1.423v5.004h-1.08V28.647z M51.766,37.085V36.3h-0.05c-0.295,0.54-1.039,0.981-1.816,0.981
	c-1.471,0-2.209-0.981-2.209-2.404v-3.532h1.078v3.337c0,1.178,0.588,1.619,1.423,1.619c0.933,0,1.521-0.883,1.521-1.766v-3.187
	h1.078v5.741h-1.039L51.766,37.085z M53.532,35.614l0.981-0.393c0.233,0.663,0.868,1.099,1.571,1.078
	c0.688,0,1.178-0.343,1.178-0.831c0-0.295-0.195-0.588-0.785-0.785l-1.178-0.295c-0.54-0.148-1.521-0.588-1.521-1.619
	c0-1.031,1.078-1.716,2.306-1.716c0.981,0,1.87,0.443,2.209,1.326l-0.933,0.393c-0.236-0.512-0.764-0.824-1.326-0.785
	c-0.588,0-1.128,0.295-1.128,0.736c0,0.343,0.295,0.588,0.785,0.688l1.128,0.295c1.128,0.295,1.571,0.981,1.571,1.662
	c0,1.039-0.933,1.816-2.257,1.816c-1.471,0.098-2.257-0.736-2.599-1.571L53.532,35.614z M58.979,29.335
	c0-0.434,0.352-0.785,0.785-0.785s0.785,0.352,0.785,0.785s-0.352,0.785-0.785,0.785l0,0C59.342,30.092,59.007,29.756,58.979,29.335
	z M59.174,37.087v-5.791h1.078v5.789h-1.078V37.087z M61.185,34.193c0-1.766,1.226-3.092,2.944-3.092
	c1.373,0,2.159,0.831,2.552,1.662L65.7,33.156c-0.251-0.671-0.903-1.105-1.619-1.078c-0.933,0-1.816,0.831-1.816,2.061
	c0,1.23,0.883,2.061,1.816,2.061c0.726,0.028,1.392-0.404,1.662-1.078l0.981,0.393c-0.42,1.032-1.438,1.695-2.552,1.662
	c-1.766,0.098-2.992-1.226-2.992-2.992L61.185,34.193z"/>
<path class="st4" d="M82.479,13.196h-3.287v9.126h1.373v-3.485h1.914c1.521,0,2.992-1.078,2.992-2.845S83.95,13.196,82.479,13.196
	L82.479,13.196z M82.479,17.611h-1.962v-3.14h1.962c0.878-0.016,1.602,0.682,1.619,1.56c0,0.004,0,0.007,0,0.011
	C84.07,16.917,83.354,17.611,82.479,17.611z M87.583,22.322v-9.126h-1.373v9.126H87.583z M93.714,22.322v-3.485
	c0-1.619-1.226-2.552-2.797-2.552c-0.981,0-2.011,0.443-2.454,1.423l1.226,0.49c0.24-0.449,0.718-0.717,1.226-0.688
	c0.688,0,1.423,0.443,1.423,1.178v0.098c-0.439-0.231-0.928-0.348-1.423-0.343c-1.326,0-2.649,0.736-2.649,2.061
	c0,1.226,1.078,2.011,2.257,2.011c0.933,0,1.423-0.393,1.716-0.883h0.05v0.688h1.423H93.714z M90.77,21.283
	c-0.443,0-1.078-0.245-1.078-0.785c0-0.688,0.785-0.981,1.423-0.981c0.426-0.002,0.847,0.099,1.226,0.295
	c-0.043,0.834-0.736,1.486-1.571,1.479V21.283z M98.473,16.485l-1.571,3.975h-0.05l-1.619-3.975h-1.467l2.454,5.544l-1.373,3.092
	h1.413l3.74-8.636h-1.521H98.473z"/>
</svg>
