<svg id="Слой_1" data-name="Слой 1" xmlns="http://www.w3.org/2000/svg" xmlns:xlink="http://www.w3.org/1999/xlink" viewBox="0 0 928 928"><defs><clipPath id="clip-path"><rect class="cls-1" width="928" height="928"/></clipPath></defs><title>11</title><g class="cls-2"><path class="cls-3" d="M880.1,532.17A351.84,351.84,0,0,0,925.54,396.1c0-.15,0-.31.05-.46A357.43,357.43,0,0,0,928,354.42a353.07,353.07,0,0,0-93-239.09,18.12,18.12,0,0,0-3.24-3.48A355.4,355.4,0,0,0,695.22,21.51a16.88,16.88,0,0,0-2.92-1A354.31,354.31,0,0,0,442.1,25.3a17.69,17.69,0,0,0-3.19,1.31,355.77,355.77,0,0,0-129.79,92.13,18.6,18.6,0,0,0-3.07,3.45,353.73,353.73,0,0,0-84.69,271.6c0,.16,0,.32,0,.47A351.59,351.59,0,0,0,236,462.35L45.6,652.74a18.13,18.13,0,1,0,25.63,25.64l179-179a354.08,354.08,0,0,0,16.57,32.27,17.55,17.55,0,0,0,2.07,3.49A356,356,0,0,0,471.61,693.87L343.93,821.54a18.13,18.13,0,0,0,25.64,25.64L513.09,703.65a354.83,354.83,0,0,0,60.49,5.19c129.1,0,242.29-69.4,304.26-172.85a18.13,18.13,0,0,0,2.26-3.82Zm-156.82.72-64.49-99.24,34.29-105.52,81.5-18.31,21.21-4.75,92.65,95.15a315.54,315.54,0,0,1-36.72,108.55ZM488.37,433.65l-64.46,99.19L295.08,508.12a315.87,315.87,0,0,1-36.59-109.5L351.27,305l102.81,23.09,22.85,70.32ZM309.76,176.75l16.35,102.18L255.46,350.2A316.36,316.36,0,0,1,309.76,176.75ZM521.45,418.16l-32-98.54,83.82-60.89,83.81,60.9-32,98.53Zm370.27-66.54-71-72.93,12.55-107.93A316.41,316.41,0,0,1,891.72,351.62ZM801.23,132.38l-16,137.92-39,8.75-63.13,14.17-91-66.13V129l98.37-70.5A319.25,319.25,0,0,1,801.23,132.38ZM647.17,44.86,572.81,98.15,489.92,47.44a318.55,318.55,0,0,1,157.25-2.58ZM445.93,63l109.19,66.81v97.27l-64.2,46.65-26.81,19.48L361.42,270.17l-21.1-131.88A319.67,319.67,0,0,1,445.93,63ZM323.11,550.41l97.79,18.77,49.81,86.34a319.48,319.48,0,0,1-147.6-105.11ZM519.78,668,453.71,553.51l64.4-99.1H629l64.4,99.1L627.39,668a318.68,318.68,0,0,1-107.61,0Zm156.67-12.5,49.78-86.3,97.42-18.31a319.39,319.39,0,0,1-147.2,104.61Z"/><path class="cls-3" d="M249.62,652.74,5.31,897.06a18.12,18.12,0,1,0,25.63,25.63L275.26,678.38a18.13,18.13,0,1,0-25.64-25.64Z"/><path class="cls-3" d="M301.14,871.83A18.13,18.13,0,1,0,314,877.14,18.24,18.24,0,0,0,301.14,871.83Z"/></g></svg>