<svg id="Слой_1" data-name="Слой 1" xmlns="http://www.w3.org/2000/svg" viewBox="0 0 956 956"><defs></defs><title>6</title><path class="cls-1" d="M573.64,334.37a15.93,15.93,0,0,0,15.94,15.94H749a15.94,15.94,0,0,0,0-31.88H589.58A15.93,15.93,0,0,0,573.64,334.37Z"/><path class="cls-1" d="M669.28,430A15.94,15.94,0,0,0,685.22,446h95.63a15.94,15.94,0,0,0,0-31.88H685.22A15.93,15.93,0,0,0,669.28,430Z"/><path class="cls-1" d="M653.34,254.67a15.94,15.94,0,0,0,0-31.88H621.46a15.94,15.94,0,0,0,0,31.88Z"/><path class="cls-1" d="M462.06,414.06a15.94,15.94,0,0,0,0,31.88h159.4a15.94,15.94,0,0,0,0-31.88Z"/><path class="cls-1" d="M541.76,860.38H238.9a47.88,47.88,0,0,1-47.81-47.82V79.33a15.94,15.94,0,0,0-15.94-15.94,79.79,79.79,0,0,0-79.7,79.7,15.94,15.94,0,0,0,31.88,0A47.89,47.89,0,0,1,159.21,98V812.56a79.79,79.79,0,0,0,79.69,79.7H541.76a15.94,15.94,0,1,0,0-31.88Z"/><path class="cls-1" d="M302.66,350.31H525.82a15.94,15.94,0,0,0,0-31.88H302.66a15.94,15.94,0,0,0,0,31.88Z"/><path class="cls-1" d="M302.66,254.67h63.76a15.94,15.94,0,0,0,0-31.88H302.66a15.94,15.94,0,0,0,0,31.88Z"/><path class="cls-1" d="M557.7,222.79H430.18a15.94,15.94,0,0,0,0,31.88H557.7a15.94,15.94,0,0,0,0-31.88Z"/><path class="cls-1" d="M780.85,0H175.15C96.23,0,32,64.06,31.69,142.9v.75A144,144,0,0,0,103.4,267.34a15.94,15.94,0,0,0,16-27.58A111.37,111.37,0,0,1,175.15,31.88h605.7A111.71,111.71,0,0,1,892.43,143.46V812.92a46.36,46.36,0,0,1-6.52,23.44,15.94,15.94,0,1,0,27.48,16.16,78.19,78.19,0,0,0,10.92-39.6V143.46C924.31,64.35,860,0,780.85,0Z"/><path class="cls-1" d="M828.67,732.86A95.64,95.64,0,1,0,733,828.5,95.73,95.73,0,0,0,828.67,732.86ZM733,796.62a63.76,63.76,0,1,1,63.75-63.76A63.82,63.82,0,0,1,733,796.62Z"/><path class="cls-1" d="M704.26,844.45a16,16,0,0,0-21.77,5.84l-34.32,59.47-5.45-8.23a15.87,15.87,0,0,0-12.34-7.12l-9.85-.59,34.89-60.41a15.94,15.94,0,0,0-27.62-15.94L580,900.21a15.95,15.95,0,0,0,12.86,23.88l27.63,1.65,15.25,23.1a15.92,15.92,0,0,0,13.3,7.16h.49a16,16,0,0,0,13.33-8l47.22-81.81A15.93,15.93,0,0,0,704.26,844.45Z"/><path class="cls-1" d="M838.68,818.22a15.94,15.94,0,0,0-27.62,15.94l34.48,59.66-9.85.59a16,16,0,0,0-12.36,7.12l-5.42,8.23-34.14-59.17a15.94,15.94,0,1,0-27.62,15.94L803.2,948a16,16,0,0,0,13.33,8H817a16,16,0,0,0,13.31-7.16l15.24-23.08,27.61-1.67A15.94,15.94,0,0,0,886,900.21Z"/><path class="cls-1" d="M302.66,446H398.3a15.94,15.94,0,0,0,0-31.88H302.66a15.94,15.94,0,0,0,0,31.88Z"/><path class="cls-1" d="M302.66,541.58H493.94a15.94,15.94,0,0,0,0-31.88H302.66a15.94,15.94,0,1,0,0,31.88Z"/><path class="cls-1" d="M304.35,740a15.93,15.93,0,1,0,28.5-14.25c-15.78-31.56-19.32-59.87-9.5-75.76,5.23-8.46,14.35-12.75,27.13-12.75,7.6,0,10.44,2.61,12.23,5.17,11.87,17.11.59,69.25-11.22,100.81a15.94,15.94,0,0,0,26.2,16.87c6.81-6.79,14.19-13.57,20.61-19.07v7.8a15.95,15.95,0,0,0,27.21,11.27,199.42,199.42,0,0,1,22.84-19.53c-.19.4-.38.78-.57,1.15a16,16,0,0,0,14.28,23h63.76a15.94,15.94,0,0,0,0-31.88H484.33c1.29-7.59,1-15.3-2.87-21.52-4.07-6.58-11.14-10.36-19.4-10.36-9.85,0-21.44,6-32,13.42a18.4,18.4,0,0,0-11.18-15.25c-4.25-1.76-9.74-4-23,3.94,5.24-27.47,6.77-59.12-6.91-78.86-6-8.62-17.48-18.89-38.43-18.89-23.87,0-43.15,9.9-54.25,27.88C280.33,659,283.28,697.86,304.35,740Z"/><path class="cls-1" d="M733,525.64A15.94,15.94,0,0,0,717.1,509.7H557.7a15.94,15.94,0,0,0,0,31.88H717.1A15.94,15.94,0,0,0,733,525.64Z"/></svg>