<svg id="Слой_1" data-name="Слой 1" xmlns="http://www.w3.org/2000/svg" viewBox="0 0 935 935"><defs></defs><title>8</title><path class="cls-1" d="M901.29,136.09c-5.59-49.58-31.43-84.44-67.41-91C794.72,38,756.76,53.65,731.05,68.68V19.48A19.48,19.48,0,0,0,711.57,0H223.43A19.48,19.48,0,0,0,204,19.48V68.69c-25.71-15-63.67-30.69-102.83-23.57-36,6.53-61.82,41.39-67.41,91-10.4,92.2,46.15,220.3,194.31,287A264.3,264.3,0,0,0,364.39,555.33V672h-97a19.48,19.48,0,0,0-19.48,19.48v224A19.48,19.48,0,0,0,267.38,935H667.61a19.48,19.48,0,0,0,19.48-19.48v-224A19.48,19.48,0,0,0,667.61,672h-97V555.33A264.3,264.3,0,0,0,707,423.05C855.14,356.4,911.69,228.29,901.29,136.09ZM105.18,269.47c-25.34-41.88-37.28-88.91-32.76-129,3.59-31.82,17.26-53.67,35.66-57,39.08-7.1,80.22,20.15,95.87,32V313a264.26,264.26,0,0,0,6.25,57.12C165.46,344.08,129.6,309.82,105.18,269.47ZM648.14,711V896H286.86V711H648.14Zm44-398c0,93.8-59.33,178.49-147.64,210.76a19.48,19.48,0,0,0-12.8,18.3V672H403.35V542.09a19.5,19.5,0,0,0-12.8-18.3c-88.31-32.27-147.64-117-147.64-210.76V39H692.09Zm137.73-43.56c-24.42,40.35-60.28,74.62-105,100.68A264.26,264.26,0,0,0,731.05,313V115.48c15.7-11.78,57.11-39.06,95.87-32,18.4,3.34,32.07,25.19,35.66,57C867.1,180.56,855.16,227.58,829.82,269.47Z"/></svg>