<?xml version="1.0" encoding="utf-8"?>
<!-- Generator: Adobe Illustrator 22.1.0, SVG Export Plug-In . SVG Version: 6.00 Build 0)  -->
<svg version="1.1" id="Слой_1" xmlns="http://www.w3.org/2000/svg" xmlns:xlink="http://www.w3.org/1999/xlink" x="0px" y="0px"
	 viewBox="0 0 1038 1038" style="enable-background:new 0 0 1038 1038;" xml:space="preserve">
<g>
	<g>
		<path class="st0" d="M202.9,175.1c-4.3-17.1-21.7-27.4-38.8-23.1c-17.1,4.3-27.4,21.7-23.1,38.8l208.6,823.1
			c3.7,14.5,16.7,24.1,30.9,24.1c2.6,0,5.2-0.3,7.9-1c17.1-4.3,27.4-21.7,23.1-38.8L202.9,175.1z"/>
		<path class="st0" d="M897.2,406.9c-34-125.5-68-251.1-102-376.6c-3.7-13.6-10.1-28.2-34.4-29.6C569.6-13.1,444,177.3,252.8,163.4
			c-15.1-1.9-24.8,6-21.1,19.6c34,125.5,67.8,251.1,102,376.6c5.5,20.1,19.3,27.8,34.4,29.6C559.4,603.1,685,412.7,876.2,426.5
			C891.2,428.4,900.9,420.5,897.2,406.9z M747.2,48.1c9.4,34.6,18.8,69.3,28.1,103.9c-40.2,1.3-75.7,9.4-113.3,23.5
			c-9.4-34.6-18.8-69.3-28.1-103.9C671.5,57.6,707,49.4,747.2,48.1z M353.2,436.4c-10.7-39.3-21.3-78.7-32-118.1
			c42.3-1.2,79.8-10.4,119-25.9c-9.4-34.6-18.8-69.3-28.2-103.9c38.4-17.1,74.5-37.7,110.8-58.9c9.4,34.6,18.8,69.3,28.2,103.9
			c-36.2,21.2-72.4,41.7-110.8,58.9c10.7,39.4,21.3,78.7,32,118.1C433,426,395.5,435.2,353.2,436.4z M500.8,515.9
			c-9.5-35.1-19-70.3-28.6-105.4c38.1-17,74-37.4,110-58.4c9.5,35.1,19,70.3,28.6,105.4C574.8,478.6,538.9,498.9,500.8,515.9z
			 M583,351.6c-10.7-39.4-21.3-78.7-32-118.1c36.2-21.2,72.4-41.4,111-58c10.7,39.4,21.3,78.7,32,118.1
			C655.5,310.2,619.2,330.5,583,351.6z M723.2,398.8c-9.5-35.1-19-70.3-28.6-105.4c37.4-13.9,72.7-22,112.7-23.3
			c9.5,35.1,19,70.3,28.6,105.4C796,376.8,760.6,384.8,723.2,398.8z"/>
	</g>
</g>
</svg>
