<svg id="Слой_1" data-name="Слой 1" xmlns="http://www.w3.org/2000/svg" viewBox="0 0 1020 1020"><defs></defs><title>3</title><path class="cls-1" d="M956.25,286.25H754.54c14.48-9.88,26.91-19.7,35.58-28.5,51.38-51.7,51.38-135.85,0-187.55-49.92-50.23-137-50.3-187,0-27.61,27.73-101,140.63-90.85,216.05H507.7c10.08-75.42-63.24-188.32-90.84-216-50-50.3-137.06-50.23-187,0-51.38,51.7-51.38,135.85-.06,187.55,8.73,8.8,21.16,18.62,35.63,28.5H63.75A63.85,63.85,0,0,0,0,350V509.37a31.89,31.89,0,0,0,31.88,31.88H63.75v382.5A63.85,63.85,0,0,0,127.5,987.5h765a63.85,63.85,0,0,0,63.75-63.75V541.25h31.88A31.89,31.89,0,0,0,1020,509.37V350A63.85,63.85,0,0,0,956.25,286.25ZM275.08,115.14a68,68,0,0,1,96.58,0c43,43.23,85.68,153.64,70.83,169,0,0-2.68,2.1-11.79,2.1-44.06,0-128.14-45.77-155.62-73.44A69.54,69.54,0,0,1,275.08,115.14ZM478.13,923.75H127.5V541.25H478.13Zm0-446.25H63.75V350H478.13ZM648.34,115.14c25.88-25.94,70.76-25.88,96.58,0a69.54,69.54,0,0,1,0,97.67c-27.48,27.67-111.56,73.44-155.62,73.44-9.11,0-11.79-2-11.85-2.1C562.66,268.78,605.37,158.37,648.34,115.14ZM892.5,923.75H541.88V541.25H892.5ZM956.25,477.5H541.88V350H956.25Z"/></svg>