<?xml version="1.0" encoding="utf-8"?>
<!-- Generator: Adobe Illustrator 22.1.0, SVG Export Plug-In . SVG Version: 6.00 Build 0)  -->
<svg version="1.1" id="Слой_1" xmlns="http://www.w3.org/2000/svg" xmlns:xlink="http://www.w3.org/1999/xlink" x="0px" y="0px"
	 viewBox="0 0 898 898" style="enable-background:new 0 0 898 898;" xml:space="preserve">
<g>
	<g>
		<path class="st0" d="M678.5,157.2c5.2,5.2,13.7,5.2,18.9,0l50.9-50.9c5.2-5.2,5.2-13.7,0-18.9L664.6,3.9c-5.2-5.2-13.7-5.2-18.9,0
			l-107,107l-25.4-25.4c-5.2-5.2-13.7-5.2-18.9,0l-157,157c-5.2,5.2-5.2,13.7,0,18.9c3.6,3.6,6.8,7.5,9.6,11.7l-57.5-7.2
			c-4.1-0.5-8.2,0.9-11.1,3.8l-39.8,39.8c-3.8,3.8-5,9.6-2.9,14.5c2.1,5,6.9,8.2,12.3,8.2h48.6l50,25c-1.3,2-2.8,3.9-4.3,5.8
			c-1.7-2.3-3.5-4.5-5.6-6.5c-9.5-9.4-22.2-14.4-35.5-14.2c-26.2,0.4-47.6,21.3-48.6,47.5l-5.1,129.7c-1.9,49,11.9,97.7,39.2,138.4
			L246.3,722c-3.9,6.2-2.1,14.5,4.1,18.4c2.2,1.4,4.7,2.1,7.1,2.1c4.4,0,8.7-2.2,11.3-6.2l45.3-71.7c2.9-4.6,2.7-10.6-0.5-15
			c-27.2-37.2-41.2-83-39.3-129.1l5.1-129.7c0.5-12.1,10.3-21.7,22.4-21.9c6.1-0.1,12,2.2,16.3,6.5c4.4,4.3,6.8,10.1,6.8,16.2v71.6
			c0,24.5,14.1,45.6,36.7,55c22.7,9.4,47.5,4.4,64.8-12.9l169.9-169.9c8.8-8.8,23.1-8.8,31.9,0c8.8,8.8,8.8,23.1,0,31.9l-140,140
			c-5.2,5.2-5.2,13.7,0,18.9c5.2,5.2,13.7,5.2,18.9,0l73.9-73.9c8.8-8.8,23.1-8.8,31.9,0c8.8,8.8,8.8,23.1,0,31.9l-65.6,65.6
			c-5.2,5.2-5.2,13.7,0,18.9c2.6,2.6,6,3.9,9.4,3.9c3.4,0,6.8-1.3,9.4-3.9l57.9-57.9c8.8-8.8,23.1-8.8,31.9,0
			c8.8,8.8,8.8,23.1,0,31.9l-68.5,68.5c-5.2,5.2-5.2,13.7,0,18.9c2.6,2.6,6,3.9,9.4,3.9c3.4,0,6.8-1.3,9.4-3.9l33.7-33.7
			c0,0,0,0,0,0c4.3-4.3,9.9-6.6,16-6.6c6,0,11.7,2.3,16,6.6c8.8,8.8,8.8,23.1,0,31.9L576.6,724c-34.1,34.1-79.4,55.7-127.4,60.7
			c-4,0.4-7.6,2.6-9.8,6l-56.7,86.7c-4,6.2-2.3,14.4,3.9,18.5c2.3,1.5,4.8,2.2,7.3,2.2c4.3,0,8.6-2.1,11.2-6l53.3-81.4
			c51.7-6.8,100.2-30.7,137.1-67.6l95.5-95.5c19.2-19.2,19.2-50.5,0-69.7c-5.6-5.6-12.4-9.7-19.8-12.1l3.9-3.9
			c19.2-19.2,19.2-50.5,0-69.7c-8.3-8.3-18.8-13-29.6-14.1c0.6-3.1,0.9-6.3,0.9-9.6c0-13.2-5.1-25.5-14.4-34.8
			c-5.6-5.6-12.4-9.7-19.8-12.1l35.1-35.1c19.2-19.2,19.2-50.5,0-69.7c-5.8-5.8-12.6-9.8-19.9-12.1l43.1-43.1
			c2.5-2.5,3.9-5.9,3.9-9.4c0-3.5-1.4-6.9-3.9-9.4l-29.2-29.2l20.6-20.6c5.2-5.2,5.2-13.7,0-18.9c-5.2-5.2-13.7-5.2-18.9,0
			l-20.6,20.6l-10.2-10.2l97.6-97.6L720,96.9l-41.4,41.4C673.3,143.6,673.3,152,678.5,157.2z M305.9,307c-1.8-0.9-3.9-1.4-6-1.4
			h-19.6l12.4-12.4l65.7,8.2c0.8,4.4,1.2,9,1.2,13.6c0,6.1-0.7,12.1-2.1,17.8L305.9,307z M642.2,252L407.7,486.5
			c-11.4,11.4-26,11.2-35.8,7.1c-9.8-4.1-20.3-14.2-20.3-30.3v-71.6c0-0.5,0-0.9,0-1.4c1.7-0.6,3.3-1.7,4.7-3
			c19.3-19.3,30-45,30-72.4c0-22.9-7.4-44.6-21.2-62.4l138.7-138.7L642.2,252z M593.3,165.4l-35.7-35.7l97.6-97.6l35.7,35.7
			L593.3,165.4z"/>
		<path class="st0" d="M607.9,237.8l-91.6-91.6c-5.2-5.2-13.7-5.2-18.9,0L390,253.7c-5.2,5.2-5.2,13.7,0,18.9l91.6,91.6
			c2.5,2.5,5.9,3.9,9.4,3.9c3.5,0,6.9-1.4,9.4-3.9l107.5-107.5c2.5-2.5,3.9-5.9,3.9-9.4C611.8,243.7,610.4,240.3,607.9,237.8z
			 M491,335.9L480.1,325l39-39c5.2-5.2,5.2-13.7,0-18.9c-5.2-5.2-13.7-5.2-18.9,0l-39,39l-18.5-18.5l39-39c5.2-5.2,5.2-13.7,0-18.9
			c-5.2-5.2-13.7-5.2-18.9,0l-39,39l-5.6-5.6l88.6-88.6l72.7,72.7L491,335.9z"/>
		<path class="st0" d="M242.2,753.4c-6.2-3.9-14.5-2.1-18.4,4.1l-75.9,119.9c-3.9,6.2-2.1,14.5,4.1,18.4c2.2,1.4,4.7,2.1,7.1,2.1
			c4.4,0,8.7-2.2,11.3-6.2l75.9-119.9C250.3,765.6,248.4,757.4,242.2,753.4z"/>
	</g>
</g>
</svg>
