<svg id="Слой_1" data-name="Слой 1" xmlns="http://www.w3.org/2000/svg" viewBox="0 0 996 996"><defs></defs><title>5</title><path class="cls-1" d="M980.46,579.61l-50.69-50.69a53.18,53.18,0,0,0-75.08,0L581,802.67,543.24,941,534,950.25a17.75,17.75,0,0,0-.11,25l-.09.36.34-.09a17.72,17.72,0,0,0,25-.09l9.25-9.25,138.34-37.72L980.47,654.7A53.13,53.13,0,0,0,980.46,579.61ZM622,811.91,804.21,629.75l75.47,75.45L697.5,887.38ZM606,846.15l57.27,57.27-78.76,21.49Zm349.34-216.6-50.5,50.5L829.34,604.6l50.5-50.49a17.56,17.56,0,0,1,24.79,0l50.69,50.69A17.52,17.52,0,0,1,955.31,629.55Z"/><path class="cls-1" d="M480.22,228.82a17.79,17.79,0,0,0,0,35.57H800.37a17.79,17.79,0,1,0,0-35.57Z"/><path class="cls-1" d="M818.16,495.61a17.78,17.78,0,0,0-17.79-17.79H480.22a17.79,17.79,0,0,0,0,35.57H800.37A17.79,17.79,0,0,0,818.16,495.61Z"/><path class="cls-1" d="M366,144.17A17.76,17.76,0,0,0,341,146.09L229.83,275.72l-68-51a17.78,17.78,0,1,0-21.34,28.44l81.3,61A17.78,17.78,0,0,0,246,311.5L368,169.22A17.77,17.77,0,0,0,366,144.17Z"/><path class="cls-1" d="M366,393.18A17.74,17.74,0,0,0,341,395.1L229.83,524.72l-68-51a17.78,17.78,0,1,0-21.34,28.44l81.3,61A17.81,17.81,0,0,0,246,560.51L368,418.22A17.76,17.76,0,0,0,366,393.18Z"/><path class="cls-1" d="M340.94,661.89,229.81,791.5l-68-51A17.78,17.78,0,1,0,140.51,769l81.3,61A17.78,17.78,0,0,0,246,827.28L368,685a17.78,17.78,0,1,0-27-23.12Z"/><path class="cls-1" d="M444.65,940.26H216.56c-99.8,0-181-81.2-181-181V231.93c0-99.8,81.19-181,181-181H743.88c99.8,0,181,81.17,181,181v210.3a17.79,17.79,0,0,0,35.58,0V231.93c0-119.42-97.15-216.56-216.57-216.56H216.56C97.15,15.38,0,112.51,0,231.93V759.25C0,878.67,97.15,975.81,216.56,975.81H444.65a17.78,17.78,0,1,0,0-35.55Z"/></svg>