<svg id="Слой_1" data-name="Слой 1" xmlns="http://www.w3.org/2000/svg" viewBox="0 0 482 482"><defs></defs><title>01orange</title><path class="cls-1" d="M283.89,173.73h25.57a6,6,0,1,0,0-12H283.89a6,6,0,0,0,0,12Z"/><path class="cls-1" d="M171.25,173.73H261a6,6,0,1,0,0-12H171.25a6,6,0,0,0,0,12Z"/><path class="cls-1" d="M109.71,173.73h38.15a6,6,0,0,0,0-12H109.71a6,6,0,0,0,0,12Z"/><path class="cls-1" d="M246.72,214.54H140.46a6,6,0,0,0,0,12H246.72a6,6,0,0,0,0-12Z"/><path class="cls-1" d="M109.71,226.53h11.12a6,6,0,0,0,0-12H109.71a6,6,0,0,0,0,12Z"/><path class="cls-1" d="M109.71,282.62h71.17a6,6,0,0,0,0-12H109.71a6,6,0,0,0,0,12Z"/><path class="cls-1" d="M138.48,322.47H109.71a6,6,0,0,0,0,12h28.77a6,6,0,0,0,0-12Z"/><path class="cls-1" d="M457,132.74a25.61,25.61,0,0,0-35.42-7.33l-6.51,4.28h0l-11.46,7.54V49.08A25.62,25.62,0,0,0,378,23.5H246.81a41.23,41.23,0,0,0-74.45,0H41.16A25.62,25.62,0,0,0,15.58,49.08V456.43A25.62,25.62,0,0,0,41.16,482H378a25.61,25.61,0,0,0,25.58-25.57V211.14l51.9-34.1a25.61,25.61,0,0,0,7.33-35.42ZM234.54,307.87l-7.09-10.79L430.29,163.8l7.09,10.79Zm111.64,51.94H314.65a25.6,25.6,0,0,0-25.57,25.58v30.69H76.79a3.8,3.8,0,0,1-3.8-3.8V93.22a3.81,3.81,0,0,1,3.8-3.8h26.93v16.45a6,6,0,0,0,6,6H309.46a6,6,0,0,0,6-6V89.42h26.92a3.8,3.8,0,0,1,3.8,3.8V175l-144,94.61-.27.2a.83.83,0,0,0-.16.12c-.18.14-.36.3-.53.46h0a5.7,5.7,0,0,0-.46.52,1.13,1.13,0,0,1-.1.13,3.94,3.94,0,0,0-.31.48l-.06.08-27.23,46.91L165,323.79a6,6,0,0,0,6.58,10l8.1-5.31,53.86-6.37.09,0,.29-.05.51-.11a2.09,2.09,0,0,0,.3-.11c.17-.05.33-.11.48-.17l.3-.14c.15-.08.3-.16.44-.25l.18-.1,110.07-72.32Zm-8.23,12-36.89,36.89v-23.3a13.61,13.61,0,0,1,13.59-13.59ZM222.48,311.35l-33.73,4L205.8,286l8.34,12.7Zm-1.61-24.28-7.09-10.79,187.16-123h0L416.63,143l7.09,10.79ZM378,35.49A13.6,13.6,0,0,1,391.6,49.08v96l-33.43,22V93.22a15.83,15.83,0,0,0-15.79-15.79H315.46V58.87a6,6,0,0,0-6-6H250.83V41.25a42.56,42.56,0,0,0-.41-5.76ZM209.59,12a29.29,29.29,0,0,1,29.26,29.26V58.87a6,6,0,0,0,6,6h58.64v35H115.7v-35h58.63a6,6,0,0,0,6-6V41.25A29.29,29.29,0,0,1,209.59,12Zm182,444.44A13.62,13.62,0,0,1,378,470H41.16a13.62,13.62,0,0,1-13.59-13.59V49.08A13.6,13.6,0,0,1,41.16,35.49H168.75a41,41,0,0,0-.41,5.76V52.88H109.71a6,6,0,0,0-6,6V77.43H76.79A15.81,15.81,0,0,0,61,93.22V412.29a15.8,15.8,0,0,0,15.78,15.78H291.28a18.9,18.9,0,0,0,2.37-.18,5.64,5.64,0,0,0,1.42.18,6,6,0,0,0,4.51-2.06,17.87,17.87,0,0,0,4.24-3.14L353,373.73a17.65,17.65,0,0,0,5.19-12.54V241l33.44-22ZM448.9,167l-1.5,1-20.75-31.59,1.5-1A13.58,13.58,0,0,1,447,139.33l5.83,8.87A13.61,13.61,0,0,1,448.9,167Z"/></svg>