<svg id="Слой_1" data-name="Слой 1" xmlns="http://www.w3.org/2000/svg" viewBox="0 0 944 944"><defs></defs><title>7</title><path class="cls-1" d="M851.81,81.12H763.93V55.31a55.32,55.32,0,0,0-110.63,0V81.12H343.55V55.31a55.31,55.31,0,1,0-110.62,0v26.5a18.16,18.16,0,0,0-4.92-.69H154.55a92.3,92.3,0,0,0-92.19,92.19V487.36a18.44,18.44,0,1,0,36.88,0V271H763.93a18.44,18.44,0,0,0,0-36.87H99.24V173.31A55.37,55.37,0,0,1,154.55,118H228a18.55,18.55,0,0,0,4.92-.68v23.73a55.31,55.31,0,1,0,110.62,0V118H653.3v23.05a55.32,55.32,0,0,0,110.63,0V118h87.88a55.38,55.38,0,0,1,55.32,55.31V873.93a33.2,33.2,0,0,1-66.4,0v-47.7a18.45,18.45,0,0,0-18.44-18.44H607.82a18.44,18.44,0,0,0,0,36.88h196v29.26a69.62,69.62,0,0,0,8.38,33.19H70.06a33.21,33.21,0,0,1-33.18-33.18V844.67H449.55a18.44,18.44,0,0,0,0-36.88H265.33A150.84,150.84,0,0,0,318,693.25c0-83.36-67.82-151.19-151.19-151.19S15.63,609.89,15.63,693.25A150.84,150.84,0,0,0,68.31,807.79H18.44A18.45,18.45,0,0,0,0,826.23v47.71A70.14,70.14,0,0,0,70.06,944H873.93A70.15,70.15,0,0,0,944,873.93V173.31A92.29,92.29,0,0,0,851.81,81.12ZM306.68,141.05a18.44,18.44,0,0,1-36.88,0V55.31a18.44,18.44,0,0,1,36.88,0Zm420.37,0a18.44,18.44,0,0,1-36.87,0V55.31a18.44,18.44,0,1,1,36.87,0ZM52.51,693.25A114.31,114.31,0,1,1,166.82,807.56,114.44,114.44,0,0,1,52.51,693.25Z"/><path class="cls-1" d="M863.45,239.56a18.43,18.43,0,1,0,5.4,13A18.58,18.58,0,0,0,863.45,239.56Z"/><path class="cls-1" d="M550.63,813.19a18.43,18.43,0,1,0,5.41,13A18.53,18.53,0,0,0,550.63,813.19Z"/><path class="cls-1" d="M417.14,560.5a70.06,70.06,0,1,0,70.06,70.06A70.14,70.14,0,0,0,417.14,560.5Zm0,103.25a33.19,33.19,0,1,1,33.19-33.19A33.23,33.23,0,0,1,417.14,663.75Z"/><path class="cls-1" d="M589.22,560.5a70.06,70.06,0,1,0,70.06,70.06A70.14,70.14,0,0,0,589.22,560.5Zm0,103.25a33.19,33.19,0,1,1,33.19-33.19A33.23,33.23,0,0,1,589.22,663.75Z"/><path class="cls-1" d="M761.31,560.5a70.06,70.06,0,1,0,70.06,70.06A70.14,70.14,0,0,0,761.31,560.5Zm0,103.25a33.19,33.19,0,1,1,33.18-33.19A33.23,33.23,0,0,1,761.31,663.75Z"/><path class="cls-1" d="M245.06,368.75a70.06,70.06,0,1,0,70.06,70.06A70.14,70.14,0,0,0,245.06,368.75Zm0,103.25a33.19,33.19,0,1,1,33.18-33.19A33.23,33.23,0,0,1,245.06,472Z"/><path class="cls-1" d="M589.22,368.75a70.06,70.06,0,1,0,70.06,70.06A70.14,70.14,0,0,0,589.22,368.75Zm0,103.25a33.19,33.19,0,1,1,33.19-33.19A33.23,33.23,0,0,1,589.22,472Z"/><path class="cls-1" d="M761.31,368.75a70.06,70.06,0,1,0,70.06,70.06A70.14,70.14,0,0,0,761.31,368.75Zm0,103.25a33.19,33.19,0,1,1,33.18-33.19A33.23,33.23,0,0,1,761.31,472Z"/><path class="cls-1" d="M417.14,368.75a70.06,70.06,0,1,0,70.06,70.06A70.14,70.14,0,0,0,417.14,368.75Zm0,103.25a33.19,33.19,0,1,1,33.19-33.19A33.23,33.23,0,0,1,417.14,472Z"/><path class="cls-1" d="M232.5,648.32a18.43,18.43,0,0,0-26.07,0l-60.05,60-20.52-20.52a18.44,18.44,0,0,0-26.07,26.08l33.56,33.55a18.43,18.43,0,0,0,26.07,0l73.08-73.08A18.43,18.43,0,0,0,232.5,648.32Z"/></svg>