<svg id="Слой_1" data-name="Слой 1" xmlns="http://www.w3.org/2000/svg" viewBox="0 0 973 973"><defs></defs><title>9</title><path class="cls-1" d="M193.06,239.39c-72.39,0-131.28,58.89-131.28,131.28s58.89,131.27,131.28,131.27a15.44,15.44,0,0,0,0-30.88A100.48,100.48,0,1,1,279,422.58a15.45,15.45,0,0,0,26.42,16,130.94,130.94,0,0,0,19-67.94C324.33,298.28,265.44,239.39,193.06,239.39Z"/><path class="cls-1" d="M193.06,177.61C86.6,177.61,0,264.22,0,370.67,0,467.07,72,549.34,167.5,562a14.36,14.36,0,0,0,2.06.14,15.44,15.44,0,0,0,2-30.75C91.36,520.75,30.88,451.65,30.88,370.66c0-89.42,72.76-162.17,162.17-162.17s162.16,72.75,162.16,162.17A161.6,161.6,0,0,1,347.55,420,15.44,15.44,0,1,0,377,429.43a192.26,192.26,0,0,0,9.15-58.76C386.11,264.22,299.51,177.61,193.06,177.61Z"/><path class="cls-1" d="M486.5,177.61a192.15,192.15,0,0,0-151.17,73.11,15.44,15.44,0,1,0,24.18,19.22,161.42,161.42,0,0,1,127-61.44c89.41,0,162.17,72.74,162.17,162.17a161.25,161.25,0,0,1-6.88,46.75,15.45,15.45,0,1,0,29.58,8.92,192.27,192.27,0,0,0,8.19-55.67C679.56,264.22,593,177.61,486.5,177.61Z"/><path class="cls-1" d="M486.5,239.39c-72.39,0-131.28,58.89-131.28,131.28a130.35,130.35,0,0,0,9.65,49.4,15.45,15.45,0,1,0,28.61-11.65,100.41,100.41,0,1,1,179,14.1,15.44,15.44,0,0,0,26.41,16,131,131,0,0,0,18.93-67.87C617.78,298.28,558.89,239.39,486.5,239.39Z"/><path class="cls-1" d="M347.5,409.28c-106.45,0-193.06,86.6-193.06,193.05S241.05,795.39,347.5,795.39s193.06-86.6,193.06-193.06S454,409.28,347.5,409.28Zm0,355.22c-89.42,0-162.17-72.74-162.17-162.17S258.08,440.17,347.5,440.17s162.17,72.74,162.17,162.16S436.92,764.5,347.5,764.5Z"/><path class="cls-1" d="M347.5,471.06c-72.39,0-131.28,58.89-131.28,131.27S275.11,733.61,347.5,733.61s131.28-58.89,131.28-131.28S419.89,471.06,347.5,471.06Zm0,231.66A100.39,100.39,0,1,1,447.89,602.33,100.5,100.5,0,0,1,347.5,702.72Z"/><path class="cls-1" d="M911.22,370.67c0-72.39-58.89-131.28-131.27-131.28S648.67,298.28,648.67,370.67A131.18,131.18,0,0,0,663.9,432a15.44,15.44,0,1,0,27.28-14.47,100.38,100.38,0,1,1,99,53,15.44,15.44,0,0,0,1.54,30.81c.51,0,1,0,1.56-.08A130.87,130.87,0,0,0,911.22,370.67Z"/><path class="cls-1" d="M779.94,177.61a193,193,0,0,0-160,85.18,15.44,15.44,0,1,0,25.59,17.29,162.18,162.18,0,0,1,134.43-71.59c89.42,0,162.17,72.75,162.17,162.17,0,75.36-53.37,141.94-126.9,158.31a15.45,15.45,0,0,0,3.33,30.53,15.69,15.69,0,0,0,3.38-.37C909.45,539.63,973,460.38,973,370.67,973,264.22,886.4,177.61,779.94,177.61Z"/><path class="cls-1" d="M640.94,409.28c-60.59,0-116.51,27.71-153.45,76A15.45,15.45,0,0,0,512,504.06a161.11,161.11,0,0,1,128.9-63.9c89.42,0,162.17,72.75,162.17,162.17S730.36,764.49,640.94,764.49A162.35,162.35,0,0,1,507.26,694a15.44,15.44,0,1,0-25.44,17.51A193.24,193.24,0,0,0,641,795.39C747.4,795.39,834,708.78,834,602.33S747.4,409.28,640.94,409.28Z"/><path class="cls-1" d="M640.94,733.61c72.39,0,131.28-58.89,131.28-131.28S713.33,471.06,640.94,471.06,509.67,530,509.67,602.33,568.56,733.61,640.94,733.61Zm0-231.67A100.39,100.39,0,1,1,540.55,602.33,100.51,100.51,0,0,1,640.94,501.94Z"/></svg>