<svg id="Слой_1" data-name="Слой 1" xmlns="http://www.w3.org/2000/svg" viewBox="0 0 1016 1016"><defs></defs><title>4</title><path class="cls-1" d="M956.49,248.29c21.32-14.3,38.34-38.31,46.22-67.73a19.85,19.85,0,0,0-14-24.31l-126.81-34a19.86,19.86,0,0,0-24.3,14C829.68,165.74,832.76,195,844,218A152.51,152.51,0,0,0,716.64,329.6,351.14,351.14,0,0,1,377.9,589.8a352,352,0,0,1-91.08-12,152,152,0,0,0-160.19,54.43c-1.14-1.69-2.32-3.37-3.59-5C108,607.55,85.23,592.88,59,585.84a19.83,19.83,0,0,0-24.3,14l-34,126.8a19.85,19.85,0,0,0,14,24.31,129.12,129.12,0,0,0,33.35,4.45,109.76,109.76,0,0,0,48.4-10.74c7.87,59.19,50.36,110.83,111.54,127.22a653.34,653.34,0,0,0,497.39-65.49c151.63-87.55,260.09-228.89,305.41-398C1027.18,347.28,1003.75,284.71,956.49,248.29ZM100.33,685.42c-4.86,18.14-25.87,30.32-52.27,30.32-1.11,0-2.23,0-3.35-.07L67.3,631.39a73.25,73.25,0,0,1,24.26,19.93C100.12,662.47,103.24,674.58,100.33,685.42Zm772.59-519.1,84.16,22.55C946.31,209.2,928.61,223,911.28,223a31.86,31.86,0,0,1-8.15-1.06C883.78,216.74,871.93,193.27,872.92,166.32Zm99.54,231.82C929.89,557,828,689.8,685.54,772.05a613.59,613.59,0,0,1-467.27,61.53,112.58,112.58,0,1,1,58.28-217.49,389.48,389.48,0,0,0,296.42-39A388.08,388.08,0,0,0,755,339.87a112.42,112.42,0,0,1,137.87-79.61h0A112.72,112.72,0,0,1,972.46,398.14Z"/><path class="cls-1" d="M269.42,644.25l-.24-.06a19.84,19.84,0,1,0-10.57,38.25l.22.07a20.18,20.18,0,0,0,5.29.72,19.85,19.85,0,0,0,5.3-39Z"/><path class="cls-1" d="M915,420.62a19.84,19.84,0,0,0-25.57,11.57A547.72,547.72,0,0,1,850,514.94a19.84,19.84,0,1,0,34.27,20,587.64,587.64,0,0,0,42.24-88.76A19.84,19.84,0,0,0,915,420.62Z"/><path class="cls-1" d="M930.3,366.42A19.93,19.93,0,0,0,906,380.53l-.07.24a19.85,19.85,0,0,0,38.38,10.12l.1-.37A19.76,19.76,0,0,0,930.3,366.42Z"/><path class="cls-1" d="M463.11,670.43a19.87,19.87,0,0,0-22.6-16.65c-8.58,1.3-17.31,2.35-25.93,3.11a420.08,420.08,0,0,1-92-2,19.84,19.84,0,0,0-5.24,39.34,459.17,459.17,0,0,0,60.55,4q20.13,0,40.18-1.76c9.45-.83,19-2,28.39-3.39A19.87,19.87,0,0,0,463.11,670.43Z"/></svg>