<svg id="Capa_1" data-name="Capa 1" xmlns="http://www.w3.org/2000/svg" viewBox="0 0 512 512"><defs></defs><title>02orange</title><path class="cls-1" d="M150.45,312a15.27,15.27,0,0,1,20.42,6.42l28.24,52.29a10,10,0,0,0,18.8-4.76V289.6a10,10,0,0,0-20,0v36.79l-9.44-17.48A35.36,35.36,0,0,0,123,334l18.31,75.88A137.09,137.09,0,0,0,164,458.82l35.87,49.08A10,10,0,0,0,216,496.1L180.12,447a117.1,117.1,0,0,1-19.38-41.82l-18.3-75.89A15.29,15.29,0,0,1,150.45,312Z"/><path class="cls-1" d="M376.23,269.38a33.83,33.83,0,0,0-16.3,4.16A34,34,0,0,0,311,256.31a34,34,0,0,0-45-16.83V191.66a34,34,0,0,0-68.09,0V209a10,10,0,0,0,20,0V191.67a14,14,0,1,1,28.09,0v141.1a10,10,0,0,0,20,0V270.48a14,14,0,1,1,28.09,0v62.29a10,10,0,0,0,20,0V285.71a14,14,0,1,1,28.09,0v47.06a10,10,0,0,0,20,0V303.42a14,14,0,0,1,28.09,0V387.8A221,221,0,0,1,380.13,454L366,499a10,10,0,0,0,6.55,12.54,10.13,10.13,0,0,0,3,.46,10,10,0,0,0,9.54-7l14.1-45a240.86,240.86,0,0,0,11.06-72.2V303.42A34.08,34.08,0,0,0,376.23,269.38Z"/><path class="cls-1" d="M511.16,53a16.73,16.73,0,0,0-13.59-11.46l-30.63-4.44L453.23,9.38A16.71,16.71,0,0,0,438.14,0h0A16.74,16.74,0,0,0,423,9.39L409.35,37.15l-30.63,4.46a16.83,16.83,0,0,0-9.32,28.71l22.17,21.6-5.22,30.51a16.82,16.82,0,0,0,24.43,17.74l27.39-14.41,27.4,14.4A16.84,16.84,0,0,0,490,122.4l-5.24-30.5L506.9,70.29A16.71,16.71,0,0,0,511.16,53ZM469.59,78.74a16.84,16.84,0,0,0-4.83,14.9l4.43,25.83L446,107.28a16.83,16.83,0,0,0-15.67,0l-23.19,12.2,4.42-25.82a16.8,16.8,0,0,0-4.84-14.9L388,60.47l25.93-3.77a16.82,16.82,0,0,0,12.67-9.22L438.14,24l11.6,23.49a16.85,16.85,0,0,0,12.68,9.21l25.93,3.76Z"/><path class="cls-1" d="M329,53a16.74,16.74,0,0,0-13.59-11.46l-30.63-4.44L271.08,9.38A16.71,16.71,0,0,0,256,0h0a16.72,16.72,0,0,0-15.09,9.39L227.2,37.15l-30.63,4.46a16.83,16.83,0,0,0-9.32,28.71l22.17,21.6-5.23,30.51a16.82,16.82,0,0,0,24.44,17.74L256,125.76l27.4,14.39a16.83,16.83,0,0,0,24.42-17.75L302.6,91.9l22.15-21.61A16.71,16.71,0,0,0,329,53ZM287.44,78.74a16.84,16.84,0,0,0-4.83,14.9L287,119.47l-23.19-12.19a16.83,16.83,0,0,0-15.67,0L225,119.48l4.42-25.82a16.8,16.8,0,0,0-4.84-14.9L205.8,60.47l25.93-3.77a16.82,16.82,0,0,0,12.67-9.22L256,24l11.6,23.49a16.85,16.85,0,0,0,12.68,9.21l25.93,3.76Z"/><path class="cls-1" d="M146.86,53a16.75,16.75,0,0,0-13.59-11.46l-30.63-4.44L88.93,9.38A16.72,16.72,0,0,0,73.84,0h0A16.72,16.72,0,0,0,58.74,9.39L45.05,37.15,14.42,41.61A16.83,16.83,0,0,0,5.1,70.32l22.17,21.6L22,122.43a16.82,16.82,0,0,0,24.44,17.74l27.39-14.41,27.4,14.4a16.84,16.84,0,0,0,24.42-17.76l-5.24-30.5,22.16-21.61A16.73,16.73,0,0,0,146.86,53ZM105.29,78.74a16.81,16.81,0,0,0-4.83,14.9l4.43,25.83L81.7,107.28a16.83,16.83,0,0,0-15.67,0l-23.19,12.2,4.42-25.82a16.83,16.83,0,0,0-4.85-14.9L23.65,60.47,49.58,56.7a16.83,16.83,0,0,0,12.67-9.21L73.84,24l11.6,23.49a16.83,16.83,0,0,0,12.68,9.21l25.93,3.76Z"/><path class="cls-1" d="M215,243.13a10,10,0,1,0,2.93,7.07A10.08,10.08,0,0,0,215,243.13Z"/></svg>