<svg width="15" height="15" viewBox="0 0 15 15" fill="none" xmlns="http://www.w3.org/2000/svg">
<path d="M3.44397 10.6835L0.183105 7.42265C-0.134093 7.10545 -0.0232573 6.56723 0.393449 6.40116C2.12563 5.71084 3.65431 5.60228 4.88052 5.83915C4.91948 5.84667 4.95653 5.85428 4.99174 5.86186L8.93019 2.51099C8.89267 1.90369 9.01639 1.33793 9.24897 0.830376C9.37266 0.560474 9.50055 0.361485 9.59796 0.240465C9.83081 -0.0488414 10.2632 -0.0721674 10.5258 0.190418L14.8171 4.48106C15.081 4.7449 15.056 5.17978 14.7637 5.41173C14.5251 5.60103 14.2587 5.74666 13.971 5.85319C13.4832 6.03386 12.986 6.09108 12.5276 6.07314L9.14727 10.0466C9.15312 10.0807 9.15898 10.1166 9.1648 10.1545C9.36101 11.4306 9.24523 12.9618 8.59277 14.6008C8.42683 15.0177 7.8884 15.1286 7.57114 14.8113L4.3269 11.5665L1.08216 14.8112C0.838339 15.0551 0.442998 15.0551 0.199173 14.8112C-0.044652 14.5674 -0.044652 14.1721 0.199173 13.9282L3.44397 10.6835ZM7.74095 13.215C8.02698 12.155 8.05859 11.1769 7.93057 10.3443C7.90666 10.1887 7.88416 10.0861 7.8721 10.0429C7.81631 9.84308 7.86346 9.62855 7.99792 9.47051L11.7841 5.02001C11.9254 4.85389 12.1432 4.77355 12.3586 4.80809C12.365 4.80911 12.3888 4.81216 12.4275 4.81567C12.7052 4.84087 13.0189 4.82615 13.3197 4.7497L10.2587 1.68917C10.1716 1.99419 10.1461 2.32304 10.2034 2.66994C10.2391 2.88614 10.1588 3.1052 9.99195 3.24718L5.55209 7.02461C5.3816 7.16966 5.1465 7.21233 4.93592 7.1365C4.8982 7.12292 4.79922 7.09524 4.64369 7.06521C3.85386 6.91264 2.88564 6.93743 1.77504 7.2486L4.97339 10.447L7.74095 13.215Z" fill="#B5B5B5"/>
</svg>
