<?xml version="1.0" encoding="UTF-8" standalone="no"?>
<svg width="16px" height="11px" viewBox="0 0 16 11" version="1.1" xmlns="http://www.w3.org/2000/svg" xmlns:xlink="http://www.w3.org/1999/xlink">
    <!-- Generator: Sketch 40.3 (33839) - http://www.bohemiancoding.com/sketch -->
    <title>ico-burger</title>
    <desc>Created with Sketch.</desc>
    <defs></defs>
    <g id="Page-1" stroke="none" stroke-width="1" fill="none" fill-rule="evenodd">
        <g id="ЧАВО-моб" transform="translate(-15.000000, -34.000000)" fill="#FFFFFF">
            <g id="ico-burger" transform="translate(15.000000, 34.000000)">
                <path d="M15.5,1 L0.5,1 C0.224,1 0,0.776 0,0.5 C0,0.224 0.224,0 0.5,0 L15.5,0 C15.776,0 16,0.224 16,0.5 C16,0.776 15.776,1 15.5,1" id="Fill-1"></path>
                <path d="M15.5,6 L0.5,6 C0.224,6 0,5.776 0,5.5 C0,5.224 0.224,5 0.5,5 L15.5,5 C15.776,5 16,5.224 16,5.5 C16,5.776 15.776,6 15.5,6" id="Fill-3"></path>
                <path d="M15.5,11 L0.5,11 C0.224,11 0,10.776 0,10.5 C0,10.224 0.224,10 0.5,10 L15.5,10 C15.776,10 16,10.224 16,10.5 C16,10.776 15.776,11 15.5,11" id="Fill-5"></path>
            </g>
        </g>
    </g>
</svg>