<svg xmlns="http://www.w3.org/2000/svg" width="20" height="20" viewBox="0 0 20 20">
  <path fill="#1F447B" d="M10,0 C4.47708333,0 0,4.47708333 0,10 C0,15.5229167 4.47708333,20 10,20 C15.5229167,20 20,15.5229167 20,10 C20,4.47708333 15.5229167,0 10,0 Z M10.2941667,15.2333333 C10.10625,15.4358333 9.83958333,15.5370833 9.4925,15.5370833 C9.14583333,15.5370833 8.87958333,15.4383333 8.69416667,15.2404167 C8.50875,15.0425 8.41583333,14.7654167 8.41583333,14.4091667 C8.41583333,13.6716667 8.77458333,13.3033333 9.4925,13.3033333 C9.84416667,13.3033333 10.1125,13.3995833 10.2983333,13.5925 C10.4841667,13.7854167 10.5766667,14.0575 10.5766667,14.4091667 C10.5766667,14.7558333 10.4820833,15.0304167 10.2941667,15.2333333 Z M12.9058333,8.08458333 C12.7983333,8.37041667 12.6358333,8.6425 12.4183333,8.90125 C12.2008333,9.16 11.8266667,9.49708333 11.2945833,9.91208333 C10.8404167,10.2683333 10.53625,10.56375 10.3825,10.7983333 C10.2525,10.99625 10.18125,11.255 10.16125,11.5679167 C10.16,11.5745833 10.1579167,11.5766667 10.1566667,11.5833333 C10.0691667,12.07625 9.49666667,12.0729167 9.49666667,12.0729167 L9.19583333,12.0729167 C9.19583333,12.0729167 8.69791667,11.9945833 8.71666667,11.6041667 C8.71666667,11.0670833 8.81416667,10.6204167 9.00958333,10.26375 C9.205,9.90708333 9.54708333,9.53875 10.035,9.15791667 C10.61625,8.69875 10.9904167,8.3425 11.15875,8.08875 C11.3270833,7.835 11.4116667,7.53208333 11.4116667,7.18041667 C11.4116667,6.77041667 11.275,6.45541667 11.0016667,6.23541667 C10.7283333,6.01541667 10.335,5.90583333 9.8225,5.90583333 C9.35833333,5.90583333 8.92875,5.97166667 8.53333333,6.10375 C8.3175,6.17583333 8.10541667,6.2575 7.895,6.34541667 C7.89041667,6.34708333 7.88875,6.34625 7.88375,6.34833333 C7.39791667,6.53625 7.1725,6.15416667 7.1725,6.15416667 L6.98166667,5.75458333 C6.98083333,5.75208333 6.76666667,5.26416667 7.24416667,5.04958333 C8.09541667,4.66041667 8.99583333,4.46375 9.94666667,4.46375 C10.9033333,4.46375 11.6629167,4.69833333 12.2241667,5.16708333 C12.7854167,5.63583333 13.06625,6.28291667 13.06625,7.10791667 C13.0666667,7.47333333 13.0129167,7.79916667 12.9058333,8.08458333 Z"/>
</svg>
