<svg width="6" height="6" viewBox="0 0 6 6" fill="none" xmlns="http://www.w3.org/2000/svg">
<path d="M4.25 0.750076C4.31566 0.684415 4.39361 0.632329 4.4794 0.596794C4.56519 0.561259 4.65714 0.542969 4.75 0.542969C4.84286 0.542969 4.93481 0.561259 5.0206 0.596794C5.10639 0.632329 5.18434 0.684415 5.25 0.750076C5.31566 0.815736 5.36775 0.893687 5.40328 0.979477C5.43882 1.06527 5.45711 1.15722 5.45711 1.25008C5.45711 1.34293 5.43882 1.43488 5.40328 1.52067C5.36775 1.60646 5.31566 1.68441 5.25 1.75008L1.875 5.12508L0.5 5.50008L0.875 4.12508L4.25 0.750076Z" stroke="white" stroke-width="0.5" stroke-linecap="round" stroke-linejoin="round"/>
</svg>
