<svg xmlns="http://www.w3.org/2000/svg" width="15" height="16" viewBox="0 0 15 16">
  <path d="M0.447368421,3.00952148 C0.200421053,3.00952148 0,3.21464167 0,3.46737904 L0,6.67771808 C0,6.93045545 0.200421053,6.99084473 0.447368421,6.99084473 L0.980895996,6.99084473 L0.980895996,14.6264273 C0.980895996,15.3837237 1.49689474,16 2.23684211,16 L12.7631579,16 C13.5031053,16 14.024292,15.3837237 14.024292,14.6264273 L14.024292,6.99084473 L14.5526316,6.99084473 C14.7995789,6.99084473 15,6.93045545 15,6.67771808 L15,3.46737904 C15,3.21464167 14.7995789,3.00952148 14.5526316,3.00952148 L0.447368421,3.00952148 Z M10.7699877,0 C11.4481345,0 12,0.673 12,1.5 C12,2.327 11.4481345,3 10.7699877,3 L8,3 C8.14186142,2.558 8.42886429,1.968 8.82410824,1.414 C9.46535465,0.515 10.1746617,0 10.7699877,0 Z M4.2300123,0 C3.55186552,0 3,0.673 3,1.5 C3,2.327 3.55186552,3 4.2300123,3 L7,3 C6.85813858,2.558 6.57113571,1.968 6.17589176,1.414 C5.53464535,0.515 4.82533825,0 4.2300123,0 Z M6,14.9765537 L6,4.71864448 L9,4.71864448 L9,14.9765537 L6,14.9765537 Z M5,4 L5,6 L1,6 L1,4 L5,4 Z M2,7 L5,7 L5,15 L2.4,15 C2.1792,15 2,14.7984 2,14.55 L2,7 Z M12.6,15 L10,15 L10,7 L13,7 L13,14.55 C13,14.7984 12.8208,15 12.6,15 Z M10,6 L10,4 L14,4 L14,6 L10,6 Z"/>
  <path d="M0.447368421,3.00952148 C0.200421053,3.00952148 0,3.21464167 0,3.46737904 L0,6.67771808 C0,6.93045545 0.200421053,6.99084473 0.447368421,6.99084473 L0.980895996,6.99084473 L0.980895996,14.6264273 C0.980895996,15.3837237 1.49689474,16 2.23684211,16 L12.7631579,16 C13.5031053,16 14.024292,15.3837237 14.024292,14.6264273 L14.024292,6.99084473 L14.5526316,6.99084473 C14.7995789,6.99084473 15,6.93045545 15,6.67771808 L15,3.46737904 C15,3.21464167 14.7995789,3.00952148 14.5526316,3.00952148 L0.447368421,3.00952148 Z M10.7699877,0 C11.4481345,0 12,0.673 12,1.5 C12,2.327 11.4481345,3 10.7699877,3 L8,3 C8.14186142,2.558 8.42886429,1.968 8.82410824,1.414 C9.46535465,0.515 10.1746617,0 10.7699877,0 Z M4.2300123,0 C3.55186552,0 3,0.673 3,1.5 C3,2.327 3.55186552,3 4.2300123,3 L7,3 C6.85813858,2.558 6.57113571,1.968 6.17589176,1.414 C5.53464535,0.515 4.82533825,0 4.2300123,0 Z M11.5333333,15 L2,15 L2,4 L13,4 L13,14.38125 C13,14.7228 12.3429333,15 11.5333333,15 Z"/>
</svg>
