<svg xmlns="http://www.w3.org/2000/svg" width="26" height="81" viewBox="0 0 26 81">
  <path d="M25.0071047,29.4737 C25.0428547,27.6303 25.2465891,25.9701 24.6816984,24.1863 C24.4395734,23.4185 23.9248547,22.1345 23.8631047,21.3513 C23.8044016,20.6113 24.0867453,19.3747 24.0304797,18.5247 C23.9528859,17.3429 23.2772922,15.8615 22.0782453,15.2667 C21.5421984,15.0013 20.7424953,14.6237 19.8237609,14.6407 C19.6927453,14.6431 19.5590891,14.6535 19.4236047,14.6735 C18.1215734,13.7659 16.0405578,13.3567 15.7001203,13.3835 C15.1508703,13.1481 15.3925891,11.2171 15.4236672,10.6553 C15.4244797,10.6551 15.4252922,10.6541 15.4261047,10.6539 C15.5215734,10.6111 15.6661984,10.4271 16.0104953,9.5361 C16.0604641,9.4113 16.1112453,9.2799 16.1620266,9.1419 C16.1652766,9.1329 16.1695422,9.1175 16.1746203,9.0995 C16.2008234,9.0277 16.2274328,8.9539 16.2558703,8.8753 C16.2881672,8.7835 16.3198547,8.4455 16.3521516,8.1931 C16.3535734,8.1833 16.3547922,8.1731 16.3560109,8.1641 C16.3956203,8.2861 16.4957609,8.3635 16.5727453,8.3595 C16.5985422,8.3583 16.6216984,8.3479 16.6391672,8.3271 C16.8374172,8.0907 17.2670266,7.3589 17.3604641,7.0431 C17.5481516,6.4081 17.3466516,5.6873 16.9924016,5.7449 C16.9107453,5.7581 16.8205578,5.8127 16.7256984,5.9195 C16.7458078,5.1063 16.5859484,5.5393 16.7551516,5.0173 C16.7575891,5.0111 16.7590109,5.0059 16.7610422,5.0001 C16.9064797,4.6597 16.9958547,4.3261 17.0439953,4.0131 C17.1329641,3.5141 17.1065578,3.1209 17.0171828,2.7829 C17.0133234,2.7685 17.0082453,2.7551 17.0043859,2.7407 C16.5020578,0.7471 14.8496359,0.1777 13.8638703,0.1047 C13.7328547,0.0781 13.6067141,0.0575 13.4858547,0.0417 C13.3792141,0.0129 13.1992453,-0.0039 12.9697141,0.0009 C12.7401828,-0.0039 12.5604172,0.0129 12.4535734,0.0417 C12.3329172,0.0575 12.2065734,0.0781 12.0757609,0.1047 C11.0897922,0.1777 9.43757344,0.7471 8.93524531,2.7407 C8.93118281,2.7551 8.92610469,2.7685 8.92244844,2.7829 C8.83287031,3.1209 8.80646406,3.5141 8.89563594,4.0131 C8.94377656,4.3261 9.03294844,4.6597 9.17838594,5.0001 C9.18062031,5.0059 9.18204219,5.0111 9.18447969,5.0173 C9.35368281,5.5393 9.19362031,5.1063 9.21393281,5.9195 C9.11887031,5.8127 9.02888594,5.7581 8.94722969,5.7449 C8.59277656,5.6873 8.39127656,6.4081 8.57916719,7.0431 C8.67260469,7.3589 9.10201094,8.0907 9.30046406,8.3271 C9.31793281,8.3479 9.34108906,8.3583 9.36688594,8.3595 C9.44387031,8.3635 9.54380781,8.2861 9.58341719,8.1641 C9.58463594,8.1731 9.58605781,8.1833 9.58747969,8.1931 C9.61957344,8.4455 9.65126094,8.7835 9.68376094,8.8753 C9.71199531,8.9539 9.73860469,9.0277 9.76501094,9.0995 C9.76988594,9.1175 9.77435469,9.1329 9.77740156,9.1419 C9.82818281,9.2799 9.87896406,9.4113 9.92913594,9.5361 C10.2734328,10.4271 10.4180578,10.6111 10.5133234,10.6539 C10.5141359,10.6541 10.5149484,10.6551 10.5157609,10.6553 C10.5470422,11.2171 10.7887609,13.1481 10.2395109,13.3835 C9.89887031,13.3567 7.81805781,13.7659 6.51602656,14.6735 C6.38054219,14.6535 6.24688594,14.6431 6.11566719,14.6407 C5.19713594,14.6237 4.39722969,15.0013 3.86138594,15.2667 C2.66213594,15.8615 1.98674531,17.3429 1.90894844,18.5247 C1.85288594,19.3747 2.13502656,20.6113 2.07632344,21.3513 C2.01477656,22.1345 1.50005781,23.4185 1.25772969,24.1863 C0.693042187,25.9701 0.896776562,27.6303 0.932526562,29.4737 C0.962589062,31.0203 -0.0128171875,31.8237 0.000182812498,34.2271 C0.0103390625,36.0835 0.375964062,37.6577 0.715182812,39.4083 C0.823448437,39.9661 0.957917187,41.0129 0.991229687,41.0007 C1.07004219,41.6645 1.06658906,42.2967 0.969698437,43.4581 C0.883573437,44.4925 0.999557812,45.5563 1.57907344,46.2917 C1.93657344,46.7437 2.45921406,47.6917 3.09621406,47.5105 C3.11449531,47.5055 3.11226094,47.5195 3.10616719,47.5313 C3.23535469,47.8027 3.23657344,47.8051 3.23657344,47.8051 C4.01657344,47.8917 3.54410469,47.0433 3.40171406,46.4309 C3.23962031,45.7405 3.16669844,44.5277 3.45208906,43.8547 C4.05435469,44.2641 3.57335469,46.3067 4.70922969,46.2883 C4.74619844,46.2875 4.70577656,46.2925 4.74619844,46.2875 C4.89671406,46.0917 4.45654219,45.0917 4.51280781,43.8409 C4.55343281,42.9311 3.92922969,42.3155 3.67207344,41.4673 C3.50388594,40.9123 3.46244844,40.3297 3.49088594,39.7397 C3.49149531,39.7395 3.49210469,39.7393 3.49251094,39.7393 C3.53821406,38.7965 3.76551094,37.8359 3.96152656,36.9361 C3.97026094,36.8961 3.97879219,36.8563 3.98732344,36.8165 C4.00093281,36.7531 4.01454219,36.6897 4.02774531,36.6271 C4.05394844,36.5023 4.07933906,36.3785 4.10269844,36.2569 C4.43480781,34.5285 3.75596406,32.6537 4.18740156,31.1295 C4.51016719,29.9895 6.03116719,28.5665 5.59221406,26.4689 C5.97713594,27.0795 5.86257344,27.9009 6.03137031,28.5657 C6.22271406,29.3179 6.54446406,30.0331 6.67913594,30.8091 C6.94096406,32.3083 6.97143281,33.1759 6.79085469,34.7613 C6.63099531,36.1665 5.63771406,37.4027 5.42240156,38.8187 C5.39802656,38.9419 5.37690156,39.0651 5.36471406,39.1885 C5.24913594,40.3497 5.26558906,41.3211 5.20018281,42.3737 C5.19612031,42.4219 5.19022969,42.4727 5.18555781,42.5217 C5.16707344,42.7089 5.14635469,42.9013 5.11872969,43.1069 C5.08663594,43.3453 5.06794844,43.5847 5.05758906,43.8241 C4.91722969,45.2515 5.22090156,46.4003 5.20607344,47.8827 C5.20404219,48.0347 5.19997969,48.1871 5.19124531,48.3401 C5.09740156,50.0101 5.50304219,52.5753 6.06204219,54.0659 C6.60682344,55.5237 6.64846406,56.7945 6.80588594,58.3937 C6.81258906,58.4629 6.81583906,58.5309 6.82051094,58.5991 C6.82376094,58.6477 6.82822969,58.6941 6.83066719,58.7437 C6.83208906,58.7823 6.83168281,58.8203 6.83290156,58.8589 C6.83493281,58.9331 6.83696406,59.0073 6.83716719,59.0835 C6.83107344,60.6445 6.33463594,62.0879 6.33727656,63.6773 C6.33747969,63.9211 6.34377656,64.1401 6.35433906,64.3445 C6.34458906,64.5289 6.33768281,64.7085 6.33788594,64.8773 C6.34012031,66.5891 6.60316719,67.1789 6.99113594,68.7285 C7.37037031,70.2391 8.14651094,73.0577 8.58444844,74.5917 C8.66102656,74.8621 8.70551094,75.1757 8.72399531,75.5117 C8.54849531,76.5101 8.26919844,77.4257 7.84324531,78.5995 C7.56882344,79.3563 6.68847969,80.0555 6.68847969,80.3379 C6.68847969,80.9597 8.37177656,80.8523 8.92285469,80.8523 C9.61469844,80.8523 10.4552297,80.7941 11.0469328,80.4651 C11.8305891,80.0293 12.1076516,79.2597 11.8114953,78.4813 C12.0079172,78.2499 12.2138859,77.8323 11.7666047,76.5581 C11.5116828,75.8313 11.9689172,76.2281 11.6989641,75.4917 C10.5019484,72.2375 12.0851047,68.6633 11.9185422,65.1227 C11.9380422,64.6823 11.9394641,64.2355 11.9118391,63.7801 C11.8616672,62.9547 11.5417453,60.9843 11.3906203,60.1899 C11.3802609,60.1363 11.3727453,60.0867 11.3652297,60.0379 C11.4405891,59.3269 11.6142609,58.6297 11.6993703,58.0667 C11.9689172,56.2859 11.8502922,54.5453 12.1208547,52.9055 C12.6556828,49.6659 12.8537297,45.9395 12.4970422,44.1769 C12.6290734,44.3039 12.7470891,44.3577 12.8592141,44.3601 C12.8965891,44.3609 12.9335578,44.3559 12.9697141,44.3461 C13.0060734,44.3559 13.0430422,44.3609 13.0802141,44.3601 C13.1925422,44.3577 13.3103547,44.3039 13.4423859,44.1769 C13.0859016,45.9395 13.2837453,49.6659 13.8187766,52.9055 C14.0893391,54.5453 13.9707141,56.2859 14.2400578,58.0667 C14.3251672,58.6297 14.4990422,59.3269 14.5744016,60.0379 C14.5668859,60.0867 14.5591672,60.1363 14.5490109,60.1899 C14.3978859,60.9843 14.0777609,62.9547 14.0275891,63.7801 C14.0001672,64.2355 14.0013859,64.6823 14.0210891,65.1227 C13.8545266,68.6633 15.4376828,72.2375 14.2404641,75.4917 C13.9705109,76.2281 14.4279484,75.8313 14.1728234,76.5581 C13.7257453,77.8323 13.9317141,78.2499 14.1279328,78.4813 C13.8317766,79.2597 14.1090422,80.0293 14.8924953,80.4651 C15.4841984,80.7941 16.3249328,80.8523 17.0165734,80.8523 C17.5678547,80.8523 19.2509484,80.9597 19.2509484,80.3379 C19.2509484,80.0555 18.3706047,79.3563 18.0963859,78.5995 C17.6704328,77.4257 17.3911359,76.5101 17.2156359,75.5117 C17.2339172,75.1757 17.2784016,74.8621 17.3549797,74.5917 C17.7929172,73.0577 18.5692609,70.2391 18.9484953,68.7285 C19.3364641,67.1789 19.5995109,66.5891 19.6017453,64.8773 C19.6019484,64.7085 19.5948391,64.5289 19.5852922,64.3445 C19.5956516,64.1401 19.6021516,63.9211 19.6023547,63.6773 C19.6047922,62.0879 19.1085578,60.6445 19.1024641,59.0835 C19.1026672,59.0073 19.1044953,58.9331 19.1065266,58.8589 C19.1077453,58.8203 19.1073391,58.7823 19.1089641,58.7437 C19.1114016,58.6941 19.1158703,58.6477 19.1191203,58.5991 C19.1235891,58.5309 19.1270422,58.4629 19.1337453,58.3937 C19.2909641,56.7945 19.3326047,55.5237 19.8775891,54.0659 C20.4363859,52.5753 20.8420266,50.0101 20.7481828,48.3401 C20.7394484,48.1871 20.7355891,48.0347 20.7335578,47.8827 C20.7187297,46.4003 21.0224016,45.2515 20.8818391,43.8241 C20.8716828,43.5847 20.8529953,43.3453 20.8209016,43.1069 C20.7932766,42.9013 20.7723547,42.7089 20.7540734,42.5217 C20.7491984,42.4727 20.7435109,42.4219 20.7392453,42.3737 C20.6740422,41.3211 20.6904953,40.3497 20.5749172,39.1885 C20.5625266,39.0651 20.5416047,38.9419 20.5172297,38.8187 C20.3019172,37.4027 19.3084328,36.1665 19.1485734,34.7613 C18.9681984,33.1759 18.9986672,32.3083 19.2604953,30.8091 C19.3951672,30.0331 19.7169172,29.3179 19.9082609,28.5657 C20.0770578,27.9009 19.9624953,27.0795 20.3474172,26.4689 C19.9082609,28.5665 21.4294641,29.9895 21.7522297,31.1295 C22.1836672,32.6537 21.5048234,34.5285 21.8369328,36.2569 C21.8602922,36.3785 21.8856828,36.5023 21.9118859,36.6271 C21.9248859,36.6897 21.9386984,36.7531 21.9523078,36.8165 C21.9608391,36.8563 21.9693703,36.8961 21.9781047,36.9361 C22.1741203,37.8359 22.4014172,38.7965 22.4469172,39.7393 C22.4473234,39.7393 22.4479328,39.7395 22.4485422,39.7397 C22.4771828,40.3297 22.4357453,40.9123 22.2675578,41.4673 C22.0104016,42.3155 21.3861984,42.9311 21.4268234,43.8409 C21.4828859,45.0917 21.0427141,46.0917 21.1934328,46.2875 C21.2338547,46.2925 21.1934328,46.2875 21.2301984,46.2883 C22.3660734,46.3067 21.8852766,44.2641 22.4875422,43.8547 C22.7729328,44.5277 22.7000109,45.7405 22.5379172,46.4309 C22.3955266,47.0433 21.9228547,47.8917 22.7028547,47.8051 C22.7028547,47.8051 22.7040734,47.8027 22.8334641,47.5313 C22.8273703,47.5195 22.8251359,47.5055 22.8434172,47.5105 C23.4802141,47.6917 24.0030578,46.7437 24.3603547,46.2917 C24.9400734,45.5563 25.0558547,44.4925 24.9697297,43.4581 C24.8730422,42.2967 24.8693859,41.6645 24.9484016,41.0007 C24.9817141,41.0129 25.1161828,39.9661 25.2242453,39.4083 C25.5634641,37.6577 25.9292922,36.0835 25.9394484,34.2271 C25.9522453,31.8237 24.9770422,31.0203 25.0071047,29.4737"/>
</svg>
