<?xml version="1.0" encoding="UTF-8" standalone="no"?>
<svg width="17px" height="20px" viewBox="0 0 17 20" version="1.1" xmlns="http://www.w3.org/2000/svg" xmlns:xlink="http://www.w3.org/1999/xlink">
    <path d="M14.4482,16.0674 C13.4492,17.9304 12.1922,19.0004 11.0002,19.0004 C10.6392,19.0004 10.3302,18.9004 9.9712,18.7844 C9.5592,18.6514 9.0922,18.5004 8.5002,18.5004 C7.9082,18.5004 7.4412,18.6514 7.0282,18.7844 C6.6692,18.9004 6.3592,19.0004 6.0002,19.0004 C4.8062,19.0004 3.5502,17.9304 2.5522,16.0674 C1.5802,14.2544 1.0002,11.9864 1.0002,10.0004 C1.0002,8.2164 1.4842,6.8964 2.4362,6.0764 C3.2652,5.3624 4.4642,5.0004 6.0002,5.0004 C6.4472,5.0004 6.9842,5.1524 7.4582,5.2864 C7.8662,5.4014 8.2172,5.5004 8.5002,5.5004 C8.7832,5.5004 9.1342,5.4014 9.5422,5.2864 C10.0152,5.1524 10.5532,5.0004 11.0002,5.0004 C12.5352,5.0004 13.7342,5.3624 14.5632,6.0764 C15.5162,6.8964 16.0002,8.2174 16.0002,10.0004 C16.0002,11.9864 15.4202,14.2544 14.4482,16.0674 M15.2152,5.3184 C14.2002,4.4444 12.7812,4.0004 11.0002,4.0004 C10.4152,4.0004 9.7802,4.1784 9.2712,4.3234 C9.1802,4.3484 9.0902,4.3744 9.0022,4.3984 C9.0552,2.5144 10.6052,1.0004 12.5002,1.0004 C12.7762,1.0004 13.0002,0.7764 13.0002,0.5004 C13.0002,0.2234 12.7762,0.0004 12.5002,0.0004 C10.0532,0.0004 8.0542,1.9634 8.0012,4.3994 C7.9132,4.3754 7.8212,4.3484 7.7282,4.3234 C7.2182,4.1784 6.5852,4.0004 6.0002,4.0004 C4.2182,4.0004 2.8002,4.4434 1.7852,5.3184 C0.6002,6.3384 0.000199999999,7.9134 0.000199999999,10.0004 C0.000199999999,12.1424 0.6242,14.5884 1.6702,16.5394 C2.8662,18.7714 4.4042,20.0004 6.0002,20.0004 C6.5162,20.0004 6.9322,19.8664 7.3362,19.7364 C7.7112,19.6154 8.0662,19.5004 8.5002,19.5004 C8.9332,19.5004 9.2892,19.6144 9.6642,19.7364 C10.0662,19.8664 10.4832,20.0004 11.0002,20.0004 C12.5962,20.0004 14.1342,18.7714 15.3302,16.5394 C16.3762,14.5874 17.0002,12.1424 17.0002,10.0004 C17.0002,7.9134 16.4002,6.3384 15.2152,5.3184"></path>
</svg>