<svg xmlns="http://www.w3.org/2000/svg" width="16" height="81" viewBox="0 0 16 81">
  <path d="M0.2316,25.34604 C-0.0586,24.43884 -0.2222,22.76324 0.6556,20.67504 C-1.2806,19.47164 2.609,15.20544 4.0864,14.16904 C4.44,13.92104 4.6814,13.74964 5.1806,13.40284 C5.2152,12.86404 4.8464,10.74564 4.8464,10.74564 C4.136,10.92464 3.7296,10.94544 3.3588,10.83844 C2.0936,10.47464 2.8926,9.64724 2.6566,9.25704 C2.3738,9.15184 2.333,8.93244 2.6206,8.81264 C2.6416,8.59604 2.3408,8.60964 2.3016,8.39564 C2.2762,8.25924 2.3986,7.92624 2.3886,7.73224 C2.1424,7.63844 1.6498,7.78524 1.561,7.52924 C1.496,7.34164 2.0878,6.47384 2.1602,6.30484 C2.3044,5.96884 2.47,5.76844 2.4276,5.40904 C2.398,5.15404 2.0602,4.92224 2.0094,4.70544 C1.9602,4.49664 2.3514,3.81084 2.4008,3.60044 C2.515,3.11484 2.8644,2.36924 3.386,2.12964 C2.1102,1.69804 4.8568,3.99999987e-05 6.3214,3.99999987e-05 C8.3822,3.99999987e-05 9.577,0.63744 9.96,1.10924 C10.8074,2.15244 10.8538,3.41824 10.783,4.77364 C10.7408,5.57124 10.4818,6.34644 10.1826,7.08964 C9.9632,7.63464 9.6754,8.14444 9.3958,8.65884 C9.2512,9.87884 9.8176,11.33924 10.156,12.42864 C10.3976,12.60444 10.6322,12.83284 10.8592,13.11924 C11.0166,13.17644 11.1632,13.23464 11.293,13.28804 C12.5128,13.78984 13.0826,15.20744 13.2462,16.37164 C13.3644,17.20924 13.1794,18.45424 13.292,19.18244 C13.4106,19.95324 14.0106,21.18704 14.305,21.92964 C14.991,23.65464 14.9142,25.31324 15.016,27.14084 C15.027,27.34304 15.0554,27.53044 15.095,27.71024 C15.0908,27.71244 15.0868,27.71464 15.083,27.71684 C15.3014,28.97544 15.938,30.13344 15.9318,31.93444 C15.925,33.77744 15.4256,34.84624 15.095,36.58504 C14.7856,38.21224 15.7438,44.04884 13.3242,46.59324 C13.2934,46.50264 13.3384,46.40864 13.3136,46.32704 C13.1766,46.61984 13.0892,46.59204 12.9752,46.91044 C12.0594,46.55204 12.8726,45.86504 13.0116,45.25604 C13.1692,44.57044 13.239,43.36644 12.9576,42.69864 C12.3836,43.09244 12.7794,44.65304 11.7902,44.75604 C11.7736,44.57804 11.7902,44.75604 11.7724,44.57724 C11.8928,43.97784 11.8474,43.33624 11.9142,42.68684 C12.0066,41.78724 12.4856,41.17144 12.7368,40.32904 C13.2316,38.67064 11.9024,35.17044 11.5938,33.55884 C11.2958,32.01144 11.8042,31.33484 11.5938,29.91284 C11.226,28.90044 10.4164,26.82764 10.3994,25.01744 C9.8642,26.35644 9.995,27.29204 9.342,29.44664 C9.016,30.52124 9.5544,33.12484 9.702,33.83804 C10.5778,35.57164 11.6794,36.47104 11.622,39.06744 C11.5968,40.21364 10.895,42.35544 10.4684,42.97004 C10.5498,43.35144 10.6234,48.69884 10.3532,52.14204 C9.9842,56.85064 9.9568,56.48844 10.6112,57.73084 C11.6926,59.78264 12.275,62.20304 12.1002,65.05684 C11.8976,68.36524 10.5954,70.99404 10.8174,70.39104 C11.1062,69.60684 10.3336,72.40704 10.0746,73.22664 C9.8206,74.02944 10.0596,73.70864 9.929,74.57664 C9.7882,75.51204 9.4816,76.14924 9.602,77.07524 C9.8084,78.65964 10.5512,80.34084 8.863,80.54324 C7.8268,80.66744 7.498,80.08124 6.845,80.26484 C4.7406,80.85604 3.7376,80.92444 2.5838,80.81744 C1.4158,80.83564 1.512,80.45004 1.6442,80.14804 C1.571,79.46284 2.8548,79.86404 3.7992,79.05784 C4.3608,78.57824 4.8186,78.43284 5.316,77.92364 C7.2914,75.90184 7.4534,72.99444 7.2318,70.85584 C7.0462,69.06244 6.9506,67.13424 6.8168,65.25804 C6.6314,62.66064 6.0412,60.49544 5.689,59.10304 C5.5122,58.40484 5.3906,58.79064 5.1832,58.03604 C4.9648,57.24184 5.0744,55.38344 5.2132,55.13144 C5.2198,54.34664 4.8636,54.56544 4.3574,53.46184 C2.8328,50.14004 2.1758,46.74624 2.0548,45.66104 C1.5716,43.65364 1.9082,42.84884 2.027,39.69544 C2.0694,38.57484 1.7578,37.63284 1.6982,35.88664 C1.5456,35.31824 0.9914,33.07624 0.9052,32.47564 C0.7496,31.39244 0.9084,29.64184 0.757,28.59624 C0.667,27.97584 0.217,26.51304 0.224,25.96124 C0.2316,25.34604 0.4374,25.98904 0.2316,25.34604" transform="matrix(-1 0 0 1 16 0)"/>
</svg>
