<svg xmlns="http://www.w3.org/2000/svg" width="19" height="19" viewBox="0 0 19 19">
  <g fill="#70CFFE" fill-rule="evenodd">
    <polygon points="16 6 17 6 17 7 16 7"/>
    <polygon points="16 18 17 18 17 19 16 19"/>
    <polygon points="14 18 15 18 15 19 14 19"/>
    <polygon points="12 18 13 18 13 19 12 19"/>
    <polygon points="10 18 11 18 11 19 10 19"/>
    <polygon points="8 18 9 18 9 19 8 19"/>
    <polygon points="18 14 19 14 19 15 18 15"/>
    <polygon points="18 12 19 12 19 13 18 13"/>
    <polygon points="18 16 19 16 19 17 18 17"/>
    <polygon points="18 8 19 8 19 9 18 9"/>
    <polygon points="18 10 19 10 19 11 18 11"/>
    <polygon points="6 16 7 16 7 17 6 17"/>
    <polygon points="14 6 15 6 15 7 14 7"/>
    <path d="M7.5,6 C6.673,6 6,6.673 6,7.5 L6,12 L1.5,12 C1.224,12 1,11.775 1,11.5 L1,1.5 C1,1.225 1.224,1 1.5,1 L11.5,1 C11.776,1 12,1.225 12,1.5 L12,6 L7.5,6 Z M11.5,0 L1.5,0 C0.673,0 0,0.673 0,1.5 L0,11.5 C0,12.327 0.673,13 1.5,13 L7,13 L7,7.5 C7,7.225 7.224,7 7.5,7 L13,7 L13,1.5 C13,0.673 12.327,0 11.5,0 L11.5,0 Z"/>
    <polygon points="6 14 7 14 7 15 6 15"/>
    <polygon points="18 6 19 6 19 7 18 7"/>
    <polygon points="18 18 19 18 19 19 18 19"/>
    <polygon points="6 18 7 18 7 19 6 19"/>
  </g>
</svg>
