<svg xmlns="http://www.w3.org/2000/svg" width="20" height="18" viewBox="0 0 20 18">
  <g>
    <path d="M18.502,17.001 L1.502,17.001 C1.226,17.001 1.002,16.777 1.002,16.501 L1.002,6.001 L19.002,6.001 L19.002,16.501 C19.002,16.777 18.778,17.001 18.502,17.001 M1.502,2.001 L4.002,2.001 L4.002,3.501 C4.002,3.777 4.226,4.001 4.502,4.001 C4.778,4.001 5.002,3.777 5.002,3.501 L5.002,2.001 L15.002,2.001 L15.002,3.501 C15.002,3.777 15.226,4.001 15.502,4.001 C15.778,4.001 16.002,3.777 16.002,3.501 L16.002,2.001 L18.502,2.001 C18.778,2.001 19.002,2.225 19.002,2.501 L19.002,5.001 L1.002,5.001 L1.002,2.501 C1.002,2.225 1.226,2.001 1.502,2.001 M18.502,1.001 L16.002,1.001 L16.002,0.501 C16.002,0.225 15.778,0.001 15.502,0.001 C15.226,0.001 15.002,0.225 15.002,0.501 L15.002,1.001 L5.002,1.001 L5.002,0.501 C5.002,0.225 4.778,0.001 4.502,0.001 C4.226,0.001 4.002,0.225 4.002,0.501 L4.002,1.001 L1.502,1.001 C0.675,1.001 0.002,1.674 0.002,2.501 L0.002,16.501 C0.002,17.328 0.675,18.001 1.502,18.001 L18.502,18.001 C19.329,18.001 20.002,17.328 20.002,16.501 L20.002,2.501 C20.002,1.674 19.329,1.001 18.502,1.001"/>
    <path d="M15.502 10.001L4.502 10.001C4.226 10.001 4.002 9.777 4.002 9.501 4.002 9.225 4.226 9.001 4.502 9.001L15.502 9.001C15.778 9.001 16.002 9.225 16.002 9.501 16.002 9.777 15.778 10.001 15.502 10.001M15.502 12.001L4.502 12.001C4.226 12.001 4.002 11.777 4.002 11.501 4.002 11.225 4.226 11.001 4.502 11.001L15.502 11.001C15.778 11.001 16.002 11.225 16.002 11.501 16.002 11.777 15.778 12.001 15.502 12.001M9.502 14.001L4.502 14.001C4.226 14.001 4.002 13.777 4.002 13.501 4.002 13.225 4.226 13.001 4.502 13.001L9.502 13.001C9.778 13.001 10.002 13.225 10.002 13.501 10.002 13.777 9.778 14.001 9.502 14.001"/>
  </g>
</svg>
