<svg xmlns="http://www.w3.org/2000/svg" width="19" height="19" viewBox="0 0 19 19">
  <path d="M9.5,19 C4.25329488,19 0,14.7467051 0,9.5 C0,4.25329488 4.25329488,0 9.5,0 C14.7467051,0 19,4.25329488 19,9.5 C19,14.7467051 14.7467051,19 9.5,19 Z M9.5,17 C13.6421356,17 17,13.6421356 17,9.5 C17,5.35786438 13.6421356,2 9.5,2 C5.35786438,2 2,5.35786438 2,9.5 C2,13.6421356 5.35786438,17 9.5,17 Z"/>
  <path d="M7.86363636,11.6075737 L5.50679347,9.44713439 C5.20145423,9.16724009 4.7270287,9.18786729 4.44713439,9.49320653 C4.16724009,9.79854577 4.18786729,10.2729713 4.49320653,10.5528656 L7.38591609,13.204516 C7.69125533,13.4844103 8.16568086,13.4637831 8.44557516,13.1584439 C8.50088063,13.0981107 8.5444527,13.0311757 8.57641335,12.9604443 C8.62763378,12.9321877 8.67634291,12.8974453 8.72137435,12.8561665 L14.5067935,7.55286561 C14.8121327,7.2729713 14.8327599,6.79854577 14.5528656,6.49320653 C14.2729713,6.18786729 13.7985458,6.16724009 13.4932065,6.44713439 L7.86363636,11.6075737 Z"/>
</svg>
