<?xml version="1.0" encoding="UTF-8" standalone="no"?>
<svg width="19px" height="17px" viewBox="0 0 19 17" version="1.1" xmlns="http://www.w3.org/2000/svg" xmlns:xlink="http://www.w3.org/1999/xlink">
    <g id="Group-3" transform="translate(0.000000, 0.002000)">
        <path d="M9.5005,1.999 C4.8135,1.999 1.0005,4.915 1.0005,8.499 C1.0005,10.314 2.0055,12.062 3.7565,13.291 C3.9285,13.412 4.0065,13.627 3.9525,13.83 C3.8355,14.266 3.4365,15.463 2.3725,16.618 C3.6745,16.162 5.0765,15.371 6.1115,14.659 C6.2345,14.574 6.3885,14.549 6.5325,14.59 C7.4805,14.861 8.4785,14.999 9.5005,14.999 C14.1865,14.999 18.0005,12.083 18.0005,8.499 C18.0005,4.915 14.1865,1.999 9.5005,1.999 L9.5005,1.999 Z M0.5005,17.999 C0.2755,17.999 0.0785,17.849 0.0175,17.632 C-0.0415,17.415 0.0505,17.185 0.2435,17.07 C1.9335,16.056 2.6355,14.581 2.8845,13.891 C1.0465,12.484 0.000499999999,10.537 0.000499999999,8.499 C0.000499999999,7.47 0.2585,6.473 0.7675,5.535 C1.2545,4.641 1.9485,3.84 2.8295,3.154 C4.6165,1.764 6.9855,0.998 9.5005,0.998 C12.0155,0.998 14.3845,1.764 16.1715,3.154 C17.0525,3.839 17.7465,4.64 18.2325,5.535 C18.7425,6.472 19.0005,7.469 19.0005,8.499 C19.0005,9.529 18.7425,10.525 18.2325,11.463 C17.7465,12.357 17.0525,13.158 16.1715,13.844 C14.3845,15.234 12.0155,16 9.5005,16 C8.4675,16 7.4535,15.871 6.4845,15.615 C6.0555,15.901 5.2535,16.408 4.2955,16.885 C2.8075,17.625 1.5315,18 0.5015,18 L0.5005,17.999 Z"></path>
    </g>
    <path d="M9.5005,11.001 C9.2245,11.001 9.0005,10.777 9.0005,10.501 L9.0005,8.501 C9.0005,8.225 9.2245,8.001 9.5005,8.001 C10.3275,8.001 11.0005,7.328 11.0005,6.501 C11.0005,5.674 10.3275,5.001 9.5005,5.001 C8.6735,5.001 8.0005,5.674 8.0005,6.501 C8.0005,6.777 7.7765,7.001 7.5005,7.001 C7.2245,7.001 7.0005,6.777 7.0005,6.501 C7.0005,5.123 8.1225,4.001 9.5005,4.001 C10.8785,4.001 12.0005,5.123 12.0005,6.501 C12.0005,7.708 11.1405,8.718 10.0005,8.951 L10.0005,10.501 C10.0005,10.777 9.7765,11.001 9.5005,11.001"></path>
    <path d="M9.5005,13.001 C9.3685,13.001 9.2395,12.948 9.1475,12.855 C9.0555,12.76 9.0005,12.632 9.0005,12.501 C9.0005,12.369 9.0535,12.24 9.1475,12.147 C9.2415,12.056 9.3695,12.001 9.5005,12.001 C9.6315,12.001 9.7615,12.054 9.8525,12.147 C9.9465,12.241 10.0005,12.37 10.0005,12.501 C10.0005,12.632 9.9475,12.761 9.8525,12.855 C9.7605,12.947 9.6315,13.001 9.5005,13.001"></path>
</svg>