<svg xmlns="http://www.w3.org/2000/svg" width="18" height="18" viewBox="0 0 18 18">
  <g fill="#A1B1C7" fill-rule="evenodd">
    <path fill-rule="nonzero" d="M9,17 C13.418278,17 17,13.418278 17,9 C17,4.581722 13.418278,1 9,1 C4.581722,1 1,4.581722 1,9 C1,13.418278 4.581722,17 9,17 Z M9,18 C4.02943725,18 0,13.9705627 0,9 C0,4.02943725 4.02943725,0 9,0 C13.9705627,0 18,4.02943725 18,9 C18,13.9705627 13.9705627,18 9,18 Z"/>
    <circle cx="6" cy="7" r="1"/>
    <circle cx="12" cy="7" r="1"/>
    <path fill-rule="nonzero" d="M5.5088772,12.262322 C6.3105204,13.4176283 7.45906141,14.0996094 9.06237793,14.0996094 C10.6612514,14.0996094 11.7730758,13.4225227 12.5214967,12.2743316 C12.7855603,11.869218 12.9845255,11.4323316 13.1262288,10.9951172 L4.85383643,10.9951172 C5.01392773,11.4281415 5.23011791,11.8605817 5.5088772,12.262322 Z M14.3544731,9.99511719 L14.2639913,10.5725243 C14.2400845,10.7250854 14.1833521,10.9745292 14.0819847,11.2895849 C13.9144091,11.8104195 13.6780456,12.3312997 13.3592406,12.8203949 C12.4355271,14.2375114 11.019901,15.0996094 9.06237793,15.0996094 C7.10929796,15.0996094 5.66566063,14.2424059 4.68728979,12.8324046 C4.3493982,12.3454444 4.09207348,11.8264671 3.90323173,11.3073826 C3.78894445,10.9932319 3.72191786,10.7445142 3.69172168,10.592589 L3.57297007,9.99511719 L14.3544731,9.99511719 Z"/>
    <path fill-opacity=".679" fill-rule="nonzero" d="M13.1642648,10.6764913 C13.1540918,10.7309463 13.1193083,10.851157 13.0496216,11.0147128 C12.9290877,11.2976078 12.7533401,11.5822291 12.5124397,11.8485389 C11.8086139,12.6266017 10.7017138,13.0996094 9.06237793,13.0996094 C7.42407391,13.0996094 6.26992533,12.590917 5.4893608,11.7473845 C5.21920235,11.4554324 5.01388916,11.1427656 4.86529429,10.831584 C4.77873177,10.6503082 4.73164827,10.5156168 4.71537068,10.451431 L4.59246086,9.9667732 L3.62314527,10.2125929 L3.7460551,10.6972506 C3.86084345,11.1498839 4.16668943,11.7903746 4.75539018,12.4265657 C5.72447469,13.4738261 7.14428546,14.0996094 9.06237793,14.0996094 C10.9794385,14.0996094 12.3571423,13.51088 13.2540398,12.519381 C13.8039899,11.9114242 14.0655392,11.2975637 14.1472586,10.8601298 L14.2390779,10.3686329 L13.2560841,10.1849944 L13.1642648,10.6764913 Z"/>
  </g>
</svg>
