<svg width="10" height="10" viewBox="0 0 10 10" fill="none" xmlns="http://www.w3.org/2000/svg">
<g opacity="0.5">
<path d="M4.99992 6.66666C5.92039 6.66666 6.66659 5.92047 6.66659 5C6.66659 4.07952 5.92039 3.33333 4.99992 3.33333C4.07944 3.33333 3.33325 4.07952 3.33325 5C3.33325 5.92047 4.07944 6.66666 4.99992 6.66666Z" stroke="#4DA2D6" stroke-linecap="round" stroke-linejoin="round"/>
<path d="M6.66659 3.3333V5.41663C6.66659 5.74815 6.79829 6.06609 7.03271 6.30052C7.26713 6.53494 7.58507 6.66663 7.91659 6.66663C8.24811 6.66663 8.56605 6.53494 8.80047 6.30052C9.03489 6.06609 9.16659 5.74815 9.16659 5.41663V4.99997C9.16653 4.05956 8.84835 3.14683 8.26379 2.41019C7.67922 1.67354 6.86265 1.15631 5.94686 0.942589C5.03106 0.728869 4.0699 0.831233 3.21965 1.23303C2.36941 1.63484 1.68009 2.31245 1.26378 3.15568C0.847472 3.99892 0.728658 4.95819 0.926659 5.87751C1.12466 6.79684 1.62783 7.62215 2.35435 8.21924C3.08087 8.81634 3.98802 9.15011 4.92829 9.16628C5.86855 9.18245 6.78664 8.88006 7.53326 8.3083" stroke="#4DA2D6" stroke-linecap="round" stroke-linejoin="round"/>
</g>
</svg>
