<?xml version="1.0" encoding="UTF-8" standalone="no"?>
<svg width="20px" height="14px" viewBox="0 0 20 14" version="1.1" xmlns="http://www.w3.org/2000/svg" xmlns:xlink="http://www.w3.org/1999/xlink">
    <path d="M12.4951,13.8538 C12.3841,13.8538 12.1161,13.8168 11.9431,13.4848 C11.8851,13.3738 11.8391,13.2338 11.8011,13.0558 L9.4411,2.0428 L7.2451,10.0958 C7.0681,10.7448 6.7001,10.8608 6.4961,10.8718 C6.2921,10.8828 5.9131,10.8098 5.6641,10.1858 L4.5001,7.2748 L4.3361,7.6858 C4.0571,8.3828 3.2511,8.9288 2.5001,8.9288 L0.5001,8.9288 C0.2241,8.9288 0.000100000001,8.7058 0.000100000001,8.4288 C0.000100000001,8.1528 0.2241,7.9288 0.5001,7.9288 L2.5001,7.9288 C2.8461,7.9288 3.2791,7.6358 3.4071,7.3148 L3.6641,6.6718 C3.9071,6.0648 4.2921,5.9748 4.5001,5.9748 C4.7081,5.9748 5.0931,6.0658 5.3361,6.6718 L6.4111,9.3578 L8.7551,0.7618 C8.9301,0.1208 9.2551,-0.0062 9.4991,-0.0002 C9.7431,0.0068 10.0591,0.1508 10.1991,0.8018 L12.4841,11.4638 L13.8141,4.8118 C13.9471,4.1478 14.3051,4.0108 14.5071,3.9888 C14.7091,3.9668 15.0881,4.0208 15.3631,4.6398 L16.5511,7.3118 C16.6951,7.6348 17.1471,7.9288 17.5001,7.9288 L19.5001,7.9288 C19.7761,7.9288 20.0001,8.1528 20.0001,8.4288 C20.0001,8.7058 19.7761,8.9288 19.5001,8.9288 L17.5001,8.9288 C16.7571,8.9288 15.9391,8.3968 15.6371,7.7178 L14.6821,5.5688 L13.1871,13.0458 C13.1511,13.2238 13.1071,13.3648 13.0501,13.4768 C12.8801,13.8148 12.6081,13.8528 12.5001,13.8538 L12.4971,13.8538 L12.4951,13.8538 Z"></path>
</svg>