<svg width="15" height="15" viewBox="0 0 15 15" fill="none" xmlns="http://www.w3.org/2000/svg">
<path d="M4.52555 9.8359L2.13425 7.4425C1.90163 7.20968 1.98291 6.81464 2.2885 6.69275C3.55877 6.18607 4.67981 6.10639 5.57903 6.28024C5.60759 6.28576 5.63477 6.29135 5.66059 6.29691L8.5488 3.83745C8.52128 3.39171 8.612 2.97645 8.78257 2.60392C8.87327 2.40582 8.96706 2.25977 9.03849 2.17094C9.20925 1.9586 9.52634 1.94148 9.71892 2.13421L12.8659 5.28344C13.0594 5.47709 13.0411 5.79629 12.8267 5.96653C12.6517 6.10547 12.4564 6.21236 12.2454 6.29055C11.8877 6.42316 11.5231 6.46515 11.1869 6.45199L8.70799 9.36842C8.71228 9.39342 8.71657 9.41983 8.72084 9.44758C8.86473 10.3843 8.77982 11.5081 8.30135 12.7111C8.17966 13.0171 7.78481 13.0985 7.55216 12.8656L5.17304 10.484L2.79356 12.8655C2.61475 13.0445 2.32483 13.0445 2.14603 12.8655C1.96722 12.6866 1.96722 12.3964 2.14603 12.2174L4.52555 9.8359ZM7.67668 11.694C7.88644 10.9159 7.90962 10.198 7.81574 9.58689C7.7982 9.47269 7.7817 9.39742 7.77286 9.36573C7.73195 9.21904 7.76653 9.06158 7.86513 8.94558L10.6417 5.67902C10.7453 5.55709 10.905 5.49812 11.0629 5.52347C11.0677 5.52422 11.0851 5.52646 11.1135 5.52903C11.3171 5.54753 11.5472 5.53672 11.7678 5.48062L9.52303 3.23425C9.45918 3.45813 9.44046 3.6995 9.48247 3.95412C9.50865 4.1128 9.4498 4.27359 9.32742 4.3778L6.07151 7.15035C5.94649 7.25681 5.77408 7.28813 5.61966 7.23247C5.59199 7.22251 5.5194 7.20218 5.40535 7.18014C4.82614 7.06816 4.11611 7.08636 3.30167 7.31475L5.64713 9.66229L7.67668 11.694Z" fill="#2C2F33"/>
<line x1="4.35355" y1="2.64645" x2="13.3536" y2="11.6464" stroke="#2C2F33"/>
<line x1="4.35355" y1="2.64645" x2="13.3536" y2="11.6464" stroke="white"/>
<line x1="3.35355" y1="2.64645" x2="12.3536" y2="11.6464" stroke="#2C2F33"/>
<line x1="3.35355" y1="2.64645" x2="12.3536" y2="11.6464" stroke="#2C2F33"/>
</svg>
