<svg width="12" height="12" viewBox="0 0 12 12" fill="none" xmlns="http://www.w3.org/2000/svg">
<path d="M8.5 1.49991C8.63132 1.36859 8.78722 1.26441 8.9588 1.19334C9.13038 1.12227 9.31428 1.08569 9.5 1.08569C9.68572 1.08569 9.86961 1.12227 10.0412 1.19334C10.2128 1.26441 10.3687 1.36859 10.5 1.49991C10.6313 1.63123 10.7355 1.78713 10.8066 1.95871C10.8776 2.13029 10.9142 2.31419 10.9142 2.49991C10.9142 2.68562 10.8776 2.86952 10.8066 3.0411C10.7355 3.21268 10.6313 3.36859 10.5 3.49991L3.75 10.2499L1 10.9999L1.75 8.24991L8.5 1.49991Z" stroke="#2C2F33" stroke-linecap="round" stroke-linejoin="round"/>
</svg>
