<?xml version="1.0" encoding="UTF-8" standalone="no"?>
<svg width="38px" height="38px" viewBox="0 0 38 38" version="1.1" xmlns="http://www.w3.org/2000/svg" xmlns:xlink="http://www.w3.org/1999/xlink">
    <!-- Generator: Sketch 40.3 (33839) - http://www.bohemiancoding.com/sketch -->
    <title>ico-your-condition-1</title>
    <desc>Created with Sketch.</desc>
    <defs></defs>
    <g id="Page-1" stroke="none" stroke-width="1" fill="none" fill-rule="evenodd">
        <g id="Личный-кабинет-отчет" transform="translate(-676.000000, -533.000000)">
            <g id="ico-your-condition-1" transform="translate(676.000000, 533.000000)">
                <path d="M19.004,38.002 C13.928,38.002 9.158,36.026 5.568,32.438 C1.976,28.85 0.004,24.078 0.004,19.004 C0.004,13.928 1.98,9.158 5.568,5.568 C9.156,1.978 13.928,0.002 19.004,0.002 C24.08,0.002 28.85,1.978 32.44,5.568 C36.032,9.158 38.004,13.928 38.004,19.004 C38.004,24.08 36.028,28.85 32.44,32.438 C28.852,36.026 24.08,38.002 19.004,38.002 L19.004,38.002 Z" id="Shape" fill="#56DAA1"></path>
                <path d="M14.004,15.002 C12.35,15.002 11.004,13.656 11.004,12.002 C11.004,10.348 12.35,9.002 14.004,9.002 C15.658,9.002 17.004,10.348 17.004,12.002 C17.004,13.656 15.658,15.002 14.004,15.002 L14.004,15.002 Z M14.004,11.002 C13.454,11.002 13.004,11.45 13.004,12.002 C13.004,12.554 13.454,13.002 14.004,13.002 C14.554,13.002 15.004,12.554 15.004,12.002 C15.004,11.45 14.554,11.002 14.004,11.002 L14.004,11.002 Z" id="Shape" fill="#FFFFFF"></path>
                <path d="M24.004,15.002 C22.35,15.002 21.004,13.656 21.004,12.002 C21.004,10.348 22.35,9.002 24.004,9.002 C25.658,9.002 27.004,10.348 27.004,12.002 C27.004,13.656 25.658,15.002 24.004,15.002 L24.004,15.002 Z M24.004,11.002 C23.454,11.002 23.004,11.45 23.004,12.002 C23.004,12.554 23.454,13.002 24.004,13.002 C24.554,13.002 25.004,12.554 25.004,12.002 C25.004,11.45 24.554,11.002 24.004,11.002 L24.004,11.002 Z" id="Shape" fill="#FFFFFF"></path>
                <path d="M19.004,31.002 C11.836,31.002 6.004,25.17 6.004,18.002 C6.004,17.45 6.454,17.002 7.004,17.002 C7.554,17.002 8.004,17.45 8.004,18.002 C8.004,24.068 12.938,29.002 19.004,29.002 C25.07,29.002 30.004,24.068 30.004,18.002 C30.004,17.45 30.454,17.002 31.004,17.002 C31.554,17.002 32.004,17.45 32.004,18.002 C32.004,25.17 26.172,31.002 19.004,31.002 L19.004,31.002 Z" id="Shape" fill="#FFFFFF"></path>
            </g>
        </g>
    </g>
</svg>