<svg xmlns="http://www.w3.org/2000/svg" width="19" height="19" viewBox="0 0 19 19">
  <path d="M9.5,19 C4.25329488,19 0,14.7467051 0,9.5 C0,4.25329488 4.25329488,0 9.5,0 C14.7467051,0 19,4.25329488 19,9.5 C19,14.7467051 14.7467051,19 9.5,19 Z M9.5,17 C13.6421356,17 17,13.6421356 17,9.5 C17,5.35786438 13.6421356,2 9.5,2 C5.35786438,2 2,5.35786438 2,9.5 C2,13.6421356 5.35786438,17 9.5,17 Z"/>
  <path d="M10.7426407,9.32842712 L12.863961,7.20710678 C13.2544853,6.81658249 13.2544853,6.18341751 12.863961,5.79289322 C12.4734367,5.40236893 11.8402718,5.40236893 11.4497475,5.79289322 L9.32842712,7.91421356 L7.20710678,5.79289322 C6.81658249,5.40236893 6.18341751,5.40236893 5.79289322,5.79289322 C5.40236893,6.18341751 5.40236893,6.81658249 5.79289322,7.20710678 L7.91421356,9.32842712 L5.79289322,11.4497475 C5.40236893,11.8402718 5.40236893,12.4734367 5.79289322,12.863961 C6.18341751,13.2544853 6.81658249,13.2544853 7.20710678,12.863961 L9.32842712,10.7426407 L11.4497475,12.863961 C11.8402718,13.2544853 12.4734367,13.2544853 12.863961,12.863961 C13.2544853,12.4734367 13.2544853,11.8402718 12.863961,11.4497475 L10.7426407,9.32842712 Z"/>
</svg>
