<svg xmlns="http://www.w3.org/2000/svg" width="33" height="34" viewBox="0 0 33 34">
  <g fill="none" fill-rule="evenodd" transform="translate(0 .864)">
    <ellipse cx="16.5" cy="16.35" fill="#FF5E5E" rx="16.5" ry="16.35"/>
    <path fill="#FFFFFF" fill-rule="nonzero" d="M14.6873262,16.4651187 L8.94227336,22.1581016 C8.54997533,22.5468441 8.54709297,23.1800025 8.93583543,23.5723005 C9.32457789,23.9645985 9.9577363,23.9674809 10.3500343,23.5787384 L16.108022,17.872938 L21.8660096,23.5787384 C22.2583076,23.9674809 22.8914661,23.9645985 23.2802085,23.5723005 C23.668951,23.1800025 23.6660686,22.5468441 23.2737706,22.1581016 L17.5287177,16.4651187 L23.2737706,10.7721358 C23.6660686,10.3833933 23.668951,9.75023488 23.2802085,9.35793685 C22.8914661,8.96563882 22.2583076,8.96275646 21.8660096,9.35149892 L16.108022,15.0572994 L10.3500343,9.35149892 C9.9577363,8.96275646 9.32457789,8.96563882 8.93583543,9.35793685 C8.54709297,9.75023488 8.54997533,10.3833933 8.94227336,10.7721358 L14.6873262,16.4651187 L14.6873262,16.4651187 Z"/>
  </g>
</svg>
