<?xml version="1.0" encoding="UTF-8" standalone="no"?>
<svg width="19px" height="20px" viewBox="0 0 19 20" version="1.1" xmlns="http://www.w3.org/2000/svg" xmlns:xlink="http://www.w3.org/1999/xlink">
    <path d="M18,9 L18,12 L17.5,12 C17.224,12 17,11.776 17,11.5 L17,9.5 C17,9.224 17.224,9 17.5,9 L18,9 Z M15.545,15.522 C14.141,15.937 12.106,16.773 10,18.431 L10,9.727 C12.184,7.836 14.345,6.924 15.789,6.492 C16.751,6.204 17.529,6.084 18,6.035 L18,8 L17.5,8 C16.673,8 16,8.673 16,9.5 L16,11.5 C16,12.327 16.673,13 17.5,13 L18,13 L18,15.029 C17.493,15.076 16.63,15.199 15.545,15.52 L15.545,15.522 Z M1,15.029 L1,13 L1.5,13 C2.327,13 3,12.327 3,11.5 L3,9.5 C3,8.673 2.327,8 1.5,8 L1,8 L1,6.035 C2.241,6.166 5.606,6.786 9,9.727 L9,18.431 C6.894,16.773 4.859,15.937 3.455,15.522 C2.371,15.2 1.508,15.077 1,15.03 L1,15.029 Z M1,9 L1.5,9 C1.776,9 2,9.224 2,9.5 L2,11.5 C2,11.776 1.776,12 1.5,12 L1,12 L1,9 Z M18.5,5 C18.451,5 17.282,5.006 15.545,5.522 C14.03,5.97 11.781,6.907 9.5,8.839 C7.219,6.908 4.969,5.97 3.455,5.522 C1.718,5.006 0.549,5 0.5,5 C0.224,5 0,5.224 0,5.5 L0,15.5 C0,15.633 0.053,15.76 0.146,15.854 C0.239,15.948 0.367,16 0.5,16 C0.543,16 4.86,16.044 9.168,19.874 C9.263,19.958 9.381,20 9.5,20 C9.619,20 9.737,19.958 9.832,19.874 C12.073,17.882 14.308,16.935 15.789,16.492 C17.398,16.01 18.49,16 18.5,16 C18.776,16 19,15.776 19,15.5 L19,5.5 C19,5.224 18.776,5 18.5,5 L18.5,5 Z"></path>
    <path d="M9.5,1 C10.878,1 12,2.122 12,3.5 C12,4.878 10.878,6 9.5,6 C8.122,6 7,4.878 7,3.5 C7,2.122 8.122,1 9.5,1 M9.5,7 C11.43,7 13,5.43 13,3.5 C13,1.57 11.43,0 9.5,0 C7.57,0 6,1.57 6,3.5 C6,5.43 7.57,7 9.5,7"></path>
</svg>