<svg width="28" height="28" viewBox="0 0 28 28" fill="none" xmlns="http://www.w3.org/2000/svg">
<path d="M20.986 2.88636C15.6069 2.98747 11.8611 0.269917 9.26877 0.318139C6.67643 0.366361 1.26077 1.95925 1.48399 13.8826C1.70721 25.8059 9.06266 27.419 11.914 27.3661C25.2638 27.1165 30.5114 2.70825 20.986 2.88636Z" fill="#EFEFEF"/>
<path d="M24.0139 22.9443H25.5695V23.7221H24.0139V22.9443Z" fill="#A4AFC1"/>
<path d="M19.5417 22.9443H21.0973V23.7221H19.5417V22.9443Z" fill="#A4AFC1"/>
<path d="M22.2639 20.2222H23.0417V21.7777H22.2639V20.2222Z" fill="#A4AFC1"/>
<path d="M22.2639 24.6943H23.0417V26.2499H22.2639V24.6943Z" fill="#A4AFC1"/>
<path d="M24.0675 6.04402C23.4243 6.04402 22.9009 5.52058 22.9009 4.87736C22.9009 4.23414 23.4243 3.71069 24.0675 3.71069C24.7108 3.71069 25.2342 4.23414 25.2342 4.87736C25.2342 5.52058 24.7108 6.04402 24.0675 6.04402ZM24.0675 4.48847C23.8537 4.48847 23.6787 4.66269 23.6787 4.87736C23.6787 5.09203 23.8537 5.26625 24.0675 5.26625C24.2814 5.26625 24.4564 5.09203 24.4564 4.87736C24.4564 4.66269 24.2822 4.48847 24.0675 4.48847Z" fill="#A4AFC1"/>
<path d="M12.0556 18.0521C15.3847 18.0521 18.0834 15.3534 18.0834 12.0244C18.0834 8.69531 15.3847 5.99658 12.0556 5.99658C8.72656 5.99658 6.02783 8.69531 6.02783 12.0244C6.02783 15.3534 8.72656 18.0521 12.0556 18.0521Z" fill="#79C330"/>
<path d="M7.77783 12.0244C7.77783 8.99336 10.0171 6.49203 12.9306 6.06736C12.6444 6.02536 12.3535 5.99658 12.0556 5.99658C8.72672 5.99658 6.02783 8.69547 6.02783 12.0244C6.02783 15.3533 8.72672 18.0521 12.0556 18.0521C12.3535 18.0521 12.6444 18.0234 12.9306 17.9814C10.0171 17.5567 7.77783 15.0554 7.77783 12.0244Z" fill="#39961E"/>
<path d="M5.55959 23.244L4.9397 22.2562L13.3008 17.0062C13.5287 16.8615 13.8305 16.895 14.0234 17.0871L16.7223 19.786L22.3378 14.1704L23.163 14.9956L17.1353 21.0234C16.9167 21.242 16.5294 21.242 16.31 21.0234L13.5279 18.2413L5.55959 23.244Z" fill="#2C2F33"/>
<path d="M23.3334 17.6945H22.1667V15.1659H19.6389V14H22.75C23.072 14 23.3334 14.2613 23.3334 14.5833V17.6945Z" fill="black"/>
<path d="M9.53958 18.172C7.05147 17.1485 5.44458 14.7475 5.44458 12.0556C5.44458 8.41013 8.41025 5.44446 12.0557 5.44446C15.7011 5.44446 18.6668 8.41013 18.6668 12.0556C18.6668 14.0863 17.756 15.974 16.167 17.234L15.4421 16.3193C16.7504 15.2826 17.5001 13.7278 17.5001 12.0556C17.5001 9.05335 15.0571 6.61112 12.0557 6.61112C9.05425 6.61112 6.61125 9.05335 6.61125 12.0556C6.61125 14.273 7.93503 16.2501 9.98292 17.0932L9.53958 18.172Z" fill="#2C2F33"/>
</svg>
