<svg width="10" height="10" viewBox="0 0 10 10" fill="none" xmlns="http://www.w3.org/2000/svg">
<path d="M8.18555 1.45898C8.63672 1.93164 8.98047 2.44727 9.23828 3.02734C9.49609 3.60742 9.625 4.20898 9.625 4.83203C9.625 5.69141 9.38867 6.48633 8.95898 7.2168C8.5293 7.94727 7.92773 8.52734 7.19727 8.95703C6.4668 9.38672 5.67188 9.60156 4.8125 9.60156C3.99609 9.60156 3.22266 9.4082 2.53516 9.02148L0 9.6875L0.6875 7.2168C0.257812 6.48633 0.0429688 5.69141 0.0429688 4.83203C0.0429688 3.97266 0.257812 3.17773 0.6875 2.44727C1.11719 1.7168 1.69727 1.13672 2.42773 0.707031C3.1582 0.277344 3.95312 0.0625 4.8125 0.0625C5.43555 0.0625 6.03711 0.191406 6.61719 0.427734C7.19727 0.685547 7.71289 1.0293 8.18555 1.45898ZM4.8125 8.80664C5.52148 8.80664 6.1875 8.63477 6.81055 8.26953C7.41211 7.92578 7.90625 7.43164 8.27148 6.83008C8.63672 6.22852 8.83008 5.5625 8.83008 4.83203C8.83008 4.31641 8.72266 3.82227 8.50781 3.32812C8.29297 2.85547 7.99219 2.42578 7.60547 2.03906C7.21875 1.65234 6.78906 1.37305 6.31641 1.1582C5.84375 0.964844 5.32812 0.857422 4.8125 0.857422C4.08203 0.857422 3.41602 1.05078 2.81445 1.39453C2.21289 1.75977 1.71875 2.25391 1.375 2.85547C1.00977 3.45703 0.837891 4.12305 0.837891 4.83203C0.837891 5.60547 1.03125 6.29297 1.46094 6.9375L1.54688 7.08789L1.13867 8.54883L2.64258 8.16211L2.79297 8.24805C3.39453 8.63477 4.08203 8.80664 4.8125 8.80664ZM6.98242 5.82031L7.04688 5.86328C7.13281 5.90625 7.19727 5.94922 7.21875 5.9707C7.21875 6.01367 7.21875 6.07812 7.21875 6.18555C7.21875 6.31445 7.17578 6.42188 7.13281 6.55078C7.08984 6.67969 6.96094 6.78711 6.78906 6.91602C6.61719 7.04492 6.4668 7.10938 6.33789 7.10938C6.12305 7.15234 5.92969 7.15234 5.75781 7.10938C5.54297 7.06641 5.24219 6.98047 4.89844 6.80859C4.16797 6.50781 3.50195 5.90625 2.90039 5.04688L2.85742 5.00391C2.53516 4.57422 2.38477 4.16602 2.38477 3.7793C2.38477 3.41406 2.51367 3.0918 2.77148 2.8125L2.79297 2.79102C2.87891 2.70508 2.98633 2.64062 3.11523 2.64062H3.37305C3.41602 2.64062 3.45898 2.66211 3.50195 2.68359C3.54492 2.70508 3.56641 2.74805 3.60938 2.83398L3.97461 3.71484C4.01758 3.80078 4.01758 3.88672 3.99609 3.92969C3.91016 4.08008 3.82422 4.20898 3.7168 4.31641C3.65234 4.38086 3.60938 4.42383 3.60938 4.4668C3.58789 4.50977 3.60938 4.53125 3.65234 4.57422C3.8457 4.96094 4.08203 5.24023 4.36133 5.45508C4.55469 5.62695 4.85547 5.79883 5.26367 5.99219C5.37109 6.05664 5.45703 6.05664 5.52148 5.9707C5.69336 5.75586 5.82227 5.60547 5.9082 5.49805C5.92969 5.45508 5.97266 5.41211 6.01562 5.41211C6.05859 5.41211 6.10156 5.43359 6.16602 5.43359C6.27344 5.47656 6.55273 5.60547 6.98242 5.82031Z" fill="#00A859"/>
</svg>
