<svg xmlns="http://www.w3.org/2000/svg" width="16" height="16" viewBox="0 0 16 16">
  <path d="M12.2820612,7.962 C12.1100612,8.205 11.9390612,8.407 11.7750612,8.567 C12.3460612,6.415 12.7060612,5.004 12.8780612,3 L14.8350612,3 C14.6130612,3.742 14.1990612,4.036 13.6660612,5.316 C13.1990612,6.441 12.7330612,7.331 12.2820612,7.962 Z M5.47106122,9.317 C4.50906122,6.234 4.05106122,3.364 4.00406122,1.001 L11.9940612,1.001 C11.9410612,3.181 11.5520612,5.581 10.7680612,8.463 C10.6840612,8.771 10.5980612,9.067 10.5090612,9.349 C9.56506122,12.36 9.33306122,13.001 8.00006122,13.001 C6.51330566,13.001 6.09130859,11.18396 5.47106122,9.317 Z M2.34006122,5.316 C1.80606122,4.036 1.39006122,3.742 1.16606122,3 L3.11206122,3 C3.23406122,4.462 3.46306122,5.214 3.84106122,6.998 C3.94506122,7.489 4.06806122,8.014 4.21206122,8.552 C4.05406122,8.396 3.89006122,8.198 3.72406122,7.963 C3.27506122,7.332 2.80906122,6.441 2.34006122,5.316 Z M15.5000612,2 L12.9520612,2 C12.9850612,1.447 13.0000612,0.941 13.0000612,0.5 C13.0000612,0.223 12.7760612,0 12.5000612,0 L3.49906122,0 C3.22406122,0 3.00106122,0.221 2.99906122,0.497 C2.99706122,0.914 3.01006122,1.421 3.04206122,2 L0.500061224,2 C0.344061224,2 0.198061224,2.072 0.103061224,2.196 C0.00806122449,2.32 -0.0229387755,2.48 0.0170612245,2.629 C0.0390612245,2.712 0.576061224,3.684 1.41306122,5.692 C2.49506122,8.288 3.55106122,9.689 4.62806122,9.953 C5.14806122,11.521 5.27606122,11.8933105 5.90307617,12.8623047 C6.26494158,13.4215345 6.76606122,13.763 7.29906122,13.907 C6.85306122,14.857 6.13706122,14.622 5.27606122,15.051 C5.06906122,15.156 4.96006122,15.387 5.01306122,15.614 C5.06606122,15.839 5.26806122,15.999 5.50006122,15.999 L10.5000612,15.999 C10.7320612,15.999 10.9330612,15.839 10.9870612,15.614 C11.0410612,15.387 10.9310612,15.156 10.7240612,15.051 C9.86306122,14.622 9.14806122,14.857 8.70106122,13.907 C9.53406122,13.683 9.90714817,13.4304423 10.5090612,12.3618164 C10.9870612,11.5131836 11.0425898,11.205 11.4545898,9.953 C12.5425898,9.69 13.5120612,8.289 14.5930612,5.691 C15.4280612,3.682 15.9600612,2.711 15.9820612,2.628 C16.0220612,2.477 15.9900612,2.317 15.8960612,2.194 C15.8020612,2.073 15.6560612,2 15.5000612,2 Z"/>
</svg>
