<?xml version="1.0" encoding="utf-8"?>
<!-- Generator: Adobe Illustrator 21.1.0, SVG Export Plug-In . SVG Version: 6.00 Build 0)  -->
<svg version="1.1" id="Слой_1" xmlns="http://www.w3.org/2000/svg" xmlns:xlink="http://www.w3.org/1999/xlink" x="0px" y="0px"
	 viewBox="0 0 446 381.9" style="enable-background:new 0 0 446 381.9;" xml:space="preserve">
<g>
	<path d="M0.1,198c0-9.3,0-18.7,0-28c1.6-8.3,2.7-16.8,4.9-24.9C17.1,99.9,44.9,66.3,83.2,40.7c36.4-24.3,76.9-37,120.4-40
		c60.9-4.1,117.2,9.6,167.1,45.5c34,24.4,58.5,56.2,69.9,97c2.5,8.8,3.6,17.9,5.4,26.8c0,9,0,18,0,27c-0.3,1.1-0.6,2.2-0.8,3.3
		c-3.3,13.2-5.2,26.9-10.1,39.5c-17.1,43.9-48.6,75.3-89.6,96.9c-67,35.3-136.9,39.5-208.6,16.2c-3.6-1.2-6.5-1.1-10,0.4
		c-21,9-42,17.7-63,26.7c-4.9,2.1-9.5,3.1-14-0.8c-4.4-3.9-4-8.6-2.7-13.8c4.4-16.8,8.4-33.6,12.9-50.3c1-3.8,0.3-5.9-2.6-8.5
		c-25.9-23.3-44.4-51.2-53-85.2C2.7,213.7,1.6,205.8,0.1,198z M73,352.8c2.5-1,4.1-1.6,5.6-2.3c15.6-6.7,31.2-13.4,46.7-20.3
		c4.2-1.9,8.2-1.9,12.5-0.3c46.9,17.4,94.9,20.5,143.4,8.7c44.8-10.9,83.7-32.1,112.4-69c31.1-40,39.8-84.4,22.2-132.6
		c-12.5-34.3-36.1-60.1-66.7-79.2c-59.2-37-123.1-44.5-190.1-27.3c-42.8,11-79.5,32.6-106.9,67.9C25.2,133,15.2,171.9,25.3,215
		c7.9,33.4,26.9,59.8,53,81.5c5.3,4.4,6.9,9.1,5,15.8C79.7,325.4,76.6,338.6,73,352.8z"/>
</g>
</svg>
