<?xml version="1.0" encoding="UTF-8" standalone="no"?>
<svg width="38px" height="38px" viewBox="0 0 38 38" version="1.1" xmlns="http://www.w3.org/2000/svg" xmlns:xlink="http://www.w3.org/1999/xlink">
    <!-- Generator: Sketch 40.3 (33839) - http://www.bohemiancoding.com/sketch -->
    <title>ico-your-condition-3</title>
    <desc>Created with Sketch.</desc>
    <defs></defs>
    <g id="Page-1" stroke="none" stroke-width="1" fill="none" fill-rule="evenodd">
        <g id="Личный-кабинет-отчет" transform="translate(-887.000000, -533.000000)" fill="#70768C">
            <g id="ico-your-condition-3" transform="translate(887.000000, 533.000000)">
                <path d="M19.004,38.002 C13.928,38.002 9.158,36.026 5.568,32.438 C1.978,28.85 0.004,24.078 0.004,19.004 C0.004,13.928 1.98,9.158 5.568,5.568 C9.156,1.978 13.928,0.002 19.004,0.002 C24.08,0.002 28.85,1.978 32.44,5.568 C36.03,9.158 38.004,13.928 38.004,19.004 C38.004,24.08 36.028,28.85 32.44,32.438 C28.852,36.026 24.08,38.002 19.004,38.002 L19.004,38.002 Z M19.004,2.002 C9.63,2.002 2.004,9.626 2.004,19.002 C2.004,28.378 9.63,36.002 19.004,36.002 C28.378,36.002 36.004,28.378 36.004,19.002 C36.004,9.626 28.376,2.002 19.004,2.002 L19.004,2.002 Z" id="Shape"></path>
                <path d="M13.004,14.002 C11.35,14.002 10.004,12.656 10.004,11.002 C10.004,9.348 11.35,8.002 13.004,8.002 C14.658,8.002 16.004,9.348 16.004,11.002 C16.004,12.656 14.658,14.002 13.004,14.002 L13.004,14.002 Z M13.004,10.002 C12.452,10.002 12.004,10.45 12.004,11.002 C12.004,11.554 12.452,12.002 13.004,12.002 C13.556,12.002 14.004,11.554 14.004,11.002 C14.004,10.45 13.556,10.002 13.004,10.002 L13.004,10.002 Z" id="Shape"></path>
                <path d="M25.004,14.002 C23.35,14.002 22.004,12.656 22.004,11.002 C22.004,9.348 23.35,8.002 25.004,8.002 C26.658,8.002 28.004,9.348 28.004,11.002 C28.004,12.656 26.658,14.002 25.004,14.002 L25.004,14.002 Z M25.004,10.002 C24.452,10.002 24.004,10.45 24.004,11.002 C24.004,11.554 24.452,12.002 25.004,12.002 C25.556,12.002 26.004,11.554 26.004,11.002 C26.004,10.45 25.556,10.002 25.004,10.002 L25.004,10.002 Z" id="Shape"></path>
                <path d="M11.002,28.002 C10.792,28.002 10.582,27.936 10.402,27.802 C9.958,27.47 9.87,26.844 10.202,26.402 C11.206,25.066 12.52,23.958 14.004,23.2 C15.56,22.406 17.242,22.002 19.002,22.002 C20.762,22.002 22.444,22.406 24,23.2 C25.484,23.958 26.798,25.066 27.802,26.402 C28.134,26.844 28.044,27.47 27.602,27.802 C27.162,28.134 26.534,28.044 26.202,27.602 C24.486,25.314 21.858,24.002 19,24.002 C16.142,24.002 13.518,25.314 11.798,27.602 C11.606,27.866 11.306,28.004 11.002,28.002 L11.002,28.002 L11.002,28.002 Z" id="Shape"></path>
            </g>
        </g>
    </g>
</svg>