<?xml version="1.0" encoding="UTF-8" standalone="no"?>
<svg width="15px" height="20px" viewBox="0 0 15 20" version="1.1" xmlns="http://www.w3.org/2000/svg" xmlns:xlink="http://www.w3.org/1999/xlink">
    <!-- Generator: Sketch 41.1 (35376) - http://www.bohemiancoding.com/sketch -->
    <title>ico-trash</title>
    <desc>Created with Sketch.</desc>
    <defs></defs>
    <g id="Page-1" stroke="none" stroke-width="1" fill="none" fill-rule="evenodd">
        <g id="8.2.-mob_producer_profile" transform="translate(-274.000000, -1505.000000)" fill="#8C8C8C">
            <g id="input-copy-10" transform="translate(15.000000, 1485.000000)">
                <g id="ico-trash" transform="translate(259.000000, 20.000000)">
                    <path d="M14.002,4.501 C14.002,4.777 13.778,5.001 13.502,5.001 L1.502,5.001 C1.226,5.001 1.002,4.777 1.002,4.501 L1.002,3.501 C1.002,3.225 1.226,3.001 1.502,3.001 L13.502,3.001 C13.778,3.001 14.002,3.225 14.002,3.501 L14.002,4.501 Z M12.502,19.001 L2.502,19.001 C2.226,19.001 2.002,18.777 2.002,18.501 L2.002,6.001 L13.002,6.001 L13.002,18.501 C13.002,18.777 12.778,19.001 12.502,19.001 L12.502,19.001 Z M6.002,1.501 C6.002,1.225 6.226,1.001 6.502,1.001 L8.502,1.001 C8.778,1.001 9.002,1.225 9.002,1.501 L9.002,2.001 L6.002,2.001 L6.002,1.501 Z M13.502,2.001 L10.002,2.001 L10.002,1.501 C10.002,0.674 9.329,0.001 8.502,0.001 L6.502,0.001 C5.675,0.001 5.002,0.674 5.002,1.501 L5.002,2.001 L1.502,2.001 C0.675,2.001 0.002,2.674 0.002,3.501 L0.002,4.501 C0.002,5.153 0.42,5.709 1.002,5.915 L1.002,18.501 C1.002,19.328 1.675,20.001 2.502,20.001 L12.502,20.001 C13.329,20.001 14.002,19.328 14.002,18.501 L14.002,5.915 C14.584,5.709 15.002,5.153 15.002,4.501 L15.002,3.501 C15.002,2.674 14.329,2.001 13.502,2.001 L13.502,2.001 Z" id="Fill-694"></path>
                    <path d="M10.502,7.001 C10.226,7.001 10.002,7.225 10.002,7.501 L10.002,17.501 C10.002,17.777 10.226,18.001 10.502,18.001 C10.778,18.001 11.002,17.777 11.002,17.501 L11.002,7.501 C11.002,7.225 10.778,7.001 10.502,7.001" id="Fill-695"></path>
                    <path d="M7.502,7.001 C7.226,7.001 7.002,7.225 7.002,7.501 L7.002,17.501 C7.002,17.777 7.226,18.001 7.502,18.001 C7.778,18.001 8.002,17.777 8.002,17.501 L8.002,7.501 C8.002,7.225 7.778,7.001 7.502,7.001" id="Fill-696"></path>
                    <path d="M4.502,7.001 C4.226,7.001 4.002,7.225 4.002,7.501 L4.002,17.501 C4.002,17.777 4.226,18.001 4.502,18.001 C4.778,18.001 5.002,17.777 5.002,17.501 L5.002,7.501 C5.002,7.225 4.778,7.001 4.502,7.001" id="Fill-697"></path>
                </g>
            </g>
        </g>
    </g>
</svg>