<svg width="24" height="24" viewBox="0 0 24 24" fill="none" xmlns="http://www.w3.org/2000/svg">
<path d="M12 12.0001H11C11 12.2653 11.1054 12.5196 11.2929 12.7072L12 12.0001ZM12 21.2667C6.88217 21.2667 2.73334 17.1179 2.73334 12.0001H0.733337C0.733337 18.2225 5.7776 23.2667 12 23.2667V21.2667ZM21.2667 12.0001C21.2667 17.1179 17.1178 21.2667 12 21.2667V23.2667C18.2224 23.2667 23.2667 18.2225 23.2667 12.0001H21.2667ZM12 2.7334C17.1178 2.7334 21.2667 6.88223 21.2667 12.0001H23.2667C23.2667 5.77766 18.2224 0.733398 12 0.733398V2.7334ZM12 0.733398C5.7776 0.733398 0.733337 5.77766 0.733337 12.0001H2.73334C2.73334 6.88223 6.88217 2.7334 12 2.7334V0.733398ZM11 5.40006V12.0001H13V5.40006H11ZM11.2929 12.7072L15.6929 17.1072L17.1071 15.693L12.7071 11.293L11.2929 12.7072Z" fill="#4DA2D6"/>
</svg>
