<?xml version="1.0" encoding="utf-8"?>
<!-- Generator: Adobe Illustrator 21.1.0, SVG Export Plug-In . SVG Version: 6.00 Build 0)  -->
<svg version="1.1" id="Слой_1" xmlns="http://www.w3.org/2000/svg" xmlns:xlink="http://www.w3.org/1999/xlink" x="0px" y="0px"
	 viewBox="0 0 468 324" style="enable-background:new 0 0 468 324;" xml:space="preserve">
<g>
	<path d="M468,158c0,2.7,0,5.3,0,8c-2,4.1-3.5,8.7-6.2,12.4c-27.8,38-60.2,71.6-98.6,99c-27.5,19.6-57.1,34.8-90.3,42.1
		c-8.6,1.9-17.3,3-25.9,4.5c-8.7,0-17.3,0-26,0c-0.8-0.3-1.5-0.7-2.3-0.8c-31.4-2.7-60.2-13.4-87.4-28.9
		c-39.7-22.6-73-52.8-102.4-87.4C18.1,194.2,6.3,182,0,166c0-2.7,0-5.3,0-8c2-4.1,3.4-8.7,6.1-12.4c27.9-38.2,60.4-71.8,99.1-99.3
		c27.3-19.5,56.8-34.6,89.9-41.8c8.5-1.9,17.2-3,25.9-4.5c8.7,0,17.3,0,26,0c0.8,0.3,1.5,0.7,2.3,0.8c31.4,2.7,60.2,13.4,87.4,28.9
		c39.7,22.6,73,52.9,102.4,87.4C449.9,129.8,461.6,142.1,468,158z M23.9,161.1c0.7,1.4,0.8,1.9,1.1,2.2
		c32.4,43.8,70.1,82,117.6,109.7c26.2,15.3,54.2,25.4,84.9,26.8c36.1,1.6,68.9-9.7,99.6-27.7c39.3-23,71.7-54,100.6-88.8
		c5.7-6.9,11-14.1,16.6-21.3c-34.3-45.6-73.1-85.5-123-113.3c-24.9-13.9-51.3-23-80-24.4c-32.5-1.6-62.5,7.4-91,22.4
		c-37.9,20.1-69.5,48-97.8,79.8C42.5,137.8,33.3,149.8,23.9,161.1z"/>
	<path d="M234.3,72c49.7,0.1,89.8,40.4,89.7,90.1c-0.1,49.9-40.5,90.1-90.5,89.9c-49.6-0.2-89.6-40.6-89.5-90.4
		C144.1,112,184.5,71.9,234.3,72z M300,162.1c0.1-36.6-29.4-66.1-66-66.1c-36.4,0-65.9,29.2-66,65.6c-0.1,36.7,29.1,66.3,65.7,66.4
		C270.4,228.1,299.9,198.7,300,162.1z"/>
</g>
</svg>
