<svg width="12" height="12" viewBox="0 0 12 12" fill="none" xmlns="http://www.w3.org/2000/svg">
<path d="M8.5 10.5V9.5C8.5 8.96957 8.28929 8.46086 7.91421 8.08579C7.53914 7.71071 7.03043 7.5 6.5 7.5H2.5C1.96957 7.5 1.46086 7.71071 1.08579 8.08579C0.710714 8.46086 0.5 8.96957 0.5 9.5V10.5" stroke="#2C2F33" stroke-linecap="round" stroke-linejoin="round"/>
<path d="M4.5 5.5C5.60457 5.5 6.5 4.60457 6.5 3.5C6.5 2.39543 5.60457 1.5 4.5 1.5C3.39543 1.5 2.5 2.39543 2.5 3.5C2.5 4.60457 3.39543 5.5 4.5 5.5Z" stroke="#2C2F33" stroke-linecap="round" stroke-linejoin="round"/>
<path d="M11.5 10.4999V9.49994C11.4997 9.05681 11.3522 8.62633 11.0807 8.2761C10.8092 7.92587 10.4291 7.67573 10 7.56494" stroke="#2C2F33" stroke-linecap="round" stroke-linejoin="round"/>
<path d="M8 1.56494C8.43021 1.67509 8.81152 1.92529 9.08382 2.2761C9.35612 2.6269 9.50392 3.05836 9.50392 3.50244C9.50392 3.94653 9.35612 4.37798 9.08382 4.72879C8.81152 5.07959 8.43021 5.32979 8 5.43994" stroke="#2C2F33" stroke-linecap="round" stroke-linejoin="round"/>
</svg>
