<svg xmlns="http://www.w3.org/2000/svg" width="14" height="15" viewBox="0 0 14 15">
  <g fill="#36A7E0">
    <path d="M10.0439453,7.05517578 L10.0439453,12.536144 C10.0439453,12.813934 9.81443306,13.043457 9.54147202,13.043457 L1.54641861,13.043457 C1.27183043,13.043457 1.04394531,12.8144824 1.04394531,12.5409837 L1.04394531,4.54593033 C1.04394531,4.26870938 1.26858663,4.04345703 1.54252054,4.04345703 L7.0135498,4.04345703 C7.28969218,4.04345703 7.5135498,3.81959941 7.5135498,3.54345703 C7.5135498,3.26731466 7.28969218,3.04345703 7.0135498,3.04345703 L1.54252054,3.04345703 C0.715692904,3.04345703 0.0439453125,3.71703178 0.0439453125,4.54593033 L0.0439453125,12.5409837 C0.0439453125,13.3657023 0.718475197,14.043457 1.54641861,14.043457 L9.54147202,14.043457 C10.3667283,14.043457 11.0439453,13.3662083 11.0439453,12.536144 L11.0439453,7.05517578 C11.0439453,6.77903341 10.8200877,6.55517578 10.5439453,6.55517578 C10.2678029,6.55517578 10.0439453,6.77903341 10.0439453,7.05517578 Z"/>
    <path d="M12.0449219,2.65327377 L4.89847527,9.79972038 C4.70321312,9.99498253 4.38663063,9.99498253 4.19136848,9.79972038 C3.99610634,9.60445824 3.99610634,9.28787575 4.19136848,9.0926136 L11.3378151,1.94616699 L9.00938797,1.94616699 C8.73324559,1.94616699 8.50938797,1.72230937 8.50938797,1.44616699 C8.50938797,1.17002462 8.73324559,0.946166992 9.00938797,0.946166992 L12.5449219,0.946166992 C12.6829931,0.946166992 12.8079931,1.0021314 12.8984753,1.0926136 C12.9889575,1.1830958 13.0449219,1.3080958 13.0449219,1.44616699 L13.0449219,4.9817009 C13.0449219,5.25784327 12.8210642,5.4817009 12.5449219,5.4817009 C12.2687795,5.4817009 12.0449219,5.25784327 12.0449219,4.9817009 L12.0449219,2.65327377 Z"/>
  </g>
</svg>
