<svg xmlns="http://www.w3.org/2000/svg" width="24" height="22" viewBox="0 0 24 22">
  <g fill="#70CFFE">
    <ellipse cx="12" cy="12.222" rx="3.84" ry="3.911"/>
    <path d="M8.4,0 L6.204,2.44444444 L2.4,2.44444444 C1.08,2.44444444 0,3.54444444 0,4.88888889 L0,19.5555556 C0,20.9 1.08,22 2.4,22 L21.6,22 C22.92,22 24,20.9 24,19.5555556 L24,4.88888889 C24,3.54444444 22.92,2.44444444 21.6,2.44444444 L17.796,2.44444444 L15.6,0 L8.4,0 Z M12,18.3333333 C8.688,18.3333333 6,15.5955556 6,12.2222222 C6,8.84888889 8.688,6.11111111 12,6.11111111 C15.312,6.11111111 18,8.84888889 18,12.2222222 C18,15.5955556 15.312,18.3333333 12,18.3333333 Z"/>
  </g>
</svg>
