<svg xmlns="http://www.w3.org/2000/svg" width="20" height="20" viewBox="0 0 20 20">
  <path d="M6.502,19.001 C5.124,19.001 4.002,17.879 4.002,16.501 C4.002,15.123 5.124,14.001 6.502,14.001 C7.255,14.001 7.991,13.891 8.692,13.678 L9.029,14.663 C9.1,14.871 9.294,15.001 9.502,15.001 C9.556,15.001 9.61,14.992 9.664,14.974 C9.925,14.885 10.064,14.6 9.975,14.339 L9.627,13.323 C10.279,13.024 10.889,12.629 11.44,12.146 L12.149,12.855 C12.247,12.953 12.375,13.002 12.503,13.002 C12.631,13.002 12.759,12.953 12.856,12.855 C13.051,12.66 13.051,12.343 12.856,12.147 L12.147,11.439 C12.63,10.888 13.025,10.278 13.324,9.626 L14.34,9.974 C14.394,9.992 14.448,10.001 14.502,10.001 C14.71,10.001 14.904,9.87 14.975,9.663 C15.064,9.402 14.925,9.117 14.664,9.028 L13.679,8.69 C13.892,7.99 14.002,7.254 14.002,6.501 C14.002,5.123 15.124,4.001 16.502,4.001 C17.88,4.001 19.002,5.123 19.002,6.501 C19.002,13.394 13.395,19.001 6.502,19.001 L6.502,19.001 Z M1.315,17.111 C1.206,17.198 1.102,17.285 1.002,17.369 L1.002,15.634 C1.101,15.718 1.206,15.805 1.315,15.892 C1.62,16.136 1.901,16.339 2.161,16.502 C1.901,16.665 1.62,16.868 1.315,17.112 L1.315,17.111 Z M17.369,1.001 C17.285,1.1 17.198,1.205 17.111,1.314 C16.867,1.619 16.664,1.9 16.501,2.16 C16.338,1.9 16.135,1.619 15.891,1.314 C15.804,1.205 15.717,1.101 15.633,1.001 L17.368,1.001 L17.369,1.001 Z M17.14,3.059 C17.437,2.454 18.167,1.543 18.856,0.855 C18.999,0.711 19.042,0.496 18.964,0.309 C18.886,0.122 18.704,0 18.502,0 L14.502,0 C14.3,0 14.118,0.122 14.04,0.309 C13.962,0.496 14.005,0.711 14.148,0.855 C14.836,1.543 15.567,2.454 15.864,3.059 C14.238,3.36 13.002,4.788 13.002,6.501 C13.002,10.085 10.086,13.001 6.502,13.001 C4.79,13.001 3.361,14.237 3.06,15.863 C2.455,15.565 1.544,14.836 0.855,14.147 C0.712,14.004 0.497,13.961 0.31,14.039 C0.123,14.117 0.001,14.299 0.001,14.501 L0.001,18.501 C0.001,18.703 0.123,18.885 0.31,18.963 C0.372,18.989 0.437,19.001 0.501,19.001 C0.631,19.001 0.759,18.95 0.855,18.855 C1.544,18.167 2.455,17.437 3.06,17.139 C3.361,18.765 4.789,20.001 6.502,20.001 C8.324,20.001 10.092,19.644 11.757,18.94 C13.365,18.26 14.808,17.287 16.048,16.047 C17.288,14.807 18.261,13.364 18.941,11.756 C19.645,10.091 20.002,8.323 20.002,6.501 C20.002,4.789 18.766,3.36 17.14,3.059 L17.14,3.059 Z"/>
</svg>
