<?xml version="1.0" encoding="utf-8"?>
<!-- Generator: Adobe Illustrator 22.1.0, SVG Export Plug-In . SVG Version: 6.00 Build 0)  -->
<svg version="1.1" id="Слой_1" xmlns="http://www.w3.org/2000/svg" xmlns:xlink="http://www.w3.org/1999/xlink" x="0px" y="0px"
	 viewBox="0 0 512 512" style="enable-background:new 0 0 512 512;" xml:space="preserve">
<title>3orange</title>
<path class="st0" d="M457.7,469.7c-5.5,0-10-4.5-10-10c0-5.5,4.5-10,10-10c5.5,0,10,4.5,10,10c0,0.6,0,1.1-0.1,1.6
	C466.8,466.2,462.6,469.7,457.7,469.7z"/>
<path class="st0" d="M256,412.6c-5.5,0-10-4.5-10-10v-75c0-5.5,4.5-10,10-10c5.5,0,10,4.5,10,10v75C266,408.2,261.5,412.6,256,412.6
	z"/>
<path class="st0" d="M502,284.7H358V258c0-5.5-4.5-10-10-10H164c-5.5,0-10,4.5-10,10v53.3H10c-5.5,0-10,4.5-10,10v138.4
	c0,5.5,4.5,10,10,10h402.7c5.5,0,10-4.5,10-10s-4.5-10-10-10H358v-145h134v155c0,5.5,4.5,10,10,10s10-4.5,10-10v-165
	C512,289.2,507.6,284.7,502,284.7C502,284.7,502,284.7,502,284.7z M20,331.4h134v118.4H20V331.4z M174,268.1h164v181.7H174V268.1z"
	/>
<path class="st0" d="M109.8,259.4c-2.2,0-4.4-0.4-6.4-1.3L87,251.4l-16.4,6.8c-8.4,3.5-18.1-0.5-21.6-8.9c-1-2.4-1.4-5-1.2-7.6
	l1.4-17.7l-11.5-13.5c-5.9-7-5.1-17.4,1.8-23.3c2-1.7,4.3-2.9,6.9-3.5l17.3-4.1l9.3-15.1c4.8-7.8,15-10.2,22.8-5.5
	c2.2,1.4,4.1,3.2,5.5,5.5l9.3,15.1l17.3,4.1c8.9,2.1,14.4,11.1,12.2,20c-0.6,2.5-1.8,4.9-3.5,6.9l-11.5,13.5l1.4,17.7
	c0.7,9.1-6.1,17.1-15.2,17.8C110.6,259.4,110.2,259.4,109.8,259.4L109.8,259.4z M56.5,201.6L67.1,214c1.7,2,2.6,4.6,2.4,7.3
	l-1.3,16.2l15-6.2c2.4-1,5.2-1,7.7,0l15,6.2l-1.3-16.2c-0.2-2.7,0.7-5.3,2.5-7.3l10.6-12.4l-15.8-3.8c-2.6-0.6-4.8-2.2-6.2-4.5
	L87,179.5l-8.5,13.9c-1.4,2.3-3.6,3.9-6.2,4.5L56.5,201.6z M123,203L123,203z"/>
<path class="st0" d="M402.2,259.4c-9.2,0-16.5-7.5-16.5-16.6c0-0.4,0-0.8,0.1-1.3l1.4-17.7l-11.5-13.5c-5.9-6.9-5.1-17.4,1.8-23.3
	c2-1.7,4.4-2.9,6.9-3.5l17.3-4.1l9.3-15.1c4.8-7.8,15-10.2,22.8-5.5c2.2,1.4,4.1,3.2,5.5,5.5l0,0l9.3,15.1l17.3,4.1
	c8.9,2.1,14.4,11.1,12.2,20c-0.6,2.5-1.8,4.9-3.5,6.9l-11.5,13.5l1.4,17.7c0.7,9.1-6.1,17.1-15.2,17.8c-2.6,0.2-5.2-0.2-7.7-1.2
	l-16.4-6.8l-16.4,6.8C406.6,259,404.4,259.4,402.2,259.4z M425,230.5c1.3,0,2.6,0.3,3.8,0.8l15,6.2l-1.3-16.2
	c-0.2-2.6,0.6-5.3,2.4-7.3l10.6-12.4l-15.8-3.8c-2.6-0.6-4.8-2.2-6.2-4.5l-8.5-13.9l-8.5,13.9c-1.4,2.3-3.6,3.9-6.2,4.5l-15.8,3.8
	L405,214c1.7,2,2.6,4.6,2.4,7.3l-1.3,16.2l15-6.2C422.4,230.8,423.7,230.5,425,230.5z"/>
<path class="st0" d="M216.1,207.6c-11.9,0-21.5-9.7-21.4-21.6c0-0.5,0-1.1,0.1-1.6l2.7-34.1l-22.2-26c-7.7-9-6.6-22.6,2.4-30.3
	c2.6-2.2,5.6-3.8,8.9-4.5l33.3-8l17.9-29.2c6.2-10.1,19.4-13.3,29.6-7.1c2.9,1.8,5.3,4.2,7.1,7.1l17.9,29.2l33.3,8
	c11.5,2.8,18.6,14.4,15.9,25.9c-0.8,3.3-2.4,6.4-4.6,8.9l-22.2,26l2.7,34.1c1,11.8-7.9,22.2-19.7,23.2c-3.4,0.3-6.8-0.3-10-1.6
	L256,192.8L224.4,206C221.8,207.1,219,207.6,216.1,207.6z M256,62c-0.5,0-1,0.3-1.3,0.7l-20,32.7c-1.4,2.3-3.6,3.9-6.2,4.5
	l-37.3,8.9c-0.8,0.2-1.3,1-1.1,1.8c0.1,0.2,0.2,0.4,0.3,0.6l24.9,29.2c1.7,2,2.6,4.6,2.4,7.3l-3,38.3c-0.1,0.8,0.6,1.5,1.4,1.6
	c0.2,0,0.4,0,0.6-0.1l35.4-14.7c2.5-1,5.2-1,7.7,0l35.4,14.7c0.8,0.3,1.6-0.1,1.9-0.8c0.1-0.2,0.1-0.4,0.1-0.7l-3-38.3
	c-0.2-2.6,0.6-5.3,2.4-7.3l24.9-29.2c0.5-0.6,0.5-1.6-0.2-2.1c-0.2-0.2-0.4-0.3-0.6-0.3l-37.3-8.9c-2.6-0.6-4.8-2.2-6.2-4.5
	l-20-32.7C257,62.2,256.5,62,256,62z"/>
</svg>
