<?xml version="1.0" encoding="UTF-8" standalone="no"?>
<svg width="20px" height="18px" viewBox="0 0 20 18" version="1.1" xmlns="http://www.w3.org/2000/svg" xmlns:xlink="http://www.w3.org/1999/xlink">
    <!-- Generator: Sketch 41 (35326) - http://www.bohemiancoding.com/sketch -->
    <title>ico-msg</title>
    <desc>Created with Sketch.</desc>
    <defs></defs>
    <g id="Page-1" stroke="none" stroke-width="1" fill="none" fill-rule="evenodd">
        <g id="Зачетная-книжка-отчеты-за-все-дни" transform="translate(-1106.000000, -167.000000)">
            <g id="Group-5" transform="translate(1105.000000, 164.000000)">
                <g id="ico-msg" transform="translate(0.540825, 2.551829)">
                    <path d="M1.002,17.501 C0.777,17.501 0.58,17.351 0.52,17.134 C0.46,16.917 0.552,16.687 0.746,16.572 C2.436,15.557 3.138,14.083 3.387,13.392 C1.549,11.986 0.503,10.038 0.503,8 C0.503,6.971 0.761,5.974 1.271,5.036 C1.757,4.141 2.452,3.341 3.333,2.655 C5.12,1.264 7.489,0.499 10.004,0.499 C12.519,0.499 14.888,1.265 16.675,2.655 C17.556,3.34 18.25,4.14 18.737,5.036 C19.247,5.973 19.505,6.97 19.505,8 C19.505,9.03 19.247,10.026 18.737,10.964 C18.251,11.859 17.556,12.659 16.675,13.345 C14.888,14.736 12.519,15.501 10.004,15.501 C8.971,15.501 7.957,15.372 6.988,15.116 C6.558,15.402 5.757,15.909 4.799,16.386 C3.309,17.127 2.033,17.502 1.002,17.501 L1.002,17.501 L1.002,17.501 Z M10.002,1.501 C5.315,1.501 1.502,4.417 1.502,8.001 C1.502,9.816 2.507,11.563 4.258,12.793 C4.43,12.914 4.508,13.129 4.454,13.332 C4.337,13.768 3.938,14.965 2.874,16.12 C4.176,15.664 5.578,14.873 6.613,14.161 C6.736,14.076 6.889,14.051 7.034,14.092 C7.982,14.363 8.98,14.501 10.002,14.501 C14.689,14.501 18.502,11.585 18.502,8.001 C18.502,4.417 14.688,1.501 10.002,1.501 L10.002,1.501 Z" id="Shape"></path>
                    <path d="M14.002,5.501 L6.002,5.501 C5.726,5.501 5.502,5.277 5.502,5.001 C5.502,4.725 5.726,4.501 6.002,4.501 L14.002,4.501 C14.278,4.501 14.502,4.725 14.502,5.001 C14.502,5.277 14.278,5.501 14.002,5.501 L14.002,5.501 Z" id="Shape"></path>
                    <path d="M14.002,7.501 L6.002,7.501 C5.726,7.501 5.502,7.277 5.502,7.001 C5.502,6.725 5.726,6.501 6.002,6.501 L14.002,6.501 C14.278,6.501 14.502,6.725 14.502,7.001 C14.502,7.277 14.278,7.501 14.002,7.501 L14.002,7.501 Z" id="Shape"></path>
                    <path d="M14.002,9.501 L6.002,9.501 C5.726,9.501 5.502,9.277 5.502,9.001 C5.502,8.725 5.726,8.501 6.002,8.501 L14.002,8.501 C14.278,8.501 14.502,8.725 14.502,9.001 C14.502,9.277 14.278,9.501 14.002,9.501 L14.002,9.501 Z" id="Shape"></path>
                    <path d="M12.002,11.501 L6.002,11.501 C5.726,11.501 5.502,11.277 5.502,11.001 C5.502,10.725 5.726,10.501 6.002,10.501 L12.002,10.501 C12.278,10.501 12.502,10.725 12.502,11.001 C12.502,11.277 12.278,11.501 12.002,11.501 L12.002,11.501 Z" id="Shape"></path>
                </g>
            </g>
        </g>
    </g>
</svg>