<svg width="15" height="15" viewBox="0 0 15 15" xmlns="http://www.w3.org/2000/svg">
<path d="M13.7055 3.502L13.2422 3.37843V2.45877C13.6996 2.42848 14.0625 2.04694 14.0625 1.58203V0.878906C14.0625 0.394277 13.6682 0 13.1836 0H8.02734C7.54271 0 7.14844 0.394277 7.14844 0.878906V1.58203C7.14844 2.04694 7.51137 2.42848 7.96875 2.45877V3.37843L7.50536 3.502C6.74323 3.70526 6.21094 4.39808 6.21094 5.18684V6.00586V13.125V14.0662C6.21094 14.5811 6.62985 15 7.14478 15H14.0662C14.5811 15 15 14.5811 15 14.0662V13.125V6.00586V5.18684C15 4.39808 14.4677 3.70526 13.7055 3.502ZM7.73438 1.58203V0.878906C7.73438 0.717363 7.8658 0.585938 8.02734 0.585938H13.1836C13.3451 0.585938 13.4766 0.717363 13.4766 0.878906V1.58203C13.4766 1.74357 13.3451 1.875 13.1836 1.875H8.02734C7.8658 1.875 7.73438 1.74357 7.73438 1.58203ZM14.4141 14.0662C14.4141 14.258 14.258 14.4141 14.0662 14.4141H7.14478C6.95294 14.4141 6.79688 14.258 6.79688 14.0662V13.418H14.4141V14.0662ZM14.4141 12.832H6.79688V6.29883H14.4141V12.832ZM14.4141 5.71289H6.79688V5.18684C6.79688 4.66313 7.15028 4.20311 7.65633 4.06813L8.3093 3.89402H11.2427C11.4045 3.89402 11.5356 3.76286 11.5356 3.60105C11.5356 3.43925 11.4045 3.30809 11.2427 3.30809H8.55469V2.49516H12.6562V3.60352C12.6562 3.73626 12.7455 3.85239 12.8738 3.88661L13.5546 4.06816C14.0607 4.20311 14.4141 4.66313 14.4141 5.18684V5.71289Z"/>
<path d="M10.7875 7.50486C10.6808 7.42025 10.53 7.42025 10.4234 7.50486C10.3641 7.55186 8.97267 8.67094 8.97267 9.99241C8.97272 10.9123 9.72041 11.6895 10.6055 11.6895C11.4905 11.6895 12.2382 10.9123 12.2382 9.99241C12.2382 8.67097 10.8468 7.55186 10.7875 7.50486ZM10.6055 11.1035C10.038 11.1035 9.55866 10.5947 9.55866 9.99241C9.55866 9.20288 10.2637 8.4455 10.6058 8.12458C10.9481 8.44483 11.6523 9.20001 11.6523 9.99238C11.6523 10.5947 11.1729 11.1035 10.6055 11.1035Z"/>
<path d="M4.6875 2.92969H3.63281V1.99219H3.98438C4.469 1.99219 4.86328 1.59791 4.86328 1.11328V0.878906C4.86328 0.394277 4.469 0 3.98438 0H1.28906C0.804434 0 0.410156 0.394277 0.410156 0.878906V1.11328C0.410156 1.59791 0.804434 1.99219 1.28906 1.99219H1.64062V2.92969H0.585938C0.262852 2.92969 0 3.19254 0 3.51562V4.10156C0 4.42465 0.262852 4.6875 0.585938 4.6875V11.2299C0.585938 11.8897 0.942568 12.5017 1.51664 12.827L2.34375 13.2957V14.707C2.34375 14.8688 2.47494 15 2.63672 15C2.7985 15 2.92969 14.8688 2.92969 14.707V13.2957L3.7568 12.827C4.33087 12.5017 4.6875 11.8898 4.6875 11.2299V4.6875C5.01059 4.6875 5.27344 4.42465 5.27344 4.10156V3.51562C5.27344 3.19254 5.01059 2.92969 4.6875 2.92969ZM1.28906 1.40625C1.12752 1.40625 0.996094 1.27482 0.996094 1.11328V0.878906C0.996094 0.717363 1.12752 0.585938 1.28906 0.585938H3.98438C4.14592 0.585938 4.27734 0.717363 4.27734 0.878906V1.11328C4.27734 1.27482 4.14592 1.40625 3.98438 1.40625H3.33984H1.93359H1.28906ZM3.04688 1.99219V2.92969H2.22656V1.99219H3.04688ZM4.10156 8.32031H3.33984C3.17807 8.32031 3.04688 8.45147 3.04688 8.61328C3.04688 8.77509 3.17807 8.90625 3.33984 8.90625H4.10156V9.72656H3.33984C3.17807 9.72656 3.04688 9.85772 3.04688 10.0195C3.04688 10.1813 3.17807 10.3125 3.33984 10.3125H4.10156V11.1328H3.33984C3.17807 11.1328 3.04688 11.264 3.04688 11.4258C3.04688 11.5876 3.17807 11.7188 3.33984 11.7188H4.00148C3.89558 11.9674 3.71033 12.1799 3.46796 12.3172L2.63672 12.7883L1.80548 12.3172C1.41466 12.0958 1.17188 11.6791 1.17188 11.2299V7.5H4.10156V8.32031ZM4.10156 5.50781H3.33984C3.17807 5.50781 3.04688 5.63897 3.04688 5.80078C3.04688 5.96259 3.17807 6.09375 3.33984 6.09375H4.10156V6.91406H1.17188V4.6875H4.10156V5.50781ZM4.6875 4.10156H0.585938V3.51562H4.6875L4.68788 4.10156C4.68788 4.10156 4.68776 4.10156 4.6875 4.10156Z"/>
<path d="M13.2996 6.58154C13.1378 6.58154 13.0066 6.7127 13.0066 6.87451V9.3159C13.0066 9.47771 13.1378 9.60887 13.2996 9.60887C13.4613 9.60887 13.5925 9.47771 13.5925 9.3159V6.87451C13.5925 6.7127 13.4613 6.58154 13.2996 6.58154Z"/>
<path d="M13.5067 10.2226C13.4522 10.1678 13.3767 10.1367 13.2996 10.1367C13.2226 10.1367 13.147 10.1678 13.0925 10.2226C13.038 10.2771 13.0066 10.3526 13.0066 10.4297C13.0066 10.5067 13.038 10.5823 13.0925 10.6368C13.147 10.6913 13.2226 10.7227 13.2996 10.7227C13.3767 10.7227 13.4522 10.6913 13.5067 10.6368C13.5612 10.5823 13.5926 10.5067 13.5926 10.4297C13.5926 10.3523 13.5612 10.2771 13.5067 10.2226Z"/>
</svg>
