<svg width="6" height="6" viewBox="0 0 6 6" fill="none" xmlns="http://www.w3.org/2000/svg">
<path d="M0.75 1.5H1.25H5.25" stroke="white" stroke-width="0.5" stroke-linecap="round" stroke-linejoin="round"/>
<path d="M2 1.5V1C2 0.867392 2.05268 0.740215 2.14645 0.646447C2.24021 0.552678 2.36739 0.5 2.5 0.5H3.5C3.63261 0.5 3.75979 0.552678 3.85355 0.646447C3.94732 0.740215 4 0.867392 4 1V1.5M4.75 1.5V5C4.75 5.13261 4.69732 5.25979 4.60355 5.35355C4.50979 5.44732 4.38261 5.5 4.25 5.5H1.75C1.61739 5.5 1.49021 5.44732 1.39645 5.35355C1.30268 5.25979 1.25 5.13261 1.25 5V1.5H4.75Z" stroke="white" stroke-width="0.5" stroke-linecap="round" stroke-linejoin="round"/>
</svg>
