<?xml version="1.0" encoding="utf-8"?>
<!-- Generator: Adobe Illustrator 21.1.0, SVG Export Plug-In . SVG Version: 6.00 Build 0)  -->
<svg version="1.1" id="Слой_1" xmlns="http://www.w3.org/2000/svg" xmlns:xlink="http://www.w3.org/1999/xlink" x="0px" y="0px"
	 viewBox="0 0 442.8 390" style="enable-background:new 0 0 442.8 390;" xml:space="preserve">
<g>
	<path d="M125.4,0c7.9,1.1,15.8,1.8,23.6,3.5c22.8,5,42.5,16,59.1,32.5c4.3,4.3,8.6,8.8,13.5,13.9c4.8-5.1,8.9-9.9,13.5-14.1
		C270.8,2.4,312.6-8.1,358.8,7.1c46.4,15.2,74.1,48.7,82.1,96.8c6.4,38.7-3.9,74-31.5,102.1c-59.1,60.3-119.2,119.7-179,179.4
		c-2.1,2.1-5.3,3.1-8,4.6c-0.7,0-1.3,0-2,0c-2.8-1.7-6-2.9-8.3-5.2C153,325.9,93.6,267.2,35.1,207.7C-30.4,141.2,0.3,29.2,90.4,4.8
		c9.4-2.5,19.3-3.2,29-4.8C121.4,0,123.4,0,125.4,0z M222.1,361.4c1.3-1.5,2.3-3,3.6-4.3c28.7-28.8,57.5-57.5,86.2-86.3
		c25.8-25.8,51.7-51.5,77.4-77.4c23.3-23.5,33.6-52,28.6-84.7c-6-39-28.3-66.4-65.7-79c-37.6-12.7-71.6-4.2-100.7,22.9
		c-7.1,6.6-13.7,13.6-20.6,20.4c-6.4,6.4-12.7,6.4-19.1,0.1c-7.1-7-14.1-14.2-21.2-21.2c-29.9-29.4-75.4-36.4-112.8-17.5
		C17.8,64.6,4.9,144,52.5,192c55.1,55.6,110.7,110.8,166.1,166.2C219.5,359.2,220.5,360,222.1,361.4z"/>
</g>
</svg>
