<svg xmlns="http://www.w3.org/2000/svg" width="19" height="19" viewBox="0 0 19 19">
  <path d="M9.5,18 C4.813,18 1,14.187 1,9.5 C1,4.812 4.813,1 9.5,1 C14.187,1 18,4.812 18,9.5 C18,14.187 14.187,18 9.5,18 M16.218,2.782 C14.424,0.988 12.038,0 9.5,0 C6.962,0 4.577,0.988 2.782,2.782 C0.987,4.576 0,6.962 0,9.499 C0,12.036 0.988,14.422 2.782,16.217 C4.576,18.012 6.962,18.999 9.5,18.999 C12.038,18.999 14.423,18.011 16.218,16.217 C18.013,14.423 19,12.037 19,9.499 C19,6.961 18.012,4.576 16.218,2.782"/>
  <path d="M9.5 17L9.5 17C9.224 17 9 16.775 9 16.5L9 15.5C9 15.225 9.224 15 9.5 15 9.776 15 10 15.225 10 15.5L10 16.5C10 16.775 9.776 17 9.5 17M9.5 14C9.224 14 9 13.775 9 13.5L9 3.5C9 3.224 9.224 3 9.5 3 9.776 3 10 3.224 10 3.5L10 13.5C10 13.775 9.776 14 9.5 14"/>
</svg>
