<svg width="28" height="28" viewBox="0 0 28 28" fill="none" xmlns="http://www.w3.org/2000/svg">
<path d="M24.7592 21.4846C24.7592 16.1047 27.5459 12.4102 27.5459 9.81791C27.5459 7.22557 26.0557 1.78113 14.1301 1.78113C2.20439 1.78113 0.453613 9.10546 0.453613 11.9568C0.453613 25.3089 24.7592 31.0124 24.7592 21.4846Z" fill="#EFEFEF"/>
<path d="M20.611 10.1112C19.9678 10.1112 19.4443 9.58772 19.4443 8.9445C19.4443 8.30128 19.9678 7.77783 20.611 7.77783C21.2542 7.77783 21.7777 8.30128 21.7777 8.9445C21.7777 9.58772 21.2542 10.1112 20.611 10.1112ZM20.611 8.55561C20.3971 8.55561 20.2221 8.72983 20.2221 8.9445C20.2221 9.15916 20.3971 9.33339 20.611 9.33339C20.8249 9.33339 20.9999 9.15916 20.9999 8.9445C20.9999 8.72983 20.8249 8.55561 20.611 8.55561Z" fill="#A4AFC1"/>
<path d="M16.5278 19.6389H5.25V16.9167C5.25 15.6279 6.29456 14.5834 7.58333 14.5834H14.1944C15.4832 14.5834 16.5278 15.6279 16.5278 16.9167V19.6389Z" fill="#F3F3F1"/>
<path d="M10.8888 11.8612C12.4997 11.8612 13.8055 10.5553 13.8055 8.9445C13.8055 7.33367 12.4997 6.02783 10.8888 6.02783C9.278 6.02783 7.97217 7.33367 7.97217 8.9445C7.97217 10.5553 9.278 11.8612 10.8888 11.8612Z" fill="#F3F3F1"/>
<path d="M13.7978 8.78894C12.4755 8.99116 11.6666 7.58339 11.6666 7.58339C10.2978 8.85894 8.56331 8.82783 7.97998 8.77339C8.06554 7.24116 9.33331 6.02783 10.8889 6.02783C12.4444 6.02783 13.72 7.24894 13.7978 8.78894Z" fill="#79C330"/>
<path d="M18.2779 22.75C20.7478 22.75 22.7501 20.7477 22.7501 18.2778C22.7501 15.8078 20.7478 13.8055 18.2779 13.8055C15.8079 13.8055 13.8057 15.8078 13.8057 18.2778C13.8057 20.7477 15.8079 22.75 18.2779 22.75Z" fill="#79C330"/>
<path d="M15.5557 18.2778C15.5557 16.1078 17.1019 14.2994 19.1529 13.8927C18.8698 13.8367 18.5773 13.8055 18.2779 13.8055C15.8077 13.8055 13.8057 15.8075 13.8057 18.2778C13.8057 20.748 15.8077 22.75 18.2779 22.75C18.5773 22.75 18.8698 22.7197 19.1529 22.6629C17.1019 22.2561 15.5557 20.4478 15.5557 18.2778Z" fill="#39961E"/>
<path d="M9.33333 14.5834H7.58333C6.29456 14.5834 5.25 15.6279 5.25 16.9167V19.6389H7V16.9167C7 15.6279 8.04456 14.5834 9.33333 14.5834Z" fill="#D5DBE1"/>
<path d="M9.72217 8.9445C9.72217 7.64094 10.5832 6.54972 11.7638 6.17639C11.4862 6.0885 11.1961 6.02783 10.8888 6.02783C9.27806 6.02783 7.97217 7.33372 7.97217 8.9445C7.97217 10.5553 9.27806 11.8612 10.8888 11.8612C11.1961 11.8612 11.4862 11.8005 11.7638 11.7126C10.5832 11.3393 9.72217 10.2481 9.72217 8.9445Z" fill="#D5DBE1"/>
<path d="M11.7623 6.17483C11.4854 6.08694 11.1953 6.02783 10.8889 6.02783C9.33331 6.02783 8.06554 7.24117 7.97998 8.77339C8.30276 8.80372 8.98254 8.81772 9.75409 8.6155C9.8832 7.45817 10.6835 6.51628 11.7623 6.17483Z" fill="#39961E"/>
<path d="M13.5318 9.39242C12.6288 9.39242 11.9599 8.85264 11.5664 8.41631C10.1002 9.4562 8.4428 9.40409 7.9248 9.35431L8.03447 8.19309C8.48869 8.23587 10.0582 8.28564 11.2685 7.15709C11.3991 7.03576 11.5772 6.98053 11.753 7.00698C11.9296 7.03342 12.0836 7.13842 12.1722 7.2932C12.1769 7.30098 12.8038 8.34398 13.7099 8.21253L13.8865 9.3652C13.7644 9.38387 13.6461 9.39242 13.5318 9.39242Z" fill="#2C2F33"/>
<path d="M10.8889 12.4445C8.95925 12.4445 7.38892 10.8741 7.38892 8.94446C7.38892 7.01479 8.95925 5.44446 10.8889 5.44446C12.8186 5.44446 14.3889 7.01479 14.3889 8.94446C14.3889 10.8741 12.8186 12.4445 10.8889 12.4445ZM10.8889 6.61112C9.60247 6.61112 8.55558 7.65801 8.55558 8.94446C8.55558 10.2309 9.60247 11.2778 10.8889 11.2778C12.1754 11.2778 13.2223 10.2309 13.2223 8.94446C13.2223 7.65801 12.1754 6.61112 10.8889 6.61112Z" fill="#2C2F33"/>
<path d="M18 23C15.2431 23 13 20.7569 13 18C13 15.2431 15.2431 13 18 13C20.7569 13 23 15.2431 23 18C23 20.7569 20.7569 23 18 23ZM18 14.1538C15.8792 14.1538 14.1538 15.8792 14.1538 18C14.1538 20.1208 15.8792 21.8462 18 21.8462C20.1208 21.8462 21.8462 20.1208 21.8462 18C21.8462 15.8792 20.1208 14.1538 18 14.1538Z" fill="#2C2F33"/>
<path d="M11.6667 20.2222H5.25008C4.92808 20.2222 4.66675 19.9609 4.66675 19.6389V16.9167C4.66675 15.3082 5.97575 14 7.58341 14H12.4601V15.1667H7.58341C6.61897 15.1667 5.83341 15.9514 5.83341 16.9167V19.0556H11.6667V20.2222Z" fill="#2C2F33"/>
<path d="M18 19.5278L18 17.8612" stroke="#2C2F33" stroke-linecap="round" stroke-linejoin="round"/>
<path d="M18 16.1945L17.9962 16.1945" stroke="#2C2F33" stroke-linecap="round" stroke-linejoin="round"/>
</svg>
