<svg xmlns="http://www.w3.org/2000/svg" width="34" height="34" viewBox="0 0 34 34">
  <g fill="none" fill-rule="evenodd">
    <circle cx="17" cy="17" r="17" fill="#A0B2CE"/>
    <path fill="#FFFFFF" fill-rule="nonzero" d="M18.4967743,19.6005167 C18.056244,19.8546194 17.5450997,20 17,20 C15.3431458,20 14,18.6568542 14,17 C14,15.6886681 14.841356,14.5738454 16.0136984,14.1659016 C16.0046887,14.1119413 16,14.0565182 16,14 L16,5.5 C16,4.94771525 16.4477153,4.5 17,4.5 C17.5522847,4.5 18,4.94771525 18,5.5 L18,14 C18,14.0565182 17.9953113,14.1119413 17.9863016,14.1659016 C19.158644,14.5738454 20,15.6886681 20,17 C20,17.3809738 19.9289859,17.7453613 19.7994727,18.0806476 L24.5103826,22.4736422 C24.9142981,22.8502995 24.9363952,23.4830788 24.559738,23.8869943 C24.1830807,24.2909098 23.5503014,24.3130069 23.1463859,23.9363496 L18.4967743,19.6005167 Z M17,18 C17.5522847,18 18,17.5522847 18,17 C18,16.4477153 17.5522847,16 17,16 C16.4477153,16 16,16.4477153 16,17 C16,17.5522847 16.4477153,18 17,18 Z"/>
  </g>
</svg>
