<svg xmlns="http://www.w3.org/2000/svg" width="15" height="19" viewBox="0 0 15 19">
  <g fill="#70CFFE" fill-rule="evenodd">
    <path d="M13.5,19 L1.5,19 C0.673,19 0,18.327 0,17.5 L0,7.5 C0,6.673 0.673,6 1.5,6 L5.5,6 C5.775,6 6,6.224 6,6.5 C6,6.776 5.775,7 5.5,7 L1.5,7 C1.225,7 1,7.224 1,7.5 L1,17.5 C1,17.776 1.225,18 1.5,18 L13.5,18 C13.775,18 14,17.776 14,17.5 L14,7.5 C14,7.224 13.775,7 13.5,7 L9.5,7 C9.225,7 9,6.776 9,6.5 C9,6.224 9.225,6 9.5,6 L13.5,6 C14.327,6 15,6.673 15,7.5 L15,17.5 C15,18.327 14.327,19 13.5,19"/>
    <path d="M10.8535,3.02966612 L7.8535,0.140830725 C7.6585,-0.0469435751 7.3405,-0.0469435751 7.1465,0.140830725 L4.1465,3.02966612 C3.9515,3.21647747 3.9515,3.52269402 4.1465,3.71046832 C4.3405,3.89727968 4.6585,3.89727968 4.8535,3.71046832 L6.9995,1.64398807 L6.9995,12.5185274 C6.9995,12.7843003 7.2245,13 7.4995,13 C7.7755,13 7.9995,12.7843003 7.9995,12.5185274 L7.9995,1.64398807 L10.1465,3.71046832 C10.2455,3.80483695 10.3735,3.85105831 10.4995,3.85105831 C10.6265,3.85105831 10.7555,3.803874 10.8535,3.71046832 C11.0475,3.52269402 11.0475,3.21647747 10.8535,3.02966612"/>
  </g>
</svg>
