<svg xmlns="http://www.w3.org/2000/svg" width="20" height="23" viewBox="0 0 20 23">
  <path fill="#FFFFFF" fill-rule="evenodd" d="M2.6014655,17.9768598 C2.92450898,17.5992141 3.20574683,17.1873481 3.43631119,16.7534833 C3.94051238,15.8026472 4.19514665,14.7748154 4.19514665,13.6993196 L4.19514665,10.0328567 C4.19514665,7.00191393 6.75162405,4.53316219 9.89591389,4.53316219 C13.0389369,4.53316219 15.5966811,7.00191393 15.5966811,10.0328567 L15.5966811,13.6993196 C15.5966811,14.7748154 15.8525822,15.8026472 16.3542498,16.7534833 C16.586081,17.1885702 16.8673188,17.5992141 17.1903623,17.9768598 L2.60019866,17.9768598 L2.6014655,17.9768598 Z M11.7961696,19.8100913 C11.7961696,20.8208129 10.9435882,21.6433227 9.89591389,21.6433227 C8.84823956,21.6433227 7.99565815,20.8208129 7.99565815,19.8100913 C7.99565815,19.6011029 8.03366326,19.3945588 8.10460614,19.1990141 L11.6872216,19.1990141 C11.7581645,19.3945588 11.7961696,19.6011029 11.7961696,19.8100913 L11.7961696,19.8100913 Z M19.1438252,18.1002974 C17.6945635,17.0504668 16.8635183,15.4457782 16.8635183,13.6993196 L16.8635183,10.0328567 C16.8635183,6.96158284 14.7162293,4.3645049 11.7961696,3.56521597 L11.7961696,2.69993071 C11.7961696,1.68920908 10.9435882,0.866699219 9.89591389,0.866699219 C8.84823956,0.866699219 7.99565815,1.68920908 7.99565815,2.69993071 L7.99565815,3.56521597 C5.07433164,4.36572705 2.92830949,6.96158284 2.92830949,10.0328567 L2.92830949,13.6993196 C2.92830949,15.4457782 2.09726431,17.0492446 0.648002591,18.1002974 C0.430106599,18.2579553 0.341427997,18.53294 0.427572924,18.7822595 C0.513717852,19.0315789 0.75568375,19.2002362 1.02805374,19.2002362 L6.79216284,19.2002362 C6.74909038,19.4006696 6.72755414,19.6047693 6.72755414,19.8113134 C6.72755414,21.4954421 8.14894544,22.8666992 9.89464706,22.8666992 C11.6403487,22.8666992 13.06174,21.4954421 13.06174,19.8113134 C13.06174,19.6059915 13.0402037,19.4006696 12.9983981,19.2002362 L18.7625072,19.2002362 C19.0348772,19.2002362 19.2768431,19.0315789 19.3617212,18.7822595 C19.449133,18.53294 19.3604544,18.2579553 19.1425584,18.1002974 L19.1438252,18.1002974 Z"/>
</svg>
