<svg id="Capa_1" enable-background="new 0 0 512 512" height="512" viewBox="0 0 512 512" width="512" xmlns="http://www.w3.org/2000/svg"><g><path d="m75 451h362c41.355 0 75-33.645 75-75 0-8.284-6.716-15-15-15h-15v-285c0-8.284-6.716-15-15-15h-422c-8.284 0-15 6.716-15 15v285h-15c-8.284 0-15 6.716-15 15 0 41.355 33.645 75 75 75zm362-30h-362c-19.556 0-36.239-12.539-42.43-30.01h446.86c-6.191 17.471-22.873 30.01-42.43 30.01zm-377-330h392v270h-392z"/><path d="m379.638 121.448c-1.374-.344-34.021-8.314-67.275 0-22.51 5.628-44.492 18.551-56.362 26.325-11.87-7.774-33.852-20.698-56.362-26.325-33.255-8.314-65.903-.344-67.276 0-6.678 1.669-11.363 7.669-11.363 14.552v150c0 4.619 2.128 8.98 5.769 11.823s8.388 3.849 12.869 2.729c.263-.066 27.08-6.41 52.724 0 26.602 6.651 54.371 27.249 54.638 27.448 2.485 1.866 5.713 2.997 8.989 3h.009.002s.001 0 .002 0h.009c3.315-.003 6.534-1.156 8.989-3 .276-.207 27.886-20.76 54.638-27.448 25.799-6.449 52.491-.057 52.758.009 4.472 1.107 9.204.098 12.836-2.738 3.64-2.843 5.768-7.204 5.768-11.823v-150c0-6.883-4.685-12.883-11.362-14.552zm-228.638 147.024v-119.804c10.244-1.22 26.013-1.953 41.362 1.884 19.195 4.799 38.999 16.86 48.638 23.279v114.849c-11.681-6.532-26.406-13.492-41.362-17.231-15.656-3.915-32.578-4.551-48.638-2.977zm210 0c-12.783-1.253-30.623-1.528-48.638 2.976-14.957 3.739-29.682 10.7-41.362 17.231v-114.859c9.612-6.414 29.348-18.445 48.638-23.268 15.413-3.853 31.143-3.123 41.362-1.898z"/></g></svg>