<?xml version="1.0" encoding="utf-8"?>
<!-- Generator: Adobe Illustrator 22.0.0, SVG Export Plug-In . SVG Version: 6.00 Build 0)  -->
<svg version="1.1" id="Слой_1" xmlns="http://www.w3.org/2000/svg" xmlns:xlink="http://www.w3.org/1999/xlink" x="0px" y="0px"
	 viewBox="0 0 612 792" style="enable-background:new 0 0 612 792;" xml:space="preserve">
<style type="text/css">
	.st0{display:none;fill:#FFFFFF;}
	.st1{fill:#FFFFFF;}
</style>
<g>
	<path class="st0" d="M2.3,457.9c0-60.7,0-121.2,0-181.7c205.1,0,410.3,0,615.4,0c0,60.6,0,121.1,0,181.7
		C412.5,457.9,207.5,457.9,2.3,457.9z M509.9,379.1c-0.4,4-0.4,7.5-1.1,10.8c-0.7,3.5-3,6.1-6.6,7.1c-4.9,1.4-9.7,1.3-13.9-2.2
		c-0.7-0.5-1.4-1.3-2.2-1.3c-4.3-0.1-8.7-0.1-13.8-0.1c1.4,2.5,2.2,4.5,3.5,6.1c6.2,8.3,20.1,11.5,32.1,7.6
		c9.4-3.1,14.6-11,14.7-22.6c0.1-15.8,0-31.6,0-47.5c0-1-0.1-1.9-0.2-3c-4.3,0-8.4,0-12.7,0c-0.1,2.1-0.3,4-0.4,6.2
		c-0.6-0.4-0.9-0.5-1.1-0.8c-7.8-10.6-23.9-8.2-30.9,2.2c-6.7,9.9-6.7,26.2,0,36.1c7.4,11,23.9,12.6,31.1,2.1
		C508.5,379.8,508.9,379.7,509.9,379.1z M41.5,386.1c4.7,0,8.7,0.1,12.7-0.1c0.9,0,2.1-1.1,2.5-1.9c1.4-3.4,2.5-6.8,3.6-10.3
		c0.6-1.9,1.4-2.8,3.7-2.8c7.7,0.1,15.3,0.1,23,0c2,0,2.9,0.8,3.4,2.6c1,3.4,2,6.7,3.2,10c0.4,1,1.4,2.4,2.2,2.4
		c4.5,0.2,9,0.1,14,0.1c-0.5-1.8-0.8-3.1-1.2-4.4c-4.2-12.7-8.5-25.5-12.8-38.2c-2.8-8.2-5.5-16.4-8.5-24.5c-1.6-4.4-5-6.7-9.8-7
		c-7.2-0.5-11.2,2.7-14.1,11.4c-4.1,12-8.4,23.9-12.6,35.8C47.8,367.9,44.8,376.7,41.5,386.1z M313.6,386.1c0-4.1,0-7.9,0-12.1
		c-14.8,0-29.4,0-44.2,0c0-6.9,0-13.4,0-20.3c8,0,15.9,0,23.7,0c0-4.3,0-8.1,0-12.2c-8,0-15.8,0-23.6,0c0-5.7,0-11,0-16.7
		c13.6,0,27,0,40.4,0c0-4.1,0-7.8,0-11.6c-18.3,0-36.3,0-54.4,0c0,24.4,0,48.6,0,72.9C274.8,386.1,294,386.1,313.6,386.1z
		 M209.4,352.2c-2.8,0-5.4,0-8,0c-2.6,0-5.3-0.1-7.9,0.1c-7.9,0.5-13.7,4.8-15.5,11.5c-2.2,7.8,0.7,15.9,7,20.3
		c7.5,5.2,17.6,4,25.9-3.1c4,5.1,9.3,5.5,15.3,4.8c0-3.5,0.1-6.6-0.1-9.7c0-0.8-0.7-1.7-1.1-2.5c-0.7-1.4-2-2.9-2.1-4.3
		c-0.2-5.5-0.1-11-0.1-16.6c-0.1-5.9-1.3-11.5-5.8-15.8c-8.7-8.2-25.9-7.7-33.9,1.2c-2.6,2.8-4.6,6.1-4.3,10.6c3.3,0,6.3-0.1,9.3,0
		c2.2,0.1,3.9-0.1,5.4-2.3c2-3,7.6-3.7,11.5-2.2C208.6,345.6,209.4,348.4,209.4,352.2z M424.3,362.1c0.1-1.1,0.2-1.8,0.1-2.5
		c-0.1-1.9-0.3-3.8-0.5-5.6c-1.7-12.3-10.5-20.7-22.2-21.3c-13.3-0.6-23.2,6.5-26,19.1c-0.8,3.6-1.1,7.5-0.8,11.2
		c1.2,19.9,21.5,31,39.1,21.6c5.2-2.8,8.6-6.9,10.1-13.2c-2.9,0-5.3,0.1-7.7,0c-3-0.2-5.3,0.5-7.8,2.6c-4.1,3.4-9.1,3.6-13.8,1.1
		c-4.9-2.6-6.5-7.2-6.8-12.9C400.4,362.1,412.2,362.1,424.3,362.1z M320,386c4.5,0,8.6,0,13,0c0-2,0-3.7,0-5.5
		c0.1-8.7-0.1-17.3,0.3-26c0.3-5.9,4.1-9.4,9.5-9.8c6.9-0.5,11.5,3.2,11.7,10.2c0.3,9,0.2,18.1,0.2,27.1c0,1.3,0,2.7,0,3.9
		c4.8,0,9,0,13.3,0c0-11.4,0.4-22.6-0.1-33.8c-0.6-13.9-12.2-22.5-24.9-18.6c-3.5,1.1-6.6,3.7-9.8,5.7c-0.1-1.5-0.3-3.3-0.5-5.1
		c-4.4,0-8.5,0-12.7,0C320,351.6,320,368.7,320,386z M539.3,407.6c3.9,0,7-0.1,10.1,0c2.4,0.1,3.5-0.7,4.3-3
		c5.7-15.1,11.5-30.2,17.3-45.3c3.2-8.3,6.4-16.6,9.8-25.4c-3.7,0-7,0.1-10.2,0c-2.4-0.1-3.6,0.6-4.4,2.9c-1.3,4.2-3,8.2-4.6,12.3
		c-2.3,6-4.6,12-7.2,18.8c-0.8-1.9-1.3-3-1.7-4.1c-3.5-9-6.9-18-10.4-27c-0.4-1.1-1.3-2.7-2-2.7c-4.4-0.3-8.8-0.1-13.7-0.1
		c0.8,1.9,1.2,3.2,1.7,4.5c6,14.7,12.2,29.4,18.1,44.2c0.7,1.7,0.7,4.2,0.1,6C544.4,394.9,541.9,400.9,539.3,407.6z M174.1,336.7
		c-2.2,0-4.2,0-6.2,0c-2.1,0-4.2,0-6.6,0c0-2.2,0-3.9,0-5.7c0-7.9,1.6-9.5,9.5-9.5c4.1,0,8.2,0,12.2,0c0-4.1,0-7.7,0-11.5
		c-6.6,0-12.8-0.1-19.1,0c-10.4,0.1-15.9,5.8-16.1,16.3c0,3.3,0,6.7,0,10.4c-4.2,0-7.9,0-11.8,0c0,4.1,0,7.8,0,12.1c4,0,7.8,0,12,0
		c0,12.7,0,24.8,0,36.9c4.6,0,8.8,0,13.4,0c0-12.4,0-24.5,0-37.1c4.5,0,8.5,0,12.7,0C174.1,344.5,174.1,340.8,174.1,336.7z
		 M111.5,420.8c0-5,0-9.6,0-14.4c-23.8,0-47.5,0-71.2,0c0,4.9,0,9.6,0,14.4C64,420.8,87.6,420.8,111.5,420.8z M431.7,334.2
		c0,17.6,0,34.7,0,51.9c4.4,0,8.5,0,12.5,0c0.2-0.4,0.3-0.7,0.3-0.9c0-8.3,0-16.6,0.1-24.9c0.1-9.7,3.4-13.1,13.2-13.4
		c4.1-0.1,8.2,0,12.4,0c0-4.7,0-8.9,0-13.3c-9.2,0-18.5-1.5-25.4,7.5c-0.2-2.8-0.3-4.8-0.4-6.9C440,334.2,435.9,334.2,431.7,334.2z
		 M115.8,310.3c0,25.3,0,50.4,0,75.5c4.5,0,8.7,0,12.9,0c0-25.3,0-50.3,0-75.5C124.3,310.3,120.1,310.3,115.8,310.3z M139.5,423.3
		c0,1-0.1,2.2,0.2,3.2c0.3,1.1,0.9,2.2,1.4,3.3c0.5-1,1.5-2.1,1.5-3.1c-0.2-2.7,0.6-3.9,3.4-4.7c3.5-0.9,5.7-4.5,5.5-8.1
		c-0.2-3.9-2.1-6.6-5.7-8.1c-1-0.4-2.1-0.7-3.2-1.1c0-2.4,0-4.7,0-7.1c-0.8,0-1.9-0.1-2,0c-0.5,2.4-1,4.9-1.4,7.3
		c-6,2.1-8,4.3-8.1,8.9C131,418.7,133,420.9,139.5,423.3z M367.4,397.3c-5.3,1.3-1.2,6-3.6,7.9c-5.6,1.8-7.7,3.9-7.8,8.3
		c-0.2,5,2.2,8,7.1,9.2c0.6,0.2,1.2,1.4,1.4,2.2c0.2,0.9-0.1,2.1,0.1,3c0.2,0.7,1,1.3,1.6,1.9c0.4-0.6,1.2-1.2,1.3-1.8
		c0.2-1.6,0.1-3.2,0.1-4.9c5.2-0.9,8.6-3.5,8.8-8.6c0.2-5.8-3.7-8.3-8.9-9.6C367.4,402.5,367.4,400.2,367.4,397.3z M273,410.7
		c0.3-0.1,0.5-0.1,0.8-0.2c1.3,3.2,2.5,6.5,4,9.6c0.4,0.9,1.3,1.6,2,2.4c0.7-0.8,1.6-1.5,2-2.4c1.4-3.1,2.7-6.3,4-9.5
		c0.8,3.2,0.8,6.3,0.7,9.4c-0.1,2.3,0.8,2.9,3,2.1c0-5.4,0-10.8,0-16c-3.2-0.9-5.1-0.2-6,3.2c-0.7,2.7-2.1,5.1-3.5,8.5
		c-1.5-3.5-2.8-6-3.6-8.7c-1-3.4-3-3.8-6.1-2.6c0,4.7-0.1,9.3,0.1,14c0,0.8,1.2,1.6,1.8,2.4c0.3-0.2,0.6-0.4,1-0.6
		C273,418.2,273,414.5,273,410.7z M316.1,406.7c0,6.7,0,13.9,0.1,21c0,0.7,0.9,1.4,1.4,2.1c0.5-0.7,1.4-1.3,1.4-2
		c0.2-2.2,0.1-4.4,0.1-7.1c1,0.6,1.5,0.9,2,1.2c2.9,1.5,5.7,1.3,7.9-1.1c3-3.1,3.2-7,1.7-10.9c-1.1-3-3.4-4.8-6.6-4.6
		C321.7,405.5,319.2,406.2,316.1,406.7z M309.8,405.8c-1.7,0.2-3.5,1.1-4.6,0.5c-3-1.6-5.5-1.3-8,0.8c-2.5,2.2-3.3,7.1-1.9,10.9
		c1.1,2.9,3,4.8,6.1,4.7c2.7-0.1,5.4-0.6,8.3-1C309.8,416.8,309.8,411.4,309.8,405.8z M350.6,405.8c-1.7,0.2-3.5,1.1-4.7,0.5
		c-2.9-1.4-5.3-1.3-7.7,0.6c-2.7,2.2-3.6,7.2-2.1,11.1c1.1,2.9,3,4.7,6.1,4.6c2.7-0.1,5.4-0.6,8.3-1
		C350.6,416.9,350.6,411.6,350.6,405.8z M229.8,417.6c-2.7,0.9-4.9,2.2-7.2,2.3c-3.1,0.1-4.5-2-4.5-5.5c4,0,7.8,0,11.7,0
		c-0.3-5.8-2.7-8.8-7-9.1c-3.9-0.3-7.2,2.4-7.9,6.5c-0.9,4.9,1.2,9.3,5,10.6C224.1,423.8,227.7,422.2,229.8,417.6z M157,422.9
		c6.5-1.8,6.9-8.6,11.6-11.8c0,3.4-0.1,6.4,0.1,9.4c0,0.7,1,1.3,1.5,1.9c0.4-0.6,1.2-1.2,1.2-1.9c0.1-4.8,0.1-9.7,0.1-15.7
		c-6,2.6-7,8.7-11.5,12.2c0-4.1,0-7.6,0-11c-0.4-0.2-0.7-0.4-1.1-0.6c-0.6,0.8-1.8,1.5-1.8,2.3C156.9,412.5,157,417.2,157,422.9z
		 M396.3,414.2c0.1-5.2-3-8.8-7.6-8.9c-4.5-0.1-7.9,3.5-7.9,8.7c-0.1,5.3,3,8.8,7.6,8.8C393.1,422.8,396.2,419.4,396.3,414.2z
		 M198,412.3c-0.2-2.3-0.3-4.4-0.5-6.4c-0.3-0.2-0.6-0.3-0.9-0.5c-0.6,0.7-1.8,1.5-1.8,2.2c-0.2,4.3-0.2,8.5,0,12.8
		c0,0.8,1.3,1.5,2.1,2.2c0.3-0.3,0.7-0.5,1-0.8c0-2.1,0-4.2,0-6.4c2.8,0,5.2,0,7.8,0c0.1,2.4,0.3,4.6,0.4,6.8
		c0.4,0.2,0.7,0.4,1.1,0.5c0.6-0.9,1.7-1.8,1.8-2.7c0.2-4,0-8,0.1-12.1c0-2.4-1-2.8-3-1.9c-0.1,2.1-0.2,4-0.3,6.1
		C203.1,412.3,200.8,412.3,198,412.3z M412.5,421.8c0.4,0.3,0.8,0.6,1.2,0.9c0.7-0.8,1.9-1.6,1.9-2.5c0.2-4.1,0.1-8.3,0.1-12.4
		c0-2.6-1.3-2.4-3.4-1.5c0,2,0,3.9,0,5.8c-2.8,0-5.2,0-7.7,0c-0.1-2.3-0.3-4.2-0.4-7.4c-1.4,1.3-2.6,2-2.6,2.6
		c-0.2,4.4-0.2,8.8,0,13.2c0,0.7,1.3,1.4,2,2.1c0.3-0.3,0.6-0.5,0.9-0.8c0-2.1,0-4.2,0-6.5c2.9,0,5.4,0,8.1,0
		C412.5,417.8,412.5,419.8,412.5,421.8z M248.4,417.1c-2,0.8-3.1,1-4,1.7c-2.3,1.8-4.4,1.8-6.3-0.4c-2-2.2-1.8-7.1,0.3-9.1
		c2-1.9,4-1.5,6.1,0.2c0.9,0.7,2.1,0.9,3.8,1.6c-2.1-4.7-4.9-6.4-8.3-5.7c-3.9,0.8-6.3,4.1-6.3,8.6c0,4.4,2.2,7.8,5.8,8.6
		C243.2,423.5,245.9,422.1,248.4,417.1z M181.4,408.7c0,3.8-0.1,7.4,0.1,11c0,0.9,1,1.8,1.5,2.7c0.4-0.9,1.2-1.7,1.3-2.6
		c0.1-3.7,0.1-7.4,0.1-11.2c1.6-0.1,2.6,0,3.6-0.3c0.8-0.2,1.5-0.8,2.2-1.3c-0.7-0.5-1.4-1.3-2.1-1.3c-3.5-0.1-7-0.1-10.5,0
		c-0.6,0-1.2,0.8-1.9,1.2c0.6,0.5,1.1,1.2,1.7,1.4C178.5,408.7,179.8,408.6,181.4,408.7z M253.8,411c-0.3,0.3-0.6,0.7-0.8,1
		c0.7,0.7,1.4,1.8,2.2,1.9c2.4,0.2,4.8,0.2,7.1,0c0.7-0.1,1.3-1,2-1.6c-0.7-0.5-1.4-1.2-2.2-1.3C259.3,410.9,256.5,411,253.8,411z"
		/>
	<path class="st1" d="M509.9,379.4c-1,0.6-1.4,0.7-1.6,0.9c-7.2,10.5-23.7,9-31.1-2.1c-6.6-9.9-6.6-26.1,0-36.1
		c7-10.4,23.1-12.9,30.9-2.2c0.2,0.3,1.1,0.5,1.7,0.9c-0.2-2.2-0.3-4.3-0.2-6.4c4.3,0,8.6,0,12.9,0c0,1.1,0,2.1,0,3.1
		c0,15.8,0,31.6,0,47.5c0,11.6-5.2,19.5-14.7,22.6c-12,3.9-25.9,0.7-32.1-7.6c-1.2-1.6-2.1-3.6-3.5-6.1c5.1,0,9.5-0.1,13.8,0.1
		c0.7,0,1.5,0.7,2.2,1.3c4.2,3.5,9,3.6,13.9,2.2c3.6-1,5.8-3.6,6.6-7.1C509.5,386.9,509.5,383.4,509.9,379.4z M484.9,360
		c-0.2,3.4,1.8,7.5,3.6,10.5c4.3,7.4,14.2,7.3,18.5-0.1c3.9-6.8,3.8-14-0.3-20.7c-4-6.6-13.5-6.9-17.7-0.5
		C487,352.3,485.1,356,484.9,360z"/>
	<path class="st1" d="M41.5,386.1c3.3-9.4,6.3-18.1,9.3-26.9c4.2-12,8.4-23.9,12.6-35.8c3-8.6,6.9-11.9,14.1-11.4
		c4.7,0.3,8.2,2.6,9.8,7c3,8.1,5.7,16.3,8.5,24.5c4.3,12.7,8.5,25.4,12.8,38.2c0.4,1.3,0.7,2.6,1.2,4.4c-5,0-9.5,0.1-14-0.1
		c-0.8,0-1.9-1.4-2.2-2.4c-1.2-3.3-2.2-6.7-3.2-10c-0.5-1.8-1.4-2.6-3.4-2.6c-7.7,0.1-15.3,0.1-23,0c-2.2,0-3.1,0.9-3.7,2.8
		c-1.1,3.5-2.2,6.9-3.6,10.3c-0.4,0.9-1.6,1.9-2.5,1.9C50.2,386.2,46.2,386.1,41.5,386.1z M65.7,358.2c6.8,0,13,0,19.7,0
		c-3.1-9.9-6.2-19.5-9.6-30.2C72.2,338.6,69,348.2,65.7,358.2z"/>
	<path class="st1" d="M313.6,386.1c-19.6,0-38.8,0-58.2,0c0-24.3,0-48.5,0-72.9c18.2,0,36.2,0,54.4,0c0,3.8,0,7.5,0,11.6
		c-13.4,0-26.8,0-40.4,0c0,5.7,0,11.1,0,16.7c7.8,0,15.5,0,23.6,0c0,4.1,0,7.9,0,12.2c-7.8,0-15.6,0-23.7,0c0,6.9,0,13.4,0,20.3
		c14.8,0,29.4,0,44.2,0C313.6,378.2,313.6,382,313.6,386.1z"/>
	<path class="st1" d="M209.4,352.2c0-3.8-0.8-6.6-4.3-8c-3.9-1.5-9.5-0.8-11.5,2.2c-1.5,2.2-3.2,2.4-5.4,2.3c-3-0.1-6,0-9.3,0
		c-0.4-4.4,1.7-7.7,4.3-10.6c8-8.9,25.2-9.4,33.9-1.2c4.6,4.3,5.7,9.8,5.8,15.8c0.1,5.5-0.1,13.4,0.1,18.9c0.1,1.5,0.4,2,2,2
		c0.8,0,1,1.6,1.1,2.5c0.1,3.1,0.1,6.3,0.1,9.7c-6,0.7-11.4,0.2-15.3-4.8c-8.3,7.1-18.4,8.2-25.9,3.1c-6.4-4.4-9.2-12.5-7-20.3
		c1.8-6.6,7.6-11,15.5-11.5c2.6-0.2,5.3-0.1,7.9-0.1C204,352.2,206.6,352.2,209.4,352.2z M209.3,362.9c-4,0-7.9-0.1-11.7,0
		c-4.2,0.2-6.4,2.3-6.4,5.9c-0.1,3.7,2.2,6.3,6.1,6.9C204.5,376.8,210.7,372.8,209.3,362.9z"/>
	<path class="st1" d="M424.3,362.1c-12.1,0-23.9,0-36.2,0c0.3,5.7,1.9,10.3,6.8,12.9c4.7,2.5,11.7,2.9,13.8-1.1
		c1.4-2.8,4.8-2.8,7.8-2.6c2.4,0.1,4.7,0,7.7,0c-1.4,6.3-4.9,10.5-10.1,13.2c-17.6,9.4-37.9-1.8-39.1-21.6c-0.2-3.7,0-7.6,0.8-11.2
		c2.8-12.6,12.6-19.7,26-19.1c11.7,0.5,20.4,8.9,22.2,21.3c0.3,1.9,0.4,3.7,0.5,5.6C424.5,360.3,424.4,361,424.3,362.1z
		 M410.7,353.3c-1.1-7-5.4-10.8-11.6-10.5c-6.1,0.3-10.2,4.6-10.4,10.5C396,353.3,403.3,353.3,410.7,353.3z"/>
	<path class="st1" d="M320,386c0-17.3,0-34.4,0-51.8c4.3,0,8.3,0,12.7,0c0.2,1.9,0.3,3.7,0.5,5.1c3.3-1.9,6.3-4.6,9.8-5.7
		c12.6-3.9,24.2,4.7,24.9,18.6c0.5,11.1,0.1,22.3,0.1,33.8c-4.3,0-8.5,0-13.3,0c0-1.3,0-2.6,0-3.9c0-9,0.1-18.1-0.2-27.1
		c-0.2-7-4.8-10.7-11.7-10.2c-5.4,0.4-9.2,3.9-9.5,9.8c-0.4,8.6-0.2,17.3-0.3,26c0,1.7,0,3.5,0,5.5C328.6,386,324.5,386,320,386z"/>
	<path class="st1" d="M539.3,407.6c2.6-6.7,5.1-12.7,7.2-18.9c0.6-1.8,0.6-4.2-0.1-6c-5.9-14.8-12-29.5-18.1-44.2
		c-0.5-1.3-1-2.5-1.7-4.5c4.8,0,9.3-0.1,13.7,0.1c0.7,0,1.6,1.7,2,2.7c3.5,9,7,18,10.4,27c0.4,1.1,0.9,2.2,1.7,4.1
		c2.6-6.8,4.9-12.8,7.2-18.8c1.6-4.1,3.3-8.2,4.6-12.3c0.8-2.4,2-3.1,4.4-2.9c3.2,0.2,6.4,0,10.2,0c-3.4,8.8-6.6,17.1-9.8,25.4
		c-5.8,15.1-11.7,30.2-17.3,45.3c-0.9,2.3-2,3.1-4.3,3C546.3,407.5,543.1,407.6,539.3,407.6z"/>
	<path class="st1" d="M174.1,336.7c0,4.1,0,7.8,0,12c-4.1,0-8.2,0-12.7,0c0,12.6,0,24.7,0,37.1c-4.6,0-8.8,0-13.4,0
		c0-12.1,0-24.2,0-36.9c-4.2,0-8,0-12,0c0-4.3,0-8,0-12.1c3.8,0,7.5,0,11.8,0c0-3.7,0-7.1,0-10.4c0.1-10.5,5.7-16.1,16.1-16.3
		c6.3-0.1,12.5,0,19.1,0c0,3.8,0,7.3,0,11.5c-4.1,0-8.1,0-12.2,0c-7.9,0-9.5,1.6-9.5,9.5c0,1.7,0,3.5,0,5.7c2.5,0,4.5,0,6.6,0
		C169.9,336.7,171.9,336.7,174.1,336.7z"/>
	<path class="st1" d="M111.5,420.8c-23.9,0-47.4,0-71.2,0c0-4.8,0-9.5,0-14.4c23.8,0,47.4,0,71.2,0
		C111.5,411.2,111.5,415.8,111.5,420.8z"/>
	<path class="st1" d="M431.7,334.2c4.3,0,8.4,0,12.7,0c0.1,2.1,0.2,4.1,0.4,6.9c6.9-8.9,16.2-7.4,25.4-7.5c0,4.4,0,8.6,0,13.3
		c-4.2,0-8.3-0.1-12.4,0c-9.7,0.3-13.1,3.7-13.2,13.4c-0.1,8.3-0.1,16.6-0.1,24.9c0,0.2-0.2,0.5-0.3,0.9c-4,0-8.1,0-12.5,0
		C431.7,368.9,431.7,351.8,431.7,334.2z"/>
	<path class="st1" d="M115.8,310.3c4.3,0,8.5,0,12.9,0c0,25.2,0,50.2,0,75.5c-4.2,0-8.4,0-12.9,0
		C115.8,360.7,115.8,335.6,115.8,310.3z"/>
</g>
<g>
	<path class="st1" d="M143.4,394.9v8.7c5.6,0.4,9.7,4,9.7,10c0,6.4-4.3,9.7-9.7,10.1v7.6h-3.2v-7.5c-5.6-0.4-9.7-3.9-9.7-9.9
		c0-6.4,4.3-9.8,9.7-10.2v-8.7H143.4z M140.2,406c-3.9,0.5-6.2,3.7-6.2,7.7c0,4,2.4,7.1,6.2,7.6V406z M143.4,421.3
		c3.9-0.5,6.2-3.7,6.2-7.7c0-4-2.4-7-6.2-7.6V421.3z"/>
	<path class="st1" d="M160.8,404v8.2c0,3.1,0,5-0.2,7.8l0.1,0c1.2-2.4,1.8-3.7,3.1-6l6-10h4.1v19.4h-3.4v-8.2c0-3.2,0.1-4.8,0.2-7.9
		h-0.1c-1.2,2.5-2.1,4-3.2,6c-1.8,3-4,6.7-6,10.1h-4V404H160.8z"/>
	<path class="st1" d="M192.7,404v2.8h-6v16.6h-3.5v-16.6h-6V404H192.7z"/>
	<path class="st1" d="M199.2,404v7.8h9.2V404h3.5v19.4h-3.5v-8.8h-9.2v8.8h-3.5V404H199.2z"/>
	<path class="st1" d="M219.6,414.3c0.1,4.8,3.1,6.7,6.6,6.7c2.5,0,4-0.4,5.4-1l0.6,2.5c-1.2,0.6-3.4,1.2-6.4,1.2
		c-6,0-9.5-3.9-9.5-9.8s3.4-10.4,9.1-10.4c6.3,0,8,5.6,8,9.1c0,0.7-0.1,1.3-0.1,1.6H219.6z M229.9,411.8c0-2.2-0.9-5.7-4.9-5.7
		c-3.6,0-5.1,3.3-5.4,5.7H229.9z"/>
	<path class="st1" d="M251.4,422.6c-0.9,0.5-3,1.1-5.6,1.1c-5.8,0-9.6-4-9.6-9.9c0-6,4.1-10.3,10.4-10.3c2.1,0,3.9,0.5,4.9,1
		l-0.8,2.7c-0.8-0.5-2.2-0.9-4.1-0.9c-4.4,0-6.8,3.3-6.8,7.3c0,4.5,2.9,7.2,6.7,7.2c2,0,3.3-0.5,4.3-1L251.4,422.6z"/>
	<path class="st1" d="M263.7,411.2v2.6h-9.9v-2.6H263.7z"/>
	<path class="st1" d="M268,404h4.3l3.5,9.8c0.5,1.4,1.3,3.8,1.8,5.3h0.1c0.4-1.4,1.5-4.5,2.3-6.6l3.1-8.4h4.4l1.4,19.4h-3.4
		l-0.4-9.2c-0.1-2.1-0.3-4.6-0.4-6.9h-0.1c-0.5,1.8-1,3.3-2.1,6.3l-3.7,9.8h-2.6l-3.4-9.6c-0.6-1.8-1.4-4.6-1.9-6.4h-0.2
		c-0.1,2.3-0.2,4.8-0.3,7l-0.5,9.2h-3.2L268,404z"/>
	<path class="st1" d="M304.1,423.3l-0.3-2.4h-0.1c-1.1,1.5-3.2,2.9-5.9,2.9c-3.9,0-5.9-2.8-5.9-5.6c0-4.7,4.2-7.2,11.6-7.2v-0.4
		c0-1.6-0.4-4.5-4.4-4.5c-1.8,0-3.7,0.6-5,1.4l-0.8-2.3c1.6-1,3.9-1.7,6.4-1.7c5.9,0,7.4,4,7.4,7.9v7.2c0,1.7,0.1,3.3,0.3,4.6H304.1
		z M303.6,413.5c-3.8-0.1-8.2,0.6-8.2,4.4c0,2.3,1.5,3.4,3.3,3.4c2.5,0,4.1-1.6,4.7-3.2c0.1-0.4,0.2-0.8,0.2-1.1V413.5z"/>
	<path class="st1" d="M312.7,410.3c0-2.5-0.1-4.5-0.2-6.3h3.2l0.2,3.3h0.1c1.4-2.4,3.7-3.8,6.9-3.8c4.7,0,8.2,4,8.2,9.8
		c0,7-4.2,10.4-8.8,10.4c-2.6,0-4.8-1.1-6-3h-0.1v10.5h-3.5V410.3z M316.2,415.5c0,0.5,0.1,1,0.2,1.4c0.6,2.4,2.8,4.1,5.3,4.1
		c3.7,0,5.9-3,5.9-7.5c0-3.9-2-7.2-5.8-7.2c-2.4,0-4.6,1.7-5.3,4.4c-0.1,0.4-0.2,1-0.2,1.4V415.5z"/>
	<path class="st1" d="M346.2,423.3l-0.3-2.4h-0.1c-1.1,1.5-3.2,2.9-5.9,2.9c-3.9,0-5.9-2.8-5.9-5.6c0-4.7,4.2-7.2,11.6-7.2v-0.4
		c0-1.6-0.4-4.5-4.4-4.5c-1.8,0-3.7,0.6-5,1.4l-0.8-2.3c1.6-1,3.9-1.7,6.4-1.7c5.9,0,7.4,4,7.4,7.9v7.2c0,1.7,0.1,3.3,0.3,4.6H346.2
		z M345.6,413.5c-3.8-0.1-8.2,0.6-8.2,4.4c0,2.3,1.5,3.4,3.3,3.4c2.5,0,4.1-1.6,4.7-3.2c0.1-0.4,0.2-0.8,0.2-1.1V413.5z"/>
	<path class="st1" d="M366.2,394.9v8.7c5.6,0.4,9.7,4,9.7,10c0,6.4-4.3,9.7-9.7,10.1v7.6H363v-7.5c-5.6-0.4-9.7-3.9-9.7-9.9
		c0-6.4,4.3-9.8,9.7-10.2v-8.7H366.2z M363,406c-3.9,0.5-6.2,3.7-6.2,7.7c0,4,2.4,7.1,6.2,7.6V406z M366.2,421.3
		c3.9-0.5,6.2-3.7,6.2-7.7c0-4-2.4-7-6.2-7.6V421.3z"/>
	<path class="st1" d="M397.9,413.5c0,7.2-5,10.3-9.6,10.3c-5.2,0-9.3-3.8-9.3-10c0-6.5,4.2-10.3,9.6-10.3
		C394.1,403.5,397.9,407.6,397.9,413.5z M382.5,413.7c0,4.2,2.4,7.4,5.9,7.4c3.4,0,5.9-3.2,5.9-7.5c0-3.3-1.6-7.4-5.8-7.4
		S382.5,410,382.5,413.7z"/>
	<path class="st1" d="M405.7,404v7.8h9.2V404h3.5v19.4h-3.5v-8.8h-9.2v8.8h-3.5V404H405.7z"/>
</g>
</svg>
