<svg xmlns="http://www.w3.org/2000/svg" width="127" height="43" viewBox="0 0 127 43">
  <g>
    <path d="M7 4L7 6.49526119C7 7.33168447 7.67157288 8 8.5 8 9.33420277 8 10 7.32630549 10 6.49526119L10 4 29 4 29 6.49526119C29 7.33168447 29.6715729 8 30.5 8 31.3342028 8 32 7.32630549 32 6.49526119L32 4 33.3914981 4C36.4889882 4 39 6.49895321 39 9.60850189L39 37.3914981C39 40.4889882 36.5010468 43 33.3914981 43L5.60850189 43C2.51101182 43 0 40.5010468 0 37.3914981L0 9.60850189C0 6.51101182 2.49895321 4 5.60850189 4L7 4zM11 15.5L11 17 16 17 16 14 12.5001649 14C11.6743222 14 11 14.6715729 11 15.5zM17 14L17 17 22 17 22 14 17 14zM23 14L23 17 28 17 28 15.5C28 14.6657972 27.3283533 14 26.4998351 14L23 14zM11 18L11 21 16 21 16 18 11 18zM23 18L23 21 28 21 28 18 23 18zM11 22L11 25 16 25 16 22 11 22zM23 22L23 25 28 25 28 22 23 22zM23 26L23 29 28 29 28 26 23 26zM11 30L11 31.5C11 32.3342028 11.6716467 33 12.5001649 33L16 33 16 30 11 30zM14 26L14 29 19 29 19 26 14 26zM23 30L23 33 26.4998351 33C27.3256778 33 28 32.3284271 28 31.5L28 30 23 30zM17 22L17 25 22 25 22 22 17 22zM7 1.50473881C7 .673694512 7.66579723 0 8.5 0 9.32842712 0 10 .66831553 10 1.50473881L10 4.49526119C10 5.32630549 9.33420277 6 8.5 6 7.67157288 6 7 5.33168447 7 4.49526119L7 1.50473881zM29 1.50473881C29 .673694512 29.6657972 0 30.5 0 31.3284271 0 32 .66831553 32 1.50473881L32 4.49526119C32 5.32630549 31.3342028 6 30.5 6 29.6715729 6 29 5.33168447 29 4.49526119L29 1.50473881zM55.7184505"/>
  </g>
</svg>
