<svg width="1052" height="1075" viewBox="0 0 1052 1075" fill="none" xmlns="http://www.w3.org/2000/svg">
<g clip-path="url(#clip0)">
<mask id="path-1-inside-1" fill="white">
<path d="M202.695 862.026C191.631 854.859 184.981 842.619 185 829.49V30C185 13.4314 198.432 0 215 0H855C871.569 0 885 13.4315 885 30V829.49C885.019 842.621 878.369 854.862 867.305 862.026L551.294 1066.46C541.378 1072.87 528.62 1072.87 518.704 1066.46L202.695 862.026Z"/>
</mask>
<path d="M202.695 862.026C191.631 854.859 184.981 842.619 185 829.49V30C185 13.4314 198.432 0 215 0H855C871.569 0 885 13.4315 885 30V829.49C885.019 842.621 878.369 854.862 867.305 862.026L551.294 1066.46C541.378 1072.87 528.62 1072.87 518.704 1066.46L202.695 862.026Z" fill="white" stroke="#FCBD32" stroke-width="80" mask="url(#path-1-inside-1)"/>
<path d="M785.135 473.963L697.938 375.296C696.04 373.148 693.311 371.918 690.445 371.918H379.556C376.69 371.918 373.961 373.148 372.063 375.296L284.865 473.963C282.261 476.91 281.626 481.109 283.242 484.695C283.851 486.047 284.739 487.215 285.819 488.148C285.84 488.171 285.856 488.197 285.877 488.221L527.519 760.636C529.417 762.776 532.14 764 535 764C537.86 764 540.583 762.775 542.481 760.636L784.123 488.221C784.144 488.198 784.161 488.172 784.181 488.148C785.26 487.215 786.148 486.046 786.758 484.695C788.374 481.109 787.739 476.91 785.135 473.963ZM672.713 391.917L628.272 463.561L557.052 391.917H672.713ZM607.054 470.585H462.946L535 398.102L607.054 470.585ZM512.948 391.918L441.728 463.562L397.287 391.918H512.948ZM378.004 398.774L422.549 470.585H314.541L378.004 398.774ZM314.709 490.585H432.887L514.523 715.846L314.709 490.585ZM555.848 715.428L612.886 561.056C614.8 555.875 612.152 550.124 606.972 548.21C601.789 546.294 596.039 548.943 594.126 554.124L535.091 713.901L454.16 490.585H755.291L555.848 715.428ZM647.451 470.585L691.996 398.774L755.459 470.585H647.451Z" fill="#FCBD32"/>
<path d="M535 252C529.478 252 525 256.477 525 262V313.513C525 319.036 529.478 323.513 535 323.513C540.522 323.513 545 319.036 545 313.513V262C545 256.477 540.522 252 535 252Z" fill="#FCBD32"/>
<path d="M626.062 291.524C622.157 287.619 615.827 287.619 611.919 291.524L575.493 327.949C571.588 331.854 571.588 338.186 575.493 342.091C577.447 344.044 580.006 345.02 582.565 345.02C585.124 345.02 587.683 344.043 589.636 342.091L626.062 305.666C629.967 301.761 629.967 295.429 626.062 291.524Z" fill="#FCBD32"/>
<path d="M492.558 327.949L456.133 291.524C452.229 287.619 445.899 287.619 441.99 291.524C438.085 295.429 438.085 301.761 441.99 305.666L478.416 342.091C480.369 344.044 482.928 345.02 485.487 345.02C488.046 345.02 490.605 344.043 492.558 342.091C496.463 338.186 496.463 331.854 492.558 327.949Z" fill="#FCBD32"/>
<path d="M616.43 530.36C621.953 530.36 626.43 525.883 626.43 520.36C626.43 514.837 621.953 510.36 616.43 510.36C610.907 510.36 606.43 514.837 606.43 520.36C606.43 525.883 610.907 530.36 616.43 530.36Z" fill="#FCBD32"/>
</g>
<defs>
<clipPath id="clip0">
<rect width="1070" height="1075" fill="white"/>
</clipPath>
</defs>
</svg>
