<svg width="1070" height="1075" viewBox="0 0 1070 1075" fill="none" xmlns="http://www.w3.org/2000/svg">
<g clip-path="url(#clip0)">
<mask id="path-1-inside-1" fill="white">
<path d="M202.695 862.026C191.631 854.859 184.981 842.619 185 829.49V30C185 13.4314 198.432 0 215 0H855C871.569 0 885 13.4315 885 30V829.49C885.019 842.621 878.369 854.862 867.305 862.026L551.294 1066.46C541.378 1072.87 528.62 1072.87 518.704 1066.46L202.695 862.026Z"/>
</mask>
<path d="M202.695 862.026C191.631 854.859 184.981 842.619 185 829.49V30C185 13.4314 198.432 0 215 0H855C871.569 0 885 13.4315 885 30V829.49C885.019 842.621 878.369 854.862 867.305 862.026L551.294 1066.46C541.378 1072.87 528.62 1072.87 518.704 1066.46L202.695 862.026Z" fill="#EBA700" stroke="#F7D27F" stroke-width="80" mask="url(#path-1-inside-1)"/>
<path d="M535.077 656.999C527.817 656.999 520.71 654.953 514.581 651.071L303.88 517.209C285.644 506.499 279.572 483.056 290.299 464.849C301.026 446.643 324.508 440.581 342.744 451.29C343.53 451.749 344.315 452.247 345.062 452.763L535.075 573.432L725.279 452.572C743.151 441.212 766.863 446.49 778.241 464.333C789.62 482.176 784.333 505.849 766.461 517.209L555.76 651.071C549.578 654.972 542.394 657.038 535.077 656.999Z" fill="white"/>
<path d="M778.301 464.128C774.226 457.791 768.371 452.793 761.463 449.768C769.327 467.077 763.3 487.543 747.304 497.825L514.839 650.997C527.391 659.001 543.423 659.001 555.975 650.997L766.438 516.973C784.29 505.657 789.609 482.012 778.301 464.128Z" fill="#DDDFE1"/>
<path d="M535.077 478.999C527.817 478.999 520.71 476.953 514.581 473.071L303.88 339.209C285.644 328.499 279.572 305.056 290.299 286.849C301.026 268.643 324.508 262.581 342.744 273.29C343.53 273.749 344.315 274.247 345.062 274.763L535.075 395.432L725.279 274.572C743.151 263.212 766.863 268.49 778.241 286.333C789.62 304.176 784.333 327.849 766.461 339.209L555.76 473.071C549.578 476.972 542.394 479.038 535.077 478.999Z" fill="white"/>
<path d="M778.301 286.128C774.226 279.791 768.371 274.793 761.463 271.768C769.327 289.077 763.3 309.543 747.304 319.825L514.839 472.997C527.391 481.001 543.423 481.001 555.975 472.997L766.438 338.973C784.29 327.657 789.609 304.012 778.301 286.128Z" fill="#DDDFE1"/>
</g>
<defs>
<clipPath id="clip0">
<rect width="1070" height="1075" fill="white"/>
</clipPath>
</defs>
</svg>
