<svg width="1070" height="1075" viewBox="0 0 1070 1075" fill="none" xmlns="http://www.w3.org/2000/svg">
<g clip-path="url(#clip0)">
<mask id="path-1-inside-1" fill="white">
<path d="M202.695 862.026C191.631 854.859 184.981 842.619 185 829.49V30C185 13.4314 198.432 0 215 0H855C871.569 0 885 13.4315 885 30V829.49C885.019 842.621 878.369 854.862 867.305 862.026L551.294 1066.46C541.378 1072.87 528.62 1072.87 518.704 1066.46L202.695 862.026Z"/>
</mask>
<path d="M202.695 862.026C191.631 854.859 184.981 842.619 185 829.49V30C185 13.4314 198.432 0 215 0H855C871.569 0 885 13.4315 885 30V829.49C885.019 842.621 878.369 854.862 867.305 862.026L551.294 1066.46C541.378 1072.87 528.62 1072.87 518.704 1066.46L202.695 862.026Z" fill="#D88B56" stroke="#F7C6A4" stroke-width="80" mask="url(#path-1-inside-1)"/>
<path d="M535.049 686C528.237 686 521.569 684.079 515.817 680.437L318.116 554.834C301.005 544.785 295.308 522.787 305.373 505.704C315.438 488.622 337.472 482.933 354.582 492.982C355.319 493.413 356.056 493.879 356.757 494.364L535.047 607.588L713.516 494.184C730.285 483.525 752.534 488.478 763.211 505.22C773.887 521.962 768.926 544.175 752.157 554.834L554.456 680.437C548.655 684.097 541.915 686.035 535.049 686Z" fill="white"/>
<path d="M763.267 505.028C759.443 499.081 753.949 494.392 747.468 491.553C754.847 507.795 749.191 526.998 734.182 536.646L516.06 680.368C527.837 687.877 542.88 687.877 554.657 680.368L752.136 554.612C768.886 543.994 773.877 521.808 763.267 505.028Z" fill="#DDDFE1"/>
<path d="M535.049 491.982C528.237 491.982 521.569 490.061 515.817 486.419L318.116 360.816C301.005 350.767 295.308 328.769 305.373 311.686C315.438 294.604 337.472 288.915 354.582 298.964C355.319 299.395 356.056 299.861 356.757 300.346L535.047 413.57L713.516 300.166C730.285 289.507 752.534 294.46 763.211 311.202C773.887 327.944 768.926 350.157 752.157 360.816L554.456 486.419C548.655 490.079 541.915 492.017 535.049 491.982Z" fill="white"/>
<path d="M763.267 311.01C759.443 305.063 753.949 300.374 747.468 297.535C754.847 313.777 749.191 332.98 734.182 342.628L516.06 486.35C527.837 493.859 542.88 493.859 554.657 486.35L752.136 360.594C768.886 349.976 773.877 327.79 763.267 311.01Z" fill="#DDDFE1"/>
</g>
<defs>
<clipPath id="clip0">
<rect width="1070" height="1075" fill="white"/>
</clipPath>
</defs>
</svg>
