<svg width="1070" height="1075" viewBox="0 0 1070 1075" fill="none" xmlns="http://www.w3.org/2000/svg">
<g clip-path="url(#clip0)">
<mask id="path-1-inside-1" fill="white">
<path d="M202.695 862.026C191.631 854.859 184.981 842.619 185 829.49V30C185 13.4314 198.432 0 215 0H855C871.569 0 885 13.4315 885 30V829.49C885.019 842.621 878.369 854.862 867.305 862.026L551.294 1066.46C541.378 1072.87 528.62 1072.87 518.704 1066.46L202.695 862.026Z"/>
</mask>
<path d="M202.695 862.026C191.631 854.859 184.981 842.619 185 829.49V30C185 13.4314 198.432 0 215 0H855C871.569 0 885 13.4315 885 30V829.49C885.019 842.621 878.369 854.862 867.305 862.026L551.294 1066.46C541.378 1072.87 528.62 1072.87 518.704 1066.46L202.695 862.026Z" fill="#D88B56" stroke="#F7C6A4" stroke-width="80" mask="url(#path-1-inside-1)"/>
<path d="M535.077 599.999C527.817 599.999 520.71 597.953 514.581 594.071L303.88 460.209C285.644 449.499 279.572 426.056 290.299 407.849C301.026 389.643 324.508 383.581 342.744 394.29C343.53 394.749 344.315 395.247 345.062 395.763L535.075 516.432L725.279 395.572C743.151 384.212 766.863 389.49 778.241 407.333C789.62 425.176 784.333 448.849 766.461 460.209L555.76 594.071C549.578 597.972 542.394 600.038 535.077 599.999Z" fill="white"/>
<path d="M778.301 407.128C774.226 400.791 768.371 395.793 761.463 392.768C769.327 410.077 763.3 430.543 747.304 440.825L514.839 593.997C527.391 602.001 543.423 602.001 555.975 593.997L766.438 459.973C784.29 448.657 789.609 425.012 778.301 407.128Z" fill="#DDDFE1"/>
</g>
<defs>
<clipPath id="clip0">
<rect width="1070" height="1075" fill="white"/>
</clipPath>
</defs>
</svg>
