<svg width="1070" height="1075" viewBox="0 0 1070 1075" fill="none" xmlns="http://www.w3.org/2000/svg">
<g clip-path="url(#clip0)">
<mask id="path-1-inside-1" fill="white">
<path d="M202.695 862.026C191.631 854.859 184.981 842.619 185 829.49V30C185 13.4314 198.432 0 215 0H855C871.569 0 885 13.4315 885 30V829.49C885.019 842.621 878.369 854.862 867.305 862.026L551.294 1066.46C541.378 1072.87 528.62 1072.87 518.704 1066.46L202.695 862.026Z"/>
</mask>
<path d="M202.695 862.026C191.631 854.859 184.981 842.619 185 829.49V30C185 13.4314 198.432 0 215 0H855C871.569 0 885 13.4315 885 30V829.49C885.019 842.621 878.369 854.862 867.305 862.026L551.294 1066.46C541.378 1072.87 528.62 1072.87 518.704 1066.46L202.695 862.026Z" fill="#D88B56" stroke="#F7C6A4" stroke-width="80" mask="url(#path-1-inside-1)"/>
<path d="M534.994 590.637C529.057 590.637 523.245 588.964 518.233 585.789L345.932 476.323C331.019 467.565 326.054 448.394 334.826 433.505C343.598 418.617 362.8 413.66 377.713 422.418C378.355 422.793 378.998 423.199 379.608 423.622L534.992 522.299L690.532 423.465C705.147 414.176 724.537 418.492 733.842 433.083C743.147 447.674 738.823 467.033 724.209 476.323L551.908 585.789C546.852 588.979 540.978 590.668 534.994 590.637Z" fill="white"/>
<path d="M733.891 432.916C730.558 427.733 725.771 423.646 720.122 421.172C726.553 435.327 721.624 452.063 708.543 460.472L518.444 585.729C528.709 592.274 541.819 592.274 552.083 585.729L724.19 476.13C738.789 466.876 743.138 447.54 733.891 432.916Z" fill="#DDDFE1"/>
<path d="M534.994 385.546C529.057 385.546 523.245 383.872 518.233 380.698L345.932 271.231C331.019 262.474 326.054 243.302 334.826 228.414C343.598 213.526 362.8 208.568 377.713 217.326C378.355 217.702 378.998 218.108 379.608 218.53L534.992 317.208L690.532 218.374C705.147 209.085 724.537 213.401 733.842 227.992C743.147 242.583 738.823 261.942 724.209 271.231L551.908 380.698C546.852 383.888 540.978 385.577 534.994 385.546Z" fill="white"/>
<path d="M733.891 227.825C730.558 222.642 725.771 218.555 720.122 216.081C726.553 230.236 721.624 246.972 708.543 255.38L518.444 380.637C528.709 387.182 541.819 387.182 552.083 380.637L724.19 271.038C738.789 261.784 743.138 242.449 733.891 227.825Z" fill="#DDDFE1"/>
<path d="M534.994 795.982C529.057 795.982 523.245 794.308 518.233 791.133L345.932 681.667C331.019 672.91 326.054 653.738 334.826 638.85C343.598 623.962 362.8 619.004 377.713 627.762C378.355 628.138 378.998 628.544 379.608 628.966L534.992 727.644L690.532 628.81C705.147 619.521 724.537 623.837 733.842 638.428C743.147 653.019 738.823 672.378 724.209 681.667L551.908 791.133C546.852 794.324 540.978 796.013 534.994 795.982Z" fill="white"/>
<path d="M733.891 638.261C730.558 633.078 725.771 628.991 720.122 626.517C726.553 640.672 721.624 657.408 708.543 665.816L518.444 791.073C528.709 797.618 541.819 797.618 552.083 791.073L724.19 681.474C738.789 672.22 743.138 652.885 733.891 638.261Z" fill="#DDDFE1"/>
</g>
<defs>
<clipPath id="clip0">
<rect width="1070" height="1075" fill="white"/>
</clipPath>
</defs>
</svg>
