<svg width="1070" height="1075" viewBox="0 0 1070 1075" fill="none" xmlns="http://www.w3.org/2000/svg">
<g clip-path="url(#clip0)">
<mask id="path-1-inside-1" fill="white">
<path d="M202.695 862.026C191.631 854.859 184.981 842.619 185 829.49V30C185 13.4314 198.432 0 215 0H855C871.569 0 885 13.4315 885 30V829.49C885.019 842.621 878.369 854.862 867.305 862.026L551.294 1066.46C541.378 1072.87 528.62 1072.87 518.704 1066.46L202.695 862.026Z"/>
</mask>
<path d="M202.695 862.026C191.631 854.859 184.981 842.619 185 829.49V30C185 13.4314 198.432 0 215 0H855C871.569 0 885 13.4315 885 30V829.49C885.019 842.621 878.369 854.862 867.305 862.026L551.294 1066.46C541.378 1072.87 528.62 1072.87 518.704 1066.46L202.695 862.026Z" fill="white" stroke="#FCBA29" stroke-width="80" mask="url(#path-1-inside-1)"/>
<g clip-path="url(#clip1)">
<path d="M678.022 242.001H411.984C406.46 242.001 401.984 246.478 401.984 252.001V336.567C401.984 339.481 403.253 342.251 405.464 344.149L439.96 373.793C440.456 374.219 440.98 374.586 441.523 374.895C441.675 420.715 471.761 459.617 513.206 473.027V495.812H504.229C491.323 495.812 480.819 506.316 480.819 519.223V548.008C480.819 553.527 485.296 558.007 490.819 558.007H599.182C604.706 558.007 609.182 553.527 609.182 548.008V519.223C609.182 506.316 598.682 495.812 585.772 495.812H576.799V473.027C618.245 459.617 648.33 420.715 648.483 374.895C649.026 374.586 649.549 374.219 650.041 373.793L684.537 344.149C686.748 342.251 688.022 339.481 688.022 336.567V252.001C688.022 246.478 683.541 242.001 678.022 242.001V242.001ZM421.984 331.973V262.001H441.523V348.766L421.984 331.973ZM589.182 519.223V538.008H500.819V519.223C500.819 517.344 502.351 515.812 504.229 515.812H585.772C587.655 515.812 589.182 517.344 589.182 519.223ZM556.796 495.812H533.206V477.355C537.077 477.797 541.014 478.023 544.999 478.023C548.987 478.023 552.925 477.797 556.796 477.355V495.812ZM628.483 374.547C628.483 420.578 591.034 458.027 545.003 458.027C498.972 458.027 461.523 420.578 461.523 374.547V262.001H628.483V374.547ZM668.022 331.973L648.483 348.766V262.001H668.022V331.973Z" fill="#FCBA29"/>
<path d="M564.847 397.731C562.815 397.731 560.765 397.333 558.808 396.52L545.003 390.798L531.198 396.52C526.105 398.63 520.405 397.958 515.944 394.716C511.487 391.477 509.085 386.263 509.519 380.766L510.694 365.872L500.987 354.513C497.405 350.321 496.288 344.692 497.987 339.45C499.69 334.208 503.909 330.309 509.269 329.024L523.796 325.54L531.605 312.798C534.483 308.098 539.491 305.294 545.003 305.294C550.515 305.294 555.522 308.098 558.401 312.798L566.206 325.54L580.737 329.024C586.097 330.313 590.312 334.208 592.015 339.45C593.718 344.688 592.597 350.321 589.015 354.513L579.308 365.872L580.483 380.77C580.917 386.263 578.515 391.477 574.058 394.716C571.315 396.708 568.101 397.731 564.847 397.731ZM520.741 346.841L528.593 356.032C530.315 358.048 531.167 360.669 530.956 363.313L530.007 375.364L541.171 370.735C543.624 369.72 546.378 369.72 548.831 370.735L559.995 375.364L559.046 363.313C558.835 360.669 559.687 358.048 561.409 356.032L569.261 346.841L557.511 344.02C554.929 343.403 552.698 341.782 551.315 339.52L545.003 329.216L538.69 339.52C537.304 341.786 535.073 343.403 532.495 344.024L520.741 346.841ZM576.069 348.473H576.081H576.069Z" fill="#FCBA29"/>
<path d="M500.062 672.573C495.401 672.39 490.714 671.847 486.026 670.952C492.921 667.347 499.491 662.296 504.128 655.21C519.038 632.441 506.741 599.753 506.21 598.371C504.667 594.359 500.71 591.781 496.437 591.972C494.956 592.035 460.081 593.835 445.167 616.605C438.507 626.781 437.273 638.933 437.999 649.386C429.628 643.3 421.648 636.113 414.277 627.937C409.464 622.597 405.039 616.995 401.031 611.199C414.269 610.874 431.417 607.874 443.585 596.398C465.702 575.531 460.808 536.601 460.589 534.957C460.023 530.691 456.792 527.269 452.57 526.457C450.941 526.14 412.363 518.988 390.242 539.855C384.359 545.406 380.386 552.234 377.73 559.3C376.179 552.507 375.195 545.707 374.816 538.98C383.703 530.433 403.515 508.359 401.855 482.867C399.769 450.793 364.672 428.489 363.179 427.555C359.535 425.274 354.84 425.578 351.519 428.313C350.16 429.434 318.254 456.098 320.344 488.172C322.027 514.062 345.215 533.586 354.879 540.644C355.535 551.429 357.519 562.355 360.715 573.164C354.5 570.101 347.527 568.011 340.078 568.011C339.976 568.011 339.871 568.011 339.765 568.011C312.293 568.226 291.703 596.859 290.84 598.078C288.356 601.585 288.391 606.292 290.93 609.761C291.809 610.964 312.684 639.066 340.012 639.062H340.32C358.121 638.925 373.027 626.859 381.558 618.046C386.824 626.175 392.8 633.98 399.421 641.327C402.179 644.386 405.019 647.327 407.929 650.14C405.117 650.464 402.3 651.038 399.511 651.913C370.574 660.976 357.988 698.019 357.468 699.589C356.113 703.671 357.519 708.163 360.961 710.741C362.07 711.573 384.316 727.999 408.511 727.999C413.21 727.999 417.988 727.378 422.695 725.901C444.48 719.077 456.999 696.386 462.077 684.925C474.335 689.46 486.874 692.073 499.28 692.558C499.413 692.562 499.546 692.565 499.679 692.565C505.019 692.565 509.452 688.339 509.663 682.952C509.878 677.433 505.581 672.788 500.062 672.573ZM461.902 627.562C467.652 618.781 480.542 614.605 489.706 612.906C491.819 621.995 493.144 635.476 487.394 644.257C481.644 653.038 468.753 657.214 459.585 658.909C457.476 649.82 456.152 636.343 461.902 627.562ZM403.968 554.402C413.433 545.472 430.292 544.461 441.226 545.191C441.316 556.152 439.324 572.921 429.863 581.847C420.398 590.777 403.531 591.789 392.605 591.058C392.511 580.097 394.507 563.328 403.968 554.402ZM340.168 619.062C340.117 619.062 340.066 619.062 340.012 619.062C329.379 619.062 318.652 610.535 312.105 603.781C318.051 597.406 328.656 588.097 339.926 588.011H340.082C350.726 588.011 361.468 596.558 368.015 603.316C361.535 610.218 350.863 618.98 340.168 619.062ZM340.301 486.871C339.367 472.539 350.508 457.527 358.683 449C366.984 455.652 380.91 468.984 381.898 484.164C382.832 498.5 371.691 513.508 363.519 522.039C355.218 515.387 341.289 502.055 340.301 486.871ZM416.714 706.815C404.363 710.686 388.836 704.265 379.363 698.851C384.058 688.995 393.144 674.862 405.492 670.995C417.843 667.128 433.367 673.55 442.843 678.96C438.148 688.819 429.062 702.948 416.714 706.815Z" fill="#FCBA29"/>
<path d="M799.162 598.078C798.298 596.859 777.709 568.226 750.232 568.011C750.131 568.011 750.025 568.011 749.924 568.011C742.474 568.011 735.502 570.101 729.287 573.164C732.482 562.355 734.467 551.429 735.119 540.644C744.787 533.586 767.974 514.062 769.658 488.172C771.748 456.098 739.842 429.434 738.482 428.313C735.162 425.582 730.467 425.274 726.822 427.555C725.326 428.489 690.236 450.793 688.147 482.867C686.486 508.359 706.299 530.433 715.185 538.984C714.807 545.707 713.822 552.507 712.271 559.3C709.615 552.234 705.643 545.406 699.76 539.855C677.639 518.988 639.065 526.14 637.432 526.457C633.209 527.269 629.979 530.695 629.412 534.957C629.194 536.601 624.299 575.531 646.416 596.398C658.584 607.878 675.733 610.874 688.971 611.199C684.963 616.995 680.537 622.597 675.725 627.937C668.354 636.113 660.373 643.3 652.002 649.386C652.729 638.933 651.494 626.781 644.834 616.609C644.834 616.609 644.834 616.609 644.834 616.605C629.92 593.835 595.045 592.039 593.569 591.972C589.272 591.796 585.335 594.359 583.792 598.374C583.26 599.753 570.964 632.441 585.874 655.214C590.514 662.296 597.081 667.351 603.979 670.952C599.288 671.847 594.6 672.394 589.944 672.573C584.424 672.788 580.124 677.437 580.338 682.956C580.549 688.339 584.979 692.565 590.323 692.565C590.456 692.565 590.588 692.562 590.721 692.558C603.127 692.077 615.663 689.464 627.924 684.925C633.002 696.39 645.518 719.077 667.307 725.901C672.014 727.378 676.787 727.999 681.49 727.999C705.682 727.999 727.928 711.573 729.037 710.741C732.478 708.163 733.889 703.671 732.533 699.589C732.01 698.019 719.424 660.98 690.49 651.913C687.697 651.038 684.881 650.464 682.072 650.14C684.983 647.327 687.818 644.39 690.576 641.327C697.197 633.98 703.174 626.175 708.443 618.046C716.971 626.859 731.877 638.925 749.678 639.062C749.783 639.066 749.885 639.066 749.99 639.066C777.31 639.066 798.189 610.964 799.068 609.765C801.611 606.292 801.646 601.585 799.162 598.078ZM648.78 545.191C659.717 544.465 676.576 545.476 686.033 554.398C695.486 563.312 697.486 580.054 697.4 591.011C687.471 591.683 670.135 591.273 660.143 581.847C650.678 572.921 648.686 556.144 648.78 545.191ZM600.284 612.941C608.752 614.48 622.045 618.312 628.104 627.562C633.854 636.347 632.526 649.831 630.416 658.909C621.241 657.21 608.358 653.038 602.608 644.257C596.862 635.484 598.182 622.019 600.284 612.941ZM710.619 698.808C702.018 703.737 686.33 710.905 673.287 706.815C660.955 702.952 651.877 688.855 647.182 679.003C655.783 674.073 671.471 666.913 684.514 670.995C696.846 674.858 705.924 688.96 710.619 698.808ZM708.104 484.164C709.037 469.809 722.068 456.352 731.283 448.961C739.467 457.488 750.638 472.52 749.701 486.871C748.767 501.226 735.74 514.687 726.525 522.078C718.342 513.547 707.17 498.516 708.104 484.164ZM749.998 619.062C749.947 619.062 749.888 619.062 749.838 619.062C739.15 618.98 728.486 610.234 722.014 603.343C728.033 597.093 738.705 588.011 749.916 588.011H750.076C760.763 588.093 771.427 596.839 777.9 603.73C771.884 609.98 761.209 619.062 749.998 619.062Z" fill="#FCBA29"/>
<path d="M545.003 698.655C540.753 698.655 536.917 695.87 535.538 691.87C534.163 687.874 535.565 683.288 538.917 680.722C542.147 678.249 546.647 678.011 550.139 680.081C553.733 682.21 555.612 686.523 554.804 690.608C553.886 695.226 549.71 698.655 545.003 698.655Z" fill="#FCBA29"/>
</g>
</g>
<defs>
<clipPath id="clip0">
<rect width="1070" height="1075" fill="white"/>
</clipPath>
<clipPath id="clip1">
<rect width="512" height="512" fill="white" transform="translate(289 229)"/>
</clipPath>
</defs>
</svg>
