<svg width="1070" height="1075" viewBox="0 0 1070 1075" fill="none" xmlns="http://www.w3.org/2000/svg">
<g clip-path="url(#clip0)">
<mask id="path-1-inside-1" fill="white">
<path d="M202.695 862.026C191.631 854.859 184.981 842.619 185 829.49V30C185 13.4314 198.432 0 215 0H855C871.569 0 885 13.4315 885 30V829.49C885.019 842.621 878.369 854.862 867.305 862.026L551.294 1066.46C541.378 1072.87 528.62 1072.87 518.704 1066.46L202.695 862.026Z"/>
</mask>
<path d="M202.695 862.026C191.631 854.859 184.981 842.619 185 829.49V30C185 13.4314 198.432 0 215 0H855C871.569 0 885 13.4315 885 30V829.49C885.019 842.621 878.369 854.862 867.305 862.026L551.294 1066.46C541.378 1072.87 528.62 1072.87 518.704 1066.46L202.695 862.026Z" fill="#C9D0D8" stroke="#EFF6FE" stroke-width="80" mask="url(#path-1-inside-1)"/>
<path d="M535.049 597C528.237 597 521.569 595.079 515.817 591.437L318.116 465.834C301.005 455.785 295.308 433.787 305.373 416.704C315.438 399.622 337.472 393.933 354.582 403.982C355.319 404.413 356.056 404.879 356.757 405.364L535.047 518.588L713.516 405.184C730.285 394.525 752.534 399.478 763.211 416.22C773.887 432.962 768.926 455.175 752.157 465.834L554.456 591.437C548.655 595.097 541.915 597.035 535.049 597Z" fill="white"/>
<path d="M763.267 416.028C759.443 410.081 753.949 405.392 747.468 402.553C754.847 418.795 749.191 437.998 734.182 447.646L516.06 591.368C527.837 598.877 542.88 598.877 554.657 591.368L752.136 465.612C768.886 454.994 773.877 432.808 763.267 416.028Z" fill="#DDDFE1"/>
</g>
<defs>
<clipPath id="clip0">
<rect width="1070" height="1075" fill="white"/>
</clipPath>
</defs>
</svg>
