<?xml version="1.0" encoding="utf-8"?>
<!-- Generator: Adobe Illustrator 21.1.0, SVG Export Plug-In . SVG Version: 6.00 Build 0)  -->
<svg version="1.1" id="Слой_1" xmlns="http://www.w3.org/2000/svg" xmlns:xlink="http://www.w3.org/1999/xlink" x="0px" y="0px"
	 viewBox="0 0 499.7 492.3" style="enable-background:new 0 0 499.7 492.3;" xml:space="preserve">
<g>
	<path d="M223.1,0c7.7,1,15.6,1.6,23.2,3.1c11.7,2.3,23.9,3.9,34.9,8.3c17.1,6.8,34,14.8,49.9,24.1c11.3,6.6,21.6,15.5,31.1,24.6
		c15.1,14.4,28,30.8,37.7,49.4c20.7,39.6,27.8,81.3,19.5,125.5c-5.1,27.1-15.5,51.9-31.3,74.5c-14,20-31.1,36.7-50.9,50.9
		c-15.2,11-31.9,18.6-49.2,25.4c-44.9,17.6-90.5,17.7-136.5,6c-7.8-2-14.3-1.1-21,2.8c-12.9,7.6-25.4,16.4-39.1,22.1
		c-17.9,7.5-36.8,12.6-55.3,18.7c-4.5,1.5-9,2.8-14.1,3.3c1.1-1.2,2-2.5,3.2-3.5c4.3-3.7,9-6.8,12.8-10.9
		c8.2-8.7,16.4-17.5,23.7-26.9C68.3,388.9,72,379,72.4,368c0.3-8.9-2.6-16.7-8.1-23.5c-3.4-4.2-7-8.3-10.7-12.2
		C24.9,302,7.6,266.1,2,224.8c-0.7-5-1.3-10.1-2-15.1c0-6.4,0-12.8,0-19.2c0.3-1.7,0.7-3.4,1-5.1c1.2-8.4,1.8-16.9,3.5-25.1
		c5.8-27.4,17.4-52.3,34-74.9C53.2,65.1,71.3,48,92.5,35c15.4-9.4,32.2-16.9,49-23.6c10.8-4.3,22.8-6,34.4-8.3
		C183.8,1.6,191.9,1,200,0C207.7,0,215.4,0,223.1,0z M84,399.3c7.2-3.8,14-7.3,20.7-11.1c9-5.1,17.6-10.9,26.8-15.6
		c6.6-3.3,13.8-2.5,21.1-1c15.8,3.2,31.7,7,47.7,7.9c34.4,1.9,67.8-3.2,98.9-19.5c13.6-7.1,27.5-13.7,38.6-24.6
		c8.7-8.5,17.7-16.6,25.7-25.6c19.3-21.8,31.2-47.4,37-75.9c9.2-45.3,0.6-87.5-23.7-126.5c-11.4-18.3-26-34.3-43.4-46.9
		c-13.3-9.7-27.7-18.9-42.9-24.9c-55.4-22-110.9-22.2-165.5,3.8c-14.3,6.8-27.8,14.7-40.1,25c-18.3,15.3-33.3,32.9-44.9,53.8
		c-12.4,22.4-19.5,46.3-20.8,71.7C17,235,30.2,275.1,59.2,309.8c5.3,6.4,11.3,12.2,16.6,18.5c11.8,13.8,17.8,29.6,14.4,47.9
		C88.9,383.7,86.3,390.9,84,399.3z"/>
	<path d="M398.1,492.3c-10.1-6.3-20.3-12.6-30.4-18.9c-5.6-3.5-11.4-4.1-17.9-2.3c-47.6,13-94.9,11.6-140.9-6.2
		c-16.7-6.5-32.3-16.1-47.5-25.6c-9.7-6.1-17.9-14.7-27-22.3c2.4-2.1,4.2-3.9,6.2-5.4c3.6-2.8,6.9,0,10.3,0.8
		c16.4,3.8,28,16.1,42.2,23.9c19,10.4,38.9,16.8,59.9,20.5c32,5.6,63.8,3.7,95-5.5c7.9-2.3,15.7-1.7,22.9,2
		c5.8,2.9,11,6.9,16.7,10.1c9.2,5.3,18.6,10.4,28.9,16.2c-2.3-7.4-4.5-13.3-6-19.4c-3.8-16.1-1.1-31.2,8.6-44.7
		c3.2-4.5,6.7-8.9,10.6-12.9c28.8-29.5,46.2-64.4,50.5-105.6c2.9-28.1-1.1-55.2-11.9-81.3c-6.6-15.9-15.1-30.6-26.1-43.9
		c-1-1.2-1.9-2.6-2.3-4.1c-2.3-9.8-4.5-19.6-6.7-29.4c-0.2-0.9-0.2-1.9-0.2-2.8c0.4-0.3,0.8-0.7,1.2-1c1.6,2,2.9,4.3,4.8,6
		c14,12.5,25.4,27.2,34.6,43.3c22.5,39.2,31,81.2,23.8,126.1c-4.3,27.1-13.5,52.4-29.3,74.8c-8.4,12-17.7,23.5-27.6,34.2
		c-13.4,14.6-17,31.2-7.7,48.8c4.6,8.7,10.9,16.5,16.4,24.7C432.1,492.3,415.1,492.3,398.1,492.3z"/>
</g>
</svg>
