<?xml version="1.0" encoding="UTF-8" standalone="no"?>
<svg width="12px" height="19px" viewBox="0 0 12 19" version="1.1" xmlns="http://www.w3.org/2000/svg" xmlns:xlink="http://www.w3.org/1999/xlink">
    <!-- Generator: Sketch 40.3 (33839) - http://www.bohemiancoding.com/sketch -->
    <title>odnoklassniki</title>
    <desc>Created with Sketch.</desc>
    <defs></defs>
    <g id="Page-1" stroke="none" stroke-width="1" fill="none" fill-rule="evenodd">
        <g id="Личный-кабинет" transform="translate(-890.000000, -1590.000000)">
            <g id="odnoklassniki" transform="translate(890.000000, 1590.000000)">
                <path d="M4.974,13.3106875 C3.44255172,13.1578958 2.06172414,12.7970937 0.879517241,11.9126042 C0.732827586,11.8025625 0.58137931,11.6964792 0.447517241,11.5735729 C-0.0699310345,11.0981771 -0.122068966,10.5537083 0.28737931,9.99261458 C0.637655172,9.51246875 1.22565517,9.38402083 1.83682759,9.65971875 C1.95517241,9.71315625 2.06793103,9.77985417 2.17593103,9.8515 C4.37917241,11.2996562 7.40586207,11.3396354 9.61737931,9.91661458 C9.83648276,9.75590625 10.0706897,9.62488542 10.3421379,9.55798958 C10.869931,9.42835417 11.3621379,9.61380208 11.6453793,10.0555521 C11.9689655,10.5600417 11.9648276,11.0524583 11.5661379,11.4441354 C10.9545517,12.0446146 10.2190345,12.4790417 9.4017931,12.78225 C8.62903448,13.0688333 7.78262069,13.2131146 6.94489655,13.3089062 C7.07131034,13.4405208 7.13089655,13.5052396 7.20993103,13.5812396 C8.34744828,14.6745312 9.48993103,15.7632708 10.6237241,16.8599271 C11.01,17.2335937 11.0906897,17.6969167 10.878,18.1315417 C10.6454483,18.6065417 10.1248966,18.9190521 9.61448276,18.8856042 C9.29110345,18.8642292 9.03889655,18.71025 8.81482759,18.4943229 C7.95641379,17.6680208 7.08186207,16.8569583 6.24082759,16.0150208 C5.99606897,15.7701979 5.87834483,15.8165104 5.66234483,16.0290729 C4.79875862,16.8795208 3.92110345,17.7169062 3.03827586,18.5495417 C2.64186207,18.9234062 2.17013793,18.9906979 1.71041379,18.7771458 C1.22172414,18.5505312 0.910758621,18.0733542 0.934758621,17.5938021 C0.951310345,17.2694167 1.11806897,17.021625 1.35082759,16.7993646 C2.47655172,15.7240833 3.59917241,14.6460312 4.7222069,13.5689687 C4.79648276,13.4973229 4.8657931,13.4213229 4.974,13.3106875 L4.974,13.3106875 Z" id="Shape"></path>
                <path d="M5.90689655,9.56511458 C3.17482759,9.55620833 0.934551724,7.38961458 0.950482759,4.77196875 C0.966206897,2.12542708 3.20793103,-0.00732291667 5.96689655,-4.53711142e-13 C8.73144828,0.007125 10.9504138,2.17055208 10.9365517,4.84460417 C10.9224828,7.45690625 8.66668966,9.57421875 5.90689655,9.56511458 L5.90689655,9.56511458 Z M8.38986207,4.77830208 C8.38510345,3.47858333 7.30303448,2.443875 5.94703448,2.4426875 C4.57965517,2.44130208 3.48786207,3.4948125 3.49841379,4.80640625 C3.50855172,6.10117708 4.59993103,7.1285625 5.95965517,7.1238125 C7.31524138,7.11926042 8.39441379,6.07782292 8.38986207,4.77830208 L8.38986207,4.77830208 Z" id="Shape"></path>
            </g>
        </g>
    </g>
</svg>