<svg width="14" height="14" viewBox="0 0 14 14" fill="none" xmlns="http://www.w3.org/2000/svg">
    <path d="M11.1621 2.7168C11.7773 3.36133 12.2461 4.06445 12.5977 4.85547C12.9492 5.64648 13.125 6.4668 13.125 7.31641C13.125 8.48828 12.8027 9.57227 12.2168 10.5684C11.6309 11.5645 10.8105 12.3555 9.81445 12.9414C8.81836 13.5273 7.73438 13.8203 6.5625 13.8203C5.44922 13.8203 4.39453 13.5566 3.45703 13.0293L0 13.9375L0.9375 10.5684C0.351562 9.57227 0.0585938 8.48828 0.0585938 7.31641C0.0585938 6.14453 0.351562 5.06055 0.9375 4.06445C1.52344 3.06836 2.31445 2.27734 3.31055 1.69141C4.30664 1.10547 5.39062 0.8125 6.5625 0.8125C7.41211 0.8125 8.23242 0.988281 9.02344 1.31055C9.81445 1.66211 10.5176 2.13086 11.1621 2.7168ZM6.5625 12.7363C7.5293 12.7363 8.4375 12.502 9.28711 12.0039C10.1074 11.5352 10.7812 10.8613 11.2793 10.041C11.7773 9.2207 12.041 8.3125 12.041 7.31641C12.041 6.61328 11.8945 5.93945 11.6016 5.26562C11.3086 4.62109 10.8984 4.03516 10.3711 3.50781C9.84375 2.98047 9.25781 2.59961 8.61328 2.30664C7.96875 2.04297 7.26562 1.89648 6.5625 1.89648C5.56641 1.89648 4.6582 2.16016 3.83789 2.62891C3.01758 3.12695 2.34375 3.80078 1.875 4.62109C1.37695 5.44141 1.14258 6.34961 1.14258 7.31641C1.14258 8.37109 1.40625 9.30859 1.99219 10.1875L2.10938 10.3926L1.55273 12.3848L3.60352 11.8574L3.80859 11.9746C4.62891 12.502 5.56641 12.7363 6.5625 12.7363ZM9.52148 8.66406L9.60938 8.72266C9.72656 8.78125 9.81445 8.83984 9.84375 8.86914C9.84375 8.92773 9.84375 9.01562 9.84375 9.16211C9.84375 9.33789 9.78516 9.48438 9.72656 9.66016C9.66797 9.83594 9.49219 9.98242 9.25781 10.1582C9.02344 10.334 8.81836 10.4219 8.64258 10.4219C8.34961 10.4805 8.08594 10.4805 7.85156 10.4219C7.55859 10.3633 7.14844 10.2461 6.67969 10.0117C5.68359 9.60156 4.77539 8.78125 3.95508 7.60938L3.89648 7.55078C3.45703 6.96484 3.25195 6.4082 3.25195 5.88086C3.25195 5.38281 3.42773 4.94336 3.7793 4.5625L3.80859 4.5332C3.92578 4.41602 4.07227 4.32812 4.24805 4.32812H4.59961C4.6582 4.32812 4.7168 4.35742 4.77539 4.38672C4.83398 4.41602 4.86328 4.47461 4.92188 4.5918L5.41992 5.79297C5.47852 5.91016 5.47852 6.02734 5.44922 6.08594C5.33203 6.29102 5.21484 6.4668 5.06836 6.61328C4.98047 6.70117 4.92188 6.75977 4.92188 6.81836C4.89258 6.87695 4.92188 6.90625 4.98047 6.96484C5.24414 7.49219 5.56641 7.87305 5.94727 8.16602C6.21094 8.40039 6.62109 8.63477 7.17773 8.89844C7.32422 8.98633 7.44141 8.98633 7.5293 8.86914C7.76367 8.57617 7.93945 8.37109 8.05664 8.22461C8.08594 8.16602 8.14453 8.10742 8.20312 8.10742C8.26172 8.10742 8.32031 8.13672 8.4082 8.13672C8.55469 8.19531 8.93555 8.37109 9.52148 8.66406Z" fill="#00A859"/>
</svg>
