<svg width="15" height="15" viewBox="0 0 15 15" fill="none" xmlns="http://www.w3.org/2000/svg">
<g clip-path="url(#clip0)">
<path d="M7.50089 15.0006C11.6428 15.0006 15.0006 11.6429 15.0006 7.50096C15.0006 3.359 11.6428 0.00128174 7.50089 0.00128174C3.35894 0.00128174 0.0012207 3.359 0.0012207 7.50096C0.0012207 11.6429 3.35894 15.0006 7.50089 15.0006Z" fill="white"/>
<path d="M14.5714 4.99936H9.95044C10.1512 6.60148 10.1523 8.36678 9.95434 9.9709H14.5813C14.8514 9.19703 14.9999 8.36596 14.9999 7.50006C15 6.62279 14.8481 5.78153 14.5714 4.99936Z" fill="#2B479D"/>
<path d="M9.95027 4.99937H14.5712C14.5705 4.99699 14.5697 4.995 14.5688 4.99285C13.609 2.28637 11.1399 0.295116 8.17334 0.0307922C9.32146 0.660078 9.65681 2.65383 9.95027 4.99937Z" fill="#EFECEC"/>
<path d="M8.17383 14.9688C11.1457 14.7041 13.6182 12.7059 14.5744 9.9922C14.5769 9.98498 14.579 9.97785 14.5816 9.97089H9.95452C9.66331 12.3291 9.32654 14.3369 8.17383 14.9688Z" fill="#E63026"/>
<path d="M0 7.5C0 8.36603 0.14874 9.19697 0.418605 9.97084H10.3403C10.5385 8.3666 10.5371 6.60142 10.3366 4.9993H0.42858C0.151938 5.7815 0 6.62276 0 7.5Z" fill="#3757A6"/>
<path d="M0.430842 4.99286C0.430145 4.99498 0.429417 4.99701 0.428467 4.99939H10.3365C10.0428 2.65382 9.3214 0.660096 8.17344 0.0308108C7.95139 0.0111456 7.72688 3.05179e-05 7.49976 3.05179e-05C4.23715 -1.14901e-06 1.46265 2.08372 0.430842 4.99286Z" fill="#EFEFEF"/>
<path d="M10.3401 9.97089H0.418457C0.420959 9.97788 0.423302 9.98498 0.425677 9.9922C1.45336 12.9088 4.23185 14.9999 7.49969 14.9999C7.72684 14.9999 7.95136 14.9887 8.17338 14.9688C9.32621 14.337 10.0489 12.3292 10.3401 9.97089Z" fill="#E73B36"/>
</g>
<defs>
<clipPath id="clip0">
<rect width="15" height="15" fill="white"/>
</clipPath>
</defs>
</svg>
