<svg width="1070" height="1075" viewBox="0 0 1070 1075" fill="none" xmlns="http://www.w3.org/2000/svg">
<g clip-path="url(#clip0)">
<mask id="path-1-inside-1" fill="white">
<path d="M202.695 862.026C191.631 854.859 184.981 842.619 185 829.49V30C185 13.4314 198.432 0 215 0H855C871.569 0 885 13.4315 885 30V829.49C885.019 842.621 878.369 854.862 867.305 862.026L551.294 1066.46C541.378 1072.87 528.62 1072.87 518.704 1066.46L202.695 862.026Z"/>
</mask>
<path d="M202.695 862.026C191.631 854.859 184.981 842.619 185 829.49V30C185 13.4314 198.432 0 215 0H855C871.569 0 885 13.4315 885 30V829.49C885.019 842.621 878.369 854.862 867.305 862.026L551.294 1066.46C541.378 1072.87 528.62 1072.87 518.704 1066.46L202.695 862.026Z" fill="#EBA700" stroke="#F7D27F" stroke-width="80" mask="url(#path-1-inside-1)"/>
<path d="M672.898 258.118C670.819 252.041 665.542 247.632 659.191 246.695L585.403 235.501L552.28 164.912C548.282 156.322 538.093 152.621 529.526 156.596C525.871 158.309 522.924 161.234 521.211 164.912L488.088 235.501L413.386 246.238C404.042 247.769 397.714 256.564 399.222 265.908C399.77 269.335 401.37 272.511 403.791 275.023L457.703 330.306L444.453 409.12C442.922 418.464 449.228 427.282 458.571 428.813C462.341 429.43 466.225 428.767 469.583 426.939L535.832 390.39L601.623 426.711C609.916 431.257 620.334 428.196 624.88 419.903C626.708 416.545 627.37 412.661 626.753 408.892L614.188 330.763L668.101 275.48C672.852 271.071 674.703 264.355 672.898 258.118Z" fill="white"/>
<path d="M672.898 258.118C670.819 252.041 665.542 247.632 659.191 246.695L647.768 244.868L646.169 247.152L600.481 294.211C595.432 299.42 593.125 306.707 594.313 313.858L604.365 380.563C605.895 389.907 599.59 398.725 590.246 400.256C586.477 400.873 582.593 400.21 579.235 398.383L524.409 367.998C517.35 363.909 508.623 363.909 501.564 367.998L446.738 398.383L444.453 409.12C442.922 418.464 449.228 427.282 458.571 428.813C462.341 429.43 466.225 428.767 469.583 426.939L535.832 390.39L601.623 426.711C609.916 431.257 620.334 428.196 624.88 419.903C626.708 416.545 627.37 412.661 626.753 408.892L614.188 330.763L668.1 275.48C672.852 271.071 674.703 264.355 672.898 258.118Z" fill="#DDDFE1"/>
<path d="M672.898 620.118C670.819 614.041 665.542 609.632 659.191 608.695L585.403 597.501L552.28 526.912C548.282 518.322 538.093 514.621 529.526 518.596C525.871 520.309 522.924 523.234 521.211 526.912L488.088 597.501L413.386 608.238C404.042 609.769 397.714 618.564 399.222 627.908C399.77 631.335 401.37 634.511 403.791 637.023L457.703 692.306L444.453 771.12C442.922 780.464 449.228 789.282 458.571 790.813C462.341 791.43 466.225 790.767 469.583 788.939L535.832 752.39L601.623 788.711C609.916 793.257 620.334 790.196 624.88 781.903C626.708 778.545 627.37 774.661 626.753 770.892L614.188 692.763L668.101 637.48C672.852 633.071 674.703 626.355 672.898 620.118Z" fill="white"/>
<path d="M672.898 620.118C670.819 614.041 665.542 609.632 659.191 608.695L647.768 606.868L646.169 609.152L600.481 656.211C595.432 661.42 593.125 668.707 594.313 675.858L604.365 742.563C605.895 751.907 599.59 760.725 590.246 762.256C586.477 762.873 582.593 762.21 579.235 760.383L524.409 729.998C517.35 725.909 508.623 725.909 501.564 729.998L446.738 760.383L444.453 771.12C442.922 780.464 449.228 789.282 458.571 790.813C462.341 791.43 466.225 790.767 469.583 788.939L535.832 752.39L601.623 788.711C609.916 793.257 620.334 790.196 624.88 781.903C626.708 778.545 627.37 774.661 626.753 770.892L614.188 692.763L668.1 637.48C672.852 633.071 674.703 626.355 672.898 620.118Z" fill="#DDDFE1"/>
</g>
<defs>
<clipPath id="clip0">
<rect width="1070" height="1075" fill="white"/>
</clipPath>
</defs>
</svg>
