<svg width="1075" height="1075" viewBox="0 0 1075 1075" fill="none" xmlns="http://www.w3.org/2000/svg">
<g clip-path="url(#clip0)">
<mask id="path-1-inside-1" fill="white">
<path d="M202.695 862.026C191.631 854.859 184.981 842.619 185 829.49V30C185 13.4314 198.432 0 215 0H855C871.569 0 885 13.4315 885 30V829.49C885.019 842.621 878.369 854.862 867.305 862.026L551.294 1066.46C541.378 1072.87 528.62 1072.87 518.704 1066.46L202.695 862.026Z"/>
</mask>
<path d="M202.695 862.026C191.631 854.859 184.981 842.619 185 829.49V30C185 13.4314 198.432 0 215 0H855C871.569 0 885 13.4315 885 30V829.49C885.019 842.621 878.369 854.862 867.305 862.026L551.294 1066.46C541.378 1072.87 528.62 1072.87 518.704 1066.46L202.695 862.026Z" fill="#202020" stroke="#FCBA29" stroke-width="80" mask="url(#path-1-inside-1)"/>
<g clip-path="url(#clip1)">
<path d="M372.56 546.96H696.64C709.055 546.96 719.12 557.007 719.12 569.4C719.12 581.793 709.055 591.84 696.64 591.84H372.56C360.145 591.84 350.08 581.793 350.08 569.4C350.08 557.007 360.145 546.96 372.56 546.96Z" fill="#CE7419"/>
<path d="M344 360.48L401.6 392.96C396.266 402.43 399.619 414.431 409.089 419.765C418.559 425.099 430.56 421.746 435.894 412.276C441.228 402.806 437.875 390.805 428.405 385.471C425.732 383.966 422.744 383.106 419.68 382.96L423.68 301.2L473.28 360.64C462.696 369.472 461.276 385.212 470.108 395.796C478.94 406.38 494.68 407.8 505.264 398.968C515.848 390.136 517.268 374.396 508.436 363.812C505.695 360.528 502.157 358.003 498.16 356.48L534.64 261.36L571.04 356.4C558.159 361.309 551.695 375.73 556.604 388.612C561.513 401.493 575.934 407.957 588.816 403.048C601.697 398.139 608.161 383.718 603.252 370.836C601.729 366.839 599.204 363.301 595.92 360.56L645.52 301.12L649.52 382.88C638.663 383.395 630.28 392.614 630.795 403.471C631.31 414.328 640.529 422.711 651.386 422.196C662.243 421.681 670.626 412.462 670.111 401.605C669.966 398.541 669.106 395.553 667.6 392.88L725.2 360.4L650.72 546.64H418.72L344 360.48Z" fill="#FCBA29"/>
<path d="M534.64 261.36L571.04 356.4C558.159 361.309 551.695 375.73 556.604 388.612C561.513 401.493 575.934 407.957 588.816 403.048C601.697 398.139 608.161 383.718 603.252 370.836C601.729 366.839 599.204 363.301 595.92 360.56L645.52 301.12L649.52 382.88C638.663 383.395 630.28 392.614 630.795 403.471C631.31 414.328 640.529 422.711 651.386 422.196C662.243 421.681 670.626 412.462 670.111 401.605C669.966 398.541 669.106 395.553 667.6 392.88L725.2 360.4L650.72 546.64H534.64V261.36Z" fill="#E99A23"/>
<path d="M534.64 429.92L548.96 448.88L563.2 467.92L548.96 486.88L534.64 505.92L520.32 486.88L506.08 467.92L520.32 448.88L534.64 429.92Z" fill="#CE7419"/>
<path d="M626.4 446.8L636.64 460.4L646.8 473.92L636.64 487.52L626.4 501.04L616.24 487.52L606 473.92L616.24 460.4L626.4 446.8Z" fill="#CE7419"/>
<path d="M442.88 446.8L453.04 460.4L463.28 473.92L453.04 487.52L442.88 501.04L432.64 487.52L422.48 473.92L432.64 460.4L442.88 446.8Z" fill="#CE7419"/>
</g>
</g>
<defs>
<clipPath id="clip0">
<rect width="1070" height="1075" fill="white"/>
</clipPath>
<clipPath id="clip1">
<rect width="381.2" height="381.2" fill="white" transform="translate(344 236)"/>
</clipPath>
</defs>
</svg>
