<svg width="1070" height="1075" viewBox="0 0 1070 1075" fill="none" xmlns="http://www.w3.org/2000/svg">
<g clip-path="url(#clip0)">
<mask id="path-1-inside-1" fill="white">
<path d="M202.695 862.026C191.631 854.859 184.981 842.619 185 829.49V30C185 13.4314 198.432 0 215 0H855C871.569 0 885 13.4315 885 30V829.49C885.019 842.621 878.369 854.862 867.305 862.026L551.294 1066.46C541.378 1072.87 528.62 1072.87 518.704 1066.46L202.695 862.026Z"/>
</mask>
<path d="M202.695 862.026C191.631 854.859 184.981 842.619 185 829.49V30C185 13.4314 198.432 0 215 0H855C871.569 0 885 13.4315 885 30V829.49C885.019 842.621 878.369 854.862 867.305 862.026L551.294 1066.46C541.378 1072.87 528.62 1072.87 518.704 1066.46L202.695 862.026Z" fill="#C9D0D8" stroke="#EFF6FE" stroke-width="80" mask="url(#path-1-inside-1)"/>
<path d="M643.055 177.717C641.407 172.902 637.225 169.408 632.192 168.665L573.718 159.794L547.469 103.855C544.301 97.0476 536.227 94.1147 529.438 97.2648C526.541 98.6226 524.205 100.94 522.848 103.855L496.599 159.794L437.401 168.303C429.996 169.516 424.981 176.486 426.176 183.891C426.61 186.607 427.878 189.123 429.797 191.114L472.52 234.924L462.02 297.381C460.807 304.786 465.804 311.774 473.208 312.987C476.196 313.476 479.273 312.951 481.935 311.503L534.434 282.538L586.572 311.321C593.144 314.924 601.399 312.498 605.002 305.926C606.45 303.265 606.975 300.187 606.487 297.2L596.529 235.286L639.253 191.477C643.018 187.982 644.485 182.66 643.055 177.717Z" fill="white"/>
<path d="M643.055 177.717C641.407 172.902 637.225 169.408 632.192 168.665L623.14 167.217L621.873 169.027L585.667 206.32C581.666 210.447 579.837 216.223 580.779 221.889L588.744 274.751C589.957 282.156 584.961 289.144 577.556 290.357C574.569 290.846 571.491 290.321 568.83 288.872L525.382 264.794C519.788 261.553 512.872 261.553 507.278 264.794L463.83 288.872L462.02 297.381C460.807 304.786 465.804 311.774 473.208 312.987C476.195 313.476 479.273 312.951 481.935 311.503L534.434 282.538L586.572 311.321C593.144 314.924 601.399 312.498 605.002 305.926C606.45 303.265 606.975 300.187 606.486 297.2L596.529 235.286L639.253 191.477C643.018 187.982 644.485 182.66 643.055 177.717Z" fill="#ACBBCC"/>
<path d="M643.055 464.59C641.407 459.774 637.225 456.28 632.192 455.538L573.718 446.667L547.469 390.727C544.301 383.92 536.227 380.987 529.438 384.137C526.541 385.495 524.205 387.812 522.848 390.727L496.599 446.667L437.401 455.176C429.996 456.389 424.981 463.359 426.176 470.763C426.61 473.479 427.878 475.995 429.797 477.987L472.52 521.797L462.02 584.254C460.807 591.658 465.804 598.646 473.208 599.859C476.196 600.348 479.273 599.823 481.935 598.375L534.434 569.41L586.572 598.194C593.144 601.797 601.399 599.371 605.002 592.799C606.45 590.137 606.975 587.06 606.487 584.073L596.529 522.159L639.253 478.349C643.018 474.855 644.485 469.532 643.055 464.59Z" fill="white"/>
<path d="M643.055 464.59C641.407 459.774 637.225 456.28 632.192 455.538L623.14 454.089L621.873 455.9L585.667 493.192C581.666 497.32 579.837 503.095 580.779 508.762L588.744 561.623C589.957 569.028 584.961 576.016 577.556 577.229C574.569 577.718 571.491 577.193 568.83 575.745L525.382 551.666C519.788 548.425 512.872 548.425 507.278 551.666L463.83 575.745L462.02 584.254C460.807 591.658 465.804 598.646 473.208 599.859C476.195 600.348 479.273 599.823 481.935 598.375L534.434 569.41L586.572 598.194C593.144 601.797 601.399 599.371 605.002 592.799C606.45 590.137 606.975 587.06 606.486 584.073L596.529 522.159L639.253 478.349C643.018 474.855 644.485 469.532 643.055 464.59Z" fill="#ACBBCC"/>
<path d="M643.055 751.717C641.407 746.902 637.225 743.408 632.192 742.665L573.718 733.794L547.469 677.855C544.301 671.048 536.227 668.115 529.438 671.265C526.541 672.623 524.205 674.94 522.848 677.855L496.599 733.794L437.401 742.303C429.996 743.516 424.981 750.486 426.176 757.891C426.61 760.607 427.878 763.123 429.797 765.114L472.52 808.924L462.02 871.381C460.807 878.786 465.804 885.774 473.208 886.987C476.196 887.476 479.273 886.951 481.935 885.503L534.434 856.538L586.572 885.321C593.144 888.924 601.399 886.498 605.002 879.926C606.45 877.265 606.975 874.187 606.487 871.2L596.529 809.286L639.253 765.477C643.018 761.982 644.485 756.66 643.055 751.717Z" fill="white"/>
<path d="M643.055 751.717C641.407 746.902 637.225 743.408 632.192 742.665L623.14 741.217L621.873 743.027L585.667 780.32C581.666 784.447 579.837 790.223 580.779 795.889L588.744 848.751C589.957 856.156 584.961 863.144 577.556 864.357C574.569 864.846 571.491 864.321 568.83 862.872L525.382 838.794C519.788 835.553 512.872 835.553 507.278 838.794L463.83 862.872L462.02 871.381C460.807 878.786 465.804 885.774 473.208 886.987C476.195 887.476 479.273 886.951 481.935 885.503L534.434 856.538L586.572 885.321C593.144 888.924 601.399 886.498 605.002 879.926C606.45 877.265 606.975 874.187 606.486 871.2L596.529 809.286L639.253 765.477C643.018 761.982 644.485 756.66 643.055 751.717Z" fill="#ACBBCC"/>
</g>
<defs>
<clipPath id="clip0">
<rect width="1070" height="1075" fill="white"/>
</clipPath>
</defs>
</svg>
