<svg width="1070" height="1075" viewBox="0 0 1070 1075" fill="none" xmlns="http://www.w3.org/2000/svg">
<g clip-path="url(#clip0)">
<mask id="path-1-inside-1" fill="white">
<path d="M202.695 862.026C191.631 854.859 184.981 842.619 185 829.49V30C185 13.4314 198.432 0 215 0H855C871.569 0 885 13.4315 885 30V829.49C885.019 842.621 878.369 854.862 867.305 862.026L551.294 1066.46C541.378 1072.87 528.62 1072.87 518.704 1066.46L202.695 862.026Z"/>
</mask>
<path d="M202.695 862.026C191.631 854.859 184.981 842.619 185 829.49V30C185 13.4314 198.432 0 215 0H855C871.569 0 885 13.4315 885 30V829.49C885.019 842.621 878.369 854.862 867.305 862.026L551.294 1066.46C541.378 1072.87 528.62 1072.87 518.704 1066.46L202.695 862.026Z" fill="#C9D0D8" stroke="#EFF6FE" stroke-width="80" mask="url(#path-1-inside-1)"/>
<path d="M778.79 401.892C775.103 391.114 765.743 383.294 754.479 381.632L623.608 361.778L564.86 236.58C557.77 221.345 539.698 214.78 524.504 221.831C518.021 224.87 512.794 230.056 509.755 236.58L451.007 361.778L318.516 380.822C301.943 383.537 290.72 399.137 293.394 415.709C294.366 421.787 297.203 427.419 301.498 431.876L397.117 529.926L373.616 669.712C370.902 686.284 382.085 701.924 398.657 704.639C405.343 705.733 412.231 704.558 418.187 701.316L535.687 636.491L652.376 700.911C667.085 708.974 685.561 703.545 693.624 688.837C696.866 682.88 698.041 675.992 696.947 669.306L674.662 530.737L770.281 432.686C778.709 424.866 781.991 412.953 778.79 401.892Z" fill="white"/>
<path d="M778.79 401.892C775.103 391.114 765.743 383.294 754.479 381.632L734.219 378.391L731.383 382.443L650.35 465.907C641.396 475.145 637.303 488.07 639.41 500.753L657.239 619.063C659.953 635.635 648.77 651.275 632.198 653.99C625.512 655.084 618.624 653.909 612.668 650.668L515.427 596.778C502.907 589.525 487.429 589.525 474.909 596.778L377.668 650.668L373.616 669.712C370.902 686.284 382.085 701.924 398.657 704.639C405.343 705.733 412.231 704.558 418.187 701.316L535.687 636.491L652.376 700.911C667.085 708.974 685.561 703.545 693.624 688.837C696.866 682.88 698.041 675.992 696.947 669.306L674.662 530.737L770.281 432.686C778.709 424.866 781.991 412.953 778.79 401.892Z" fill="#ACBBCC"/>
</g>
<defs>
<clipPath id="clip0">
<rect width="1070" height="1075" fill="white"/>
</clipPath>
</defs>
</svg>
