<svg width="1052" height="1075" viewBox="0 0 1052 1075" fill="none" xmlns="http://www.w3.org/2000/svg">
<g clip-path="url(#clip0)">
<mask id="path-1-inside-1" fill="white">
<path d="M202.695 862.026C191.631 854.859 184.981 842.619 185 829.49V30C185 13.4314 198.432 0 215 0H855C871.569 0 885 13.4315 885 30V829.49C885.019 842.621 878.369 854.862 867.305 862.026L551.294 1066.46C541.378 1072.87 528.62 1072.87 518.704 1066.46L202.695 862.026Z"/>
</mask>
<path d="M202.695 862.026C191.631 854.859 184.981 842.619 185 829.49V30C185 13.4314 198.432 0 215 0H855C871.569 0 885 13.4315 885 30V829.49C885.019 842.621 878.369 854.862 867.305 862.026L551.294 1066.46C541.378 1072.87 528.62 1072.87 518.704 1066.46L202.695 862.026Z" fill="white" stroke="#67E5DD" stroke-width="80" mask="url(#path-1-inside-1)"/>
<path d="M657.97 388.941H412.204C407.691 388.941 403.485 391.225 401.027 395.009L345.151 481.04C341.88 486.077 342.381 492.679 346.376 497.164L525.039 697.745C530.339 703.695 539.642 703.696 544.942 697.745L723.624 497.153C727.614 492.673 728.12 486.08 724.859 481.044L669.157 395.024C666.701 391.231 662.49 388.941 657.97 388.941Z" fill="#67E5DD"/>
<path d="M669.157 395.024C666.701 391.231 662.489 388.941 657.97 388.941H412.204C407.691 388.941 403.485 391.225 401.027 395.009L345.151 481.04C343.422 483.702 342.758 486.8 343.095 489.793H726.904C727.244 486.803 726.583 483.706 724.859 481.044L669.157 395.024Z" fill="#96EDE7"/>
<path d="M599.844 489.793L534.99 700.3L470.137 489.793H599.844Z" fill="#C0F4F1"/>
<path d="M470.137 489.793L534.99 389.567L599.844 489.793H470.137Z" fill="#67E5DD"/>
<path d="M337.813 489.793L402.666 389.567L467.52 489.793H337.813Z" fill="#C0F4F1"/>
<path d="M598.146 489.793L663 389.567L727.854 489.793H598.146Z" fill="#C0F4F1"/>
<path d="M677.551 389.589C673.234 382.922 665.914 378.941 657.971 378.941H412.204C404.273 378.941 396.96 382.912 392.641 389.562L336.765 475.592C331.055 484.382 331.937 495.988 338.91 503.814L517.572 704.394C521.994 709.358 528.342 712.206 534.99 712.206C534.991 712.206 534.99 712.206 534.991 712.206C541.638 712.206 547.988 709.359 552.41 704.395L731.092 503.803C738.055 495.987 738.944 484.393 733.254 475.608L677.551 389.589ZM586.299 499.793L534.99 666.336L483.681 499.793H586.299ZM488.518 479.793L534.99 407.974L581.462 479.793H488.518ZM552.967 398.941H646.687L599.841 471.381L552.967 398.941ZM470.268 471.183L423.539 398.942H517.013L470.268 471.183ZM515.97 672.529L362.109 499.793H462.754L515.97 672.529ZM607.227 499.793H707.881L554.009 672.533L607.227 499.793ZM712.136 479.793H618.22L665.147 407.228L712.136 479.793ZM405.048 407.178L452.018 479.793H357.885L405.048 407.178Z" fill="black"/>
<path d="M309.333 479.793H289C283.478 479.793 279 484.27 279 489.793C279 495.316 283.478 499.793 289 499.793H309.333C314.855 499.793 319.333 495.316 319.333 489.793C319.333 484.27 314.855 479.793 309.333 479.793Z" fill="black"/>
<path d="M781 479.793H760.667C755.145 479.793 750.667 484.27 750.667 489.793C750.667 495.316 755.145 499.793 760.667 499.793H781C786.522 499.793 791 495.316 791 489.793C791 484.27 786.522 479.793 781 479.793Z" fill="black"/>
<path d="M675.858 359.114C678.418 359.114 680.976 358.137 682.929 356.185L716.146 322.968C720.051 319.063 720.051 312.731 716.146 308.826C712.24 304.921 705.91 304.921 702.003 308.826L668.786 342.043C664.881 345.948 664.881 352.28 668.786 356.185C670.74 358.138 673.299 359.114 675.858 359.114Z" fill="black"/>
<path d="M387.504 356.006C389.457 357.959 392.016 358.935 394.575 358.935C397.134 358.935 399.693 357.958 401.646 356.006C405.551 352.101 405.551 345.769 401.646 341.864L368.43 308.647C364.526 304.742 358.196 304.742 354.287 308.647C350.382 312.552 350.382 318.884 354.287 322.789L387.504 356.006Z" fill="black"/>
<path d="M535.254 318.961C540.776 318.961 545.254 314.484 545.254 308.961V243.793C545.254 238.27 540.776 233.793 535.254 233.793C529.732 233.793 525.254 238.27 525.254 243.793V308.961C525.254 314.484 529.731 318.961 535.254 318.961Z" fill="black"/>
<path d="M535.25 352.79C537.88 352.79 540.46 351.73 542.319 349.86C544.189 348 545.25 345.42 545.25 342.79C545.25 340.16 544.189 337.58 542.319 335.72C540.46 333.86 537.88 332.79 535.25 332.79C532.62 332.79 530.04 333.86 528.18 335.72C526.32 337.58 525.25 340.16 525.25 342.79C525.25 345.43 526.319 348 528.18 349.86C530.04 351.73 532.62 352.79 535.25 352.79Z" fill="black"/>
</g>
<defs>
<clipPath id="clip0">
<rect width="1070" height="1075" fill="white"/>
</clipPath>
</defs>
</svg>
