<svg width="16" height="16" viewBox="0 0 16 16" fill="none" xmlns="http://www.w3.org/2000/svg">
<g clip-path="url(#clip0)">
<path d="M8.5 1.5L6.5 3.5M6.5 3.5L8.5 5.5M6.5 3.5H9.5C11.1569 3.5 12.5 4.84315 12.5 6.5V11.5M2.5 5.5C3.60457 5.5 4.5 4.60457 4.5 3.5C4.5 2.39543 3.60457 1.5 2.5 1.5C1.39543 1.5 0.5 2.39543 0.5 3.5C0.5 4.60457 1.39543 5.5 2.5 5.5ZM2.5 5.5V10.5C2.5 12.1569 3.84315 13.5 5.5 13.5H8M6.5 15.5L8.5 13.5L6.5 11.5M12.5 11.5C11.3954 11.5 10.5 12.3954 10.5 13.5C10.5 14.6046 11.3954 15.5 12.5 15.5C13.6046 15.5 14.5 14.6046 14.5 13.5C14.5 12.3954 13.6046 11.5 12.5 11.5Z" stroke="#2C2F33" stroke-width="1.2"/>
</g>
<defs>
<clipPath id="clip0">
<rect width="16" height="16" fill="white"/>
</clipPath>
</defs>
</svg>
