<?xml version="1.0" encoding="UTF-8" standalone="no"?>
<svg width="24px" height="14px" viewBox="0 0 24 14" version="1.1" xmlns="http://www.w3.org/2000/svg" xmlns:xlink="http://www.w3.org/1999/xlink">
    <!-- Generator: Sketch 40.3 (33839) - http://www.bohemiancoding.com/sketch -->
    <title>vk</title>
    <desc>Created with Sketch.</desc>
    <defs></defs>
    <g id="Page-1" stroke="none" stroke-width="1" fill="none" fill-rule="evenodd">
        <g id="Личный-кабинет" transform="translate(-735.000000, -1593.000000)">
            <g id="vk" transform="translate(735.000000, 1593.000000)">
                <path d="M12.6391598,13.9568898 C13.4107813,13.9568898 13.4107813,12.8395632 13.4107813,12.4061242 C13.4107813,11.6307415 14.1824027,10.8553587 14.9540242,10.8553587 C15.7256457,10.8553587 17.0489765,12.1851402 18.0405101,13.181507 C18.8121316,13.9568898 18.8121316,13.9568898 19.5837531,13.9568898 L21.8986175,13.9568898 C21.8986175,13.9568898 23.4418605,13.8979607 23.4418605,12.4061242 C23.4418605,11.92151 22.9132998,11.0996043 21.126996,9.30459318 C19.5837531,7.75382765 18.7920694,8.55479805 21.126996,5.42767936 C22.5490944,3.52333929 23.5838388,1.79811263 23.4063659,1.3003169 C23.2366092,0.825007262 19.2812775,0.0682336834 18.8121316,0.775382765 C17.2688887,3.10153106 16.9857036,3.67143739 16.4972672,4.65229659 C15.7256457,6.20306212 15.6492552,6.97844489 14.9540242,6.97844489 C14.2526203,6.97844489 14.1824027,5.47342694 14.1824027,4.65229659 C14.1824027,2.08888117 14.5520094,0.276036264 13.4107813,0 L11.0959168,0 C9.85360626,0 8.78105241,0.775382765 8.78105241,0.775382765 C8.78105241,0.775382765 7.82347015,1.52595328 8.00943093,1.55076553 C8.23937413,1.58178084 9.55267388,1.22975707 9.55267388,2.3261483 L9.55267388,3.87691383 C9.55267388,3.87691383 9.55961848,6.97844489 8.78105241,6.97844489 C8.00943093,6.97844489 6.46618798,3.87691383 4.92294502,1.55076553 C4.31722216,0.638140016 4.15132355,0.775382765 3.37970207,0.775382765 C2.55252385,0.775382765 1.83723074,0.807948842 1.06483764,0.807948842 C0.293216161,0.807948842 0.194448612,1.30186766 0.293216161,1.55076553 C1.83645911,5.42767936 2.94527918,7.86238124 5.87744079,10.9297955 C8.56654164,13.7436595 10.3628764,13.8933084 11.8675383,13.9568898 C12.2533491,13.9731728 11.8675383,13.9568898 12.6391598,13.9568898 L12.6391598,13.9568898 Z" id="VK"></path>
            </g>
        </g>
    </g>
</svg>