<svg xmlns="http://www.w3.org/2000/svg" viewBox="0 0 189.74 43" fill="#fff">
    <g >
        <g><path class="cls-1" d="M7,4V6.5a1.5,1.5,0,1,0,3,0V4H29V6.5a1.5,1.5,0,1,0,3,0V4h1.39A5.6,5.6,0,0,1,39,9.61V37.39A5.6,5.6,0,0,1,33.39,43H5.61A5.6,5.6,0,0,1,0,37.39V9.61A5.6,5.6,0,0,1,5.61,4Zm4,11.5V17h5V14H12.5A1.5,1.5,0,0,0,11,15.5ZM17,14v3h5V14Zm6,0v3h5V15.5A1.5,1.5,0,0,0,26.5,14ZM11,18v3h5V18Zm12,0v3h5V18ZM11,22v3h5V22Zm12,0v3h5V22Zm0,4v3h5V26ZM11,30v1.5A1.5,1.5,0,0,0,12.5,33H16V30Zm3-4v3h5V26Zm9,4v3h3.5A1.5,1.5,0,0,0,28,31.5V30Zm-6-8v3h5V22ZM7,1.5a1.5,1.5,0,1,1,3,0v3a1.5,1.5,0,1,1-3,0Zm22,0a1.5,1.5,0,1,1,3,0v3a1.5,1.5,0,1,1-3,0ZM55.72,26.26h3.52v5.18a3,3,0,0,1-3,3H52.65a3,3,0,0,1-3-3V16.64a3,3,0,0,1,3-3H56.2a3,3,0,0,1,3,3v4.85H55.72v-4a1.3,1.3,0,1,0-2.59,0v13.1a1.3,1.3,0,1,0,2.59,0Zm11,1.15h3.51v4a3,3,0,0,1-3,3H63.69a3,3,0,0,1-3-3V16.64a3,3,0,0,1,3-3h3.55a3,3,0,0,1,3,3V24.3h-6.1v6.29a1.3,1.3,0,1,0,2.59,0Zm0-5.7V17.49a1.3,1.3,0,1,0-2.59,0v4.22ZM75.39,20H71.88v-3.4a3,3,0,0,1,3-3h3.55a3,3,0,0,1,3,3v4A2.52,2.52,0,0,1,81,22.08a3.61,3.61,0,0,1-1.3,1.15l-3,1.63a2.38,2.38,0,0,0-.93.92,2.52,2.52,0,0,0-.37,1.3v3.52a1.3,1.3,0,1,0,2.59,0V27.22H81.5v4.22a3,3,0,0,1-3,3H74.91a3,3,0,0,1-3-3V26a2.5,2.5,0,0,1,.5-1.42,3.61,3.61,0,0,1,1.24-1.13l3.07-1.67a2.61,2.61,0,0,0,.91-.92,2.43,2.43,0,0,0,.39-1.3V17.49a1.3,1.3,0,1,0-2.59,0Zm17.33-3.4v14.8a3,3,0,0,1-3,3H86.13a3,3,0,0,1-3-3V16.64a3,3,0,0,1,3-3h3.55a3,3,0,0,1,3,3ZM89.2,30.59V17.49a1.3,1.3,0,1,0-2.59,0v13.1a1.3,1.3,0,1,0,2.59,0ZM100.43,13.9h3.52V36.21a3,3,0,0,1-3,3H95.17V36.66h3.4a1.83,1.83,0,0,0,1.85-1.85V33A2.7,2.7,0,0,1,99.37,34a3,3,0,0,1-1.54.43A3.54,3.54,0,0,1,94.32,31V17.12a3.54,3.54,0,0,1,3.51-3.52,2.88,2.88,0,0,1,1.67.48,3,3,0,0,1,.92,1Zm0,16.69V17.49a1.3,1.3,0,1,0-2.59,0v13.1a1.3,1.3,0,1,0,2.59,0Zm5.12,3.59V13.9h3.51v8.29h2.59V13.9h3.51V34.18h-3.51v-9.4h-2.59v9.4Zm20.84,0h-3.51V25.74h-1.29a1.26,1.26,0,0,0-1.3,1.3v7.14h-3.51V27a2.26,2.26,0,0,1,.63-1.57,2.29,2.29,0,0,1,1.55-.76,3,3,0,0,1-1.57-1,2.57,2.57,0,0,1-.61-1.65v-5a3,3,0,0,1,3-3h6.59Zm-3.51-11V16.49h-1.29a1.26,1.26,0,0,0-1.3,1.3v4.07a1.26,1.26,0,0,0,1.3,1.3Z"/><path class="cls-1" d="M132.14,34.15H128.4V30.37h3.74Z"/><path class="cls-1" d="M137.72,20.36H134.3V17a3,3,0,0,1,3-3h3.46a3,3,0,0,1,3,3v3.89a2.46,2.46,0,0,1-.5,1.4,3.51,3.51,0,0,1-1.26,1.12L139,25a2.32,2.32,0,0,0-.9.9,2.45,2.45,0,0,0-.36,1.26v3.42a1.26,1.26,0,1,0,2.52,0V27.34h3.42v4.1a3,3,0,0,1-3,3h-3.46a3,3,0,0,1-3-3V26.16a2.43,2.43,0,0,1,.49-1.39,3.5,3.5,0,0,1,1.21-1.1l3-1.62a2.54,2.54,0,0,0,.88-.9,2.37,2.37,0,0,0,.38-1.26v-2a1.26,1.26,0,1,0-2.52,0Z"/><path class="cls-1" d="M151.76,27.52h3.42v3.92a3,3,0,0,1-3,3h-3.46a3,3,0,0,1-3-3V17a3,3,0,0,1,3-3h3.46a3,3,0,0,1,3,3V24.5h-5.94v6.12a1.26,1.26,0,1,0,2.52,0Zm0-5.54v-4.1a1.26,1.26,0,1,0-2.52,0V22Z"/><path class="cls-1" d="M157.34,39V14.38h3.42v1.15a3.09,3.09,0,0,1,.86-1,2.86,2.86,0,0,1,1.66-.47,3.44,3.44,0,0,1,3.42,3.42V31a3.44,3.44,0,0,1-3.42,3.42,2.9,2.9,0,0,1-1.48-.4,2.72,2.72,0,0,1-1-1v6Zm5.94-8.39V17.88a1.26,1.26,0,1,0-2.52,0V30.62a1.26,1.26,0,1,0,2.52,0Z"/><path class="cls-1" d="M178.22,17v14.4a3,3,0,0,1-3,3h-3.46a3,3,0,0,1-3-3V17a3,3,0,0,1,3-3h3.46a3,3,0,0,1,3,3ZM174.8,30.62V17.88a1.26,1.26,0,1,0-2.52,0V30.62a1.26,1.26,0,1,0,2.52,0Z"/><path class="cls-1" d="M189.74,34.11h-3.42V33a2.63,2.63,0,0,1-1,1,2.9,2.9,0,0,1-1.49.41A3.44,3.44,0,0,1,180.38,31V14.38h3.42V30.62a1.26,1.26,0,1,0,2.52,0V14.38h3.42ZM181.1,10h2.52a.76.76,0,0,0,.86.86h1.08a.76.76,0,0,0,.86-.86h2.52a2.41,2.41,0,0,1-2.52,2.52h-2.81A2.41,2.41,0,0,1,181.1,10Z"/></g></g></svg>