<svg xmlns="http://www.w3.org/2000/svg" width="127" height="43" viewBox="0 0 127 43">
  <g fill="#000000">
    <path d="M7 4L7 6.49526119C7 7.33168447 7.67157288 8 8.5 8 9.33420277 8 10 7.32630549 10 6.49526119L10 4 29 4 29 6.49526119C29 7.33168447 29.6715729 8 30.5 8 31.3342028 8 32 7.32630549 32 6.49526119L32 4 33.3914981 4C36.4889882 4 39 6.49895321 39 9.60850189L39 37.3914981C39 40.4889882 36.5010468 43 33.3914981 43L5.60850189 43C2.51101182 43 0 40.5010468 0 37.3914981L0 9.60850189C0 6.51101182 2.49895321 4 5.60850189 4L7 4zM11 15.5L11 17 16 17 16 14 12.5001649 14C11.6743222 14 11 14.6715729 11 15.5zM17 14L17 17 22 17 22 14 17 14zM23 14L23 17 28 17 28 15.5C28 14.6657972 27.3283533 14 26.4998351 14L23 14zM11 18L11 21 16 21 16 18 11 18zM23 18L23 21 28 21 28 18 23 18zM11 22L11 25 16 25 16 22 11 22zM23 22L23 25 28 25 28 22 23 22zM23 26L23 29 28 29 28 26 23 26zM11 30L11 31.5C11 32.3342028 11.6716467 33 12.5001649 33L16 33 16 30 11 30zM14 26L14 29 19 29 19 26 14 26zM23 30L23 33 26.4998351 33C27.3256778 33 28 32.3284271 28 31.5L28 30 23 30zM17 22L17 25 22 25 22 22 17 22zM7 1.50473881C7 .673694512 7.66579723 0 8.5 0 9.32842712 0 10 .66831553 10 1.50473881L10 4.49526119C10 5.32630549 9.33420277 6 8.5 6 7.67157288 6 7 5.33168447 7 4.49526119L7 1.50473881zM29 1.50473881C29 .673694512 29.6657972 0 30.5 0 31.3284271 0 32 .66831553 32 1.50473881L32 4.49526119C32 5.32630549 31.3342028 6 30.5 6 29.6715729 6 29 5.33168447 29 4.49526119L29 1.50473881zM55.7184505 26.2585788L59.2334505 26.2585788 59.2334505 31.4385788C59.2334505 32.2772496 58.9374535 32.9925758 58.3454505 33.5845788 57.7534476 34.1765817 57.0381214 34.4725788 56.1994505 34.4725788L52.6474505 34.4725788C51.8087797 34.4725788 51.0934535 34.1765817 50.5014505 33.5845788 49.9094476 32.9925758 49.6134505 32.2772496 49.6134505 31.4385788L49.6134505 16.6385788C49.6134505 15.7999079 49.9094476 15.0845817 50.5014505 14.4925788 51.0934535 13.9005758 51.8087797 13.6045788 52.6474505 13.6045788L56.1994505 13.6045788C57.0381214 13.6045788 57.7534476 13.9005758 58.3454505 14.4925788 58.9374535 15.0845817 59.2334505 15.7999079 59.2334505 16.6385788L59.2334505 21.4855788 55.7184505 21.4855788 55.7184505 17.4895788C55.7184505 17.1195769 55.5951184 16.8112467 55.3484505 16.5645788 55.1017826 16.3179109 54.7934524 16.1945788 54.4234505 16.1945788 54.0534487 16.1945788 53.7451184 16.3179109 53.4984505 16.5645788 53.2517826 16.8112467 53.1284505 17.1195769 53.1284505 17.4895788L53.1284505 30.5875788C53.1284505 30.9575806 53.2517826 31.2659109 53.4984505 31.5125788 53.7451184 31.7592467 54.0534487 31.8825788 54.4234505 31.8825788 54.7934524 31.8825788 55.1017826 31.7592467 55.3484505 31.5125788 55.5951184 31.2659109 55.7184505 30.9575806 55.7184505 30.5875788L55.7184505 26.2585788zM66.756784 27.4055788L70.271784 27.4055788 70.271784 31.4385788C70.271784 32.2772496 69.9757869 32.9925758 69.383784 33.5845788 68.791781 34.1765817 68.0764548 34.4725788 67.237784 34.4725788L63.685784 34.4725788C62.8471131 34.4725788 62.1317869 34.1765817 61.539784 33.5845788 60.947781 32.9925758 60.651784 32.2772496 60.651784 31.4385788L60.651784 16.6385788C60.651784 15.7999079 60.947781 15.0845817 61.539784 14.4925788 62.1317869 13.9005758 62.8471131 13.6045788 63.685784 13.6045788L67.237784 13.6045788C68.0764548 13.6045788 68.791781 13.9005758 69.383784 14.4925788 69.9757869 15.0845817 70.271784 15.7999079 70.271784 16.6385788L70.271784 24.2975788 64.166784 24.2975788 64.166784 30.5875788C64.166784 30.9575806 64.2901161 31.2659109 64.536784 31.5125788 64.7834519 31.7592467 65.0917821 31.8825788 65.461784 31.8825788 65.8317858 31.8825788 66.1401161 31.7592467 66.386784 31.5125788 66.6334519 31.2659109 66.756784 30.9575806 66.756784 30.5875788L66.756784 27.4055788zM66.756784 21.7075788L66.756784 17.4895788C66.756784 17.1195769 66.6334519 16.8112467 66.386784 16.5645788 66.1401161 16.3179109 65.8317858 16.1945788 65.461784 16.1945788 65.0917821 16.1945788 64.7834519 16.3179109 64.536784 16.5645788 64.2901161 16.8112467 64.166784 17.1195769 64.166784 17.4895788L64.166784 21.7075788 66.756784 21.7075788zM75.3901174 20.0425788L71.8751174 20.0425788 71.8751174 16.6385788C71.8751174 15.7999079 72.1711145 15.0845817 72.7631174 14.4925788 73.3551204 13.9005758 74.0704466 13.6045788 74.9091174 13.6045788L78.4611174 13.6045788C79.2997883 13.6045788 80.0151145 13.9005758 80.6071174 14.4925788 81.1991204 15.0845817 81.4951174 15.7999079 81.4951174 16.6385788L81.4951174 20.6345788C81.4951174 21.1032478 81.3224525 21.584243 80.9771174 22.0775788 80.6317824 22.5709146 80.20012 22.9532441 79.6821174 23.2245788L76.6851174 24.8525788C76.3151156 25.0499131 76.0067853 25.3582433 75.7601174 25.7775788 75.5134495 26.1969142 75.3901174 26.6285766 75.3901174 27.0725788L75.3901174 30.5875788C75.3901174 30.9575806 75.5134495 31.2659109 75.7601174 31.5125788 76.0067853 31.7592467 76.3151156 31.8825788 76.6851174 31.8825788 77.0551193 31.8825788 77.3634495 31.7592467 77.6101174 31.5125788 77.8567853 31.2659109 77.9801174 30.9575806 77.9801174 30.5875788L77.9801174 27.2205788 81.4951174 27.2205788 81.4951174 31.4385788C81.4951174 32.2772496 81.1991204 32.9925758 80.6071174 33.5845788 80.0151145 34.1765817 79.2997883 34.4725788 78.4611174 34.4725788L74.9091174 34.4725788C74.0704466 34.4725788 73.3551204 34.1765817 72.7631174 33.5845788 72.1711145 32.9925758 71.8751174 32.2772496 71.8751174 31.4385788L71.8751174 25.9995788C71.8751174 25.5309098 72.0416157 25.0560812 72.3746174 24.5750788 72.7076191 24.0940764 73.1207816 23.7179135 73.6141174 23.4465788L76.6851174 21.7815788C77.0304525 21.5842445 77.3326161 21.2759142 77.5916174 20.8565788 77.8506187 20.4372433 77.9801174 20.005581 77.9801174 19.5615788L77.9801174 17.4895788C77.9801174 17.1195769 77.8567853 16.8112467 77.6101174 16.5645788 77.3634495 16.3179109 77.0551193 16.1945788 76.6851174 16.1945788 76.3151156 16.1945788 76.0067853 16.3179109 75.7601174 16.5645788 75.5134495 16.8112467 75.3901174 17.1195769 75.3901174 17.4895788L75.3901174 20.0425788zM92.7184509 16.6385788L92.7184509 31.4385788C92.7184509 32.2772496 92.4224538 32.9925758 91.8304509 33.5845788 91.2384479 34.1765817 90.5231217 34.4725788 89.6844509 34.4725788L86.1324509 34.4725788C85.29378 34.4725788 84.5784538 34.1765817 83.9864509 33.5845788 83.3944479 32.9925758 83.0984509 32.2772496 83.0984509 31.4385788L83.0984509 16.6385788C83.0984509 15.7999079 83.3944479 15.0845817 83.9864509 14.4925788 84.5784538 13.9005758 85.29378 13.6045788 86.1324509 13.6045788L89.6844509 13.6045788C90.5231217 13.6045788 91.2384479 13.9005758 91.8304509 14.4925788 92.4224538 15.0845817 92.7184509 15.7999079 92.7184509 16.6385788L92.7184509 16.6385788zM89.2034509 30.5875788L89.2034509 17.4895788C89.2034509 17.1195769 89.0801188 16.8112467 88.8334509 16.5645788 88.586783 16.3179109 88.2784527 16.1945788 87.9084509 16.1945788 87.538449 16.1945788 87.2301188 16.3179109 86.9834509 16.5645788 86.736783 16.8112467 86.6134509 17.1195769 86.6134509 17.4895788L86.6134509 30.5875788C86.6134509 30.9575806 86.736783 31.2659109 86.9834509 31.5125788 87.2301188 31.7592467 87.538449 31.8825788 87.9084509 31.8825788 88.2784527 31.8825788 88.586783 31.7592467 88.8334509 31.5125788 89.0801188 31.2659109 89.2034509 30.9575806 89.2034509 30.5875788L89.2034509 30.5875788zM100.426784 13.9005788L103.941784 13.9005788 103.941784 36.2115788C103.941784 37.0502496 103.645787 37.7655758 103.053784 38.3575788 102.461781 38.9495817 101.746455 39.2455788 100.907784 39.2455788L95.1727843 39.2455788 95.1727843 36.6555788 98.5767843 36.6555788C99.0947869 36.6555788 99.5326158 36.4767472 99.8902843 36.1190788 100.247953 35.7614103 100.426784 35.3235814 100.426784 34.8055788L100.426784 32.9925788C100.204783 33.4119142 99.8532867 33.7634107 99.3722843 34.0470788 98.8912819 34.3307469 98.3794537 34.4725788 97.8367843 34.4725788 96.8747795 34.4725788 96.0484544 34.1272489 95.3577843 33.4365788 94.6671142 32.7459087 94.3217843 31.9195836 94.3217843 30.9575788L94.3217843 17.1195788C94.3217843 16.157574 94.6671142 15.3312489 95.3577843 14.6405788 96.0484544 13.9499087 96.8747795 13.6045788 97.8367843 13.6045788 98.4781208 13.6045788 99.0331153 13.7649105 99.5017843 14.0855788 99.8717861 14.3322467 100.180116 14.6652433 100.426784 15.0845788L100.426784 13.9005788zM100.426784 30.5875788L100.426784 17.4895788C100.426784 17.1195769 100.303452 16.8112467 100.056784 16.5645788 99.8101164 16.3179109 99.5017861 16.1945788 99.1317843 16.1945788 98.7617824 16.1945788 98.4534522 16.3179109 98.2067843 16.5645788 97.9601164 16.8112467 97.8367843 17.1195769 97.8367843 17.4895788L97.8367843 30.5875788C97.8367843 30.9575806 97.9601164 31.2659109 98.2067843 31.5125788 98.4534522 31.7592467 98.7617824 31.8825788 99.1317843 31.8825788 99.5017861 31.8825788 99.8101164 31.7592467 100.056784 31.5125788 100.303452 31.2659109 100.426784 30.9575806 100.426784 30.5875788L100.426784 30.5875788zM105.545118 34.1765788L105.545118 13.9005788 109.060118 13.9005788 109.060118 22.1885788 111.650118 22.1885788 111.650118 13.9005788 115.165118 13.9005788 115.165118 34.1765788 111.650118 34.1765788 111.650118 24.7785788 109.060118 24.7785788 109.060118 34.1765788 105.545118 34.1765788zM126.388451 34.1765788L122.873451 34.1765788 122.873451 25.7405788 121.578451 25.7405788C121.208449 25.7405788 120.900119 25.8639109 120.653451 26.1105788 120.406783 26.3572467 120.283451 26.6655769 120.283451 27.0355788L120.283451 34.1765788 116.768451 34.1765788 116.768451 26.9615788C116.768451 26.3695758 116.978116 25.8454144 117.397451 25.3890788 117.816787 24.9327432 118.334781 24.6799124 118.951451 24.6305788 118.310115 24.4579112 117.785953 24.118748 117.378951 23.6130788 116.971949 23.1074096 116.768451 22.5585817 116.768451 21.9665788L116.768451 16.9345788C116.768451 16.0959079 117.064448 15.3805817 117.656451 14.7885788 118.248454 14.1965758 118.96378 13.9005788 119.802451 13.9005788L126.388451 13.9005788 126.388451 34.1765788zM122.873451 23.1505788L122.873451 16.4905788 121.578451 16.4905788C121.208449 16.4905788 120.900119 16.6139109 120.653451 16.8605788 120.406783 17.1072467 120.283451 17.4155769 120.283451 17.7855788L120.283451 21.8555788C120.283451 22.2255806 120.406783 22.5339109 120.653451 22.7805788 120.900119 23.0272467 121.208449 23.1505788 121.578451 23.1505788L122.873451 23.1505788z"/>
  </g>
</svg>
